<svg xmlns="http://www.w3.org/2000/svg"  viewBox="0 0 176.8 157.77">
  <defs>
    <style>
      .a {
        fill: #c52728;
      }

      .b {
        fill: #1786c8;
      }

      .c {
        fill: #e1f3fc;
      }

      .d {
        fill: #843b95;
      }

      .e {
        fill: #d57728;
      }

      .f {
        fill: #f05f6a;
      }

      .g {
        fill: #439f47;
      }

      .h {
        fill: #5e6bb1;
      }

      .i {
        fill: #f89e1b;
      }

      .j {
        fill: #ffca27;
      }
    </style>
  </defs>
  <g>
    <path class="a" d="M13.51,13.07a5.27,5.27,0,0,1-3.37-1.59l-.64-.57c-2.17-2-3.21-2.71-4.67-2A1.93,1.93,0,0,1,3.1,5.49c4-2,7,.75,9,2.56l.6.54c.15.14.28.24.39.33V2.07a1.93,1.93,0,0,1,3.86,0V9.13c0,.48-.29,2.89-2.26,3.7a3,3,0,0,1-1.18.24" transform="translate(0.01)"/>
    <path class="a" d="M31.58,13.07a3,3,0,0,1-1.18-.24c-2-.81-2.23-3.22-2.26-3.7V2.07a1.93,1.93,0,0,1,3.86,0V8.92c.11-.09.24-.19.39-.33l.6-.54c2-1.81,5-4.55,9-2.56a1.93,1.93,0,0,1-1.73,3.45c-1.47-.74-2.5,0-4.67,2-.22.19-.43.39-.65.57a5.19,5.19,0,0,1-3.36,1.59" transform="translate(0.01)"/>
    <path class="a" d="M19.91,19.17A1.93,1.93,0,0,1,18,17.24V2.32a1.93,1.93,0,0,1,3.86,0V17.24a2,2,0,0,1-1.93,1.93" transform="translate(0.01)"/>
    <path class="a" d="M25.18,19.17a2,2,0,0,1-1.93-1.93V2.32a1.93,1.93,0,0,1,3.86,0V17.24a1.92,1.92,0,0,1-1.93,1.93h0" transform="translate(0.01)"/>
  </g>
  <g>
    <path class="b" d="M104.06,0s5.31,14.53,1.06,16-7.8-13.11-7.8-13.11Z" transform="translate(0.01)"/>
    <path class="c" d="M103.36,13.67c.41.6.55,1.23.32,1.38s-.75-.21-1.16-.82-.56-1.23-.33-1.39.76.21,1.17.83" transform="translate(0.01)"/>
    <path class="c" d="M105.28,14c.27.68.27,1.32,0,1.42s-.69-.37-1-1-.28-1.33,0-1.43.69.37,1,1.06" transform="translate(0.01)"/>
    <path class="c" d="M106.25,12.34c.15.72,0,1.35-.22,1.41s-.62-.48-.77-1.2-.05-1.35.23-1.41.62.48.76,1.2" transform="translate(0.01)"/>
    <path class="b" d="M74.36,0S69,14.53,73.29,16s7.8-13.11,7.8-13.11Z" transform="translate(0.01)"/>
    <path class="c" d="M75.06,13.67c-.41.6-.56,1.23-.33,1.38s.76-.21,1.17-.82.55-1.23.32-1.39-.75.21-1.16.83" transform="translate(0.01)"/>
    <path class="c" d="M73.13,14c-.26.68-.27,1.32,0,1.42s.69-.37,1-1,.27-1.33,0-1.43-.69.37-1,1.06" transform="translate(0.01)"/>
    <path class="c" d="M72.16,12.34c-.15.72,0,1.35.23,1.41s.61-.48.76-1.2,0-1.35-.22-1.41-.62.48-.77,1.2" transform="translate(0.01)"/>
  </g>
  <g>
    <path class="d" d="M146.35,1.8s.9,19.24,4,17c2.69-2.69,1.79-17.45,1.79-17.45Z" transform="translate(0.01)"/>
    <path class="d" d="M168.42,1.8s-.89,19.24-4,17c-2.69-2.69-1.79-17.45-1.79-17.45Z" transform="translate(0.01)"/>
  </g>
  <g>
    <path class="e" d="M7.55,70.07s1.42,8.57,2,9.71a26.11,26.11,0,0,0-.86,2.86s5.14,1.71,7.43-1.43c2.43-2.43,1.71-9.14,1.71-9.14A10.41,10.41,0,0,0,7.55,70.07Z" transform="translate(0.01)"/>
    <path class="e" d="M40.51,70.07s-1.43,8.57-2,9.71a28.5,28.5,0,0,1,.86,2.86s-5.15,1.71-7.43-1.43c-2.43-2.43-1.72-9.14-1.72-9.14A10.42,10.42,0,0,1,40.51,70.07Z" transform="translate(0.01)"/>
  </g>
  <g>
    <path class="f" d="M84.61,78.18A2.94,2.94,0,0,0,84,73L82.41,58.6l-2.34.62,1.35,14.07a2.94,2.94,0,0,0-.89,4,3,3,0,0,0,1.39,1.14L83,90.18s-6.57,2.5-7.82,3.75c1.57.63,11-1.25,11-1.25Z" transform="translate(0.01)"/>
    <path class="f" d="M95.21,90.25l.38-11.82a2.92,2.92,0,0,0,.17-5.37l.45-13.89-2.38-.48-.66,14.42a2.93,2.93,0,0,0-1.25,4,3,3,0,0,0,1,1.11l-.69,14.77s9.48,1.28,11,.56C101.92,92.33,95.21,90.25,95.21,90.25Z" transform="translate(0.01)"/>
  </g>
  <g>
    <path class="g" d="M138.34,72.66A72.77,72.77,0,0,0,142.6,82c.14,0-4.39,1.23-4.53,2.47s8.1,1.37,9.62.27c1.37-1.65,1.92-6.87,1.92-6.87s1-7.28-6.46-7.41C143.15,70.47,139.31,70.12,138.34,72.66Z" transform="translate(0.01)"/>
    <path class="g" d="M176.51,72.87a71.43,71.43,0,0,1-4.26,9.34c-.14,0,4.39,1.24,4.53,2.47s-8.1,1.38-9.62.28c-1.37-1.65-1.92-6.87-1.92-6.87s-1-7.28,6.46-7.42C171.7,70.67,175.54,70.33,176.51,72.87Z" transform="translate(0.01)"/>
  </g>
  <g>
    <path class="h" d="M5.88,138.3a19.67,19.67,0,0,0,7.94,8.32C15.9,147.94-.55,149.08,0,150.78s17.78.75,19.48-.76-2.64-6.43-2.26-7.94S5.88,138.3,5.88,138.3Z" transform="translate(0.01)"/>
    <path class="h" d="M39.55,138.3a19.69,19.69,0,0,1-7.95,8.32c-2.08,1.32,14.38,2.46,13.81,4.16s-17.78.75-19.48-.76,2.65-6.43,2.27-7.94S39.55,138.3,39.55,138.3Z" transform="translate(0.01)"/>
  </g>
  <g>
    <path class="i" d="M83.8,143.86c-1.17-4.69-2.94-8.42-4.26-9.16a.77.77,0,0,0-.53-.24.75.75,0,0,0-.41.14c-1.33.42-3.24,4.31-4.47,9.26-1.36,5.46-1.38,10.15-.06,10.48.8.2,1.91-1.23,3-3.58.45,2.47,1.17,4.07,2,4.07s1.5-1.54,2-3.93c1,2.27,2.11,3.64,2.9,3.44C85.18,154,85.16,149.32,83.8,143.86Z" transform="translate(0.01)"/>
    <path class="i" d="M106,143.86c-1.17-4.69-2.94-8.42-4.26-9.16a.77.77,0,0,0-.53-.24.68.68,0,0,0-.41.14c-1.33.42-3.24,4.31-4.47,9.26C95,149.32,95,154,96.3,154.34c.8.2,1.91-1.23,3-3.58.45,2.47,1.17,4.07,2,4.07s1.5-1.54,2-3.93c1,2.27,2.11,3.64,2.89,3.44C107.41,154,107.39,149.32,106,143.86Z" transform="translate(0.01)"/>
  </g>
  <g>
    <path class="j" d="M142.26,130.66s-3.85,11.53,0,14.89S148.5,147,148.5,147s.48,12.5,3.85,10.57,3.36-13.45,1.44-14.89-7.21,1-8.17-1.92,1-8.65,1-8.65,1.2-2.88-1.92-3.36a2,2,0,0,0-2.39,1.51A1.83,1.83,0,0,0,142.26,130.66Z" transform="translate(0.01)"/>
    <path class="j" d="M173.08,130.66s3.84,11.53,0,14.89-6.25,1.44-6.25,1.44-.48,12.5-3.84,10.57-3.37-13.45-1.44-14.89,7.2,1,8.16-1.92-1-8.65-1-8.65-1.2-2.88,1.93-3.36a2,2,0,0,1,2.39,1.51A1.92,1.92,0,0,1,173.08,130.66Z" transform="translate(0.01)"/>
  </g>
</svg>
