<?xml version="1.0" encoding="UTF-8"?>
<svg width="132px" height="135px" viewBox="0 0 132 135" version="1.1" xmlns="http://www.w3.org/2000/svg" xmlns:xlink="http://www.w3.org/1999/xlink">
    <!-- Generator: Sketch 49.3 (51167) - http://www.bohemiancoding.com/sketch -->
    <title>Group</title>
    <desc>Created with Sketch.</desc>
    <defs></defs>
    <g id="Page-1" stroke="none" stroke-width="1" fill="none" fill-rule="evenodd">
        <g id="Monster-2021-06-05T00_12_30+02_00" transform="translate(0.000000, -1.000000)" fill-rule="nonzero">
            <g id="Group">
                <g id="Shape">
                    <g transform="translate(0.560000, 7.060000)" fill="#A036D9">
                        <path d="M130.88,56.4829 C130.88,92.5567 101.6774,128.4669 65.44,128.4669 C29.2026,128.4669 0,92.5567 0,56.4829 C5.90305582e-15,20.4091 31.0022,2.3722 67.076,2.3722 C103.1498,2.3722 130.5528,20.45 130.5528,56.4829"></path>
                    </g>
                    <g transform="translate(32.620000, 24.820000)">
                        <g>
                            <g transform="translate(1.018800, 1.245200)" fill="#FCEAED">
                                <path d="M59.5715,30.9885 C59.6287953,42.5047164 52.7356911,52.918868 42.1124951,57.3656905 C31.4892992,61.812513 19.232967,59.4142301 11.0693894,51.2912674 C2.90581186,43.1683046 0.446430406,30.9240863 4.84021439,20.278844 C9.23399838,9.63360163 19.6136411,2.68864253 31.13,2.6885 C46.78273,2.6885 59.49226,15.3386 59.5715,30.9885"></path>
                            </g>
                            <g transform="translate(12.310500, 12.508600)" fill="#37474F">
                                <path d="M32.1771,22.2438 C27.9158524,22.2645518 24.3790884,18.9559219 24.1160829,14.7027478 C23.8530775,10.4495737 26.9552604,6.73040821 31.1866,6.226 C24.8434959,0.914776566 15.6689283,0.700907348 9.0852279,5.71079282 C2.50152749,10.7206783 0.261855236,19.6202457 3.68989682,27.1496941 C7.1179384,34.6791426 15.3008472,38.8334698 23.4023803,37.1573953 C31.5039133,35.4813208 37.3667289,28.4211633 37.5258,20.1496 C36.0646229,21.4873344 34.158128,22.2337928 32.1771,22.2438"></path>
                            </g>
                        </g>
                    </g>
                    <g transform="translate(5.110000, 36.000000)">
                        <g>
                            <g transform="translate(0.738000, 0.902000)" fill="#FCEAED">
                                <path d="M43.1525,22.4475 C43.1940037,30.7896355 38.2007656,38.3334556 30.5055177,41.5546521 C22.8102697,44.7758486 13.9320079,43.0385766 8.0184623,37.1544516 C2.10491672,31.2703267 0.323385983,22.4008399 3.50616237,14.689622 C6.68893876,6.97840401 14.2077612,1.94760324 22.55,1.9475 C33.88855,1.9475 43.0951,11.111 43.1525,22.4475"></path>
                            </g>
                            <g transform="translate(8.917500, 9.061000)" fill="#37474F">
                                <path d="M23.3085,16.113 C20.2217305,16.1280322 17.6597637,13.7313215 17.4692474,10.6504003 C17.278731,7.56947915 19.5258954,4.87538404 22.591,4.51 C17.996172,0.662647336 11.3502838,0.507724404 6.58117216,4.13679338 C1.81206055,7.76586236 0.189683121,14.2125454 2.67289346,19.6667396 C5.15610379,25.1209337 11.0836526,28.130252 16.9522543,26.9161344 C22.8208559,25.7020169 27.0677718,20.5877685 27.183,14.596 C26.1245502,15.5650302 24.7435202,16.1057509 23.3085,16.113"></path>
                            </g>
                        </g>
                    </g>
                    <g transform="translate(79.120000, 37.040000)">
                        <g>
                            <g transform="translate(0.738000, 0.902000)" fill="#FCEAED">
                                <path d="M43.1525,22.4475 C43.1940037,30.7896355 38.2007656,38.3334556 30.5055177,41.5546521 C22.8102697,44.7758486 13.9320079,43.0385766 8.0184623,37.1544516 C2.10491672,31.2703267 0.323385983,22.4008399 3.50616237,14.689622 C6.68893876,6.97840401 14.2077612,1.94760324 22.55,1.9475 C33.88855,1.9475 43.0951,11.111 43.1525,22.4475"></path>
                            </g>
                            <g transform="translate(8.917500, 9.061000)" fill="#37474F">
                                <path d="M23.3085,16.113 C20.2217305,16.1280322 17.6597637,13.7313215 17.4692474,10.6504003 C17.278731,7.56947915 19.5258954,4.87538404 22.591,4.51 C17.996172,0.662647336 11.3502838,0.507724404 6.58117216,4.13679338 C1.81206055,7.76586236 0.189683121,14.2125454 2.67289346,19.6667396 C5.15610379,25.1209337 11.0836526,28.130252 16.9522543,26.9161344 C22.8208559,25.7020169 27.0677718,20.5877685 27.183,14.596 C26.1245502,15.5650302 24.7435202,16.1057509 23.3085,16.113"></path>
                            </g>
                        </g>
                    </g>
                    <g transform="translate(34.700000, 95.630000)" fill="#5A3EA8">
                        <path d="M60.5852,10.0084 C60.5852,23.3784 47.2152,34.0362 30.56,34.0362 C13.9048,34.0362 0.5348,23.2829 0.5348,10.0084 C0.5348,-3.2661 13.9048,0.9932 30.56,0.9932 C47.2152,0.9932 60.5852,-3.2661 60.5852,10.0084"></path>
                    </g>
                    <g transform="translate(41.010000, 95.450000)" fill="#FCEAED">
                        <path d="M0.8977,1.0696 C2.292,5.3862 5.1379,13.0644 8.2703,14.6306 C11.1162,16.044 10.7533,7.1052 10.1803,0.6112 C7.09806265,0.382988325 3.99943094,0.536957603 0.955,1.0696"></path>
                    </g>
                    <g transform="translate(77.090000, 95.460000)" fill="#FCEAED">
                        <path d="M1.2797,0.6494 C0.6685,7.1434 0.3056,16.0249 3.1897,14.6115 C6.3794,13.0262 9.2635,5.0615 10.6196,0.8595 C7.54005306,0.481402871 4.43050008,0.411022042 1.337,0.6494"></path>
                    </g>
                    <g transform="translate(26.600000, 0.780000)" fill="#FFCA27">
                        <path d="M21.2114,20.0778 C21.2114,20.0778 7.9788,16.0884 7.303,2.8558 C3.3354,-5.8642 -1.962,13.4506 2.0056,24.6558 C5.9732,35.861 9.2868,38.5642 9.2868,38.5642 L21.2114,20.0778 Z"></path>
                    </g>
                    <g transform="translate(80.300000, 0.780000)" fill="#FFCA27">
                        <path d="M0.5886,20.0778 C0.5886,20.0778 13.843,16.0884 14.5188,2.8558 C18.4864,-5.8642 23.7838,13.4506 19.8162,24.6558 C15.8486,35.861 12.5132,38.5642 12.5132,38.5642 L0.5886,20.0778 Z"></path>
                    </g>
                </g>
            </g>
        </g>
    </g>
</svg>