<svg xmlns="http://www.w3.org/2000/svg" viewBox="0 0 33 21"><g fill="none"><path fill="#E53A34" d="M21.03 20.02a7.2 7.2 0 0 1-1.08-.07 1.17 1.17 0 0 1 .35-2.31 6.78 6.78 0 0 0 5.31-1.72c1.86-1.92 2.35-5.34 1.47-10.16a1.174 1.174 0 0 1 2.31-.42c1 5.62.31 9.73-2.11 12.23a8.69 8.69 0 0 1-6.25 2.45z"/><circle cx="28.51" cy="5.28" r="4.32" fill="#FFCA27"/><path fill="#E53A34" d="M12.08 20.02a8.69 8.69 0 0 1-6.25-2.45c-2.42-2.5-3.13-6.61-2.11-12.23a1.174 1.174 0 0 1 2.31.42C5.15 10.58 5.65 14 7.5 15.92a6.77 6.77 0 0 0 5.32 1.72 1.17 1.17 0 0 1 1.32 1 1.16 1.16 0 0 1-1 1.32 7.05 7.05 0 0 1-1.06.06z"/><circle cx="4.61" cy="5.28" r="4.32" fill="#FFCA27"/></g></svg>