<svg xmlns="http://www.w3.org/2000/svg" viewBox="0 0 17 28"><g fill="none"><path fill="#F89E1B" d="M2.14 14.89c1.57 6.31 4 11.32 5.73 12.33.19.189.442.303.71.32a1 1 0 0 0 .55-.19c1.8-.58 4.36-5.8 6-12.46 1.83-7.34 1.86-13.65.07-14.1-1.07-.26-2.56 1.66-4 4.82C10.59 2.29 9.62.14 8.53.14c-1.09 0-2 2.07-2.62 5.28C4.52 2.42 3.07.53 2.02.79c-1.74.44-1.67 6.75.12 14.1z"/><path fill="#DB8C18" d="M15.22.78c-1.07-.26-2.56 1.66-4 4.82C10.61 2.28 9.64.13 8.55.13a1 1 0 0 0-.43.12V27.4a.89.89 0 0 0 .43.13 1 1 0 0 0 .55-.19c1.8-.58 4.36-5.8 6-12.46 1.88-7.34 1.91-13.65.12-14.1z"/></g></svg>