<svg xmlns="http://www.w3.org/2000/svg" viewBox="0 0 44 30"><g fill="none"><path fill="#D81B60" d="M10.61.57s-7.2 14.2-9.8 26.79c-.4 5 4.2-3.6 4.2-3.6s-.4 5.8.6 5.4c1-.4 2.68-5.29 3-10.64.36-5.55 3-10.35 3.16-11.95.16-1.6-.36-6-1.16-6z"/><path fill="#F89E1B" d="M1.96 23.36a5.09 5.09 0 0 1 1.73-5.19c.4.53.27 3.46-1.73 5.19z"/><path fill="#F89E1B" d="M4.22 17.5a5.1 5.1 0 0 1 1.74-5.2c.39.59.26 3.47-1.74 5.2z"/><g><path fill="#D81B60" d="M2.01.57s7.2 14.2 9.8 26.79c.4 5-4.2-3.6-4.2-3.6s.4 5.8-.6 5.4c-1-.4-2.68-5.29-3-10.64-.36-5.55-3-10.35-3.16-11.95-.16-1.6.36-6 1.16-6z" transform="translate(32)"/><path fill="#F89E1B" d="M10.66 23.36a5.09 5.09 0 0 0-1.73-5.19c-.4.53-.27 3.46 1.73 5.19z" transform="translate(32)"/><path fill="#F89E1B" d="M8.4 17.5a5.1 5.1 0 0 0-1.74-5.2c-.4.59-.26 3.47 1.74 5.2z" transform="translate(32)"/></g></g></svg>