<svg xmlns="http://www.w3.org/2000/svg" viewBox="0 0 36 19"><g fill="#1786C8"><path d="M30.1.3s2.95 3.37 4.06 12.54a8.55 8.55 0 0 1 1 5.66c-.41 1.68-3.32-1.41-3.32-1.41s.83-2.66-.14-2.52l-1 .14s-.69-1.12-.55-1.55c.14-.43 2.63-.28 2.63-1.26s-3.32-8.42-3.88-9.12c-.56-.7-.46-2.86 1.16-2.48"/><path d="M5.78.3s-3 3.37-4.07 12.54a8.55 8.55 0 0 0-1 5.66c.41 1.68 3.32-1.41 3.32-1.41s-.83-2.66.14-2.52l1 .14s.69-1.12.55-1.55c-.14-.43-2.67-.27-2.67-1.27s3.33-8.42 3.88-9.12c.55-.7.46-2.86-1.15-2.48"/></g></svg>