<svg xmlns="http://www.w3.org/2000/svg" viewBox="0 0 39 11"><g fill="none"><path fill="#9A509E" d="M27.61 4.47s3.1 3.87 3.61 3.87c.51 0 3-2.84 3.23-2.19.23.65-2.33 4.51-2.84 4.51-.51 0-4-3.22-4-3.22V4.47z"/><path fill="#843B95" d="M32.28 8.41a3.08 3.08 0 0 1-.58-4.78C34.04.71 36.37.71 36.37.71l-.58 3.5 2.8-.23s-1.05 7.47-6.31 4.43"/><path fill="#9A509E" d="M11.56 4.47S8.47 8.34 7.95 8.34s-3-2.84-3.22-2.19c-.22.65 2.32 4.51 2.83 4.51.51 0 4-3.22 4-3.22V4.47z"/><path fill="#843B95" d="M6.89 8.41a3.08 3.08 0 0 0 .58-4.78C5.14.71 2.8.71 2.8.71l.59 3.5-2.8-.23s1 7.47 6.3 4.43"/></g></svg>