<svg xmlns="http://www.w3.org/2000/svg" viewBox="0 0 42 23"><g fill="#E53A34"><path d="M11.2.62S5.92 2.57 2.98 6.29c-2.35 3.33-1.76 9.4-1.76 9.4S-1.52 20 2.59 22.54c0 0 1.11-.19.59-1-.52-.81-1.77-1.11-1.5-2.28.32.06 2.34 2.48 3.19 2.15.85-.33.39-.91-.19-1.3-.58-.39-2.09-1.11-2.16-1.7-.07-.59 1.18-.65 2.48.26.46.39 1.18-.26.53-.85a4.83 4.83 0 0 0-2.62-1.17c-.91-.07-.52-12.14 7.9-13.71a1.17 1.17 0 0 0 1.27-1.17C12.18.52 11.2.62 11.2.62z"/><path d="M30.48.62s5.28 1.95 8.22 5.67c2.35 3.33 1.76 9.4 1.76 9.4s2.74 4.31-1.37 6.85c0 0-1.11-.19-.59-1 .52-.81 1.77-1.11 1.51-2.28-.33.06-2.35 2.48-3.2 2.15-.85-.33-.39-.91.19-1.3.58-.39 2.09-1.11 2.16-1.7.07-.59-1.18-.65-2.48.26-.46.39-1.18-.26-.52-.85a4.77 4.77 0 0 1 2.61-1.17c.91-.07.52-12.14-7.9-13.71a1.17 1.17 0 0 1-1.27-1.17c-.1-1.25.88-1.15.88-1.15z"/></g></svg>