<svg xmlns="http://www.w3.org/2000/svg" viewBox="0 0 49 16"><g fill="none"><path fill="#439F47" d="M18.37 8.31 13.16 12.84 9.3 10.57 8.62 11.94 12.93 15.79 18.6 12.39z"/><path fill="#E53A34" d="m10.89 8.73 2.05 1.11-3.81 5.47-1.61-2.7a9 9 0 0 1-2.71.92C3.9 13.53.69 8.35.68 7.44.67 6.53 6.53.82 7.43.81c.9-.01 4.12 4.28 4.12 4.28l-.66 3.64z"/><path fill="#C52728" d="M11.55 5.1 5 11.71 7.52 12.61 10.9 8.73z"/><g transform="translate(30)"><path fill="#439F47" d="M.59 8.31 5.8 12.84 9.66 10.57 10.34 11.94 6.03 15.79.36 12.39z"/><path fill="#E53A34" d="M8.06 8.73 6.01 9.89l3.82 5.47 1.61-2.7a8.92 8.92 0 0 0 2.71.92c.91 0 4.12-5.18 4.13-6.09.01-.91-5.85-6.62-6.76-6.63-.91-.01-4.11 4.28-4.11 4.28l.65 3.59z"/><path fill="#C52728" d="M7.41 5.1 13.97 11.71 11.44 12.61 8.06 8.73z"/></g></g></svg>