<svg xmlns="http://www.w3.org/2000/svg" viewBox="0 0 48 22"><g fill="none"><path fill="#F89E1B" d="M13.82 4.8S15.24.74 16.17.6c.93-.14-.71 4.92-.71 4.92s-1.22.99-1.64-.72z" transform="translate(-1) translate(30)"/><path fill="#F89E1B" d="M9.73 6.44S11.44 1.5 13.82.65c.47.66-1.71 5.41-1.71 5.41s-1.24 1.9-2.38.38z" transform="translate(-1) translate(30)"/><path fill="#F89E1B" d="M17.68 8.75s1.87-4.88.61-7.06c-.79.2-2.18 5.24-2.18 5.24s-.28 2.25 1.57 1.82z" transform="translate(-1) translate(30)"/><path fill="#5E6BB1" d="M2.35 10.03s1.51 6.78 5.29 4.31c3.78-2.47-2.7-10.35 4.57-13 7.27-2.65 8.09 8.92 1 14.38-7.09 5.46-11.91 2.37-12.52-1A4.45 4.45 0 0 1 2.38 10" transform="translate(-1) translate(30) translate(0 3)"/><path fill="#7A85C1" d="M14.74 6.3a1.46 1.46 0 1 1-2.683-1.153A1.46 1.46 0 0 1 14.74 6.3" transform="translate(-1) translate(30) translate(0 3)"/><path fill="#7A85C1" d="M15.35 11.34a.914.914 0 1 1-1.68-.72.914.914 0 0 1 1.68.72" transform="translate(-1) translate(30) translate(0 3)"/><path fill="#7A85C1" d="M11.55 13.32a.67.67 0 0 1-.89.36.68.68 0 0 1 .54-1.25.68.68 0 0 1 .35.89" transform="translate(-1) translate(30) translate(0 3)"/><g><path fill="#F89E1B" d="M5.91 4.8S4.48.74 3.56.6c-.92-.14.71 4.92.71 4.92s1.21.99 1.64-.72z" transform="translate(-1)"/><path fill="#F89E1B" d="M9.99 6.44S8.28 1.5 5.91.65c-.48.66 1.71 5.41 1.71 5.41s1.23 1.9 2.37.38z" transform="translate(-1)"/><path fill="#F89E1B" d="M2.05 8.75S.17 3.87 1.44 1.69c.79.2 2.18 5.24 2.18 5.24s.28 2.25-1.57 1.82z" transform="translate(-1)"/><path fill="#5E6BB1" d="M16.43 10.03s-1.52 6.78-5.3 4.31c-3.78-2.47 2.7-10.35-4.57-13-7.27-2.65-8.08 8.92-1 14.38 7.08 5.46 11.91 2.37 12.53-1A4.45 4.45 0 0 0 16.4 10" transform="translate(-1) translate(1 3)"/><path fill="#7A85C1" d="M3.99 6.3a1.45 1.45 0 0 0 1.91.76 1.46 1.46 0 1 0-1.91-.76" transform="translate(-1) translate(1 3)"/><path fill="#7A85C1" d="M3.35 11.34a.93.93 0 0 0 1.2.48.914.914 0 0 0-.72-1.68.92.92 0 0 0-.48 1.2" transform="translate(-1) translate(1 3)"/><path fill="#7A85C1" d="M7.17 13.32a.69.69 0 1 0 .36-.89.67.67 0 0 0-.36.89" transform="translate(-1) translate(1 3)"/></g></g></svg>