<svg xmlns="http://www.w3.org/2000/svg" viewBox="0 0 36 15"><g fill="none" transform="translate(0 -1)"><circle cx="7.936" cy="8.136" r="7.01" fill="#FFF" transform="rotate(-88.32 7.936 8.136)"/><circle cx="28.294" cy="8.176" r="7.01" fill="#FFF" transform="rotate(-88.05 28.294 8.176)"/><path fill="#37474F" d="M9.82 9.73H5.15a1.41 1.41 0 0 1-1.41-1.4 1.41 1.41 0 0 1 1.41-1.4h4.67a1.4 1.4 0 0 1 0 2.8z"/><path fill="#37474F" d="M31.09 9.73h-4.67a1.41 1.41 0 0 1-1.41-1.4 1.41 1.41 0 0 1 1.41-1.4h4.67a1.4 1.4 0 0 1 0 2.8z"/></g></svg>