<svg xmlns="http://www.w3.org/2000/svg" viewBox="0 0 38 10"><g fill="none"><path fill="#FCEAED" d="M17.75 3.21c0 3.75-3.8 6.78-8.48 6.78-4.68 0-8.48-3-8.48-6.78C.79-.57 4.59.66 9.27.66c4.68 0 8.48-1.2 8.48 2.55"/><path fill="#FCEAED" d="M37.68 3.21c0 3.75-3.8 6.78-8.48 6.78-4.68 0-8.48-3-8.48-6.78 0-3.78 3.79-2.55 8.48-2.55s8.48-1.2 8.48 2.55"/><path fill="#37474F" d="M11.67 5.8a1.46 1.46 0 0 1-.18-2.91 3.22 3.22 0 1 0 1.15 2.53 1.47 1.47 0 0 1-1 .38"/><path fill="#37474F" d="M31.73 5.8a1.46 1.46 0 0 1-.18-2.91 3.22 3.22 0 1 0 1.15 2.53 1.45 1.45 0 0 1-1 .38"/></g></svg>