<svg xmlns="http://www.w3.org/2000/svg" viewBox="0 0 36 15"><g fill="none"><path fill="#843B95" d="M9.27 4.72a4.62 4.62 0 1 1-9.24 0 4.62 4.62 0 0 1 9.24 0"/><path fill="#843B95" d="M11.96 14.49a1.23 1.23 0 0 1-.71-.37L4.78 7.19a1.22 1.22 0 0 1 1.78-1.66l6.47 6.93a1.22 1.22 0 0 1-.06 1.72 1.17 1.17 0 0 1-1 .31"/><path fill="#FCEAED" d="M8.1 4.77a3.49 3.49 0 1 1-6.98 0 3.49 3.49 0 0 1 6.98 0"/><path fill="#37474F" d="M6.13 5.06a1.002 1.002 0 0 1-.12-2 2.17 2.17 0 1 0 .78 1.71 1 1 0 0 1-.66.25"/><g><path fill="#843B95" d="M4.1 4.72a4.62 4.62 0 1 0 9.24 0 4.62 4.62 0 0 0-9.24 0" transform="translate(22)"/><path fill="#843B95" d="M1.42 14.49a1.18 1.18 0 0 0 .7-.37l6.47-6.93a1.22 1.22 0 0 0-1.78-1.66L.35 12.46a1.22 1.22 0 0 0 .06 1.72 1.18 1.18 0 0 0 1 .31" transform="translate(22)"/><path fill="#FCEAED" d="M5.27 4.77a3.49 3.49 0 1 0 6.98 0 3.49 3.49 0 0 0-6.98 0" transform="translate(22)"/><path fill="#37474F" d="M7.24 5.06a1.002 1.002 0 0 0 .12-2c.395-.323.89-.5 1.4-.5a2.17 2.17 0 1 1-2.17 2.21.94.94 0 0 0 .65.25" transform="translate(22)"/></g></g></svg>