<svg xmlns="http://www.w3.org/2000/svg" viewBox="0 0 35 17"><g fill="none"><path fill="#FCEAED" d="M11.4 10.76a5.3 5.3 0 1 1-5.3-5.3 5.29 5.29 0 0 1 5.3 5.3z"/><path fill="#F6B819" d="M.27.16s11.66 1.06 12.72 6.89C14.05 12.88-1.85 5.46.27.16z"/><path fill="#FCEAED" d="M2.05 10.76a5.3 5.3 0 1 0 5.3-5.3 5.29 5.29 0 0 0-5.3 5.3z" transform="translate(21)"/><path fill="#F6B819" d="M13.18.16S1.52 1.22.46 7.05C-.6 12.88 15.29 5.46 13.18.16z" transform="translate(21)"/><circle cx="6.28" cy="11.64" r="1.59" fill="#37474F"/><circle cx="28.35" cy="11.64" r="1.59" fill="#37474F"/></g></svg>