<svg xmlns="http://www.w3.org/2000/svg" viewBox="0 0 38 11"><g fill="none"><path fill="#FCEAED" d="M18.18 7.18c0 2-2.94 3.66-6.57 3.66-3.63 0-6.58-1.64-6.58-3.66 0-2.02 2.95-1.37 6.58-1.37s6.57-.64 6.57 1.37"/><path fill="#FCEAED" d="M33.63 7.18c0 2-2.94 3.66-6.57 3.66-3.63 0-6.58-1.64-6.58-3.66 0-2.02 2.95-1.37 6.58-1.37s6.57-.64 6.57 1.37"/><path fill="#37474F" d="M13.55 6.25a2.11 2.11 0 1 1-2.1-2.1c1.16 0 2.1.94 2.1 2.1"/><path fill="#37474F" d="M29.16 6.25a2.1 2.1 0 1 1-4.2 0 2.1 2.1 0 0 1 4.2 0"/><path fill="#E53A34" d="M.79.85 3.49 6.55 35.32 6.55 37.42.55z"/></g></svg>