<svg xmlns="http://www.w3.org/2000/svg" viewBox="0 0 36 17"><g fill="none"><path fill="#1786C8" d="M7.63.63s5.31 14.53 1.06 16C4.44 18.1.89 3.52.89 3.52L7.63.63z" transform="translate(25)"/><path fill="#E1F3FC" d="M6.93 14.3c.41.61.55 1.23.32 1.38-.23.15-.75-.21-1.16-.82-.41-.61-.56-1.23-.33-1.38.23-.15.76.21 1.17.82" transform="translate(25)"/><path fill="#E1F3FC" d="M8.85 14.65c.27.68.27 1.32 0 1.42-.27.1-.69-.37-.95-1s-.28-1.32 0-1.43c.28-.11.69.37 1 1.06" transform="translate(25)"/><path fill="#E1F3FC" d="M9.82 12.97c.15.72 0 1.35-.22 1.41-.22.06-.62-.48-.77-1.2-.15-.72-.05-1.35.23-1.41.28-.06.62.48.76 1.2" transform="translate(25)"/><g><path fill="#1786C8" d="M2.93.63s-5.32 14.53-1.07 16c4.25 1.47 7.8-13.11 7.8-13.11L2.93.63z"/><path fill="#E1F3FC" d="M3.63 14.3c-.41.61-.56 1.23-.33 1.38.23.15.76-.21 1.17-.82.41-.61.55-1.23.32-1.38-.23-.15-.75.21-1.16.82"/><path fill="#E1F3FC" d="M1.7 14.65c-.26.68-.27 1.32 0 1.42.27.1.69-.37 1-1 .31-.63.27-1.32 0-1.43-.27-.11-.69.37-1 1.06"/><path fill="#E1F3FC" d="M.73 12.97c-.15.72-.05 1.35.23 1.41.28.06.61-.48.76-1.2.15-.72.05-1.35-.22-1.41-.27-.06-.62.48-.77 1.2"/></g></g></svg>