<svg xmlns="http://www.w3.org/2000/svg" viewBox="0 0 35 21"><g fill="#F89E1B"><path d="M11.35 9.49C10.18 4.8 8.41 1.07 7.09.33a.78.78 0 0 0-.53-.24.75.75 0 0 0-.41.14C4.82.66 2.91 4.54 1.68 9.49.32 14.95.3 19.64 1.62 19.97c.8.2 1.91-1.22 3-3.58.45 2.47 1.17 4.07 2 4.07.83 0 1.5-1.54 1.95-3.93 1 2.27 2.11 3.64 2.89 3.44 1.29-.33 1.27-5.02-.11-10.48z"/><path d="M33.6 9.49C32.43 4.8 30.66 1.07 29.34.33a.78.78 0 0 0-.53-.24.72.72 0 0 0-.41.14c-1.33.43-3.24 4.31-4.47 9.26-1.36 5.46-1.38 10.15-.06 10.48.8.2 1.91-1.22 3-3.58.45 2.47 1.17 4.07 2 4.07.83 0 1.5-1.54 2-3.93 1 2.27 2.11 3.64 2.89 3.44 1.22-.33 1.2-5.02-.16-10.48z"/></g></svg>