<svg xmlns="http://www.w3.org/2000/svg" viewBox="0 0 42 20"><g fill="#C52728"><path d="M12.08 13.7a5.28 5.28 0 0 1-3.37-1.58l-.64-.58c-2.17-2-3.21-2.71-4.67-2a1.93 1.93 0 0 1-1.73-3.45c4-2 7 .75 9 2.56l.6.55c.15.13.28.24.39.32V2.67a1.93 1.93 0 1 1 3.86 0v7.07c0 .47-.29 2.88-2.26 3.69a3 3 0 0 1-1.18.24"/><path d="M30.15 13.7a3 3 0 0 1-1.18-.24c-2-.81-2.23-3.22-2.26-3.69V2.7a1.93 1.93 0 1 1 3.86 0v6.85c.11-.08.24-.19.39-.32l.6-.55c2-1.81 5-4.55 9-2.56a1.93 1.93 0 0 1-1.73 3.45c-1.47-.74-2.5 0-4.67 2l-.65.58a5.24 5.24 0 0 1-3.36 1.58"/><path d="M18.48 19.8a1.92 1.92 0 0 1-1.93-1.91V2.96a1.93 1.93 0 1 1 3.86 0v14.93a1.93 1.93 0 0 1-1.93 1.93"/><path d="M23.75 19.8a1.93 1.93 0 0 1-1.93-1.93V2.96a1.93 1.93 0 1 1 3.86 0v14.93a1.92 1.92 0 0 1-1.93 1.93"/></g></svg>