<svg xmlns="http://www.w3.org/2000/svg" viewBox="0 0 22 31"><g fill="none"><path fill="#33429A" d="M10.4 30.95c10.77 0 10.77-7.61 10.77-7.61V3.7c0-3-1.9-3.17-1.9-3.17H2.58S.68.69.68 3.7v19.64s0 7.61 10.77 7.61H10.4z"/><path fill="#FFF" d="M6.2.53h9.15s.21 4.48-2.69 4.27c-2.45-.17-1.9-2.91-1.9-2.91S10.6 4.8 8.49 4.8C5.99 4.8 6.16.53 6.16.53"/><path fill="#FFF" d="M13.07 26.79c-1.65 0-2.11 1.78-2.23 2.55a2.11 2.11 0 0 0-1.94-2.55c-2.07-.15-2.56 2.08-2.67 3.38a14.68 14.68 0 0 0 9.14.08c-.08-1.24-.49-3.46-2.3-3.46"/></g></svg>