<svg xmlns="http://www.w3.org/2000/svg" viewBox="0 0 33 23"><g fill="none"><path fill="#F48FB1" d="M31.57 12.69C19.66 6.79 8.06 9.16 1.47 11.5a16.24 16.24 0 0 0 30.1 1.19z"/><path fill="#881A51" d="M31.57 12.69a25.59 25.59 0 0 0 1.36-6.41c0-8.82-7.24-4.83-16.17-4.83-8.93 0-16.18-4-16.18 4.83a15.85 15.85 0 0 0 .89 5.22c6.59-2.34 18.19-4.71 30.1 1.19z"/><path fill="#FFF" d="M3.55.81c.09 2 .4 5.37 1.44 6.3.9.75 1.64.45 1.64-.3 0-.51.49-3.91.9-6.18a11.49 11.49 0 0 0-3.98.18z"/><path fill="#FFF" d="M30.01.81c-.09 2-.41 5.37-1.45 6.3-.89.75-1.63.45-1.63-.3 0-.51-.5-3.91-.9-6.18a11.52 11.52 0 0 1 3.98.18z"/></g></svg>