<svg xmlns="http://www.w3.org/2000/svg" viewBox="0 0 37 11"><g fill="none"><path fill="#FCEAED" d="M3.45 8.03S.54 1.95 3.72.62s5.29 4.5 5.29 4.5L3.45 8.03z"/><path fill="#FCEAED" d="M33.97 8.03s2.91-6.08-.27-7.41-5.28 4.5-5.28 4.5l5.55 2.91z"/><path fill="#3F4DA0" d="M34.76 10.66a37.36 37.36 0 0 0-17.53-4.67 27.44 27.44 0 0 0-14.55 3.9l-.21.15a1.47 1.47 0 0 1-2.06-.33 1.47 1.47 0 0 1 .32-2.06c.15-.11 6.32-4.6 16.5-4.6a40.37 40.37 0 0 1 18.91 5 1.49 1.49 0 0 1 .62 2 1.49 1.49 0 0 1-1.31.79 1.56 1.56 0 0 1-.69-.17v-.01z"/></g></svg>