<svg xmlns="http://www.w3.org/2000/svg" viewBox="0 0 34 14"><g fill="none"><path fill="#C52728" d="M33.44 7.04a6.35 6.35 0 0 1-6.35 6.35H6.64A6.35 6.35 0 0 1 .28 7.04 6.36 6.36 0 0 1 6.64.68h20.45a6.35 6.35 0 0 1 6.35 6.36z"/><path fill="#FCEAED" d="M6.64.68c-.268 0-.535.02-.8.06a2.25 2.25 0 0 0-.23 1 3.5 3.5 0 0 0 6.28 2.15 3.52 3.52 0 0 0 2.78 1.38 3.47 3.47 0 0 0 2.28-.87 3.46 3.46 0 0 0 5.06-.51 3.5 3.5 0 0 0 6.29-2.13 2.29 2.29 0 0 0-.22-1 6.39 6.39 0 0 0-1-.09L6.64.68z"/><path fill="#FCEAED" d="M27.27 13.21a7 7 0 0 0 .8-.05 2.33 2.33 0 0 0 .23-1 3.5 3.5 0 0 0-6.29-2.12 3.45 3.45 0 0 0-5.06-.52 3.45 3.45 0 0 0-5.06.52 3.49 3.49 0 0 0-6.28 2.12c0 .345.075.687.22 1a7.93 7.93 0 0 0 1 .08l20.44-.03z"/></g></svg>