<?xml version="1.0" encoding="UTF-8" standalone="no" ?>
<!DOCTYPE svg PUBLIC "-//W3C//DTD SVG 1.1//EN" "http://www.w3.org/Graphics/SVG/1.1/DTD/svg11.dtd">
<svg xmlns="http://www.w3.org/2000/svg" xmlns:xlink="http://www.w3.org/1999/xlink" version="1.1" width="689.63125" height="469.41562500000003" viewBox="0 0 985.19 670.59" xml:space="preserve">
<desc>Created with Fabric.js 4.4.0</desc>
<defs>
</defs>
<rect x="0" y="0" width="100%" height="100%" fill="#464954"></rect>
<g transform="matrix(6.96 0 0 6.96 1303.72 560.04)"  >
<g style=""   >
		<g transform="matrix(1 0 0 1 0.02 4.13)"  >
<path style="stroke: none; stroke-width: 1; stroke-dasharray: none; stroke-linecap: butt; stroke-dashoffset: 0; stroke-linejoin: miter; stroke-miterlimit: 4; fill: rgb(244,143,177); fill-rule: nonzero; opacity: 1;"  transform=" translate(-16.52, -15.63)" d="M 31.57 12.69 C 19.66 6.79 8.06 9.16 1.47 11.5 C 3.7025244446700487 17.736726357626978 9.499265010864482 21.992399431105227 16.118361769580055 22.254084651798635 C 22.73745852829563 22.515769872492044 28.85207663736243 18.731010979198537 31.57 12.690000000000001 z" stroke-linecap="round" />
</g>
		<g transform="matrix(1 0 0 1 0.25 -4.88)"  >
<path style="stroke: none; stroke-width: 1; stroke-dasharray: none; stroke-linecap: butt; stroke-dashoffset: 0; stroke-linejoin: miter; stroke-miterlimit: 4; fill: rgb(136,26,81); fill-rule: nonzero; opacity: 1;"  transform=" translate(-16.75, -6.62)" d="M 31.57 12.69 C 32.29615258966866 10.620443106949178 32.753232265538074 8.466119046417623 32.93 6.2800000000000065 C 32.93 -2.540000000000001 25.689999999999998 1.4499999999999993 16.759999999999998 1.4499999999999993 C 7.829999999999998 1.4499999999999993 0.5799999999999983 -2.5500000000000007 0.5799999999999983 6.279999999999999 C 0.5818529095199693 8.057596688672744 0.8827174528864151 9.822217943024256 1.4700000000000006 11.500000000000005 C 8.059999999999999 9.16 19.66 6.79 31.57 12.69 z" stroke-linecap="round" />
</g>
		<g transform="matrix(1 0 0 1 -10.96 -7.47)"  >
<path style="stroke: none; stroke-width: 1; stroke-dasharray: none; stroke-linecap: butt; stroke-dashoffset: 0; stroke-linejoin: miter; stroke-miterlimit: 4; fill: rgb(255,255,255); fill-rule: nonzero; opacity: 1;"  transform=" translate(-5.54, -4.04)" d="M 3.55 0.81 C 3.6399999999999997 2.81 3.9499999999999997 6.18 4.99 7.109999999999999 C 5.890000000000001 7.859999999999999 6.63 7.56 6.63 6.81 C 6.63 6.3 7.12 2.8999999999999995 7.53 0.6299999999999999 C 6.202973486148844 0.4577817238119921 4.856063251904944 0.5186972620441263 3.5499999999999936 0.8099999999999996 z" stroke-linecap="round" />
</g>
		<g transform="matrix(1 0 0 1 11.52 -7.47)"  >
<path style="stroke: none; stroke-width: 1; stroke-dasharray: none; stroke-linecap: butt; stroke-dashoffset: 0; stroke-linejoin: miter; stroke-miterlimit: 4; fill: rgb(255,255,255); fill-rule: nonzero; opacity: 1;"  transform=" translate(-28.02, -4.04)" d="M 30.01 0.81 C 29.92 2.81 29.6 6.18 28.560000000000002 7.109999999999999 C 27.67 7.859999999999999 26.930000000000003 7.56 26.930000000000003 6.81 C 26.930000000000003 6.3 26.430000000000003 2.8999999999999995 26.030000000000005 0.6299999999999999 C 27.357052254134267 0.45839692761394485 28.703855579907792 0.5193076307896342 30.010000000000005 0.8100000000000014 z" stroke-linecap="round" />
</g>
</g>
</g>
<g transform="matrix(6.96 0 0 6.96 1303.72 560.04)"  >
<g style=""   >
		<g transform="matrix(1 0 0 1 0.02 4.13)"  >
<path style="stroke: none; stroke-width: 1; stroke-dasharray: none; stroke-linecap: butt; stroke-dashoffset: 0; stroke-linejoin: miter; stroke-miterlimit: 4; fill: rgb(244,143,177); fill-rule: nonzero; opacity: 1;"  transform=" translate(-16.52, -15.63)" d="M 31.57 12.69 C 19.66 6.79 8.06 9.16 1.47 11.5 C 3.7025244446700487 17.736726357626978 9.499265010864482 21.992399431105227 16.118361769580055 22.254084651798635 C 22.73745852829563 22.515769872492044 28.85207663736243 18.731010979198537 31.57 12.690000000000001 z" stroke-linecap="round" />
</g>
		<g transform="matrix(1 0 0 1 0.25 -4.88)"  >
<path style="stroke: none; stroke-width: 1; stroke-dasharray: none; stroke-linecap: butt; stroke-dashoffset: 0; stroke-linejoin: miter; stroke-miterlimit: 4; fill: rgb(136,26,81); fill-rule: nonzero; opacity: 1;"  transform=" translate(-16.75, -6.62)" d="M 31.57 12.69 C 32.29615258966866 10.620443106949178 32.753232265538074 8.466119046417623 32.93 6.2800000000000065 C 32.93 -2.540000000000001 25.689999999999998 1.4499999999999993 16.759999999999998 1.4499999999999993 C 7.829999999999998 1.4499999999999993 0.5799999999999983 -2.5500000000000007 0.5799999999999983 6.279999999999999 C 0.5818529095199693 8.057596688672744 0.8827174528864151 9.822217943024256 1.4700000000000006 11.500000000000005 C 8.059999999999999 9.16 19.66 6.79 31.57 12.69 z" stroke-linecap="round" />
</g>
		<g transform="matrix(1 0 0 1 -10.96 -7.47)"  >
<path style="stroke: none; stroke-width: 1; stroke-dasharray: none; stroke-linecap: butt; stroke-dashoffset: 0; stroke-linejoin: miter; stroke-miterlimit: 4; fill: rgb(255,255,255); fill-rule: nonzero; opacity: 1;"  transform=" translate(-5.54, -4.04)" d="M 3.55 0.81 C 3.6399999999999997 2.81 3.9499999999999997 6.18 4.99 7.109999999999999 C 5.890000000000001 7.859999999999999 6.63 7.56 6.63 6.81 C 6.63 6.3 7.12 2.8999999999999995 7.53 0.6299999999999999 C 6.202973486148844 0.4577817238119921 4.856063251904944 0.5186972620441263 3.5499999999999936 0.8099999999999996 z" stroke-linecap="round" />
</g>
		<g transform="matrix(1 0 0 1 11.52 -7.47)"  >
<path style="stroke: none; stroke-width: 1; stroke-dasharray: none; stroke-linecap: butt; stroke-dashoffset: 0; stroke-linejoin: miter; stroke-miterlimit: 4; fill: rgb(255,255,255); fill-rule: nonzero; opacity: 1;"  transform=" translate(-28.02, -4.04)" d="M 30.01 0.81 C 29.92 2.81 29.6 6.18 28.560000000000002 7.109999999999999 C 27.67 7.859999999999999 26.930000000000003 7.56 26.930000000000003 6.81 C 26.930000000000003 6.3 26.430000000000003 2.8999999999999995 26.030000000000005 0.6299999999999999 C 27.357052254134267 0.45839692761394485 28.703855579907792 0.5193076307896342 30.010000000000005 0.8100000000000014 z" stroke-linecap="round" />
</g>
</g>
</g>
<g transform="matrix(6.96 0 0 6.96 1303.72 560.04)"  >
<g style=""   >
		<g transform="matrix(1 0 0 1 0.02 4.13)"  >
<path style="stroke: none; stroke-width: 1; stroke-dasharray: none; stroke-linecap: butt; stroke-dashoffset: 0; stroke-linejoin: miter; stroke-miterlimit: 4; fill: rgb(244,143,177); fill-rule: nonzero; opacity: 1;"  transform=" translate(-16.52, -15.63)" d="M 31.57 12.69 C 19.66 6.79 8.06 9.16 1.47 11.5 C 3.7025244446700487 17.736726357626978 9.499265010864482 21.992399431105227 16.118361769580055 22.254084651798635 C 22.73745852829563 22.515769872492044 28.85207663736243 18.731010979198537 31.57 12.690000000000001 z" stroke-linecap="round" />
</g>
		<g transform="matrix(1 0 0 1 0.25 -4.88)"  >
<path style="stroke: none; stroke-width: 1; stroke-dasharray: none; stroke-linecap: butt; stroke-dashoffset: 0; stroke-linejoin: miter; stroke-miterlimit: 4; fill: rgb(136,26,81); fill-rule: nonzero; opacity: 1;"  transform=" translate(-16.75, -6.62)" d="M 31.57 12.69 C 32.29615258966866 10.620443106949178 32.753232265538074 8.466119046417623 32.93 6.2800000000000065 C 32.93 -2.540000000000001 25.689999999999998 1.4499999999999993 16.759999999999998 1.4499999999999993 C 7.829999999999998 1.4499999999999993 0.5799999999999983 -2.5500000000000007 0.5799999999999983 6.279999999999999 C 0.5818529095199693 8.057596688672744 0.8827174528864151 9.822217943024256 1.4700000000000006 11.500000000000005 C 8.059999999999999 9.16 19.66 6.79 31.57 12.69 z" stroke-linecap="round" />
</g>
		<g transform="matrix(1 0 0 1 -10.96 -7.47)"  >
<path style="stroke: none; stroke-width: 1; stroke-dasharray: none; stroke-linecap: butt; stroke-dashoffset: 0; stroke-linejoin: miter; stroke-miterlimit: 4; fill: rgb(255,255,255); fill-rule: nonzero; opacity: 1;"  transform=" translate(-5.54, -4.04)" d="M 3.55 0.81 C 3.6399999999999997 2.81 3.9499999999999997 6.18 4.99 7.109999999999999 C 5.890000000000001 7.859999999999999 6.63 7.56 6.63 6.81 C 6.63 6.3 7.12 2.8999999999999995 7.53 0.6299999999999999 C 6.202973486148844 0.4577817238119921 4.856063251904944 0.5186972620441263 3.5499999999999936 0.8099999999999996 z" stroke-linecap="round" />
</g>
		<g transform="matrix(1 0 0 1 11.52 -7.47)"  >
<path style="stroke: none; stroke-width: 1; stroke-dasharray: none; stroke-linecap: butt; stroke-dashoffset: 0; stroke-linejoin: miter; stroke-miterlimit: 4; fill: rgb(255,255,255); fill-rule: nonzero; opacity: 1;"  transform=" translate(-28.02, -4.04)" d="M 30.01 0.81 C 29.92 2.81 29.6 6.18 28.560000000000002 7.109999999999999 C 27.67 7.859999999999999 26.930000000000003 7.56 26.930000000000003 6.81 C 26.930000000000003 6.3 26.430000000000003 2.8999999999999995 26.030000000000005 0.6299999999999999 C 27.357052254134267 0.45839692761394485 28.703855579907792 0.5193076307896342 30.010000000000005 0.8100000000000014 z" stroke-linecap="round" />
</g>
</g>
</g>
<g transform="matrix(1.12 0 0 1.12 362.78 354.06)"  >
<g style=""   >
		<g transform="matrix(1 0 0 1 0 0)"  >
<g style=""   >
		<g transform="matrix(0.26 6 -6 0.26 125.6 149.95)"  >
<path style="stroke: none; stroke-width: 1; stroke-dasharray: none; stroke-linecap: butt; stroke-dashoffset: 0; stroke-linejoin: miter; stroke-miterlimit: 4; fill: rgb(20,91,144); fill-rule: nonzero; opacity: 1;"  transform=" translate(-6.36, -15.66)" d="M 6.64 31.08 C 5.971922145506526 31.058026241471936 5.3859346562592165 30.6279768057836 5.164622674593831 29.99723765803725 C 4.943310692928445 29.3664985102909 5.132120132088812 28.66459050323145 5.639999999999999 28.229999999999997 C 7.869999999999999 26.349999999999998 9.04 24.729999999999997 9.11 23.389999999999997 C 9.19 21.679999999999996 7.459999999999999 19.879999999999995 5.449999999999999 17.79 C 4.6 16.91 3.7199999999999993 16 2.8599999999999994 14.979999999999999 C -1.540000000000001 9.779999999999998 0.8599999999999994 3.4999999999999982 2.7899999999999996 0.9099999999999984 C 3.317431936088407 0.1865069777216587 4.331506977721658 0.02756806391159039 5.054999999999998 0.5549999999999975 C 5.778493022278338 1.0824319360884047 5.937431936088407 2.096506977721657 5.41 2.8199999999999967 C 5.24 3.0499999999999985 1.4900000000000002 8.349999999999998 5.33 12.899999999999999 C 6.12 13.829999999999998 6.96 14.7 7.78 15.54 C 10.2 18.06 12.5 20.439999999999998 12.34 23.54 C 12.22 25.869999999999997 10.75 28.14 7.7299999999999995 30.68 C 7.449722017587254 30.916943038053436 7.096901914254593 31.051014677319845 6.7299999999999995 31.06" stroke-linecap="round" />
</g>
		<g transform="matrix(6.29 0 0 5.35 -28.95 112.48)"  >
<ellipse style="stroke: none; stroke-width: 1; stroke-dasharray: none; stroke-linecap: butt; stroke-dashoffset: 0; stroke-linejoin: miter; stroke-miterlimit: 4; fill: rgb(24,134,200); fill-rule: nonzero; opacity: 1;"  cx="0" cy="0" rx="14.7" ry="17.92" />
</g>
		<g transform="matrix(4.39 0.88 -0.88 4.39 71.46 -141.06)"  >
<path style="stroke: none; stroke-width: 1; stroke-dasharray: none; stroke-linecap: butt; stroke-dashoffset: 0; stroke-linejoin: miter; stroke-miterlimit: 4; fill: rgb(50,155,236); fill-rule: nonzero; opacity: 1;"  transform=" translate(-17.62, -8.57)" d="M 20.68 16.23 C 17.705075764269964 16.009094481758666 14.903714159541487 14.744763138031654 12.77 12.660000000000002 C 13.77 7.04 20.939999999999998 1.17 22.47 0.9199999999999999 C 22.47 3.98 20.68 16.23 20.68 16.23 z" stroke-linecap="round" />
</g>
		<g transform="matrix(-4.25 0.59 0.59 4.25 -127 -146.88)"  >
<path style="stroke: none; stroke-width: 1; stroke-dasharray: none; stroke-linecap: butt; stroke-dashoffset: 0; stroke-linejoin: miter; stroke-miterlimit: 4; fill: rgb(50,155,236); fill-rule: nonzero; opacity: 1;"  transform=" translate(-17.62, -8.57)" d="M 20.68 16.23 C 17.705075764269964 16.009094481758666 14.903714159541487 14.744763138031654 12.77 12.660000000000002 C 13.77 7.04 20.939999999999998 1.17 22.47 0.9199999999999999 C 22.47 3.98 20.68 16.23 20.68 16.23 z" stroke-linecap="round" />
</g>
		<g transform="matrix(10.13 0 0 9.81 -21.76 -23.73)"  >
<rect style="stroke: none; stroke-width: 1; stroke-dasharray: none; stroke-linecap: butt; stroke-dashoffset: 0; stroke-linejoin: miter; stroke-miterlimit: 4; fill: rgb(50,155,236); fill-rule: nonzero; opacity: 1;"  x="-13.17" y="-11.33" rx="7.04" ry="7.04" width="26.34" height="22.66" />
</g>
		<g transform="matrix(-0.55 0.05 -0.02 -0.19 -13.08 -6.42)"  >
<polygon style="stroke: none; stroke-width: 1; stroke-dasharray: none; stroke-linecap: butt; stroke-dashoffset: 0; stroke-linejoin: miter; stroke-miterlimit: 4; fill: rgb(236,39,220); fill-rule: nonzero; opacity: 1;"  points="-50 50,0 -50,50 50" /></g>
		<g transform="matrix(4.6 0 0 4.6 -29.12 206.39)"  >
<g style=""   >
		<g transform="matrix(1 0 0 1 12.61 0.18)"  >
<path style="stroke: none; stroke-width: 1; stroke-dasharray: none; stroke-linecap: butt; stroke-dashoffset: 0; stroke-linejoin: miter; stroke-miterlimit: 4; fill: rgb(23,134,200); fill-rule: nonzero; opacity: 1;"  transform=" translate(-5.61, -8.68)" d="M 7.63 0.63 C 7.63 0.63 12.94 15.16 8.69 16.63 C 4.44 18.1 0.89 3.52 0.89 3.52 L 7.63 0.63 z" stroke-linecap="round" />
</g>
		<g transform="matrix(1 0 0 1 13.5 6.08)"  >
<path style="stroke: none; stroke-width: 1; stroke-dasharray: none; stroke-linecap: butt; stroke-dashoffset: 0; stroke-linejoin: miter; stroke-miterlimit: 4; fill: rgb(225,243,252); fill-rule: nonzero; opacity: 1;"  transform=" translate(-6.51, -14.58)" d="M 6.93 14.3 C 7.34 14.91 7.4799999999999995 15.530000000000001 7.25 15.68 C 7.02 15.83 6.5 15.469999999999999 6.09 14.86 C 5.68 14.25 5.529999999999999 13.629999999999999 5.76 13.48 C 5.99 13.33 6.52 13.690000000000001 6.93 14.3" stroke-linecap="round" />
</g>
		<g transform="matrix(1 0 0 1 15.38 6.35)"  >
<path style="stroke: none; stroke-width: 1; stroke-dasharray: none; stroke-linecap: butt; stroke-dashoffset: 0; stroke-linejoin: miter; stroke-miterlimit: 4; fill: rgb(225,243,252); fill-rule: nonzero; opacity: 1;"  transform=" translate(-8.37, -14.85)" d="M 8.85 14.65 C 9.12 15.33 9.12 15.97 8.85 16.07 C 8.58 16.17 8.16 15.700000000000001 7.8999999999999995 15.07 C 7.639999999999999 14.44 7.619999999999999 13.75 7.8999999999999995 13.64 C 8.18 13.530000000000001 8.59 14.01 8.899999999999999 14.700000000000001" stroke-linecap="round" />
</g>
		<g transform="matrix(1 0 0 1 16.32 4.58)"  >
<path style="stroke: none; stroke-width: 1; stroke-dasharray: none; stroke-linecap: butt; stroke-dashoffset: 0; stroke-linejoin: miter; stroke-miterlimit: 4; fill: rgb(225,243,252); fill-rule: nonzero; opacity: 1;"  transform=" translate(-9.32, -13.07)" d="M 9.82 12.97 C 9.97 13.690000000000001 9.82 14.32 9.6 14.38 C 9.379999999999999 14.440000000000001 8.98 13.9 8.83 13.180000000000001 C 8.68 12.46 8.78 11.830000000000002 9.06 11.770000000000001 C 9.34 11.71 9.68 12.250000000000002 9.82 12.97" stroke-linecap="round" />
</g>
		<g transform="matrix(1 0 0 1 -13.07 0.18)"  >
<path style="stroke: none; stroke-width: 1; stroke-dasharray: none; stroke-linecap: butt; stroke-dashoffset: 0; stroke-linejoin: miter; stroke-miterlimit: 4; fill: rgb(23,134,200); fill-rule: nonzero; opacity: 1;"  transform=" translate(-4.94, -8.68)" d="M 2.93 0.63 C 2.93 0.63 -2.39 15.16 1.86 16.63 C 6.11 18.099999999999998 9.66 3.5199999999999996 9.66 3.5199999999999996 L 2.93 0.63 z" stroke-linecap="round" />
</g>
		<g transform="matrix(1 0 0 1 -13.96 6.08)"  >
<path style="stroke: none; stroke-width: 1; stroke-dasharray: none; stroke-linecap: butt; stroke-dashoffset: 0; stroke-linejoin: miter; stroke-miterlimit: 4; fill: rgb(225,243,252); fill-rule: nonzero; opacity: 1;"  transform=" translate(-4.05, -14.58)" d="M 3.63 14.3 C 3.2199999999999998 14.91 3.07 15.530000000000001 3.3 15.68 C 3.53 15.83 4.06 15.469999999999999 4.47 14.86 C 4.88 14.25 5.02 13.629999999999999 4.79 13.48 C 4.56 13.33 4.04 13.690000000000001 3.63 14.3" stroke-linecap="round" />
</g>
		<g transform="matrix(1 0 0 1 -15.79 6.35)"  >
<path style="stroke: none; stroke-width: 1; stroke-dasharray: none; stroke-linecap: butt; stroke-dashoffset: 0; stroke-linejoin: miter; stroke-miterlimit: 4; fill: rgb(225,243,252); fill-rule: nonzero; opacity: 1;"  transform=" translate(-2.21, -14.85)" d="M 1.7 14.65 C 1.44 15.33 1.43 15.97 1.7 16.07 C 1.97 16.17 2.3899999999999997 15.700000000000001 2.7 15.07 C 3.0100000000000002 14.44 2.97 13.75 2.7 13.64 C 2.43 13.530000000000001 2.0100000000000002 14.01 1.7000000000000002 14.700000000000001" stroke-linecap="round" />
</g>
		<g transform="matrix(1 0 0 1 -16.78 4.58)"  >
<path style="stroke: none; stroke-width: 1; stroke-dasharray: none; stroke-linecap: butt; stroke-dashoffset: 0; stroke-linejoin: miter; stroke-miterlimit: 4; fill: rgb(225,243,252); fill-rule: nonzero; opacity: 1;"  transform=" translate(-1.23, -13.07)" d="M 0.73 12.97 C 0.58 13.690000000000001 0.6799999999999999 14.32 0.96 14.38 C 1.24 14.440000000000001 1.5699999999999998 13.9 1.72 13.180000000000001 C 1.8699999999999999 12.46 1.77 11.830000000000002 1.5 11.770000000000001 C 1.23 11.71 0.88 12.250000000000002 0.73 12.97" stroke-linecap="round" />
</g>
</g>
</g>
		<g transform="matrix(1 0 0 1 -145.25 76.68)"  >
<g style=""   >
		<g transform="matrix(-6.58 5.06 -5.06 -6.57 0 0.04)"  >
<path style="stroke: none; stroke-width: 1; stroke-dasharray: none; stroke-linecap: butt; stroke-dashoffset: 0; stroke-linejoin: miter; stroke-miterlimit: 4; fill: rgb(23,134,200); fill-rule: nonzero; opacity: 1;"  transform=" translate(-5.61, -8.68)" d="M 7.63 0.63 C 7.63 0.63 12.94 15.16 8.69 16.63 C 4.44 18.1 0.89 3.52 0.89 3.52 L 7.63 0.63 z" stroke-linecap="round" />
</g>
		<g transform="matrix(-6.97 4.51 -4.51 -6.96 -34.24 -37.06)"  >
<path style="stroke: none; stroke-width: 1; stroke-dasharray: none; stroke-linecap: butt; stroke-dashoffset: 0; stroke-linejoin: miter; stroke-miterlimit: 4; fill: rgb(225,243,252); fill-rule: nonzero; opacity: 1;"  transform=" translate(-6.51, -14.58)" d="M 6.93 14.3 C 7.34 14.91 7.4799999999999995 15.530000000000001 7.25 15.68 C 7.02 15.83 6.5 15.469999999999999 6.09 14.86 C 5.68 14.25 5.529999999999999 13.629999999999999 5.76 13.48 C 5.99 13.33 6.52 13.690000000000001 6.93 14.3" stroke-linecap="round" />
</g>
		<g transform="matrix(-6.97 4.51 -4.51 -6.96 -48.48 -30.46)"  >
<path style="stroke: none; stroke-width: 1; stroke-dasharray: none; stroke-linecap: butt; stroke-dashoffset: 0; stroke-linejoin: miter; stroke-miterlimit: 4; fill: rgb(225,243,252); fill-rule: nonzero; opacity: 1;"  transform=" translate(-8.37, -14.85)" d="M 8.85 14.65 C 9.12 15.33 9.12 15.97 8.85 16.07 C 8.58 16.17 8.16 15.700000000000001 7.8999999999999995 15.07 C 7.639999999999999 14.44 7.619999999999999 13.75 7.8999999999999995 13.64 C 8.18 13.530000000000001 8.59 14.01 8.899999999999999 14.700000000000001" stroke-linecap="round" />
</g>
		<g transform="matrix(-6.97 4.51 -4.51 -6.96 -47.06 -13.89)"  >
<path style="stroke: none; stroke-width: 1; stroke-dasharray: none; stroke-linecap: butt; stroke-dashoffset: 0; stroke-linejoin: miter; stroke-miterlimit: 4; fill: rgb(225,243,252); fill-rule: nonzero; opacity: 1;"  transform=" translate(-9.32, -13.07)" d="M 9.82 12.97 C 9.97 13.690000000000001 9.82 14.32 9.6 14.38 C 9.379999999999999 14.440000000000001 8.98 13.9 8.83 13.180000000000001 C 8.68 12.46 8.78 11.830000000000002 9.06 11.770000000000001 C 9.34 11.71 9.68 12.250000000000002 9.82 12.97" stroke-linecap="round" />
</g>
</g>
</g>
		<g transform="matrix(-0.61 0.8 -0.8 -0.61 101.68 100.96)"  >
<g style=""   >
		<g transform="matrix(-6.58 5.06 -5.06 -6.57 0 0.04)"  >
<path style="stroke: none; stroke-width: 1; stroke-dasharray: none; stroke-linecap: butt; stroke-dashoffset: 0; stroke-linejoin: miter; stroke-miterlimit: 4; fill: rgb(23,134,200); fill-rule: nonzero; opacity: 1;"  transform=" translate(-5.61, -8.68)" d="M 7.63 0.63 C 7.63 0.63 12.94 15.16 8.69 16.63 C 4.44 18.1 0.89 3.52 0.89 3.52 L 7.63 0.63 z" stroke-linecap="round" />
</g>
		<g transform="matrix(-6.97 4.51 -4.51 -6.96 -34.24 -37.06)"  >
<path style="stroke: none; stroke-width: 1; stroke-dasharray: none; stroke-linecap: butt; stroke-dashoffset: 0; stroke-linejoin: miter; stroke-miterlimit: 4; fill: rgb(225,243,252); fill-rule: nonzero; opacity: 1;"  transform=" translate(-6.51, -14.58)" d="M 6.93 14.3 C 7.34 14.91 7.4799999999999995 15.530000000000001 7.25 15.68 C 7.02 15.83 6.5 15.469999999999999 6.09 14.86 C 5.68 14.25 5.529999999999999 13.629999999999999 5.76 13.48 C 5.99 13.33 6.52 13.690000000000001 6.93 14.3" stroke-linecap="round" />
</g>
		<g transform="matrix(-6.97 4.51 -4.51 -6.96 -48.48 -30.46)"  >
<path style="stroke: none; stroke-width: 1; stroke-dasharray: none; stroke-linecap: butt; stroke-dashoffset: 0; stroke-linejoin: miter; stroke-miterlimit: 4; fill: rgb(225,243,252); fill-rule: nonzero; opacity: 1;"  transform=" translate(-8.37, -14.85)" d="M 8.85 14.65 C 9.12 15.33 9.12 15.97 8.85 16.07 C 8.58 16.17 8.16 15.700000000000001 7.8999999999999995 15.07 C 7.639999999999999 14.44 7.619999999999999 13.75 7.8999999999999995 13.64 C 8.18 13.530000000000001 8.59 14.01 8.899999999999999 14.700000000000001" stroke-linecap="round" />
</g>
		<g transform="matrix(-6.97 4.51 -4.51 -6.96 -47.06 -13.89)"  >
<path style="stroke: none; stroke-width: 1; stroke-dasharray: none; stroke-linecap: butt; stroke-dashoffset: 0; stroke-linejoin: miter; stroke-miterlimit: 4; fill: rgb(225,243,252); fill-rule: nonzero; opacity: 1;"  transform=" translate(-9.32, -13.07)" d="M 9.82 12.97 C 9.97 13.690000000000001 9.82 14.32 9.6 14.38 C 9.379999999999999 14.440000000000001 8.98 13.9 8.83 13.180000000000001 C 8.68 12.46 8.78 11.830000000000002 9.06 11.770000000000001 C 9.34 11.71 9.68 12.250000000000002 9.82 12.97" stroke-linecap="round" />
</g>
</g>
</g>
		<g transform="matrix(3.4 0 0 3.4 -17.29 50.81)"  >
<g style=""   >
		<g transform="matrix(1 0 0 1 0.02 4.13)"  >
<path style="stroke: none; stroke-width: 1; stroke-dasharray: none; stroke-linecap: butt; stroke-dashoffset: 0; stroke-linejoin: miter; stroke-miterlimit: 4; fill: rgb(244,143,177); fill-rule: nonzero; opacity: 1;"  transform=" translate(-16.52, -15.63)" d="M 31.57 12.69 C 19.66 6.79 8.06 9.16 1.47 11.5 C 3.7025244446700487 17.736726357626978 9.499265010864482 21.992399431105227 16.118361769580055 22.254084651798635 C 22.73745852829563 22.515769872492044 28.85207663736243 18.731010979198537 31.57 12.690000000000001 z" stroke-linecap="round" />
</g>
		<g transform="matrix(1 0 0 1 0.25 -4.88)"  >
<path style="stroke: none; stroke-width: 1; stroke-dasharray: none; stroke-linecap: butt; stroke-dashoffset: 0; stroke-linejoin: miter; stroke-miterlimit: 4; fill: rgb(136,26,81); fill-rule: nonzero; opacity: 1;"  transform=" translate(-16.75, -6.62)" d="M 31.57 12.69 C 32.29615258966866 10.620443106949178 32.753232265538074 8.466119046417623 32.93 6.2800000000000065 C 32.93 -2.540000000000001 25.689999999999998 1.4499999999999993 16.759999999999998 1.4499999999999993 C 7.829999999999998 1.4499999999999993 0.5799999999999983 -2.5500000000000007 0.5799999999999983 6.279999999999999 C 0.5818529095199693 8.057596688672744 0.8827174528864151 9.822217943024256 1.4700000000000006 11.500000000000005 C 8.059999999999999 9.16 19.66 6.79 31.57 12.69 z" stroke-linecap="round" />
</g>
		<g transform="matrix(1 0 0 1 -10.96 -7.47)"  >
<path style="stroke: none; stroke-width: 1; stroke-dasharray: none; stroke-linecap: butt; stroke-dashoffset: 0; stroke-linejoin: miter; stroke-miterlimit: 4; fill: rgb(255,255,255); fill-rule: nonzero; opacity: 1;"  transform=" translate(-5.54, -4.04)" d="M 3.55 0.81 C 3.6399999999999997 2.81 3.9499999999999997 6.18 4.99 7.109999999999999 C 5.890000000000001 7.859999999999999 6.63 7.56 6.63 6.81 C 6.63 6.3 7.12 2.8999999999999995 7.53 0.6299999999999999 C 6.202973486148844 0.4577817238119921 4.856063251904944 0.5186972620441263 3.5499999999999936 0.8099999999999996 z" stroke-linecap="round" />
</g>
		<g transform="matrix(1 0 0 1 11.52 -7.47)"  >
<path style="stroke: none; stroke-width: 1; stroke-dasharray: none; stroke-linecap: butt; stroke-dashoffset: 0; stroke-linejoin: miter; stroke-miterlimit: 4; fill: rgb(255,255,255); fill-rule: nonzero; opacity: 1;"  transform=" translate(-28.02, -4.04)" d="M 30.01 0.81 C 29.92 2.81 29.6 6.18 28.560000000000002 7.109999999999999 C 27.67 7.859999999999999 26.930000000000003 7.56 26.930000000000003 6.81 C 26.930000000000003 6.3 26.430000000000003 2.8999999999999995 26.030000000000005 0.6299999999999999 C 27.357052254134267 0.45839692761394485 28.703855579907792 0.5193076307896342 30.010000000000005 0.8100000000000014 z" stroke-linecap="round" />
</g>
</g>
</g>
		<g transform="matrix(0.94 3.26 -3.26 0.94 -78.55 -59.61)"  >
<path style="stroke: none; stroke-width: 1; stroke-dasharray: none; stroke-linecap: butt; stroke-dashoffset: 0; stroke-linejoin: miter; stroke-miterlimit: 4; fill: rgb(17,18,18); fill-rule: nonzero; opacity: 1;"  transform=" translate(-16.41, -16.97)" d="M 0.41 20.53 C 0.41 11.71 7.55 0.1700000000000017 16.41 0.1700000000000017 C 25.27 0.1700000000000017 32.41 11.71 32.41 20.53 C 32.41 29.35 24.83 33.760000000000005 16.009999999999998 33.760000000000005 C 7.19 33.76 0.49 29.35 0.49 20.53" stroke-linecap="round" />
</g>
		<g transform="matrix(1 0 0 1 -23.43 -222.38)" style=""  >
		<text xml:space="preserve" font-family="sans-serif" font-size="40" font-style="normal" font-weight="normal" style="stroke: none; stroke-width: 1; stroke-dasharray: none; stroke-linecap: butt; stroke-dashoffset: 0; stroke-linejoin: miter; stroke-miterlimit: 4; fill: rgb(224,247,250); fill-rule: nonzero; opacity: 1; white-space: pre;" ><tspan x="-92.26" y="12.57" >Cat Attack</tspan></text>
</g>
		<g transform="matrix(1 0 0 1 37.04 -60.01)"  >
<g style=""   >
		<g transform="matrix(7.82 0 0 7.82 0 0)"  >
<path style="stroke: none; stroke-width: 1; stroke-dasharray: none; stroke-linecap: butt; stroke-dashoffset: 0; stroke-linejoin: miter; stroke-miterlimit: 4; fill: rgb(252,234,237); fill-rule: nonzero; opacity: 1;"  transform=" translate(-24.89, -5.52)" d="M 32.26 0.96 L 17.519999999999996 6.96 C 17.519999999999996 6.96 29.58 17.04 32.26 0.96 z" stroke-linecap="round" />
</g>
		<g transform="matrix(3.54 0 0 3.54 1.55 12.66)"  >
<path style="stroke: none; stroke-width: 1; stroke-dasharray: none; stroke-linecap: butt; stroke-dashoffset: 0; stroke-linejoin: miter; stroke-miterlimit: 4; fill: rgb(55,71,79); fill-rule: nonzero; opacity: 1;"  transform=" translate(-10.85, -10.92)" d="M 15.22 11.78 C 13.714258786018883 11.78733278126536 12.46451886846032 10.618205624031727 12.37158407434645 9.115317239218859 C 12.27864928023258 7.612428854405992 13.374827013558816 6.2982361180540405 14.869999999999997 6.119999999999999 C 12.628620472783672 4.243242602690452 9.386723785783083 4.167670441117554 7.0603278805206795 5.937947991491766 C 4.733931975258276 7.708225541865978 3.942528351935259 10.852948993265386 5.153850466510617 13.513531494921985 C 6.365172581085975 16.174113996578583 9.256659792747138 17.64207414099333 12.11939232084827 17.049821672925614 C 14.982124848949402 16.457569204857897 17.05379114346733 13.962813897227793 17.11 11.040000000000006 C 16.59368300206077 11.5126976721567 15.920009876647306 11.776463869408532 15.219999999999999 11.78" stroke-linecap="round" />
</g>
</g>
</g>
		<g transform="matrix(3.91 0 0 3.91 -148.85 -41.43)"  >
<path style="stroke: none; stroke-width: 1; stroke-dasharray: none; stroke-linecap: butt; stroke-dashoffset: 0; stroke-linejoin: miter; stroke-miterlimit: 4; fill: rgb(18,18,18); fill-rule: nonzero; opacity: 1;"  transform=" translate(-8.08, -7.22)" d="M 12.08 13.7 C 10.802122029969539 13.599850829842568 9.604310113568278 13.038265420966015 8.71 12.12 L 8.07 11.54 C 5.9 9.54 4.86 8.829999999999998 3.4000000000000004 9.54 C 2.45067324859348 9.996256460043053 1.310853618616329 9.607129621353634 0.8387227634391614 8.665596991087028 C 0.3665919082619937 7.724064360820423 0.7365269151640454 6.577872153493027 1.6699999999999988 6.09 C 5.67 4.089999999999999 8.67 6.839999999999999 10.67 8.649999999999999 L 11.27 9.2 C 11.42 9.33 11.549999999999999 9.44 11.66 9.52 L 11.66 2.67 C 11.659999992198125 1.9804774062759942 12.027855912347972 1.3433322516121229 12.624999993695985 0.9985709524979125 C 13.222144075043998 0.6538096533837021 13.957855924956 0.6538096533837021 14.555000006304013 0.9985709524979121 C 15.152144087652026 1.343332251612122 15.520000007801874 1.9804774062759938 15.52 2.6699999999999995 L 15.52 9.74 C 15.52 10.21 15.23 12.620000000000001 13.26 13.43 C 12.886929613355102 13.588928441344327 12.485511325014508 13.670572838972923 12.08 13.67" stroke-linecap="round" />
</g>
		<g transform="matrix(-1.54 -2.02 -4.66 3.55 0.13 -102.9)"  >
<path style="stroke: none; stroke-width: 1; stroke-dasharray: none; stroke-linecap: butt; stroke-dashoffset: 0; stroke-linejoin: miter; stroke-miterlimit: 4; fill: rgb(15,15,15); fill-rule: nonzero; opacity: 1;"  transform=" translate(-18.48, -10.42)" d="M 18.48 19.8 C 17.970782258171024 19.802659082634193 17.48136517561062 19.602919727100197 17.11941846021099 19.244723754865333 C 16.757471744811365 18.88652778263047 16.55264526921791 18.399217813773852 16.55 17.89 L 16.55 2.96 C 16.549999992198124 2.2704774062759943 16.917855912347974 1.633332251612123 17.514999993695987 1.2885709524979125 C 18.112144075044 0.9438096533837022 18.847855924956 0.9438096533837022 19.445000006304014 1.288570952497912 C 20.042144087652026 1.633332251612122 20.410000007801877 2.270477406275994 20.41 2.9599999999999995 L 20.41 17.89 C 20.41 18.955909567173432 19.54590956717343 19.82 18.48 19.82" stroke-linecap="round" />
</g>
</g>
</g>
		<g transform="matrix(-0.14 -0.81 0.98 -0.17 58.86 0.21)"  >
<g style=""   >
		<g transform="matrix(3.82 0.84 -0.84 3.82 -6.25 0)"  >
<path style="stroke: none; stroke-width: 1; stroke-dasharray: none; stroke-linecap: butt; stroke-dashoffset: 0; stroke-linejoin: miter; stroke-miterlimit: 4; fill: rgb(255,255,255); fill-rule: nonzero; opacity: 1;"  transform=" translate(-18.48, -10.42)" d="M 18.48 19.8 C 17.970782258171024 19.802659082634193 17.48136517561062 19.602919727100197 17.11941846021099 19.244723754865333 C 16.757471744811365 18.88652778263047 16.55264526921791 18.399217813773852 16.55 17.89 L 16.55 2.96 C 16.549999992198124 2.2704774062759943 16.917855912347974 1.633332251612123 17.514999993695987 1.2885709524979125 C 18.112144075044 0.9438096533837022 18.847855924956 0.9438096533837022 19.445000006304014 1.288570952497912 C 20.042144087652026 1.633332251612122 20.410000007801877 2.270477406275994 20.41 2.9599999999999995 L 20.41 17.89 C 20.41 18.955909567173432 19.54590956717343 19.82 18.48 19.82" stroke-linecap="round" />
</g>
		<g transform="matrix(3.91 0 0 3.91 14.36 0)"  >
<path style="stroke: none; stroke-width: 1; stroke-dasharray: none; stroke-linecap: butt; stroke-dashoffset: 0; stroke-linejoin: miter; stroke-miterlimit: 4; fill: rgb(255,255,255); fill-rule: nonzero; opacity: 1;"  transform=" translate(-23.75, -10.43)" d="M 23.75 19.8 C 22.68409043282657 19.8 21.82 18.935909567173432 21.82 17.87 L 21.82 2.96 C 21.819999992198124 2.2704774062759943 22.187855912347974 1.633332251612123 22.784999993695987 1.2885709524979125 C 23.382144075044 0.9438096533837022 24.117855924956 0.9438096533837022 24.715000006304013 1.288570952497912 C 25.312144087652026 1.633332251612122 25.680000007801873 2.270477406275994 25.68 2.9599999999999995 L 25.68 17.89 C 25.682677255279227 18.402683882195184 25.480198390854117 18.895144005640766 25.117671198247443 19.257671198247444 C 24.755144005640766 19.620198390854117 24.262683882195184 19.822677255279228 23.75 19.82" stroke-linecap="round" />
</g>
</g>
</g>
		<g transform="matrix(0.09 0.97 -0.97 0.09 -86.3 -4.35)"  >
<g style=""   >
		<g transform="matrix(3.82 0.84 -0.84 3.82 -6.24 0)"  >
<path style="stroke: none; stroke-width: 1; stroke-dasharray: none; stroke-linecap: butt; stroke-dashoffset: 0; stroke-linejoin: miter; stroke-miterlimit: 4; fill: rgb(255,255,255); fill-rule: nonzero; opacity: 1;"  transform=" translate(-18.48, -10.42)" d="M 18.48 19.8 C 17.970782258171024 19.802659082634193 17.48136517561062 19.602919727100197 17.11941846021099 19.244723754865333 C 16.757471744811365 18.88652778263047 16.55264526921791 18.399217813773852 16.55 17.89 L 16.55 2.96 C 16.549999992198124 2.2704774062759943 16.917855912347974 1.633332251612123 17.514999993695987 1.2885709524979125 C 18.112144075044 0.9438096533837022 18.847855924956 0.9438096533837022 19.445000006304014 1.288570952497912 C 20.042144087652026 1.633332251612122 20.410000007801877 2.270477406275994 20.41 2.9599999999999995 L 20.41 17.89 C 20.41 18.955909567173432 19.54590956717343 19.82 18.48 19.82" stroke-linecap="round" />
</g>
		<g transform="matrix(3.91 0 0 3.91 14.36 0)"  >
<path style="stroke: none; stroke-width: 1; stroke-dasharray: none; stroke-linecap: butt; stroke-dashoffset: 0; stroke-linejoin: miter; stroke-miterlimit: 4; fill: rgb(255,255,255); fill-rule: nonzero; opacity: 1;"  transform=" translate(-23.75, -10.43)" d="M 23.75 19.8 C 22.68409043282657 19.8 21.82 18.935909567173432 21.82 17.87 L 21.82 2.96 C 21.819999992198124 2.2704774062759943 22.187855912347974 1.633332251612123 22.784999993695987 1.2885709524979125 C 23.382144075044 0.9438096533837022 24.117855924956 0.9438096533837022 24.715000006304013 1.288570952497912 C 25.312144087652026 1.633332251612122 25.680000007801873 2.270477406275994 25.68 2.9599999999999995 L 25.68 17.89 C 25.682677255279227 18.402683882195184 25.480198390854117 18.895144005640766 25.117671198247443 19.257671198247444 C 24.755144005640766 19.620198390854117 24.262683882195184 19.822677255279228 23.75 19.82" stroke-linecap="round" />
</g>
</g>
</g>
</g>
</g>
</svg>