<?xml version="1.0" encoding="UTF-8" standalone="no" ?>
<!DOCTYPE svg PUBLIC "-//W3C//DTD SVG 1.1//EN" "http://www.w3.org/Graphics/SVG/1.1/DTD/svg11.dtd">
<svg xmlns="http://www.w3.org/2000/svg" xmlns:xlink="http://www.w3.org/1999/xlink" version="1.1" width="800" height="600" viewBox="0 0 800 600" xml:space="preserve">
<desc>Created with Fabric.js 4.4.0</desc>
<defs>
</defs>
<rect x="0" y="0" width="100%" height="100%" fill="#464954"></rect>
<g transform="matrix(1 0 0 1 403.75 299.5)"  >
<g style=""   >
		<g transform="matrix(1 0 0 1 0 0)"  >
<g style=""   >
		<g transform="matrix(2.78 0 0 2.78 -2.47 221.5)"  >
<g style=""   >
		<g transform="matrix(1 0 0 1 -8.21 -0.08)"  >
<path style="stroke: none; stroke-width: 1; stroke-dasharray: none; stroke-linecap: butt; stroke-dashoffset: 0; stroke-linejoin: miter; stroke-miterlimit: 4; fill: rgb(240,95,106); fill-rule: nonzero; opacity: 1;"  transform=" translate(-6.29, -17.92)" d="M 10.18 19.81 C 11.117910221170385 19.20859838734239 11.633566259850587 18.127289999877082 11.510527524987852 17.01994138611246 C 11.387488790125115 15.912592772347839 10.6470493502618 14.970850549165142 9.6 14.59 L 8.01 0.18 L 5.67 0.81 L 7.02 14.89 C 6.0948210128664195 15.48301934219903 5.579260226490381 16.543875147395436 5.68464142996886 17.637732039502037 C 5.790022633447338 18.73158893160864 6.498625497789003 19.67450989569544 7.52 20.080000000000002 L 8.64 31.78 C 8.64 31.78 2.0700000000000003 34.28 0.8200000000000003 35.53 C 2.3900000000000006 36.160000000000004 11.77 34.28 11.77 34.28 L 10.18 19.810000000000002 z" stroke-linecap="round" />
</g>
		<g transform="matrix(1 0 0 1 8.49 -0.15)"  >
<path style="stroke: none; stroke-width: 1; stroke-dasharray: none; stroke-linecap: butt; stroke-dashoffset: 0; stroke-linejoin: miter; stroke-miterlimit: 4; fill: rgb(240,95,106); fill-rule: nonzero; opacity: 1;"  transform=" translate(-22.99, -17.85)" d="M 20.78 31.89 L 21.16 20.08 C 22.249207846090357 19.651486079126087 22.978885733022317 18.615841501200833 23.015852365726012 17.445956301519224 C 23.052818998429707 16.276071101837616 22.389981148490616 15.196425097282605 21.330000000000002 14.7 L 21.78 0.81 L 19.4 0.34 L 18.74 14.75 C 17.814100586222448 15.231258964424635 17.21403106070867 16.16863693618476 17.164592394793047 17.210968809239194 C 17.11515372887742 18.25330068229363 17.623807746653828 19.243266331996374 18.5 19.81 L 17.81 34.589999999999996 C 17.81 34.589999999999996 27.29 35.87 28.81 35.13999999999999 C 27.49 33.959999999999994 20.78 31.889999999999993 20.78 31.889999999999993 z" stroke-linecap="round" />
</g>
</g>
</g>
		<g transform="matrix(4.37 0 0 4.37 0 -40.25)"  >
<polygon style="stroke: none; stroke-width: 1; stroke-dasharray: none; stroke-linecap: butt; stroke-dashoffset: 0; stroke-linejoin: miter; stroke-miterlimit: 4; fill: rgb(139,244,193); fill-rule: nonzero; opacity: 1;"  points="-50 50,0 -50,50 50" /></g>
		<g transform="matrix(3.23 0 0 3.23 -3.22 -0.44)"  >
<g style=""   >
		<g transform="matrix(1 0 0 1 -0.07 0.24)"  >
<path style="stroke: none; stroke-width: 1; stroke-dasharray: none; stroke-linecap: butt; stroke-dashoffset: 0; stroke-linejoin: miter; stroke-miterlimit: 4; fill: rgb(51,66,154); fill-rule: nonzero; opacity: 1;"  transform=" translate(-10.93, -15.74)" d="M 10.4 30.95 C 21.17 30.95 21.17 23.34 21.17 23.34 L 21.17 3.7 C 21.17 0.7000000000000002 19.270000000000003 0.5300000000000002 19.270000000000003 0.5300000000000002 L 2.58 0.5300000000000002 C 2.58 0.5300000000000002 0.68 0.69 0.68 3.7 L 0.68 23.34 C 0.68 23.34 0.68 30.95 11.45 30.95 L 10.4 30.95 z" stroke-linecap="round" />
</g>
		<g transform="matrix(1 0 0 1 -0.24 -12.83)"  >
<path style="stroke: none; stroke-width: 1; stroke-dasharray: none; stroke-linecap: butt; stroke-dashoffset: 0; stroke-linejoin: miter; stroke-miterlimit: 4; fill: rgb(255,255,255); fill-rule: nonzero; opacity: 1;"  transform=" translate(-10.76, -2.67)" d="M 6.2 0.53 L 15.350000000000001 0.53 C 15.350000000000001 0.53 15.560000000000002 5.010000000000001 12.660000000000002 4.8 C 10.21 4.63 10.760000000000002 1.8899999999999997 10.760000000000002 1.8899999999999997 C 10.760000000000002 1.8899999999999997 10.6 4.8 8.49 4.8 C 5.99 4.8 6.16 0.53 6.16 0.53" stroke-linecap="round" />
</g>
		<g transform="matrix(1 0 0 1 -0.2 13.36)"  >
<path style="stroke: none; stroke-width: 1; stroke-dasharray: none; stroke-linecap: butt; stroke-dashoffset: 0; stroke-linejoin: miter; stroke-miterlimit: 4; fill: rgb(255,255,255); fill-rule: nonzero; opacity: 1;"  transform=" translate(-10.8, -28.86)" d="M 13.07 26.79 C 11.42 26.79 10.96 28.57 10.84 29.34 C 10.969492519719198 28.737800315582867 10.82937432149971 28.109083104846125 10.456420588721917 27.618860414854698 C 10.083466855944126 27.12863772486327 9.514920051419917 26.82586227735443 8.9 26.79 C 6.83 26.64 6.34 28.869999999999997 6.23 30.169999999999998 C 9.190522597001191 31.168642890944557 12.392450607287762 31.196668519043342 15.370000000000005 30.249999999999996 C 15.290000000000001 29.009999999999998 14.88 26.789999999999996 13.07 26.789999999999996" stroke-linecap="round" />
</g>
</g>
</g>
		<g transform="matrix(10 0 0 10 -3.75 -130.5)"  >
<g style=""   >
		<g transform="matrix(1 0 0 1 -13.27 0.44)"  >
<path style="stroke: none; stroke-width: 1; stroke-dasharray: none; stroke-linecap: butt; stroke-dashoffset: 0; stroke-linejoin: miter; stroke-miterlimit: 4; fill: rgb(213,119,40); fill-rule: nonzero; opacity: 1;"  transform=" translate(-5.73, -5.44)" d="M 10.14 7.72 C 10.14 7.72 4.590000000000001 6.96 3.4000000000000004 1.7199999999999998 C 3 0.58 1.81 0.58 1.94 1.98 L 2.08 2.86 C 2.08 2.86 1.02 1.98 0.75 3.12 C 0.6722857903396512 3.8788654008927548 1.033021608596031 4.615852556470305 1.6799999999999995 5.02 C 1.6800000000000002 5.02 -0.31999999999999984 4.13 0.09000000000000008 5.6499999999999995 C 0.5 7.17 5.09 10.219999999999999 10.41 9.959999999999999 C 10.41 9.959999999999999 11.6 10.01 11.41 8.909999999999998 C 11.283582027082701 8.28318617437491 10.77370304602328 7.8054255543271065 10.14 7.719999999999999 z" stroke-linecap="round" />
</g>
		<g transform="matrix(1 0 0 1 13.08 0.44)"  >
<path style="stroke: none; stroke-width: 1; stroke-dasharray: none; stroke-linecap: butt; stroke-dashoffset: 0; stroke-linejoin: miter; stroke-miterlimit: 4; fill: rgb(213,119,40); fill-rule: nonzero; opacity: 1;"  transform=" translate(-32.08, -5.44)" d="M 27.67 7.72 C 27.67 7.72 33.22 6.96 34.410000000000004 1.7199999999999998 C 34.81 0.5799999999999998 36.00000000000001 0.5799999999999998 35.870000000000005 1.9799999999999998 L 35.730000000000004 2.86 C 35.730000000000004 2.86 36.790000000000006 1.98 37.06 3.12 C 37.13771420966035 3.878865400892755 36.77697839140397 4.615852556470304 36.13 5.019999999999999 C 36.13 5.02 38.13 4.13 37.720000000000006 5.6499999999999995 C 37.31000000000001 7.17 32.720000000000006 10.219999999999999 27.400000000000006 9.959999999999999 C 27.400000000000006 9.959999999999999 26.210000000000004 10.01 26.400000000000006 8.909999999999998 C 26.526417972917304 8.28318617437491 27.036296953976727 7.805425554327107 27.670000000000005 7.719999999999999 z" stroke-linecap="round" />
</g>
</g>
</g>
		<g transform="matrix(4.35 -0.01 0.01 4.35 0.95 129.48)"  >
<g style=""   >
		<g transform="matrix(1 0 0 1 0.02 4.13)"  >
<path style="stroke: none; stroke-width: 1; stroke-dasharray: none; stroke-linecap: butt; stroke-dashoffset: 0; stroke-linejoin: miter; stroke-miterlimit: 4; fill: rgb(244,143,177); fill-rule: nonzero; opacity: 1;"  transform=" translate(-16.52, -15.63)" d="M 31.57 12.69 C 19.66 6.79 8.06 9.16 1.47 11.5 C 3.7025244446700487 17.736726357626978 9.499265010864482 21.992399431105227 16.118361769580055 22.254084651798635 C 22.73745852829563 22.515769872492044 28.85207663736243 18.731010979198537 31.57 12.690000000000001 z" stroke-linecap="round" />
</g>
		<g transform="matrix(1 0 0 1 0.25 -4.88)"  >
<path style="stroke: none; stroke-width: 1; stroke-dasharray: none; stroke-linecap: butt; stroke-dashoffset: 0; stroke-linejoin: miter; stroke-miterlimit: 4; fill: rgb(136,26,81); fill-rule: nonzero; opacity: 1;"  transform=" translate(-16.75, -6.62)" d="M 31.57 12.69 C 32.29615258966866 10.620443106949178 32.753232265538074 8.466119046417623 32.93 6.2800000000000065 C 32.93 -2.540000000000001 25.689999999999998 1.4499999999999993 16.759999999999998 1.4499999999999993 C 7.829999999999998 1.4499999999999993 0.5799999999999983 -2.5500000000000007 0.5799999999999983 6.279999999999999 C 0.5818529095199693 8.057596688672744 0.8827174528864151 9.822217943024256 1.4700000000000006 11.500000000000005 C 8.059999999999999 9.16 19.66 6.79 31.57 12.69 z" stroke-linecap="round" />
</g>
		<g transform="matrix(1 0 0 1 -10.96 -7.47)"  >
<path style="stroke: none; stroke-width: 1; stroke-dasharray: none; stroke-linecap: butt; stroke-dashoffset: 0; stroke-linejoin: miter; stroke-miterlimit: 4; fill: rgb(255,255,255); fill-rule: nonzero; opacity: 1;"  transform=" translate(-5.54, -4.04)" d="M 3.55 0.81 C 3.6399999999999997 2.81 3.9499999999999997 6.18 4.99 7.109999999999999 C 5.890000000000001 7.859999999999999 6.63 7.56 6.63 6.81 C 6.63 6.3 7.12 2.8999999999999995 7.53 0.6299999999999999 C 6.202973486148844 0.4577817238119921 4.856063251904944 0.5186972620441263 3.5499999999999936 0.8099999999999996 z" stroke-linecap="round" />
</g>
		<g transform="matrix(1 0 0 1 11.52 -7.47)"  >
<path style="stroke: none; stroke-width: 1; stroke-dasharray: none; stroke-linecap: butt; stroke-dashoffset: 0; stroke-linejoin: miter; stroke-miterlimit: 4; fill: rgb(255,255,255); fill-rule: nonzero; opacity: 1;"  transform=" translate(-28.02, -4.04)" d="M 30.01 0.81 C 29.92 2.81 29.6 6.18 28.560000000000002 7.109999999999999 C 27.67 7.859999999999999 26.930000000000003 7.56 26.930000000000003 6.81 C 26.930000000000003 6.3 26.430000000000003 2.8999999999999995 26.030000000000005 0.6299999999999999 C 27.357052254134267 0.45839692761394485 28.703855579907792 0.5193076307896342 30.010000000000005 0.8100000000000014 z" stroke-linecap="round" />
</g>
</g>
</g>
		<g transform="matrix(3.23 0 0 3.23 -88.22 -2.44)"  >
<g style=""   >
		<g transform="matrix(1 0 0 1 -0.07 0.24)"  >
<path style="stroke: none; stroke-width: 1; stroke-dasharray: none; stroke-linecap: butt; stroke-dashoffset: 0; stroke-linejoin: miter; stroke-miterlimit: 4; fill: rgb(51,66,154); fill-rule: nonzero; opacity: 1;"  transform=" translate(-10.93, -15.74)" d="M 10.4 30.95 C 21.17 30.95 21.17 23.34 21.17 23.34 L 21.17 3.7 C 21.17 0.7000000000000002 19.270000000000003 0.5300000000000002 19.270000000000003 0.5300000000000002 L 2.58 0.5300000000000002 C 2.58 0.5300000000000002 0.68 0.69 0.68 3.7 L 0.68 23.34 C 0.68 23.34 0.68 30.95 11.45 30.95 L 10.4 30.95 z" stroke-linecap="round" />
</g>
		<g transform="matrix(1 0 0 1 -0.24 -12.83)"  >
<path style="stroke: none; stroke-width: 1; stroke-dasharray: none; stroke-linecap: butt; stroke-dashoffset: 0; stroke-linejoin: miter; stroke-miterlimit: 4; fill: rgb(255,255,255); fill-rule: nonzero; opacity: 1;"  transform=" translate(-10.76, -2.67)" d="M 6.2 0.53 L 15.350000000000001 0.53 C 15.350000000000001 0.53 15.560000000000002 5.010000000000001 12.660000000000002 4.8 C 10.21 4.63 10.760000000000002 1.8899999999999997 10.760000000000002 1.8899999999999997 C 10.760000000000002 1.8899999999999997 10.6 4.8 8.49 4.8 C 5.99 4.8 6.16 0.53 6.16 0.53" stroke-linecap="round" />
</g>
		<g transform="matrix(1 0 0 1 -0.2 13.36)"  >
<path style="stroke: none; stroke-width: 1; stroke-dasharray: none; stroke-linecap: butt; stroke-dashoffset: 0; stroke-linejoin: miter; stroke-miterlimit: 4; fill: rgb(255,255,255); fill-rule: nonzero; opacity: 1;"  transform=" translate(-10.8, -28.86)" d="M 13.07 26.79 C 11.42 26.79 10.96 28.57 10.84 29.34 C 10.969492519719198 28.737800315582867 10.82937432149971 28.109083104846125 10.456420588721917 27.618860414854698 C 10.083466855944126 27.12863772486327 9.514920051419917 26.82586227735443 8.9 26.79 C 6.83 26.64 6.34 28.869999999999997 6.23 30.169999999999998 C 9.190522597001191 31.168642890944557 12.392450607287762 31.196668519043342 15.370000000000005 30.249999999999996 C 15.290000000000001 29.009999999999998 14.88 26.789999999999996 13.07 26.789999999999996" stroke-linecap="round" />
</g>
</g>
</g>
		<g transform="matrix(3.23 0 0 3.23 83.78 -4.44)"  >
<g style=""   >
		<g transform="matrix(1 0 0 1 -0.07 0.24)"  >
<path style="stroke: none; stroke-width: 1; stroke-dasharray: none; stroke-linecap: butt; stroke-dashoffset: 0; stroke-linejoin: miter; stroke-miterlimit: 4; fill: rgb(51,66,154); fill-rule: nonzero; opacity: 1;"  transform=" translate(-10.93, -15.74)" d="M 10.4 30.95 C 21.17 30.95 21.17 23.34 21.17 23.34 L 21.17 3.7 C 21.17 0.7000000000000002 19.270000000000003 0.5300000000000002 19.270000000000003 0.5300000000000002 L 2.58 0.5300000000000002 C 2.58 0.5300000000000002 0.68 0.69 0.68 3.7 L 0.68 23.34 C 0.68 23.34 0.68 30.95 11.45 30.95 L 10.4 30.95 z" stroke-linecap="round" />
</g>
		<g transform="matrix(1 0 0 1 -0.24 -12.83)"  >
<path style="stroke: none; stroke-width: 1; stroke-dasharray: none; stroke-linecap: butt; stroke-dashoffset: 0; stroke-linejoin: miter; stroke-miterlimit: 4; fill: rgb(255,255,255); fill-rule: nonzero; opacity: 1;"  transform=" translate(-10.76, -2.67)" d="M 6.2 0.53 L 15.350000000000001 0.53 C 15.350000000000001 0.53 15.560000000000002 5.010000000000001 12.660000000000002 4.8 C 10.21 4.63 10.760000000000002 1.8899999999999997 10.760000000000002 1.8899999999999997 C 10.760000000000002 1.8899999999999997 10.6 4.8 8.49 4.8 C 5.99 4.8 6.16 0.53 6.16 0.53" stroke-linecap="round" />
</g>
		<g transform="matrix(1 0 0 1 -0.2 13.36)"  >
<path style="stroke: none; stroke-width: 1; stroke-dasharray: none; stroke-linecap: butt; stroke-dashoffset: 0; stroke-linejoin: miter; stroke-miterlimit: 4; fill: rgb(255,255,255); fill-rule: nonzero; opacity: 1;"  transform=" translate(-10.8, -28.86)" d="M 13.07 26.79 C 11.42 26.79 10.96 28.57 10.84 29.34 C 10.969492519719198 28.737800315582867 10.82937432149971 28.109083104846125 10.456420588721917 27.618860414854698 C 10.083466855944126 27.12863772486327 9.514920051419917 26.82586227735443 8.9 26.79 C 6.83 26.64 6.34 28.869999999999997 6.23 30.169999999999998 C 9.190522597001191 31.168642890944557 12.392450607287762 31.196668519043342 15.370000000000005 30.249999999999996 C 15.290000000000001 29.009999999999998 14.88 26.789999999999996 13.07 26.789999999999996" stroke-linecap="round" />
</g>
</g>
</g>
		<g transform="matrix(4.76 0 0 4.76 -4.75 -113.5)"  >
<g style=""   >
		<g transform="matrix(1 0 0 1 0.36 0.44)"  >
<path style="stroke: none; stroke-width: 1; stroke-dasharray: none; stroke-linecap: butt; stroke-dashoffset: 0; stroke-linejoin: miter; stroke-miterlimit: 4; fill: rgb(252,234,237); fill-rule: nonzero; opacity: 1;"  transform=" translate(-10.86, -10.94)" d="M 20.91 10.89 C 20.930245695049774 14.959334404908912 18.49451981093577 18.63924663601744 14.740740328014653 20.210562002436255 C 10.986960845093535 21.781877368855067 6.656101402462429 20.93442760669923 3.771445023186132 18.06412275169794 C 0.8867886439098349 15.19381789669665 0.0177492598993787 10.867238975627059 1.5703231070831372 7.105669245290473 C 3.1228969542668956 3.3440995149538875 6.790615232666353 0.8900503627363712 10.859999999999987 0.8900000000000006 C 16.391 0.8900000000000006 20.881999999999998 5.36 20.91 10.89" stroke-linecap="round" />
</g>
		<g transform="matrix(1 0 0 1 0.35 0.42)"  >
<path style="stroke: none; stroke-width: 1; stroke-dasharray: none; stroke-linecap: butt; stroke-dashoffset: 0; stroke-linejoin: miter; stroke-miterlimit: 4; fill: rgb(55,71,79); fill-rule: nonzero; opacity: 1;"  transform=" translate(-10.85, -10.92)" d="M 15.22 11.78 C 13.714258786018883 11.78733278126536 12.46451886846032 10.618205624031727 12.37158407434645 9.115317239218859 C 12.27864928023258 7.612428854405992 13.374827013558816 6.2982361180540405 14.869999999999997 6.119999999999999 C 12.628620472783672 4.243242602690452 9.386723785783083 4.167670441117554 7.0603278805206795 5.937947991491766 C 4.733931975258276 7.708225541865978 3.942528351935259 10.852948993265386 5.153850466510617 13.513531494921985 C 6.365172581085975 16.174113996578583 9.256659792747138 17.64207414099333 12.11939232084827 17.049821672925614 C 14.982124848949402 16.457569204857897 17.05379114346733 13.962813897227793 17.11 11.040000000000006 C 16.59368300206077 11.5126976721567 15.920009876647306 11.776463869408532 15.219999999999999 11.78" stroke-linecap="round" />
</g>
</g>
</g>
		<g transform="matrix(3.57 0 0 3.57 -0.39 -221.5)"  >
<g style=""   >
		<g transform="matrix(1 0 0 1 0.14 -0.16)"  >
<path style="stroke: none; stroke-width: 1; stroke-dasharray: none; stroke-linecap: butt; stroke-dashoffset: 0; stroke-linejoin: miter; stroke-miterlimit: 4; fill: rgb(248,158,27); fill-rule: nonzero; opacity: 1;"  transform=" translate(-8.64, -13.84)" d="M 2.14 14.89 C 3.71 21.2 6.140000000000001 26.21 7.870000000000001 27.22 C 8.06 27.409 8.312000000000001 27.523 8.580000000000002 27.54 C 8.778114104810147 27.532586388668026 8.969553921176008 27.466452633923456 9.130000000000003 27.349999999999998 C 10.930000000000003 26.77 13.490000000000002 21.549999999999997 15.130000000000003 14.889999999999997 C 16.96 7.549999999999997 16.990000000000002 1.2399999999999967 15.200000000000003 0.7899999999999974 C 14.130000000000003 0.5299999999999974 12.640000000000002 2.4499999999999975 11.200000000000003 5.609999999999998 C 10.59 2.29 9.62 0.14 8.53 0.14 C 7.4399999999999995 0.14 6.529999999999999 2.21 5.909999999999999 5.42 C 4.52 2.42 3.07 0.53 2.02 0.79 C 0.28 1.23 0.3500000000000001 7.54 2.14 14.89 z" stroke-linecap="round" />
</g>
		<g transform="matrix(1 0 0 1 3.83 -0.17)"  >
<path style="stroke: none; stroke-width: 1; stroke-dasharray: none; stroke-linecap: butt; stroke-dashoffset: 0; stroke-linejoin: miter; stroke-miterlimit: 4; fill: rgb(219,140,24); fill-rule: nonzero; opacity: 1;"  transform=" translate(-12.33, -13.83)" d="M 15.22 0.78 C 14.15 0.52 12.66 2.44 11.22 5.6000000000000005 C 10.61 2.28 9.64 0.13 8.55 0.13 C 8.399455293696208 0.13708599025134094 8.252459340786427 0.17810811664476836 8.120000000000001 0.25000000000000044 L 8.120000000000001 27.4 C 8.249859331058062 27.479388813443478 8.397908637459192 27.524147906076376 8.55 27.529999999999998 C 8.748114104810146 27.522586388668024 8.939553921176007 27.456452633923455 9.100000000000001 27.339999999999996 C 10.900000000000002 26.759999999999998 13.46 21.539999999999996 15.100000000000001 14.879999999999995 C 16.98 7.539999999999996 17.01 1.229999999999995 15.22 0.7799999999999958 z" stroke-linecap="round" />
</g>
</g>
</g>
		<g transform="matrix(5.56 0 0 5.56 0.47 -159.5)"  >
<g style=""   >
		<g transform="matrix(1 0 0 1 -12.72 -0.16)"  >
<path style="stroke: none; stroke-width: 1; stroke-dasharray: none; stroke-linecap: butt; stroke-dashoffset: 0; stroke-linejoin: miter; stroke-miterlimit: 4; fill: rgb(255,202,39); fill-rule: nonzero; opacity: 1;"  transform=" translate(-4.78, -8.84)" d="M 9.51 9.05 C 9.51 9.05 3.4399999999999995 7.220000000000001 3.13 1.1500000000000004 C 1.3099999999999998 -2.8499999999999996 -1.12 6.010000000000001 0.6999999999999997 11.15 C 2.5199999999999996 16.29 4.039999999999999 17.53 4.039999999999999 17.53 L 9.509999999999998 9.05 z" stroke-linecap="round" />
</g>
		<g transform="matrix(1 0 0 1 11.93 -0.16)"  >
<path style="stroke: none; stroke-width: 1; stroke-dasharray: none; stroke-linecap: butt; stroke-dashoffset: 0; stroke-linejoin: miter; stroke-miterlimit: 4; fill: rgb(255,202,39); fill-rule: nonzero; opacity: 1;"  transform=" translate(-29.43, -8.84)" d="M 24.7 9.05 C 24.7 9.05 30.78 7.220000000000001 31.09 1.1500000000000004 C 32.91 -2.8499999999999996 35.34 6.010000000000001 33.52 11.15 C 31.700000000000003 16.29 30.17 17.53 30.17 17.53 L 24.7 9.05 z" stroke-linecap="round" />
</g>
</g>
</g>
</g>
</g>
		<g transform="matrix(5.26 0 0 5.26 160.23 85.14)"  >
<path style="stroke: none; stroke-width: 1; stroke-dasharray: none; stroke-linecap: butt; stroke-dashoffset: 0; stroke-linejoin: miter; stroke-miterlimit: 4; fill: rgb(23,134,200); fill-rule: nonzero; opacity: 1;"  transform=" translate(-31.94, -9.63)" d="M 30.1 0.3 C 30.1 0.3 33.050000000000004 3.67 34.160000000000004 12.84 C 35.13649368331721 14.554741016067583 35.4898017610116 16.55446473581779 35.160000000000004 18.5 C 34.75000000000001 20.18 31.840000000000003 17.09 31.840000000000003 17.09 C 31.840000000000003 17.09 32.67 14.43 31.700000000000003 14.57 L 30.700000000000003 14.71 C 30.700000000000003 14.71 30.01 13.59 30.150000000000002 13.16 C 30.290000000000003 12.73 32.78 12.88 32.78 11.9 C 32.78 10.92 29.46 3.4800000000000004 28.900000000000002 2.780000000000001 C 28.340000000000003 2.080000000000001 28.44 -0.07999999999999874 30.060000000000002 0.30000000000000115" stroke-linecap="round" />
</g>
		<g transform="matrix(5.26 0 0 5.26 -169.17 103.12)"  >
<path style="stroke: none; stroke-width: 1; stroke-dasharray: none; stroke-linecap: butt; stroke-dashoffset: 0; stroke-linejoin: miter; stroke-miterlimit: 4; fill: rgb(23,134,200); fill-rule: nonzero; opacity: 1;"  transform=" translate(-3.91, -9.62)" d="M 5.78 0.3 C 5.78 0.3 2.7800000000000002 3.67 1.71 12.84 C 0.7335063166827885 14.554741016067585 0.3801982389884042 16.554464735817792 0.71 18.500000000000007 C 1.1199999999999999 20.18 4.029999999999999 17.09 4.029999999999999 17.09 C 4.029999999999999 17.09 3.1999999999999993 14.43 4.169999999999999 14.57 L 5.169999999999999 14.71 C 5.169999999999999 14.71 5.859999999999999 13.59 5.719999999999999 13.16 C 5.579999999999999 12.73 3.049999999999999 12.89 3.049999999999999 11.89 C 3.049999999999999 10.89 6.379999999999999 3.4700000000000006 6.929999999999999 2.7700000000000014 C 7.479999999999999 2.070000000000001 7.389999999999999 -0.08999999999999853 5.779999999999999 0.29000000000000137" stroke-linecap="round" />
</g>
</g>
</g>
</svg>