<?xml version="1.0" encoding="UTF-8" standalone="no" ?>
<!DOCTYPE svg PUBLIC "-//W3C//DTD SVG 1.1//EN" "http://www.w3.org/Graphics/SVG/1.1/DTD/svg11.dtd">
<svg xmlns="http://www.w3.org/2000/svg" xmlns:xlink="http://www.w3.org/1999/xlink" version="1.1" width="780.0000000000001" height="780.0000000000001" viewBox="0 0 600 600" xml:space="preserve">
<desc>Created with Fabric.js 4.4.0</desc>
<defs>
</defs>
<rect x="0" y="0" width="100%" height="100%" fill="#464954"></rect>
<g transform="matrix(1 0 0 1 299.82 258.61)"  >
<g style=""   >
		<g transform="matrix(1 0 0 1 0 0)"  >
<g style=""   >
		<g transform="matrix(1 0 0 1 0 0)"  >
<g style=""   >
		<g transform="matrix(1 0 0 1 0 0)"  >
<g style=""   >
		<g transform="matrix(7.55 0 0 1.71 -0.68 197.87)"  >
<ellipse style="stroke: none; stroke-width: 1; stroke-dasharray: none; stroke-linecap: butt; stroke-dashoffset: 0; stroke-linejoin: miter; stroke-miterlimit: 4; fill: rgb(48,50,54); fill-rule: nonzero; opacity: 1;"  cx="0" cy="0" rx="14.7" ry="17.92" />
</g>
		<g transform="matrix(1 0 0 1 0.05 140.21)"  >
<g style=""   >
		<g transform="matrix(1 0 0 1 0 0)"  >
<g style=""   >
		<g transform="matrix(8.13 0 0 8.13 56.81 -0.69)"  >
<path style="stroke: none; stroke-width: 1; stroke-dasharray: none; stroke-linecap: butt; stroke-dashoffset: 0; stroke-linejoin: miter; stroke-miterlimit: 4; fill: rgb(93,107,177); fill-rule: nonzero; opacity: 1;"  transform=" translate(-33.56, -7.81)" d="M 39.08 2.5 C 37.88546238405705 5.711316088930937 36.46179910398786 8.832681120819734 34.82 11.839999999999996 C 34.68 11.84 39.21 13.08 39.35 14.32 C 39.49 15.56 31.25 15.690000000000001 29.730000000000004 14.59 C 28.360000000000003 12.94 27.810000000000002 7.72 27.810000000000002 7.72 C 27.810000000000002 7.72 26.81 0.44 34.27 0.3 C 34.27 0.3 38.11 -0.040000000000000036 39.080000000000005 2.5 z" stroke-linecap="round" />
</g>
		<g transform="matrix(8.13 0 0 8.13 -56.82 0.72)"  >
<path style="stroke: none; stroke-width: 1; stroke-dasharray: none; stroke-linecap: butt; stroke-dashoffset: 0; stroke-linejoin: miter; stroke-miterlimit: 4; fill: rgb(93,107,177); fill-rule: nonzero; opacity: 1;"  transform=" translate(-6.43, -7.61)" d="M 0.91 2.3 C 2.1066514826133336 5.510441770473019 3.530246936420723 8.631658094078887 5.169999999999998 11.63999999999999 C 5.31 11.64 0.7800000000000002 12.870000000000001 0.6399999999999997 14.110000000000001 C 0.49999999999999967 15.350000000000001 8.739999999999998 15.48 10.259999999999998 14.39 C 11.629999999999999 12.74 12.179999999999998 7.5200000000000005 12.179999999999998 7.5200000000000005 C 12.179999999999998 7.5200000000000005 13.18 0.24 5.72 0.1 C 5.72 0.1 1.88 -0.24999999999999997 0.9100000000000001 2.3000000000000003 z" stroke-linecap="round" />
</g>
</g>
</g>
		<g transform="matrix(0.22 0 0 0.23 66.62 5.11)"  >
<circle style="stroke: none; stroke-width: 1; stroke-dasharray: none; stroke-linecap: butt; stroke-dashoffset: 0; stroke-linejoin: miter; stroke-miterlimit: 4; fill: rgb(122,133,193); fill-rule: nonzero; opacity: 1;"  cx="0" cy="0" r="50" />
</g>
		<g transform="matrix(0.22 0 0 0.23 -64.15 7.41)"  >
<circle style="stroke: none; stroke-width: 1; stroke-dasharray: none; stroke-linecap: butt; stroke-dashoffset: 0; stroke-linejoin: miter; stroke-miterlimit: 4; fill: rgb(122,133,193); fill-rule: nonzero; opacity: 1;"  cx="0" cy="0" r="50" />
</g>
		<g transform="matrix(0.15 0 0 0.12 32.31 25.7)"  >
<circle style="stroke: none; stroke-width: 1; stroke-dasharray: none; stroke-linecap: butt; stroke-dashoffset: 0; stroke-linejoin: miter; stroke-miterlimit: 4; fill: rgb(122,133,193); fill-rule: nonzero; opacity: 1;"  cx="0" cy="0" r="50" />
</g>
		<g transform="matrix(0.15 0 0 0.12 -28.46 -0.46)"  >
<circle style="stroke: none; stroke-width: 1; stroke-dasharray: none; stroke-linecap: butt; stroke-dashoffset: 0; stroke-linejoin: miter; stroke-miterlimit: 4; fill: rgb(122,133,193); fill-rule: nonzero; opacity: 1;"  cx="0" cy="0" r="50" />
</g>
		<g transform="matrix(0.14 0 0 0.15 -42.81 24.9)"  >
<circle style="stroke: none; stroke-width: 1; stroke-dasharray: none; stroke-linecap: butt; stroke-dashoffset: 0; stroke-linejoin: miter; stroke-miterlimit: 4; fill: rgb(122,133,193); fill-rule: nonzero; opacity: 1;"  cx="0" cy="0" r="50" />
</g>
		<g transform="matrix(0.14 0 0 0.15 37.19 -2.02)"  >
<circle style="stroke: none; stroke-width: 1; stroke-dasharray: none; stroke-linecap: butt; stroke-dashoffset: 0; stroke-linejoin: miter; stroke-miterlimit: 4; fill: rgb(122,133,193); fill-rule: nonzero; opacity: 1;"  cx="0" cy="0" r="50" />
</g>
</g>
</g>
		<g transform="matrix(1 0 0 0.9 0 -35.71)"  >
<g style=""   >
		<g transform="matrix(0.76 0 0 0.79 -148.79 67.57)"  >
<g style=""   >
		<g transform="matrix(-12.4 -0.14 0.14 -12.07 -69.4 96.02)"  >
<path style="stroke: none; stroke-width: 1; stroke-dasharray: none; stroke-linecap: butt; stroke-dashoffset: 0; stroke-linejoin: miter; stroke-miterlimit: 4; fill: rgb(248,158,27); fill-rule: nonzero; opacity: 1;"  transform=" translate(-15.14, -3.2)" d="M 13.82 4.8 C 13.82 4.8 15.24 0.74 16.17 0.6 C 17.1 0.45999999999999996 15.46 5.52 15.46 5.52 C 15.46 5.52 14.24 6.51 13.82 4.8 z" stroke-linecap="round" />
</g>
		<g transform="matrix(-12.4 -0.14 0.14 -12.07 -28.02 88.79)"  >
<path style="stroke: none; stroke-width: 1; stroke-dasharray: none; stroke-linecap: butt; stroke-dashoffset: 0; stroke-linejoin: miter; stroke-miterlimit: 4; fill: rgb(248,158,27); fill-rule: nonzero; opacity: 1;"  transform=" translate(-11.81, -3.84)" d="M 9.73 6.44 C 9.73 6.44 11.44 1.5 13.82 0.65 C 14.290000000000001 1.31 12.11 6.0600000000000005 12.11 6.0600000000000005 C 12.11 6.0600000000000005 10.87 7.960000000000001 9.73 6.44 z" stroke-linecap="round" />
</g>
		<g transform="matrix(-12.4 -0.14 0.14 -12.07 -97.29 71)"  >
<path style="stroke: none; stroke-width: 1; stroke-dasharray: none; stroke-linecap: butt; stroke-dashoffset: 0; stroke-linejoin: miter; stroke-miterlimit: 4; fill: rgb(248,158,27); fill-rule: nonzero; opacity: 1;"  transform=" translate(-17.41, -5.25)" d="M 17.68 8.75 C 17.68 8.75 19.55 3.87 18.29 1.6900000000000004 C 17.5 1.8900000000000003 16.11 6.930000000000001 16.11 6.930000000000001 C 16.11 6.930000000000001 15.83 9.18 17.68 8.75 z" stroke-linecap="round" />
</g>
		<g transform="matrix(-12.4 -0.14 0.14 -12.07 3.94 -19.29)"  >
<path style="stroke: none; stroke-width: 1; stroke-dasharray: none; stroke-linecap: butt; stroke-dashoffset: 0; stroke-linejoin: miter; stroke-miterlimit: 4; fill: rgb(94,107,177); fill-rule: nonzero; opacity: 1;"  transform=" translate(-9.33, -9.82)" d="M 2.35 10.03 C 2.35 10.03 3.8600000000000003 16.81 7.640000000000001 14.34 C 11.42 11.87 4.94 3.99 12.21 1.3399999999999999 C 19.48 -1.31 20.3 10.26 13.21 15.72 C 6.120000000000001 21.18 1.3000000000000007 18.09 0.6900000000000013 14.72 C 0.22914603581886667 12.948835399977455 0.8996723423408124 11.076122875253445 2.380000000000004 9.999999999999998" stroke-linecap="round" />
</g>
		<g transform="matrix(-12.4 -0.14 0.14 -12.07 -47.07 29.62)"  >
<path style="stroke: none; stroke-width: 1; stroke-dasharray: none; stroke-linecap: butt; stroke-dashoffset: 0; stroke-linejoin: miter; stroke-miterlimit: 4; fill: rgb(122,133,193); fill-rule: nonzero; opacity: 1;"  transform=" translate(-13.4, -5.72)" d="M 14.74 6.3 C 14.421607841722548 7.040889991898009 13.56288999189801 7.383392158277452 12.822000000000001 7.0649999999999995 C 12.08111000810199 6.746607841722548 11.738607841722548 5.887889991898009 12.057 5.147 C 12.375392158277453 4.406110008101991 13.23411000810199 4.063607841722548 13.975 4.382 C 14.71588999189801 4.7003921582774515 15.058392158277453 5.559110008101989 14.74 6.299999999999999" stroke-linecap="round" />
</g>
		<g transform="matrix(-12.4 -0.14 0.14 -12.07 -60.05 -34.14)"  >
<path style="stroke: none; stroke-width: 1; stroke-dasharray: none; stroke-linecap: butt; stroke-dashoffset: 0; stroke-linejoin: miter; stroke-miterlimit: 4; fill: rgb(122,133,193); fill-rule: nonzero; opacity: 1;"  transform=" translate(-14.5, -10.99)" d="M 15.35 11.34 C 15.224714356906263 11.645160237428078 14.944713681521948 11.859132473381454 14.617361258741415 11.899871326731622 C 14.29000883596088 11.94061018008179 13.966103775829819 11.801793725739907 13.769844033234746 11.536649658657335 C 13.573584290639673 11.271505591574762 13.535425788823623 10.921179422535518 13.67 10.62 C 13.873702349524333 10.164110602896576 14.405571287694563 9.956074009686594 14.864527368721252 10.152769472983746 C 15.323483449747938 10.349464936280897 15.539642425816732 10.878084921307604 15.35 11.34" stroke-linecap="round" />
</g>
		<g transform="matrix(-12.4 -0.14 0.14 -12.07 -15.4 -58.52)"  >
<path style="stroke: none; stroke-width: 1; stroke-dasharray: none; stroke-linecap: butt; stroke-dashoffset: 0; stroke-linejoin: miter; stroke-miterlimit: 4; fill: rgb(122,133,193); fill-rule: nonzero; opacity: 1;"  transform=" translate(-10.93, -13.06)" d="M 11.55 13.32 C 11.481649455194718 13.487369066343831 11.348562162484338 13.620013036893686 11.180965968621793 13.687804755759434 C 11.01336977475925 13.755596474625182 10.825490217691902 13.752781791625868 10.66 13.68 C 10.314822031355755 13.530883117545686 10.155883117545686 13.130177968644245 10.305 12.785 C 10.454116882454313 12.439822031355755 10.854822031355752 12.280883117545686 11.2 12.43 C 11.540812617856387 12.580659766906914 11.696891640207335 12.977546423742185 11.549999999999999 13.32" stroke-linecap="round" />
</g>
</g>
</g>
		<g transform="matrix(0.76 0 0 0.79 149.34 60.43)"  >
<g style=""   >
		<g transform="matrix(-12.4 -0.14 0.14 -12.07 68.03 96.86)"  >
<path style="stroke: none; stroke-width: 1; stroke-dasharray: none; stroke-linecap: butt; stroke-dashoffset: 0; stroke-linejoin: miter; stroke-miterlimit: 4; fill: rgb(248,158,27); fill-rule: nonzero; opacity: 1;"  transform=" translate(-4.59, -3.2)" d="M 5.91 4.8 C 5.91 4.8 4.48 0.74 3.56 0.6 C 2.64 0.45999999999999996 4.27 5.52 4.27 5.52 C 4.27 5.52 5.4799999999999995 6.51 5.909999999999999 4.8 z" stroke-linecap="round" />
</g>
		<g transform="matrix(-12.4 -0.14 0.14 -12.07 26.93 88.68)"  >
<path style="stroke: none; stroke-width: 1; stroke-dasharray: none; stroke-linecap: butt; stroke-dashoffset: 0; stroke-linejoin: miter; stroke-miterlimit: 4; fill: rgb(248,158,27); fill-rule: nonzero; opacity: 1;"  transform=" translate(-7.92, -3.84)" d="M 9.99 6.44 C 9.99 6.44 8.28 1.5 5.91 0.65 C 5.43 1.31 7.62 6.0600000000000005 7.62 6.0600000000000005 C 7.62 6.0600000000000005 8.85 7.960000000000001 9.99 6.44 z" stroke-linecap="round" />
</g>
		<g transform="matrix(-12.4 -0.14 0.14 -12.07 96.54 72.48)"  >
<path style="stroke: none; stroke-width: 1; stroke-dasharray: none; stroke-linecap: butt; stroke-dashoffset: 0; stroke-linejoin: miter; stroke-miterlimit: 4; fill: rgb(248,158,27); fill-rule: nonzero; opacity: 1;"  transform=" translate(-2.32, -5.25)" d="M 2.05 8.75 C 2.05 8.75 0.17 3.87 1.44 1.69 C 2.23 1.89 3.62 6.93 3.62 6.93 C 3.62 6.93 3.9000000000000004 9.18 2.05 8.75 z" stroke-linecap="round" />
</g>
		<g transform="matrix(-12.4 -0.14 0.14 -12.07 -3.18 -20.12)"  >
<path style="stroke: none; stroke-width: 1; stroke-dasharray: none; stroke-linecap: butt; stroke-dashoffset: 0; stroke-linejoin: miter; stroke-miterlimit: 4; fill: rgb(94,107,177); fill-rule: nonzero; opacity: 1;"  transform=" translate(-9.45, -9.82)" d="M 16.43 10.03 C 16.43 10.03 14.91 16.81 11.129999999999999 14.34 C 7.35 11.87 13.829999999999998 3.99 6.559999999999999 1.3399999999999999 C -0.7100000000000009 -1.31 -1.5200000000000014 10.26 5.559999999999999 15.72 C 12.639999999999999 21.18 17.47 18.09 18.089999999999996 14.72 C 18.55085396418113 12.948835399977455 17.880327657659187 11.076122875253445 16.399999999999995 9.999999999999998" stroke-linecap="round" />
</g>
		<g transform="matrix(-12.4 -0.14 0.14 -12.07 47.3 30.03)"  >
<path style="stroke: none; stroke-width: 1; stroke-dasharray: none; stroke-linecap: butt; stroke-dashoffset: 0; stroke-linejoin: miter; stroke-miterlimit: 4; fill: rgb(122,133,193); fill-rule: nonzero; opacity: 1;"  transform=" translate(-5.33, -5.72)" d="M 3.99 6.3 C 4.1417421898465925 6.654706299571114 4.428585344892612 6.934316189892643 4.7870506694658435 7.076951607000316 C 5.145515994039075 7.219587024107989 5.546044981224693 7.213486467868158 5.9 7.06 C 6.444445382582954 6.828334482465968 6.795237629288442 6.290976877050366 6.788255741376452 5.699334299245664 C 6.781273853464462 5.107691721440962 6.417898504141321 4.578761903836623 5.868137798798491 4.360008953019581 C 5.318377093455662 4.141256002202539 4.690946595179489 4.275938466835423 4.279394753184938 4.701044063106632 C 3.8678429111903867 5.126149659377842 3.7535543893991155 5.757613459000149 3.99 6.3" stroke-linecap="round" />
</g>
		<g transform="matrix(-12.4 -0.14 0.14 -12.07 62.21 -33.33)"  >
<path style="stroke: none; stroke-width: 1; stroke-dasharray: none; stroke-linecap: butt; stroke-dashoffset: 0; stroke-linejoin: miter; stroke-miterlimit: 4; fill: rgb(122,133,193); fill-rule: nonzero; opacity: 1;"  transform=" translate(-4.18, -10.98)" d="M 3.35 11.34 C 3.5553118513435877 11.797212377130263 4.086007019971703 12.009490444581509 4.55 11.82 C 5.005889397103417 11.616297650475664 5.213925990313393 11.084428712305437 5.017230527016243 10.625472631278754 C 4.820535063719093 10.166516550252071 4.2919150786923925 9.950357574183275 3.83 10.14 C 3.368666603499392 10.341337672532674 3.1547845560048513 10.876042791269024 3.35 11.34" stroke-linecap="round" />
</g>
		<g transform="matrix(-12.4 -0.14 0.14 -12.07 17.59 -58.95)"  >
<path style="stroke: none; stroke-width: 1; stroke-dasharray: none; stroke-linecap: butt; stroke-dashoffset: 0; stroke-linejoin: miter; stroke-miterlimit: 4; fill: rgb(122,133,193); fill-rule: nonzero; opacity: 1;"  transform=" translate(-7.81, -13.06)" d="M 7.17 13.32 C 7.275567904123447 13.580514893066763 7.528615264372216 13.750949506437173 7.809707035943492 13.750860931464274 C 8.09079880751477 13.750772356491373 8.343738706044133 13.58017830121527 8.449142407254996 13.319596928777303 C 8.55454610846586 13.059015556339334 8.491341147898673 12.760542681653389 8.289359440376337 12.565053598283074 C 8.087377732854002 12.369564514912758 7.786999761266101 12.316141690686312 7.53 12.43 C 7.36263093365617 12.498350544805282 7.229986963106314 12.631437837515662 7.162195244240565 12.799034031378206 C 7.094403525374817 12.96663022524075 7.097218208374132 13.154509782308098 7.17 13.32" stroke-linecap="round" />
</g>
</g>
</g>
		<g transform="matrix(8.76 0 0 9.11 2.03 47.38)"  >
<ellipse style="stroke: none; stroke-width: 1; stroke-dasharray: none; stroke-linecap: butt; stroke-dashoffset: 0; stroke-linejoin: miter; stroke-miterlimit: 4; fill: rgb(246,184,25); fill-rule: nonzero; opacity: 1;"  cx="0" cy="0" rx="14.7" ry="17.92" />
</g>
		<g transform="matrix(6.91 0 0 7.18 -1.19 63.83)"  >
<g style=""   >
		<g transform="matrix(1 0 0 1 -12.88 -1.28)"  >
<path style="stroke: none; stroke-width: 1; stroke-dasharray: none; stroke-linecap: butt; stroke-dashoffset: 0; stroke-linejoin: miter; stroke-miterlimit: 4; fill: rgb(252,234,237); fill-rule: nonzero; opacity: 1;"  transform=" translate(-5.62, -4.23)" d="M 3.45 8.03 C 3.45 8.03 0.54 1.95 3.72 0.62 C 6.9 -0.71 9.01 5.12 9.01 5.12 L 3.45 8.03 z" stroke-linecap="round" />
</g>
		<g transform="matrix(1 0 0 1 13.3 -1.28)"  >
<path style="stroke: none; stroke-width: 1; stroke-dasharray: none; stroke-linecap: butt; stroke-dashoffset: 0; stroke-linejoin: miter; stroke-miterlimit: 4; fill: rgb(252,234,237); fill-rule: nonzero; opacity: 1;"  transform=" translate(-31.8, -4.23)" d="M 33.97 8.03 C 33.97 8.03 36.879999999999995 1.9499999999999993 33.699999999999996 0.6199999999999992 C 30.519999999999996 -0.7100000000000009 28.419999999999995 5.119999999999999 28.419999999999995 5.119999999999999 L 33.96999999999999 8.03 z" stroke-linecap="round" />
</g>
		<g transform="matrix(1 0 0 1 0.02 1.44)"  >
<path style="stroke: none; stroke-width: 1; stroke-dasharray: none; stroke-linecap: butt; stroke-dashoffset: 0; stroke-linejoin: miter; stroke-miterlimit: 4; fill: rgb(63,77,160); fill-rule: nonzero; opacity: 1;"  transform=" translate(-18.53, -6.95)" d="M 34.76 10.66 C 29.38910082052516 7.686716707909357 23.36827062158977 6.082764795243737 17.229999999999986 5.989999999999998 C 12.111148730028788 5.907238777609935 7.07122266087487 7.258146796146036 2.679999999999996 9.889999999999999 L 2.469999999999996 10.040000000000001 C 2.1535378814779023 10.270788268057121 1.758058061164049 10.36573915000947 1.3713112116448736 10.303784557610767 C 0.9845643621256981 10.241829965212062 0.6385344496732506 10.028093543544726 0.40999999999999615 9.71 C 0.1781796576964473 9.394768657129344 0.08160650663638791 9.000120574791996 0.14166977783365375 8.613463266459599 C 0.2017330490309196 8.2268059581272 0.41347551679978206 7.880051564151626 0.7299999999999961 7.65 C 0.8799999999999962 7.54 7.049999999999996 3.0500000000000007 17.229999999999997 3.0500000000000007 C 23.84789896759488 3.1413517256853654 30.341834675591194 4.858415635784867 36.14 8.05 C 36.85921812469953 8.434617190755507 37.13554840310874 9.326005185623933 36.76 10.05 C 36.50215845849163 10.53450477753825 35.99883811292872 10.838033840892978 35.449999999999996 10.84 C 35.20998426882449 10.83717206119723 34.97385835529666 10.778996111487475 34.76 10.67 L 34.76 10.66 z" stroke-linecap="round" />
</g>
</g>
</g>
		<g transform="matrix(6.19 0 0 6.19 6.06 -150.19)"  >
<g style=""   >
		<g transform="matrix(1 0 0 1 -0.3 0.17)"  >
<path style="stroke: none; stroke-width: 1; stroke-dasharray: none; stroke-linecap: butt; stroke-dashoffset: 0; stroke-linejoin: miter; stroke-miterlimit: 4; fill: rgb(255,202,39); fill-rule: nonzero; opacity: 1;"  transform=" translate(-14.2, -10.67)" d="M 2.82 20.78 L 24.42 20.78 L 27.4 5.85 L 19.36 16.18 L 14.31 0.56 L 8.34 16.18 L 0.99 5.16 z" stroke-linecap="round" />
</g>
		<g transform="matrix(1 0 0 1 6.35 0.17)"  >
<path style="stroke: none; stroke-width: 1; stroke-dasharray: none; stroke-linecap: butt; stroke-dashoffset: 0; stroke-linejoin: miter; stroke-miterlimit: 4; fill: rgb(219,140,24); fill-rule: nonzero; opacity: 1;"  transform=" translate(-20.86, -10.67)" d="M 24.42 20.78 L 27.4 5.85 L 19.36 16.18 L 14.31 0.56 L 14.31 20.78 z" stroke-linecap="round" />
</g>
</g>
</g>
		<g transform="matrix(7.2 0 0 7.49 1.29 -39.22)"  >
<g style=""   >
		<g transform="matrix(1 0 0 1 0.36 0.44)"  >
<path style="stroke: none; stroke-width: 1; stroke-dasharray: none; stroke-linecap: butt; stroke-dashoffset: 0; stroke-linejoin: miter; stroke-miterlimit: 4; fill: rgb(252,234,237); fill-rule: nonzero; opacity: 1;"  transform=" translate(-10.86, -10.94)" d="M 20.91 10.89 C 20.930245695049774 14.959334404908912 18.49451981093577 18.63924663601744 14.740740328014653 20.210562002436255 C 10.986960845093535 21.781877368855067 6.656101402462429 20.93442760669923 3.771445023186132 18.06412275169794 C 0.8867886439098349 15.19381789669665 0.0177492598993787 10.867238975627059 1.5703231070831372 7.105669245290473 C 3.1228969542668956 3.3440995149538875 6.790615232666353 0.8900503627363712 10.859999999999987 0.8900000000000006 C 16.391 0.8900000000000006 20.881999999999998 5.36 20.91 10.89" stroke-linecap="round" />
</g>
		<g transform="matrix(1 0 0 1 0.35 0.42)"  >
<path style="stroke: none; stroke-width: 1; stroke-dasharray: none; stroke-linecap: butt; stroke-dashoffset: 0; stroke-linejoin: miter; stroke-miterlimit: 4; fill: rgb(55,71,79); fill-rule: nonzero; opacity: 1;"  transform=" translate(-10.85, -10.92)" d="M 15.22 11.78 C 13.714258786018883 11.78733278126536 12.46451886846032 10.618205624031727 12.37158407434645 9.115317239218859 C 12.27864928023258 7.612428854405992 13.374827013558816 6.2982361180540405 14.869999999999997 6.119999999999999 C 12.628620472783672 4.243242602690452 9.386723785783083 4.167670441117554 7.0603278805206795 5.937947991491766 C 4.733931975258276 7.708225541865978 3.942528351935259 10.852948993265386 5.153850466510617 13.513531494921985 C 6.365172581085975 16.174113996578583 9.256659792747138 17.64207414099333 12.11939232084827 17.049821672925614 C 14.982124848949402 16.457569204857897 17.05379114346733 13.962813897227793 17.11 11.040000000000006 C 16.59368300206077 11.5126976721567 15.920009876647306 11.776463869408532 15.219999999999999 11.78" stroke-linecap="round" />
</g>
</g>
</g>
</g>
</g>
</g>
</g>
		<g transform="matrix(-3.57 -0.02 0.02 -3.45 -1.18 31.06)"  >
<g style=""   >
		<g transform="matrix(1 0 0 1 7.93 1.71)"  >
<path style="stroke: none; stroke-width: 1; stroke-dasharray: none; stroke-linecap: butt; stroke-dashoffset: 0; stroke-linejoin: miter; stroke-miterlimit: 4; fill: rgb(229,58,52); fill-rule: nonzero; opacity: 1;"  transform=" translate(-24.43, -12.21)" d="M 21.03 20.02 C 20.66875366217329 20.023794680481767 20.307734026890532 20.000395259676402 19.950000000000003 19.95 C 19.342296349603796 19.822935555697416 18.93965323353726 19.243333365549965 19.032659224989068 18.62949382196804 C 19.125665216440876 18.015654278386112 19.681931821686344 17.581341439952602 20.300000000000004 17.64 C 22.234852626236346 17.855622059663464 24.16903348362105 17.229107732977646 25.610000000000007 15.92 C 27.470000000000002 14 27.960000000000004 10.58 27.080000000000002 5.76 C 26.971505440574965 5.125622231323799 27.393979266930252 4.522155341350604 28.027186676619475 4.40702672140711 C 28.6603940863087 4.291898101463615 29.268249933047812 4.708032323601463 29.39 5.34 C 30.39 10.96 29.7 15.07 27.28 17.57 C 25.608942830440004 19.190873315020372 23.357402536295407 20.073477110325054 21.03 20.020000000000003 z" stroke-linecap="round" />
</g>
		<g transform="matrix(1 0 0 1 12.01 -5.22)"  >
<circle style="stroke: none; stroke-width: 1; stroke-dasharray: none; stroke-linecap: butt; stroke-dashoffset: 0; stroke-linejoin: miter; stroke-miterlimit: 4; fill: rgb(255,202,39); fill-rule: nonzero; opacity: 1;"  cx="0" cy="0" r="4.32" />
</g>
		<g transform="matrix(1 0 0 1 -7.79 1.71)"  >
<path style="stroke: none; stroke-width: 1; stroke-dasharray: none; stroke-linecap: butt; stroke-dashoffset: 0; stroke-linejoin: miter; stroke-miterlimit: 4; fill: rgb(229,58,52); fill-rule: nonzero; opacity: 1;"  transform=" translate(-8.71, -12.21)" d="M 12.08 20.02 C 9.752597463704596 20.073477110325054 7.501057169559996 19.190873315020372 5.829999999999998 17.57 C 3.41 15.07 2.7 10.96 3.72 5.34 C 3.8417500669521596 4.708032323601434 4.449605913691291 4.291898101463553 5.082813323380536 4.4070267214070515 C 5.716020733069781 4.52215534135055 6.138494559425074 5.125622231323781 6.03 5.759999999999999 C 5.15 10.58 5.65 14 7.5 15.92 C 8.942706049915332 17.23302715398201 10.881681419904538 17.85991392773792 12.819999999999999 17.64 C 13.127694650318936 17.59729591869562 13.439741062549004 17.6787094861936 13.687352880970483 17.866294197118965 C 13.934964699391962 18.053878908044325 14.097812961729426 18.33223403340054 14.14 18.64 C 14.185492725732196 18.948136740544875 14.105153870548722 19.261622847862785 13.917066169494957 19.509898613253757 C 13.728978468441191 19.758174378644725 13.448946468284003 19.92037780037649 13.14 19.96 C 12.78867701158507 20.006614555937084 12.43433917542576 20.02667141458761 12.08 20.02 z" stroke-linecap="round" />
</g>
		<g transform="matrix(1 0 0 1 -11.89 -5.22)"  >
<circle style="stroke: none; stroke-width: 1; stroke-dasharray: none; stroke-linecap: butt; stroke-dashoffset: 0; stroke-linejoin: miter; stroke-miterlimit: 4; fill: rgb(255,202,39); fill-rule: nonzero; opacity: 1;"  cx="0" cy="0" r="4.32" />
</g>
</g>
</g>
</g>
</g>
		<g transform="matrix(4.64 0 0 1.92 -1.16 98.27)"  >
<g style=""   >
		<g transform="matrix(1 0 0 1 0.14 -0.16)"  >
<path style="stroke: none; stroke-width: 1; stroke-dasharray: none; stroke-linecap: butt; stroke-dashoffset: 0; stroke-linejoin: miter; stroke-miterlimit: 4; fill: rgb(248,158,27); fill-rule: nonzero; opacity: 1;"  transform=" translate(-8.64, -13.84)" d="M 2.14 14.89 C 3.71 21.2 6.140000000000001 26.21 7.870000000000001 27.22 C 8.06 27.409 8.312000000000001 27.523 8.580000000000002 27.54 C 8.778114104810147 27.532586388668026 8.969553921176008 27.466452633923456 9.130000000000003 27.349999999999998 C 10.930000000000003 26.77 13.490000000000002 21.549999999999997 15.130000000000003 14.889999999999997 C 16.96 7.549999999999997 16.990000000000002 1.2399999999999967 15.200000000000003 0.7899999999999974 C 14.130000000000003 0.5299999999999974 12.640000000000002 2.4499999999999975 11.200000000000003 5.609999999999998 C 10.59 2.29 9.62 0.14 8.53 0.14 C 7.4399999999999995 0.14 6.529999999999999 2.21 5.909999999999999 5.42 C 4.52 2.42 3.07 0.53 2.02 0.79 C 0.28 1.23 0.3500000000000001 7.54 2.14 14.89 z" stroke-linecap="round" />
</g>
		<g transform="matrix(1 0 0 1 3.83 -0.17)"  >
<path style="stroke: none; stroke-width: 1; stroke-dasharray: none; stroke-linecap: butt; stroke-dashoffset: 0; stroke-linejoin: miter; stroke-miterlimit: 4; fill: rgb(219,140,24); fill-rule: nonzero; opacity: 1;"  transform=" translate(-12.33, -13.83)" d="M 15.22 0.78 C 14.15 0.52 12.66 2.44 11.22 5.6000000000000005 C 10.61 2.28 9.64 0.13 8.55 0.13 C 8.399455293696208 0.13708599025134094 8.252459340786427 0.17810811664476836 8.120000000000001 0.25000000000000044 L 8.120000000000001 27.4 C 8.249859331058062 27.479388813443478 8.397908637459192 27.524147906076376 8.55 27.529999999999998 C 8.748114104810146 27.522586388668024 8.939553921176007 27.456452633923455 9.100000000000001 27.339999999999996 C 10.900000000000002 26.759999999999998 13.46 21.539999999999996 15.100000000000001 14.879999999999995 C 16.98 7.539999999999996 17.01 1.229999999999995 15.22 0.7799999999999958 z" stroke-linecap="round" />
</g>
</g>
</g>
</g>
</g>
</g>
</g>
</svg>