<?xml version="1.0" encoding="UTF-8" standalone="no" ?>
<!DOCTYPE svg PUBLIC "-//W3C//DTD SVG 1.1//EN" "http://www.w3.org/Graphics/SVG/1.1/DTD/svg11.dtd">
<svg xmlns="http://www.w3.org/2000/svg" xmlns:xlink="http://www.w3.org/1999/xlink" version="1.1" width="1933.28125" height="1083.59375" viewBox="0 0 1933.28 1083.59" xml:space="preserve">
<desc>Created with Fabric.js 4.4.0</desc>
<defs>
</defs>
<rect x="0" y="0" width="100%" height="100%" fill="#464954"></rect>
<g transform="matrix(5.02 0 0 5.02 804.65 1227.73)"  >
<g style=""   >
		<g transform="matrix(1 0 0 1 -8.21 -0.08)"  >
<path style="stroke: none; stroke-width: 1; stroke-dasharray: none; stroke-linecap: butt; stroke-dashoffset: 0; stroke-linejoin: miter; stroke-miterlimit: 4; fill: rgb(240,95,106); fill-rule: nonzero; opacity: 1;"  transform=" translate(-6.29, -17.92)" d="M 10.18 19.81 C 11.117910221170385 19.20859838734239 11.633566259850587 18.127289999877082 11.510527524987852 17.01994138611246 C 11.387488790125115 15.912592772347839 10.6470493502618 14.970850549165142 9.6 14.59 L 8.01 0.18 L 5.67 0.81 L 7.02 14.89 C 6.0948210128664195 15.48301934219903 5.579260226490381 16.543875147395436 5.68464142996886 17.637732039502037 C 5.790022633447338 18.73158893160864 6.498625497789003 19.67450989569544 7.52 20.080000000000002 L 8.64 31.78 C 8.64 31.78 2.0700000000000003 34.28 0.8200000000000003 35.53 C 2.3900000000000006 36.160000000000004 11.77 34.28 11.77 34.28 L 10.18 19.810000000000002 z" stroke-linecap="round" />
</g>
		<g transform="matrix(1 0 0 1 8.49 -0.15)"  >
<path style="stroke: none; stroke-width: 1; stroke-dasharray: none; stroke-linecap: butt; stroke-dashoffset: 0; stroke-linejoin: miter; stroke-miterlimit: 4; fill: rgb(240,95,106); fill-rule: nonzero; opacity: 1;"  transform=" translate(-22.99, -17.85)" d="M 20.78 31.89 L 21.16 20.08 C 22.249207846090357 19.651486079126087 22.978885733022317 18.615841501200833 23.015852365726012 17.445956301519224 C 23.052818998429707 16.276071101837616 22.389981148490616 15.196425097282605 21.330000000000002 14.7 L 21.78 0.81 L 19.4 0.34 L 18.74 14.75 C 17.814100586222448 15.231258964424635 17.21403106070867 16.16863693618476 17.164592394793047 17.210968809239194 C 17.11515372887742 18.25330068229363 17.623807746653828 19.243266331996374 18.5 19.81 L 17.81 34.589999999999996 C 17.81 34.589999999999996 27.29 35.87 28.81 35.13999999999999 C 27.49 33.959999999999994 20.78 31.889999999999993 20.78 31.889999999999993 z" stroke-linecap="round" />
</g>
</g>
</g>
<g transform="matrix(6.02 0 0 6.02 2098.17 552.1)"  >
<g style=""   >
		<g transform="matrix(1 0 0 1 -15.71 -0.13)"  >
<path style="stroke: none; stroke-width: 1; stroke-dasharray: none; stroke-linecap: butt; stroke-dashoffset: 0; stroke-linejoin: miter; stroke-miterlimit: 4; fill: rgb(216,27,96); fill-rule: nonzero; opacity: 1;"  transform=" translate(-6.29, -14.87)" d="M 10.61 0.57 C 10.61 0.57 3.4099999999999993 14.77 0.8099999999999987 27.36 C 0.4099999999999987 32.36 5.009999999999999 23.759999999999998 5.009999999999999 23.759999999999998 C 5.009999999999999 23.759999999999998 4.6099999999999985 29.56 5.6099999999999985 29.159999999999997 C 6.6099999999999985 28.759999999999998 8.29 23.869999999999997 8.61 18.519999999999996 C 8.969999999999999 12.969999999999995 11.61 8.169999999999996 11.77 6.569999999999997 C 11.93 4.969999999999997 11.41 0.5699999999999967 10.61 0.5699999999999967 z" stroke-linecap="round" />
</g>
		<g transform="matrix(1 0 0 1 -19.16 5.77)"  >
<path style="stroke: none; stroke-width: 1; stroke-dasharray: none; stroke-linecap: butt; stroke-dashoffset: 0; stroke-linejoin: miter; stroke-miterlimit: 4; fill: rgb(248,158,27); fill-rule: nonzero; opacity: 1;"  transform=" translate(-2.84, -20.77)" d="M 1.96 23.36 C 1.4789297572948563 21.44079975232126 2.153623657228643 19.416718052519904 3.6900000000000004 18.169999999999998 C 4.09 18.7 3.96 21.63 1.96 23.36 z" stroke-linecap="round" />
</g>
		<g transform="matrix(1 0 0 1 -16.9 -0.1)"  >
<path style="stroke: none; stroke-width: 1; stroke-dasharray: none; stroke-linecap: butt; stroke-dashoffset: 0; stroke-linejoin: miter; stroke-miterlimit: 4; fill: rgb(248,158,27); fill-rule: nonzero; opacity: 1;"  transform=" translate(-5.1, -14.9)" d="M 4.22 17.5 C 3.7395790672570164 15.57578822889244 4.418254206675623 13.547563674308098 5.96 12.3 C 6.35 12.89 6.22 15.770000000000001 4.22 17.5 z" stroke-linecap="round" />
</g>
		<g transform="matrix(1 0 0 1 16.33 -0.13)"  >
<path style="stroke: none; stroke-width: 1; stroke-dasharray: none; stroke-linecap: butt; stroke-dashoffset: 0; stroke-linejoin: miter; stroke-miterlimit: 4; fill: rgb(216,27,96); fill-rule: nonzero; opacity: 1;"  transform=" translate(-6.33, -14.87)" d="M 2.01 0.57 C 2.01 0.57 9.21 14.77 11.81 27.36 C 12.21 32.36 7.61 23.759999999999998 7.61 23.759999999999998 C 7.61 23.759999999999998 8.01 29.56 7.010000000000001 29.159999999999997 C 6.010000000000001 28.759999999999998 4.33 23.869999999999997 4.010000000000001 18.519999999999996 C 3.650000000000001 12.969999999999995 1.0100000000000007 8.169999999999996 0.8500000000000005 6.569999999999997 C 0.6900000000000005 4.969999999999997 1.2100000000000004 0.5699999999999967 2.0100000000000007 0.5699999999999967 z" stroke-linecap="round" />
</g>
		<g transform="matrix(1 0 0 1 19.78 5.77)"  >
<path style="stroke: none; stroke-width: 1; stroke-dasharray: none; stroke-linecap: butt; stroke-dashoffset: 0; stroke-linejoin: miter; stroke-miterlimit: 4; fill: rgb(248,158,27); fill-rule: nonzero; opacity: 1;"  transform=" translate(-9.78, -20.77)" d="M 10.66 23.36 C 11.141070242705144 21.44079975232126 10.466376342771357 19.416718052519904 8.93 18.169999999999998 C 8.53 18.7 8.66 21.63 10.66 23.36 z" stroke-linecap="round" />
</g>
		<g transform="matrix(1 0 0 1 17.52 -0.1)"  >
<path style="stroke: none; stroke-width: 1; stroke-dasharray: none; stroke-linecap: butt; stroke-dashoffset: 0; stroke-linejoin: miter; stroke-miterlimit: 4; fill: rgb(248,158,27); fill-rule: nonzero; opacity: 1;"  transform=" translate(-7.52, -14.9)" d="M 8.4 17.5 C 8.880420932742984 15.57578822889244 8.201745793324378 13.547563674308101 6.660000000000001 12.300000000000002 C 6.26 12.89 6.4 15.770000000000001 8.4 17.5 z" stroke-linecap="round" />
</g>
</g>
</g>
<g transform="matrix(4.84 0 0 4.84 1571.91 1245.13)"  >
<g style=""   >
		<g transform="matrix(1 0 0 1 0.14 -0.16)"  >
<path style="stroke: none; stroke-width: 1; stroke-dasharray: none; stroke-linecap: butt; stroke-dashoffset: 0; stroke-linejoin: miter; stroke-miterlimit: 4; fill: rgb(248,158,27); fill-rule: nonzero; opacity: 1;"  transform=" translate(-8.64, -13.84)" d="M 2.14 14.89 C 3.71 21.2 6.140000000000001 26.21 7.870000000000001 27.22 C 8.06 27.409 8.312000000000001 27.523 8.580000000000002 27.54 C 8.778114104810147 27.532586388668026 8.969553921176008 27.466452633923456 9.130000000000003 27.349999999999998 C 10.930000000000003 26.77 13.490000000000002 21.549999999999997 15.130000000000003 14.889999999999997 C 16.96 7.549999999999997 16.990000000000002 1.2399999999999967 15.200000000000003 0.7899999999999974 C 14.130000000000003 0.5299999999999974 12.640000000000002 2.4499999999999975 11.200000000000003 5.609999999999998 C 10.59 2.29 9.62 0.14 8.53 0.14 C 7.4399999999999995 0.14 6.529999999999999 2.21 5.909999999999999 5.42 C 4.52 2.42 3.07 0.53 2.02 0.79 C 0.28 1.23 0.3500000000000001 7.54 2.14 14.89 z" stroke-linecap="round" />
</g>
		<g transform="matrix(1 0 0 1 3.83 -0.17)"  >
<path style="stroke: none; stroke-width: 1; stroke-dasharray: none; stroke-linecap: butt; stroke-dashoffset: 0; stroke-linejoin: miter; stroke-miterlimit: 4; fill: rgb(219,140,24); fill-rule: nonzero; opacity: 1;"  transform=" translate(-12.33, -13.83)" d="M 15.22 0.78 C 14.15 0.52 12.66 2.44 11.22 5.6000000000000005 C 10.61 2.28 9.64 0.13 8.55 0.13 C 8.399455293696208 0.13708599025134094 8.252459340786427 0.17810811664476836 8.120000000000001 0.25000000000000044 L 8.120000000000001 27.4 C 8.249859331058062 27.479388813443478 8.397908637459192 27.524147906076376 8.55 27.529999999999998 C 8.748114104810146 27.522586388668024 8.939553921176007 27.456452633923455 9.100000000000001 27.339999999999996 C 10.900000000000002 26.759999999999998 13.46 21.539999999999996 15.100000000000001 14.879999999999995 C 16.98 7.539999999999996 17.01 1.229999999999995 15.22 0.7799999999999958 z" stroke-linecap="round" />
</g>
</g>
</g>
<g transform="matrix(1 0 0 1 735.41 491.1)"  >
<g style=""   >
		<g transform="matrix(-1.08 3.72 -5.62 -1.63 -387.69 52.73)"  >
<g style=""   >
		<g transform="matrix(1 0 0 1 -0.14 -1.84)"  >
<path style="stroke: none; stroke-width: 1; stroke-dasharray: none; stroke-linecap: butt; stroke-dashoffset: 0; stroke-linejoin: miter; stroke-miterlimit: 4; fill: rgb(23,134,200); fill-rule: nonzero; opacity: 1;"  transform=" translate(-6.36, -15.66)" d="M 6.64 31.08 C 5.971922145506526 31.058026241471936 5.3859346562592165 30.6279768057836 5.164622674593831 29.99723765803725 C 4.943310692928445 29.3664985102909 5.132120132088812 28.66459050323145 5.639999999999999 28.229999999999997 C 7.869999999999999 26.349999999999998 9.04 24.729999999999997 9.11 23.389999999999997 C 9.19 21.679999999999996 7.459999999999999 19.879999999999995 5.449999999999999 17.79 C 4.6 16.91 3.7199999999999993 16 2.8599999999999994 14.979999999999999 C -1.540000000000001 9.779999999999998 0.8599999999999994 3.4999999999999982 2.7899999999999996 0.9099999999999984 C 3.317431936088407 0.1865069777216587 4.331506977721658 0.02756806391159039 5.054999999999998 0.5549999999999975 C 5.778493022278338 1.0824319360884047 5.937431936088407 2.096506977721657 5.41 2.8199999999999967 C 5.24 3.0499999999999985 1.4900000000000002 8.349999999999998 5.33 12.899999999999999 C 6.12 13.829999999999998 6.96 14.7 7.78 15.54 C 10.2 18.06 12.5 20.439999999999998 12.34 23.54 C 12.22 25.869999999999997 10.75 28.14 7.7299999999999995 30.68 C 7.449722017587254 30.916943038053436 7.096901914254593 31.051014677319845 6.7299999999999995 31.06" stroke-linecap="round" />
</g>
		<g transform="matrix(1 0 0 1 0.41 12.28)"  >
<path style="stroke: none; stroke-width: 1; stroke-dasharray: none; stroke-linecap: butt; stroke-dashoffset: 0; stroke-linejoin: miter; stroke-miterlimit: 4; fill: rgb(23,134,200); fill-rule: nonzero; opacity: 1;"  transform=" translate(-6.91, -29.78)" d="M 2.38 34.48 L 3.32 29.78 L 4.25 25.09 L 7.85 28.25 L 11.44 31.4 L 6.91 32.94 z" stroke-linecap="round" />
</g>
</g>
</g>
		<g transform="matrix(0.87 3.54 5.68 -1.4 388.05 54.55)"  >
<g style=""   >
		<g transform="matrix(1 0 0 1 -0.14 -1.84)"  >
<path style="stroke: none; stroke-width: 1; stroke-dasharray: none; stroke-linecap: butt; stroke-dashoffset: 0; stroke-linejoin: miter; stroke-miterlimit: 4; fill: rgb(23,134,200); fill-rule: nonzero; opacity: 1;"  transform=" translate(-6.36, -15.66)" d="M 6.64 31.08 C 5.971922145506526 31.058026241471936 5.3859346562592165 30.6279768057836 5.164622674593831 29.99723765803725 C 4.943310692928445 29.3664985102909 5.132120132088812 28.66459050323145 5.639999999999999 28.229999999999997 C 7.869999999999999 26.349999999999998 9.04 24.729999999999997 9.11 23.389999999999997 C 9.19 21.679999999999996 7.459999999999999 19.879999999999995 5.449999999999999 17.79 C 4.6 16.91 3.7199999999999993 16 2.8599999999999994 14.979999999999999 C -1.540000000000001 9.779999999999998 0.8599999999999994 3.4999999999999982 2.7899999999999996 0.9099999999999984 C 3.317431936088407 0.1865069777216587 4.331506977721658 0.02756806391159039 5.054999999999998 0.5549999999999975 C 5.778493022278338 1.0824319360884047 5.937431936088407 2.096506977721657 5.41 2.8199999999999967 C 5.24 3.0499999999999985 1.4900000000000002 8.349999999999998 5.33 12.899999999999999 C 6.12 13.829999999999998 6.96 14.7 7.78 15.54 C 10.2 18.06 12.5 20.439999999999998 12.34 23.54 C 12.22 25.869999999999997 10.75 28.14 7.7299999999999995 30.68 C 7.449722017587254 30.916943038053436 7.096901914254593 31.051014677319845 6.7299999999999995 31.06" stroke-linecap="round" />
</g>
		<g transform="matrix(1 0 0 1 0.41 12.28)"  >
<path style="stroke: none; stroke-width: 1; stroke-dasharray: none; stroke-linecap: butt; stroke-dashoffset: 0; stroke-linejoin: miter; stroke-miterlimit: 4; fill: rgb(23,134,200); fill-rule: nonzero; opacity: 1;"  transform=" translate(-6.91, -29.78)" d="M 2.38 34.48 L 3.32 29.78 L 4.25 25.09 L 7.85 28.25 L 11.44 31.4 L 6.91 32.94 z" stroke-linecap="round" />
</g>
</g>
</g>
		<g transform="matrix(1 0 0 1 -0.14 0)"  >
<g style=""   >
		<g transform="matrix(-2.03 0 0 2.09 204.97 -380.87)"  >
<g style=""   >
		<g transform="matrix(1 0 0 1 0.14 -0.16)"  >
<path style="stroke: none; stroke-width: 1; stroke-dasharray: none; stroke-linecap: butt; stroke-dashoffset: 0; stroke-linejoin: miter; stroke-miterlimit: 4; fill: rgb(248,158,27); fill-rule: nonzero; opacity: 1;"  transform=" translate(-8.64, -13.84)" d="M 2.14 14.89 C 3.71 21.2 6.140000000000001 26.21 7.870000000000001 27.22 C 8.06 27.409 8.312000000000001 27.523 8.580000000000002 27.54 C 8.778114104810147 27.532586388668026 8.969553921176008 27.466452633923456 9.130000000000003 27.349999999999998 C 10.930000000000003 26.77 13.490000000000002 21.549999999999997 15.130000000000003 14.889999999999997 C 16.96 7.549999999999997 16.990000000000002 1.2399999999999967 15.200000000000003 0.7899999999999974 C 14.130000000000003 0.5299999999999974 12.640000000000002 2.4499999999999975 11.200000000000003 5.609999999999998 C 10.59 2.29 9.62 0.14 8.53 0.14 C 7.4399999999999995 0.14 6.529999999999999 2.21 5.909999999999999 5.42 C 4.52 2.42 3.07 0.53 2.02 0.79 C 0.28 1.23 0.3500000000000001 7.54 2.14 14.89 z" stroke-linecap="round" />
</g>
		<g transform="matrix(1 0 0 1 3.83 -0.17)"  >
<path style="stroke: none; stroke-width: 1; stroke-dasharray: none; stroke-linecap: butt; stroke-dashoffset: 0; stroke-linejoin: miter; stroke-miterlimit: 4; fill: rgb(219,140,24); fill-rule: nonzero; opacity: 1;"  transform=" translate(-12.33, -13.83)" d="M 15.22 0.78 C 14.15 0.52 12.66 2.44 11.22 5.6000000000000005 C 10.61 2.28 9.64 0.13 8.55 0.13 C 8.399455293696208 0.13708599025134094 8.252459340786427 0.17810811664476836 8.120000000000001 0.25000000000000044 L 8.120000000000001 27.4 C 8.249859331058062 27.479388813443478 8.397908637459192 27.524147906076376 8.55 27.529999999999998 C 8.748114104810146 27.522586388668024 8.939553921176007 27.456452633923455 9.100000000000001 27.339999999999996 C 10.900000000000002 26.759999999999998 13.46 21.539999999999996 15.100000000000001 14.879999999999995 C 16.98 7.539999999999996 17.01 1.229999999999995 15.22 0.7799999999999958 z" stroke-linecap="round" />
</g>
</g>
</g>
		<g transform="matrix(2.32 0 0 2.32 8.02 -426.97)"  >
<g style=""   >
		<g transform="matrix(1 0 0 1 -0.3 0.17)"  >
<path style="stroke: none; stroke-width: 1; stroke-dasharray: none; stroke-linecap: butt; stroke-dashoffset: 0; stroke-linejoin: miter; stroke-miterlimit: 4; fill: rgb(255,202,39); fill-rule: nonzero; opacity: 1;"  transform=" translate(-14.2, -10.67)" d="M 2.82 20.78 L 24.42 20.78 L 27.4 5.85 L 19.36 16.18 L 14.31 0.56 L 8.34 16.18 L 0.99 5.16 z" stroke-linecap="round" />
</g>
		<g transform="matrix(1 0 0 1 6.36 0.17)"  >
<path style="stroke: none; stroke-width: 1; stroke-dasharray: none; stroke-linecap: butt; stroke-dashoffset: 0; stroke-linejoin: miter; stroke-miterlimit: 4; fill: rgb(219,140,24); fill-rule: nonzero; opacity: 1;"  transform=" translate(-20.86, -10.67)" d="M 24.42 20.78 L 27.4 5.85 L 19.36 16.18 L 14.31 0.56 L 14.31 20.78 z" stroke-linecap="round" />
</g>
</g>
</g>
		<g transform="matrix(5.86 0 0 5.86 -95.87 -269.1)"  >
<path style="stroke: none; stroke-width: 1; stroke-dasharray: none; stroke-linecap: butt; stroke-dashoffset: 0; stroke-linejoin: miter; stroke-miterlimit: 4; fill: rgb(229,58,52); fill-rule: nonzero; opacity: 1;"  transform=" translate(-4.86, -8.58)" d="M 1.79 16.23 C 4.768009580077862 16.009705876137406 7.572727233025763 14.745458146210133 9.71 12.66 C 8.71 7.04 1.54 1.17 0.01 0.92 C 0.01 3.98 1.79 16.23 1.79 16.23 z" stroke-linecap="round" />
</g>
		<g transform="matrix(5.86 0 0 5.86 107.89 -286.09)"  >
<path style="stroke: none; stroke-width: 1; stroke-dasharray: none; stroke-linecap: butt; stroke-dashoffset: 0; stroke-linejoin: miter; stroke-miterlimit: 4; fill: rgb(229,58,52); fill-rule: nonzero; opacity: 1;"  transform=" translate(-17.62, -8.57)" d="M 20.68 16.23 C 17.705075764269964 16.009094481758666 14.903714159541487 14.744763138031654 12.77 12.660000000000002 C 13.77 7.04 20.939999999999998 1.17 22.47 0.9199999999999999 C 22.47 3.98 20.68 16.23 20.68 16.23 z" stroke-linecap="round" />
</g>
		<g transform="matrix(5.79 -2.19 -2.28 -6.03 -80.75 -308.36)"  >
<path style="stroke: none; stroke-width: 1; stroke-dasharray: none; stroke-linecap: butt; stroke-dashoffset: 0; stroke-linejoin: miter; stroke-miterlimit: 4; fill: rgb(229,58,52); fill-rule: nonzero; opacity: 1;"  transform=" translate(-24.43, -12.21)" d="M 21.03 20.02 C 20.66875366217329 20.023794680481767 20.307734026890532 20.000395259676402 19.950000000000003 19.95 C 19.342296349603796 19.822935555697416 18.93965323353726 19.243333365549965 19.032659224989068 18.62949382196804 C 19.125665216440876 18.015654278386112 19.681931821686344 17.581341439952602 20.300000000000004 17.64 C 22.234852626236346 17.855622059663464 24.16903348362105 17.229107732977646 25.610000000000007 15.92 C 27.470000000000002 14 27.960000000000004 10.58 27.080000000000002 5.76 C 26.971505440574965 5.125622231323799 27.393979266930252 4.522155341350604 28.027186676619475 4.40702672140711 C 28.6603940863087 4.291898101463615 29.268249933047812 4.708032323601463 29.39 5.34 C 30.39 10.96 29.7 15.07 27.28 17.57 C 25.608942830440004 19.190873315020372 23.357402536295407 20.073477110325054 21.03 20.020000000000003 z" stroke-linecap="round" />
</g>
		<g transform="matrix(6.45 0 0 6.45 -134.43 -344.04)"  >
<circle style="stroke: none; stroke-width: 1; stroke-dasharray: none; stroke-linecap: butt; stroke-dashoffset: 0; stroke-linejoin: miter; stroke-miterlimit: 4; fill: rgb(255,202,39); fill-rule: nonzero; opacity: 1;"  cx="0" cy="0" r="4.32" />
</g>
		<g transform="matrix(6.1 2.37 2.34 -6.01 75.29 -312.36)"  >
<path style="stroke: none; stroke-width: 1; stroke-dasharray: none; stroke-linecap: butt; stroke-dashoffset: 0; stroke-linejoin: miter; stroke-miterlimit: 4; fill: rgb(229,58,52); fill-rule: nonzero; opacity: 1;"  transform=" translate(-8.71, -12.21)" d="M 12.08 20.02 C 9.752597463704596 20.073477110325054 7.501057169559996 19.190873315020372 5.829999999999998 17.57 C 3.41 15.07 2.7 10.96 3.72 5.34 C 3.8417500669521596 4.708032323601434 4.449605913691291 4.291898101463553 5.082813323380536 4.4070267214070515 C 5.716020733069781 4.52215534135055 6.138494559425074 5.125622231323781 6.03 5.759999999999999 C 5.15 10.58 5.65 14 7.5 15.92 C 8.942706049915332 17.23302715398201 10.881681419904538 17.85991392773792 12.819999999999999 17.64 C 13.127694650318936 17.59729591869562 13.439741062549004 17.6787094861936 13.687352880970483 17.866294197118965 C 13.934964699391962 18.053878908044325 14.097812961729426 18.33223403340054 14.14 18.64 C 14.185492725732196 18.948136740544875 14.105153870548722 19.261622847862785 13.917066169494957 19.509898613253757 C 13.728978468441191 19.758174378644725 13.448946468284003 19.92037780037649 13.14 19.96 C 12.78867701158507 20.006614555937084 12.43433917542576 20.02667141458761 12.08 20.02 z" stroke-linecap="round" />
</g>
		<g transform="matrix(6.45 0 0 6.45 116.36 -354.04)"  >
<circle style="stroke: none; stroke-width: 1; stroke-dasharray: none; stroke-linecap: butt; stroke-dashoffset: 0; stroke-linejoin: miter; stroke-miterlimit: 4; fill: rgb(255,202,39); fill-rule: nonzero; opacity: 1;"  cx="0" cy="0" r="4.32" />
</g>
		<g transform="matrix(-2.03 0 0 2.09 -204 -366.88)"  >
<g style=""   >
		<g transform="matrix(1 0 0 1 0.14 -0.16)"  >
<path style="stroke: none; stroke-width: 1; stroke-dasharray: none; stroke-linecap: butt; stroke-dashoffset: 0; stroke-linejoin: miter; stroke-miterlimit: 4; fill: rgb(248,158,27); fill-rule: nonzero; opacity: 1;"  transform=" translate(-8.64, -13.84)" d="M 2.14 14.89 C 3.71 21.2 6.140000000000001 26.21 7.870000000000001 27.22 C 8.06 27.409 8.312000000000001 27.523 8.580000000000002 27.54 C 8.778114104810147 27.532586388668026 8.969553921176008 27.466452633923456 9.130000000000003 27.349999999999998 C 10.930000000000003 26.77 13.490000000000002 21.549999999999997 15.130000000000003 14.889999999999997 C 16.96 7.549999999999997 16.990000000000002 1.2399999999999967 15.200000000000003 0.7899999999999974 C 14.130000000000003 0.5299999999999974 12.640000000000002 2.4499999999999975 11.200000000000003 5.609999999999998 C 10.59 2.29 9.62 0.14 8.53 0.14 C 7.4399999999999995 0.14 6.529999999999999 2.21 5.909999999999999 5.42 C 4.52 2.42 3.07 0.53 2.02 0.79 C 0.28 1.23 0.3500000000000001 7.54 2.14 14.89 z" stroke-linecap="round" />
</g>
		<g transform="matrix(1 0 0 1 3.83 -0.17)"  >
<path style="stroke: none; stroke-width: 1; stroke-dasharray: none; stroke-linecap: butt; stroke-dashoffset: 0; stroke-linejoin: miter; stroke-miterlimit: 4; fill: rgb(219,140,24); fill-rule: nonzero; opacity: 1;"  transform=" translate(-12.33, -13.83)" d="M 15.22 0.78 C 14.15 0.52 12.66 2.44 11.22 5.6000000000000005 C 10.61 2.28 9.64 0.13 8.55 0.13 C 8.399455293696208 0.13708599025134094 8.252459340786427 0.17810811664476836 8.120000000000001 0.25000000000000044 L 8.120000000000001 27.4 C 8.249859331058062 27.479388813443478 8.397908637459192 27.524147906076376 8.55 27.529999999999998 C 8.748114104810146 27.522586388668024 8.939553921176007 27.456452633923455 9.100000000000001 27.339999999999996 C 10.900000000000002 26.759999999999998 13.46 21.539999999999996 15.100000000000001 14.879999999999995 C 16.98 7.539999999999996 17.01 1.229999999999995 15.22 0.7799999999999958 z" stroke-linecap="round" />
</g>
</g>
</g>
		<g transform="matrix(-2.07 0 0 2.07 10.12 -306.85)"  >
<g style=""   >
		<g transform="matrix(1 0 0 1 0.08 0.05)"  >
<path style="stroke: none; stroke-width: 1; stroke-dasharray: none; stroke-linecap: butt; stroke-dashoffset: 0; stroke-linejoin: miter; stroke-miterlimit: 4; fill: rgb(255,202,39); fill-rule: nonzero; opacity: 1;"  transform=" translate(-7.08, -16.55)" d="M 13.28 29.69 C 13.28 29.69 7.77 35.69 0.879999999999999 29.69 C 4.549999999999999 13.150000000000002 6.879999999999999 0.740000000000002 6.879999999999999 0.740000000000002 L 13.28 29.69 z" stroke-linecap="round" />
</g>
		<g transform="matrix(1 0 0 1 -0.4 -4.04)"  >
<path style="stroke: none; stroke-width: 1; stroke-dasharray: none; stroke-linecap: butt; stroke-dashoffset: 0; stroke-linejoin: miter; stroke-miterlimit: 4; fill: rgb(219,140,24); fill-rule: nonzero; opacity: 1;"  transform=" translate(-6.6, -12.46)" d="M 3.73 16.39 C 5.724627907853465 15.232226947997964 7.641992864887863 13.946189476816363 9.470000000000013 12.54 L 8.58 8.540000000000001 C 7.44 9.31 6.17 10.120000000000001 4.859999999999999 10.920000000000002 C 4.52 12.580000000000002 4.14 14.420000000000002 3.7299999999999995 16.39 z" stroke-linecap="round" />
</g>
		<g transform="matrix(1 0 0 1 -0.67 6.11)"  >
<path style="stroke: none; stroke-width: 1; stroke-dasharray: none; stroke-linecap: butt; stroke-dashoffset: 0; stroke-linejoin: miter; stroke-miterlimit: 4; fill: rgb(219,140,24); fill-rule: nonzero; opacity: 1;"  transform=" translate(-6.33, -22.61)" d="M 1.28 27.89 C 4.886478824748985 26.006843136745367 8.27087550340203 23.725981153113977 11.37000000000001 21.08999999999999 L 10.53 17.33 C 7.929848712250972 19.165105557960334 5.236227366804239 20.864056319834436 2.4600000000000204 22.42 C 2.089999999999999 24.169999999999998 1.689999999999999 25.99 1.2799999999999991 27.889999999999997 z" stroke-linecap="round" />
</g>
</g>
</g>
		<g transform="matrix(1 0 0 1 0 53.67)"  >
<g style=""   >
		<g transform="matrix(1 0 0 1 12.91 24.31)"  >
<g style=""   >
		<g transform="matrix(2.31 -0.89 0.89 2.31 89.8 271.42)"  >
<g style=""   >
		<g transform="matrix(1 0 0 1 -12.92 -2.78)"  >
<path style="stroke: none; stroke-width: 1; stroke-dasharray: none; stroke-linecap: butt; stroke-dashoffset: 0; stroke-linejoin: miter; stroke-miterlimit: 4; fill: rgb(197,39,40); fill-rule: nonzero; opacity: 1;"  transform=" translate(-8.08, -7.22)" d="M 12.08 13.7 C 10.802122029969539 13.599850829842568 9.604310113568278 13.038265420966015 8.71 12.12 L 8.07 11.54 C 5.9 9.54 4.86 8.829999999999998 3.4000000000000004 9.54 C 2.45067324859348 9.996256460043053 1.310853618616329 9.607129621353634 0.8387227634391614 8.665596991087028 C 0.3665919082619937 7.724064360820423 0.7365269151640454 6.577872153493027 1.6699999999999988 6.09 C 5.67 4.089999999999999 8.67 6.839999999999999 10.67 8.649999999999999 L 11.27 9.2 C 11.42 9.33 11.549999999999999 9.44 11.66 9.52 L 11.66 2.67 C 11.659999992198125 1.9804774062759942 12.027855912347972 1.3433322516121229 12.624999993695985 0.9985709524979125 C 13.222144075043998 0.6538096533837021 13.957855924956 0.6538096533837021 14.555000006304013 0.9985709524979121 C 15.152144087652026 1.343332251612122 15.520000007801874 1.9804774062759938 15.52 2.6699999999999995 L 15.52 9.74 C 15.52 10.21 15.23 12.620000000000001 13.26 13.43 C 12.886929613355102 13.588928441344327 12.485511325014508 13.670572838972923 12.08 13.67" stroke-linecap="round" />
</g>
		<g transform="matrix(1 0 0 1 13.15 -2.75)"  >
<path style="stroke: none; stroke-width: 1; stroke-dasharray: none; stroke-linecap: butt; stroke-dashoffset: 0; stroke-linejoin: miter; stroke-miterlimit: 4; fill: rgb(197,39,40); fill-rule: nonzero; opacity: 1;"  transform=" translate(-34.15, -7.25)" d="M 30.15 13.7 C 29.74448867498549 13.700572838972922 29.343070386644897 13.618928441344327 28.97 13.459999999999999 C 26.97 12.649999999999999 26.74 10.239999999999998 26.71 9.77 L 26.71 2.7 C 26.709999992198124 2.0104774062759945 27.077855912347975 1.3733322516121231 27.674999993695987 1.0285709524979127 C 28.272144075044 0.6838096533837024 29.007855924956 0.6838096533837024 29.605000006304014 1.0285709524979123 C 30.202144087652027 1.3733322516121222 30.570000007801873 2.010477406275994 30.57 2.6999999999999997 L 30.57 9.55 C 30.68 9.47 30.81 9.360000000000001 30.96 9.23 L 31.560000000000002 8.68 C 33.56 6.869999999999999 36.56 4.13 40.56 6.119999999999999 C 41.49347308483594 6.607872153493034 41.86340809173798 7.754064360820417 41.39127723656082 8.695596991087015 C 40.919146381383655 9.637129621353612 39.77932675140652 10.026256460043035 38.830000000000005 9.57 C 37.36000000000001 8.83 36.330000000000005 9.57 34.160000000000004 11.57 L 33.510000000000005 12.15 C 32.62038812529627 13.069117627683026 31.42530527058844 13.631091112932543 30.150000000000006 13.73" stroke-linecap="round" />
</g>
		<g transform="matrix(1 0 0 1 -2.52 0.42)"  >
<path style="stroke: none; stroke-width: 1; stroke-dasharray: none; stroke-linecap: butt; stroke-dashoffset: 0; stroke-linejoin: miter; stroke-miterlimit: 4; fill: rgb(197,39,40); fill-rule: nonzero; opacity: 1;"  transform=" translate(-18.48, -10.42)" d="M 18.48 19.8 C 17.970782258171024 19.802659082634193 17.48136517561062 19.602919727100197 17.11941846021099 19.244723754865333 C 16.757471744811365 18.88652778263047 16.55264526921791 18.399217813773852 16.55 17.89 L 16.55 2.96 C 16.549999992198124 2.2704774062759943 16.917855912347974 1.633332251612123 17.514999993695987 1.2885709524979125 C 18.112144075044 0.9438096533837022 18.847855924956 0.9438096533837022 19.445000006304014 1.288570952497912 C 20.042144087652026 1.633332251612122 20.410000007801877 2.270477406275994 20.41 2.9599999999999995 L 20.41 17.89 C 20.41 18.955909567173432 19.54590956717343 19.82 18.48 19.82" stroke-linecap="round" />
</g>
		<g transform="matrix(1 0 0 1 2.75 0.43)"  >
<path style="stroke: none; stroke-width: 1; stroke-dasharray: none; stroke-linecap: butt; stroke-dashoffset: 0; stroke-linejoin: miter; stroke-miterlimit: 4; fill: rgb(197,39,40); fill-rule: nonzero; opacity: 1;"  transform=" translate(-23.75, -10.43)" d="M 23.75 19.8 C 22.68409043282657 19.8 21.82 18.935909567173432 21.82 17.87 L 21.82 2.96 C 21.819999992198124 2.2704774062759943 22.187855912347974 1.633332251612123 22.784999993695987 1.2885709524979125 C 23.382144075044 0.9438096533837022 24.117855924956 0.9438096533837022 24.715000006304013 1.288570952497912 C 25.312144087652026 1.633332251612122 25.680000007801873 2.270477406275994 25.68 2.9599999999999995 L 25.68 17.89 C 25.682677255279227 18.402683882195184 25.480198390854117 18.895144005640766 25.117671198247443 19.257671198247444 C 24.755144005640766 19.620198390854117 24.262683882195184 19.822677255279228 23.75 19.82" stroke-linecap="round" />
</g>
</g>
</g>
		<g transform="matrix(1.6 -2.3 2.3 1.6 278.67 148.9)"  >
<g style=""   >
		<g transform="matrix(1 0 0 1 -10.97 -0.22)"  >
<path style="stroke: none; stroke-width: 1; stroke-dasharray: none; stroke-linecap: butt; stroke-dashoffset: 0; stroke-linejoin: miter; stroke-miterlimit: 4; fill: rgb(248,158,27); fill-rule: nonzero; opacity: 1;"  transform=" translate(-6.53, -10.28)" d="M 11.35 9.49 C 10.18 4.8 8.41 1.07 7.09 0.33 C 6.9508980107457905 0.1846396664390423 6.761007808148811 0.09865165016871225 6.56 0.09000000000000014 C 6.412536895573194 0.09531778144543096 6.269918765675631 0.14401665506898903 6.149999999999999 0.23000000000000037 C 4.82 0.66 2.91 4.54 1.68 9.49 C 0.32 14.95 0.3 19.64 1.62 19.97 C 2.42 20.169999999999998 3.5300000000000002 18.75 4.62 16.39 C 5.07 18.86 5.79 20.46 6.62 20.46 C 7.45 20.46 8.120000000000001 18.92 8.57 16.53 C 9.57 18.8 10.68 20.17 11.46 19.970000000000002 C 12.75 19.640000000000004 12.73 14.950000000000003 11.350000000000001 9.490000000000002 z" stroke-linecap="round" />
</g>
		<g transform="matrix(1 0 0 1 11.27 -0.22)"  >
<path style="stroke: none; stroke-width: 1; stroke-dasharray: none; stroke-linecap: butt; stroke-dashoffset: 0; stroke-linejoin: miter; stroke-miterlimit: 4; fill: rgb(248,158,27); fill-rule: nonzero; opacity: 1;"  transform=" translate(-28.77, -10.28)" d="M 33.6 9.49 C 32.43 4.8 30.66 1.07 29.34 0.33 C 29.20089801074579 0.184639666439042 29.01100780814881 0.09865165016871191 28.81 0.09000000000000014 C 28.662201216792464 0.09346675581925089 28.519052226288593 0.14234689891813362 28.4 0.23000000000000015 C 27.07 0.66 25.159999999999997 4.54 23.93 9.49 C 22.57 14.95 22.55 19.64 23.87 19.97 C 24.67 20.169999999999998 25.78 18.75 26.87 16.39 C 27.32 18.86 28.04 20.46 28.87 20.46 C 29.7 20.46 30.37 18.92 30.87 16.53 C 31.87 18.8 32.980000000000004 20.17 33.76 19.970000000000002 C 34.98 19.640000000000004 34.96 14.950000000000003 33.6 9.490000000000002 z" stroke-linecap="round" />
</g>
</g>
</g>
		<g transform="matrix(1 0 0 1 0 0)"  >
<g style=""   >
		<g transform="matrix(3.26 0 0 3.26 -53.75 282.86)"  >
<g style=""   >
		<g transform="matrix(1 0 0 1 -7.61 -0.19)"  >
<path style="stroke: none; stroke-width: 1; stroke-dasharray: none; stroke-linecap: butt; stroke-dashoffset: 0; stroke-linejoin: miter; stroke-miterlimit: 4; fill: rgb(132,59,149); fill-rule: nonzero; opacity: 1;"  transform=" translate(-3.89, -9.81)" d="M 0.92 1.44 C 0.92 1.44 1.82 20.68 4.92 18.44 C 7.61 15.75 6.71 0.99 6.71 0.99 L 0.9199999999999999 1.44 z" stroke-linecap="round" />
</g>
		<g transform="matrix(1 0 0 1 8.52 -0.19)"  >
<path style="stroke: none; stroke-width: 1; stroke-dasharray: none; stroke-linecap: butt; stroke-dashoffset: 0; stroke-linejoin: miter; stroke-miterlimit: 4; fill: rgb(132,59,149); fill-rule: nonzero; opacity: 1;"  transform=" translate(-20.02, -9.81)" d="M 22.99 1.44 C 22.99 1.44 22.099999999999998 20.68 18.99 18.44 C 16.3 15.75 17.2 0.99 17.2 0.99 L 22.99 1.44 z" stroke-linecap="round" />
</g>
</g>
</g>
		<g transform="matrix(2.8 -1.41 1.41 2.8 208.55 238.22)"  >
<g style=""   >
		<g transform="matrix(1 0 0 1 -10.11 -0.14)"  >
<path style="stroke: none; stroke-width: 1; stroke-dasharray: none; stroke-linecap: butt; stroke-dashoffset: 0; stroke-linejoin: miter; stroke-miterlimit: 4; fill: rgb(255,202,39); fill-rule: nonzero; opacity: 1;"  transform=" translate(-7.39, -14.86)" d="M 1.83 2.29 C 1.83 2.29 -2.02 13.82 1.83 17.19 C 5.68 20.560000000000002 8.07 18.630000000000003 8.07 18.630000000000003 C 8.07 18.630000000000003 8.55 31.120000000000005 11.92 29.200000000000003 C 15.29 27.28 15.28 15.740000000000002 13.36 14.300000000000002 C 11.44 12.860000000000003 6.1499999999999995 15.300000000000002 5.1899999999999995 12.380000000000003 C 4.2299999999999995 9.460000000000003 6.1899999999999995 3.730000000000002 6.1899999999999995 3.730000000000002 C 6.1899999999999995 3.730000000000002 7.39 0.85 4.27 0.37 C 3.6824117967994203 0.23740815604508092 3.066359067094802 0.3767084447136637 2.5929798533955233 0.7492035636901458 C 2.1196006396962446 1.121698682666628 1.8393202731510723 1.6877096828503384 1.8299999999999996 2.2900000000000005 z" stroke-linecap="round" />
</g>
		<g transform="matrix(1 0 0 1 9.59 -0.14)"  >
<path style="stroke: none; stroke-width: 1; stroke-dasharray: none; stroke-linecap: butt; stroke-dashoffset: 0; stroke-linejoin: miter; stroke-miterlimit: 4; fill: rgb(255,202,39); fill-rule: nonzero; opacity: 1;"  transform=" translate(-27.09, -14.86)" d="M 32.65 2.29 C 32.65 2.29 36.489999999999995 13.82 32.65 17.19 C 28.81 20.560000000000002 26.4 18.630000000000003 26.4 18.630000000000003 C 26.4 18.630000000000003 25.919999999999998 31.120000000000005 22.56 29.200000000000003 C 19.2 27.28 19.189999999999998 15.740000000000002 21.119999999999997 14.300000000000002 C 23.049999999999997 12.860000000000003 28.319999999999997 15.300000000000002 29.279999999999998 12.380000000000003 C 30.24 9.460000000000003 28.279999999999998 3.730000000000002 28.279999999999998 3.730000000000002 C 28.279999999999998 3.730000000000002 27.08 0.85 30.21 0.37 C 30.79758820320058 0.2374081560450813 31.413640932905196 0.3767084447136642 31.887020146604474 0.7492035636901458 C 32.36039936030375 1.1216986826666275 32.64067972684892 1.687709682850337 32.65 2.2899999999999987 z" stroke-linecap="round" />
</g>
</g>
</g>
		<g transform="matrix(1 0 0 1 0 0)"  >
<g style=""   >
		<g transform="matrix(0.54 0 0 0.54 0 -49.65)"  >
<g style=""   >
		<g transform="matrix(1 0 0 1 -20.91 0)"  >
<g style=""   >
		<g transform="matrix(34.92 0 0 34.92 0 0)"  >
<path style="stroke: none; stroke-width: 1; stroke-dasharray: none; stroke-linecap: butt; stroke-dashoffset: 0; stroke-linejoin: miter; stroke-miterlimit: 4; fill: rgb(229,58,52); fill-rule: nonzero; opacity: 1;"  transform=" translate(-16.41, -16.97)" d="M 0.41 20.53 C 0.41 11.71 7.55 0.1700000000000017 16.41 0.1700000000000017 C 25.27 0.1700000000000017 32.41 11.71 32.41 20.53 C 32.41 29.35 24.83 33.760000000000005 16.009999999999998 33.760000000000005 C 7.19 33.76 0.49 29.35 0.49 20.53" stroke-linecap="round" />
</g>
		<g transform="matrix(1 0 0 1 437.38 -409.79)"  >
<g style=""   >
		<g transform="matrix(7.57 0 0 7.57 19.93 -23.55)"  >
<path style="stroke: none; stroke-width: 1; stroke-dasharray: none; stroke-linecap: butt; stroke-dashoffset: 0; stroke-linejoin: miter; stroke-miterlimit: 4; fill: rgb(132,59,149); fill-rule: nonzero; opacity: 1;"  transform=" translate(-8.72, -4.72)" d="M 4.1 4.72 C 4.1 7.271555544218266 6.168444455781733 9.34 8.719999999999999 9.34 C 11.271555544218266 9.34 13.34 7.271555544218266 13.34 4.72 C 13.34 2.1684444557817337 11.271555544218266 0.09999999999999964 8.719999999999999 0.09999999999999964 C 6.168444455781733 0.09999999999999964 4.1 2.1684444557817333 4.1 4.719999999999999" stroke-linecap="round" />
</g>
		<g transform="matrix(7.57 0 0 7.57 -21.45 23.31)"  >
<path style="stroke: none; stroke-width: 1; stroke-dasharray: none; stroke-linecap: butt; stroke-dashoffset: 0; stroke-linejoin: miter; stroke-miterlimit: 4; fill: rgb(132,59,149); fill-rule: nonzero; opacity: 1;"  transform=" translate(-4.44, -9.85)" d="M 1.42 14.49 C 1.688982430745048 14.450966048641018 1.9362429684159674 14.32027119301496 2.1199999999999997 14.120000000000001 L 8.59 7.190000000000001 C 8.992662365628188 6.692021472404223 8.941747963869092 5.967463565575279 8.473400969898016 5.530690526253936 C 8.005053975926938 5.093917486932594 7.278709466939347 5.093615960143843 6.809999999999999 5.530000000000001 L 0.35 12.46 C -0.10670334406234067 12.95216528619636 -0.0798885739724286 13.720855362107182 0.4099999999999997 14.180000000000001 C 0.6767389402497901 14.433645193899572 1.0465611273519577 14.548290071901244 1.41 14.490000000000002" stroke-linecap="round" />
</g>
		<g transform="matrix(7.57 0 0 7.57 25.23 -24.17)"  >
<path style="stroke: none; stroke-width: 1; stroke-dasharray: none; stroke-linecap: butt; stroke-dashoffset: 0; stroke-linejoin: miter; stroke-miterlimit: 4; fill: rgb(252,234,237); fill-rule: nonzero; opacity: 1;"  transform=" translate(-8.76, -4.77)" d="M 5.27 4.77 C 5.27 6.697473776909469 6.832526223090531 8.26 8.76 8.26 C 10.687473776909469 8.26 12.25 6.697473776909469 12.25 4.77 C 12.25 2.8425262230905304 10.687473776909469 1.2799999999999994 8.76 1.2799999999999994 C 6.832526223090531 1.2799999999999994 5.27 2.84252622309053 5.27 4.77" stroke-linecap="round" />
</g>
		<g transform="matrix(7.57 0 0 7.57 27.23 -22.47)"  >
<path style="stroke: none; stroke-width: 1; stroke-dasharray: none; stroke-linecap: butt; stroke-dashoffset: 0; stroke-linejoin: miter; stroke-miterlimit: 4; fill: rgb(55,71,79); fill-rule: nonzero; opacity: 1;"  transform=" translate(-8.76, -4.73)" d="M 7.24 5.06 C 7.785122066368828 5.081743999368377 8.247463013882538 4.663384458356296 8.280137586074048 4.118808255164442 C 8.31281215826556 3.5742320519725888 7.903811186582409 3.1035919958086966 7.36 3.0599999999999996 C 7.755000000000001 2.7369999999999997 8.25 2.5599999999999996 8.76 2.5599999999999996 C 9.953205973943982 2.5602027325676713 10.922395084600275 3.5237274584757445 10.92959183373937 4.716911746068375 C 10.936788582878464 5.910096033661004 9.979292656830657 6.885241654198173 8.786175941885894 6.8998376082786 C 7.593059226941129 6.914433562359027 6.611994597705053 5.963003258599028 6.59 4.770000000000002 C 6.76666714507467 4.933481123101968 6.999316418072121 5.022961612716373 7.24 5.02" stroke-linecap="round" />
</g>
</g>
</g>
		<g transform="matrix(5.4 0 0 5.4 -272.41 -25.63)"  >
<g style=""   >
		<g transform="matrix(1 0 0 1 0.36 0.44)"  >
<path style="stroke: none; stroke-width: 1; stroke-dasharray: none; stroke-linecap: butt; stroke-dashoffset: 0; stroke-linejoin: miter; stroke-miterlimit: 4; fill: rgb(252,234,237); fill-rule: nonzero; opacity: 1;"  transform=" translate(-10.86, -10.94)" d="M 20.91 10.89 C 20.930245695049774 14.959334404908912 18.49451981093577 18.63924663601744 14.740740328014653 20.210562002436255 C 10.986960845093535 21.781877368855067 6.656101402462429 20.93442760669923 3.771445023186132 18.06412275169794 C 0.8867886439098349 15.19381789669665 0.0177492598993787 10.867238975627059 1.5703231070831372 7.105669245290473 C 3.1228969542668956 3.3440995149538875 6.790615232666353 0.8900503627363712 10.859999999999987 0.8900000000000006 C 16.391 0.8900000000000006 20.881999999999998 5.36 20.91 10.89" stroke-linecap="round" />
</g>
		<g transform="matrix(1 0 0 1 0.35 0.42)"  >
<path style="stroke: none; stroke-width: 1; stroke-dasharray: none; stroke-linecap: butt; stroke-dashoffset: 0; stroke-linejoin: miter; stroke-miterlimit: 4; fill: rgb(55,71,79); fill-rule: nonzero; opacity: 1;"  transform=" translate(-10.85, -10.92)" d="M 15.22 11.78 C 13.714258786018883 11.78733278126536 12.46451886846032 10.618205624031727 12.37158407434645 9.115317239218859 C 12.27864928023258 7.612428854405992 13.374827013558816 6.2982361180540405 14.869999999999997 6.119999999999999 C 12.628620472783672 4.243242602690452 9.386723785783083 4.167670441117554 7.0603278805206795 5.937947991491766 C 4.733931975258276 7.708225541865978 3.942528351935259 10.852948993265386 5.153850466510617 13.513531494921985 C 6.365172581085975 16.174113996578583 9.256659792747138 17.64207414099333 12.11939232084827 17.049821672925614 C 14.982124848949402 16.457569204857897 17.05379114346733 13.962813897227793 17.11 11.040000000000006 C 16.59368300206077 11.5126976721567 15.920009876647306 11.776463869408532 15.219999999999999 11.78" stroke-linecap="round" />
</g>
</g>
</g>
		<g transform="matrix(11.35 0 0 11.35 138.43 -230.47)"  >
<g style=""   >
		<g transform="matrix(1 0 0 1 -9.73 0.23)"  >
<path style="stroke: none; stroke-width: 1; stroke-dasharray: none; stroke-linecap: butt; stroke-dashoffset: 0; stroke-linejoin: miter; stroke-miterlimit: 4; fill: rgb(252,234,237); fill-rule: nonzero; opacity: 1;"  transform=" translate(-9.27, -5.23)" d="M 17.75 3.21 C 17.75 6.96 13.95 9.99 9.27 9.99 C 4.59 9.99 0.7899999999999991 6.99 0.7899999999999991 3.21 C 0.79 -0.57 4.59 0.66 9.27 0.66 C 13.95 0.66 17.75 -0.5399999999999999 17.75 3.21" stroke-linecap="round" />
</g>
		<g transform="matrix(1 0 0 1 10.2 0.23)"  >
<path style="stroke: none; stroke-width: 1; stroke-dasharray: none; stroke-linecap: butt; stroke-dashoffset: 0; stroke-linejoin: miter; stroke-miterlimit: 4; fill: rgb(252,234,237); fill-rule: nonzero; opacity: 1;"  transform=" translate(-29.2, -5.23)" d="M 37.68 3.21 C 37.68 6.96 33.88 9.99 29.2 9.99 C 24.52 9.99 20.72 6.99 20.72 3.21 C 20.72 -0.5699999999999998 24.509999999999998 0.6600000000000001 29.2 0.6600000000000001 C 33.89 0.6600000000000001 37.68 -0.5399999999999998 37.68 3.21" stroke-linecap="round" />
</g>
		<g transform="matrix(1 0 0 1 -9.58 0.36)"  >
<path style="stroke: none; stroke-width: 1; stroke-dasharray: none; stroke-linecap: butt; stroke-dashoffset: 0; stroke-linejoin: miter; stroke-miterlimit: 4; fill: rgb(55,71,79); fill-rule: nonzero; opacity: 1;"  transform=" translate(-9.42, -5.36)" d="M 11.67 5.8 C 10.894945179626573 5.8051420784996095 10.250950102482077 5.203762494609134 10.203098966902207 4.430169136067905 C 10.155247831322338 3.656575777526675 10.720219776523697 2.9804147283364557 11.49 2.8899999999999997 C 10.337814700004303 1.9235141912761549 8.670076066805503 1.883274771248788 7.4726196534214075 2.7930681115387994 C 6.275163240037313 3.7028614518288108 5.866930507891021 5.320364897263259 6.489236452776263 6.68943797601079 C 7.111542397661505 8.058511054758322 8.598636379057623 8.814502357673492 10.071465715473886 8.51052944805425 C 11.544295051890149 8.206556538435006 12.610572946301618 6.923582333130245 12.64 5.42 C 12.366222396261465 5.667764497862089 12.009228535594092 5.80342216491569 11.64 5.8" stroke-linecap="round" />
</g>
		<g transform="matrix(1 0 0 1 10.48 0.36)"  >
<path style="stroke: none; stroke-width: 1; stroke-dasharray: none; stroke-linecap: butt; stroke-dashoffset: 0; stroke-linejoin: miter; stroke-miterlimit: 4; fill: rgb(55,71,79); fill-rule: nonzero; opacity: 1;"  transform=" translate(-29.48, -5.36)" d="M 31.73 5.8 C 30.954945179626574 5.8051420784996095 30.310950102482078 5.203762494609134 30.26309896690221 4.430169136067905 C 30.215247831322337 3.656575777526675 30.780219776523698 2.9804147283364557 31.55 2.8899999999999997 C 30.397814700004304 1.9235141912761549 28.730076066805506 1.8832747712487894 27.53261965342141 2.7930681115388007 C 26.335163240037314 3.702861451828812 25.926930507891022 5.320364897263261 26.549236452776263 6.689437976010792 C 27.171542397661508 8.058511054758323 28.658636379057626 8.814502357673494 30.13146571547389 8.51052944805425 C 31.60429505189015 8.206556538435008 32.67057294630162 6.923582333130246 32.7 5.420000000000002 C 32.427283756151546 5.669492890254568 32.069582851127414 5.805419234163736 31.700000000000003 5.8" stroke-linecap="round" />
</g>
</g>
</g>
		<g transform="matrix(10.32 0 0 10.32 -238.12 -157.53)"  >
<g style=""   >
		<g transform="matrix(1 0 0 1 -7.39 2.78)"  >
<path style="stroke: none; stroke-width: 1; stroke-dasharray: none; stroke-linecap: butt; stroke-dashoffset: 0; stroke-linejoin: miter; stroke-miterlimit: 4; fill: rgb(252,234,237); fill-rule: nonzero; opacity: 1;"  transform=" translate(-11.61, -8.28)" d="M 18.18 7.18 C 18.18 9.18 15.24 10.84 11.61 10.84 C 7.9799999999999995 10.84 5.029999999999999 9.2 5.029999999999999 7.18 C 5.029999999999999 5.16 7.9799999999999995 5.81 11.61 5.81 C 15.239999999999998 5.81 18.18 5.17 18.18 7.18" stroke-linecap="round" />
</g>
		<g transform="matrix(1 0 0 1 8.06 2.78)"  >
<path style="stroke: none; stroke-width: 1; stroke-dasharray: none; stroke-linecap: butt; stroke-dashoffset: 0; stroke-linejoin: miter; stroke-miterlimit: 4; fill: rgb(252,234,237); fill-rule: nonzero; opacity: 1;"  transform=" translate(-27.06, -8.28)" d="M 33.63 7.18 C 33.63 9.18 30.69 10.84 27.060000000000002 10.84 C 23.430000000000003 10.84 20.480000000000004 9.2 20.480000000000004 7.18 C 20.480000000000004 5.16 23.430000000000003 5.81 27.060000000000002 5.81 C 30.69 5.81 33.63 5.17 33.63 7.18" stroke-linecap="round" />
</g>
		<g transform="matrix(1 0 0 1 -7.56 0.76)"  >
<path style="stroke: none; stroke-width: 1; stroke-dasharray: none; stroke-linecap: butt; stroke-dashoffset: 0; stroke-linejoin: miter; stroke-miterlimit: 4; fill: rgb(55,71,79); fill-rule: nonzero; opacity: 1;"  transform=" translate(-11.44, -6.26)" d="M 13.55 6.25 C 13.554043669814748 7.1052218489507855 13.041446747716451 7.878297957864067 12.252091886655801 8.207447871289991 C 11.462737025595152 8.536597784715916 10.552768205341284 8.35671165161242 9.948028276864434 7.75197172313557 C 9.343288348387585 7.147231794658722 9.163402215284083 6.2372629744048504 9.49255212871001 5.4479081133442016 C 9.821702042135932 4.658553252283552 10.594778151049216 4.145956330185253 11.450000000000001 4.15 C 12.610000000000001 4.15 13.55 5.09 13.55 6.25" stroke-linecap="round" />
</g>
		<g transform="matrix(1 0 0 1 8.06 0.75)"  >
<path style="stroke: none; stroke-width: 1; stroke-dasharray: none; stroke-linecap: butt; stroke-dashoffset: 0; stroke-linejoin: miter; stroke-miterlimit: 4; fill: rgb(55,71,79); fill-rule: nonzero; opacity: 1;"  transform=" translate(-27.06, -6.25)" d="M 29.16 6.25 C 29.16000001434059 7.000257748367536 28.75974227866968 7.69352450307366 28.11000001158738 8.068653381397201 C 27.46025774450508 8.44378225972074 26.659742255494923 8.44378225972074 26.009999988412623 8.068653381397201 C 25.36025772133032 7.693524503073661 24.95999998565941 7.0002577483675354 24.96 6.249999999999999 C 24.96000002216863 5.090202041030922 25.900202041030923 4.150000040139856 27.060000000000002 4.150000040139856 C 28.219797958969078 4.150000040139856 29.15999997783137 5.090202041030922 29.16 6.25" stroke-linecap="round" />
</g>
		<g transform="matrix(1 0 0 1 0.11 -1.95)"  >
<path style="stroke: none; stroke-width: 1; stroke-dasharray: none; stroke-linecap: butt; stroke-dashoffset: 0; stroke-linejoin: miter; stroke-miterlimit: 4; fill: rgb(229,58,52); fill-rule: nonzero; opacity: 1;"  transform=" translate(-19.11, -3.55)" d="M 0.79 0.85 L 3.49 6.55 L 35.32 6.55 L 37.42 0.55 z" stroke-linecap="round" />
</g>
</g>
</g>
		<g transform="matrix(6.68 0 0 6.68 21.63 27.33)"  >
<g style=""   >
		<g transform="matrix(1 0 0 1 -11.4 2.26)"  >
<path style="stroke: none; stroke-width: 1; stroke-dasharray: none; stroke-linecap: butt; stroke-dashoffset: 0; stroke-linejoin: miter; stroke-miterlimit: 4; fill: rgb(252,234,237); fill-rule: nonzero; opacity: 1;"  transform=" translate(-6.1, -10.76)" d="M 11.4 10.76 C 11.4 13.687109174103206 9.027109174103206 16.06 6.1000000000000005 16.06 C 3.172890825896795 16.06 0.8000000000000007 13.687109174103206 0.8000000000000007 10.76 C 0.8000000000000007 7.832890825896794 3.172890825896795 5.46 6.1000000000000005 5.46 C 7.5064615441360925 5.457338760031936 8.85608406654734 6.014875382165759 9.85060434219079 7.0093956578092085 C 10.84512461783424 8.003915933452658 11.402661239968065 9.353538455863909 11.400000000000002 10.76 z" stroke-linecap="round" />
</g>
		<g transform="matrix(1 0 0 1 -10.94 -3.83)"  >
<path style="stroke: none; stroke-width: 1; stroke-dasharray: none; stroke-linecap: butt; stroke-dashoffset: 0; stroke-linejoin: miter; stroke-miterlimit: 4; fill: rgb(246,184,25); fill-rule: nonzero; opacity: 1;"  transform=" translate(-6.56, -4.67)" d="M 0.27 0.16 C 0.27 0.16 11.93 1.22 12.99 7.05 C 14.05 12.88 -1.85 5.46 0.27 0.16 z" stroke-linecap="round" />
</g>
		<g transform="matrix(1 0 0 1 10.85 2.26)"  >
<path style="stroke: none; stroke-width: 1; stroke-dasharray: none; stroke-linecap: butt; stroke-dashoffset: 0; stroke-linejoin: miter; stroke-miterlimit: 4; fill: rgb(252,234,237); fill-rule: nonzero; opacity: 1;"  transform=" translate(-7.35, -10.76)" d="M 2.05 10.76 C 2.05 13.687109174103206 4.422890825896794 16.06 7.35 16.06 C 10.277109174103206 16.06 12.649999999999999 13.687109174103206 12.649999999999999 10.76 C 12.649999999999999 7.832890825896794 10.277109174103206 5.46 7.35 5.46 C 5.943538455863908 5.457338760031937 4.59391593345266 6.014875382165759 3.5993956578092106 7.0093956578092085 C 2.60487538216576 8.003915933452658 2.047338760031937 9.353538455863905 2.049999999999999 10.759999999999998 z" stroke-linecap="round" />
</g>
		<g transform="matrix(1 0 0 1 10.39 -3.83)"  >
<path style="stroke: none; stroke-width: 1; stroke-dasharray: none; stroke-linecap: butt; stroke-dashoffset: 0; stroke-linejoin: miter; stroke-miterlimit: 4; fill: rgb(246,184,25); fill-rule: nonzero; opacity: 1;"  transform=" translate(-6.89, -4.67)" d="M 13.18 0.16 C 13.18 0.16 1.52 1.22 0.46 7.05 C -0.6 12.88 15.29 5.46 13.18 0.16 z" stroke-linecap="round" />
</g>
		<g transform="matrix(1 0 0 1 -11.22 3.14)"  >
<circle style="stroke: none; stroke-width: 1; stroke-dasharray: none; stroke-linecap: butt; stroke-dashoffset: 0; stroke-linejoin: miter; stroke-miterlimit: 4; fill: rgb(55,71,79); fill-rule: nonzero; opacity: 1;"  cx="0" cy="0" r="1.59" />
</g>
		<g transform="matrix(1 0 0 1 10.85 3.14)"  >
<circle style="stroke: none; stroke-width: 1; stroke-dasharray: none; stroke-linecap: butt; stroke-dashoffset: 0; stroke-linejoin: miter; stroke-miterlimit: 4; fill: rgb(55,71,79); fill-rule: nonzero; opacity: 1;"  cx="0" cy="0" r="1.59" />
</g>
</g>
</g>
		<g transform="matrix(7.57 0 0 7.57 -143.46 -341.38)"  >
<g style=""   >
		<g transform="matrix(1 0 0 1 0.35 0.24)"  >
<ellipse style="stroke: none; stroke-width: 1; stroke-dasharray: none; stroke-linecap: butt; stroke-dashoffset: 0; stroke-linejoin: miter; stroke-miterlimit: 4; fill: rgb(252,234,237); fill-rule: nonzero; opacity: 1;"  cx="0" cy="0" rx="13.94" ry="7.22" />
</g>
		<g transform="matrix(1 0 0 1 0.89 0.67)"  >
<path style="stroke: none; stroke-width: 1; stroke-dasharray: none; stroke-linecap: butt; stroke-dashoffset: 0; stroke-linejoin: miter; stroke-miterlimit: 4; fill: rgb(55,71,79); fill-rule: nonzero; opacity: 1;"  transform=" translate(-15.39, -8.17)" d="M 18.65 8.8 C 17.510386888071217 8.835398340222698 16.5487836390071 7.9590728037088745 16.478503684593715 6.821078157245996 C 16.40822373018033 5.683083510783117 17.254691234835 4.695095647436302 18.389999999999997 4.590000000000001 C 16.71826482845049 3.1893889486507696 14.299702148300653 3.132358122181916 12.56380763644445 4.452615689728782 C 10.827913124588246 5.772873257275649 10.236969747120419 8.1188237848035 11.140255614677756 10.10388913446543 C 12.043541482235092 12.088954484127363 14.200504149243372 13.184495449182435 16.336267081380576 12.742990637582437 C 18.47203001351778 12.301485825982443 20.01782200009102 10.440511595309903 20.059999999999995 8.260000000000003 C 19.672695421102794 8.607755320518757 19.170517620820746 8.800078733392734 18.649999999999995 8.8" stroke-linecap="round" />
</g>
</g>
</g>
		<g transform="matrix(6.68 0 0 6.68 -67.71 -455.29)"  >
<g style=""   >
		<g transform="matrix(1 0 0 1 0.02 0.31)"  >
<path style="stroke: none; stroke-width: 1; stroke-dasharray: none; stroke-linecap: butt; stroke-dashoffset: 0; stroke-linejoin: miter; stroke-miterlimit: 4; fill: rgb(255,255,255); fill-rule: nonzero; opacity: 1;"  transform=" translate(-15.52, -8.81)" d="M 22.7 0.72 C 19.687879830439385 0.7171369808817559 16.92422320902722 2.389977948375309 15.529999999999996 5.060000000000005 C 13.803216932206798 1.7539431493016755 10.042052027387848 0.05443569757457212 6.4196983365044336 0.9434494215462133 C 2.7973446456210187 1.8324631455178548 0.2503412337354085 5.080148573566685 0.2503412337354085 8.809999999999999 C 0.2503412337354085 12.539851426433312 2.7973446456210205 15.787536854482145 6.419698336504435 16.676550578453785 C 10.04205202738785 17.565564302425425 13.803216932206798 15.866056850698325 15.529999999999998 12.56 C 17.369419149912385 16.076172133261856 21.487616850003377 17.739114810420272 25.252843089922003 16.486118145612302 C 29.01806932984063 15.233121480804332 31.318638943005745 11.434133444559563 30.684364108389076 7.516911889175743 C 30.050089273772407 3.599690333791923 26.66823999329402 0.7207971282913466 22.7 0.7200000000000006" stroke-linecap="round" />
</g>
		<g transform="matrix(1 0 0 1 -7.41 0.59)"  >
<path style="stroke: none; stroke-width: 1; stroke-dasharray: none; stroke-linecap: butt; stroke-dashoffset: 0; stroke-linejoin: miter; stroke-miterlimit: 4; fill: rgb(55,71,79); fill-rule: nonzero; opacity: 1;"  transform=" translate(-8.09, -9.09)" d="M 11.44 9.09 C 11.44 10.940153911933159 9.940153911933157 12.44 8.09 12.44 C 6.239846088066841 12.44 4.739999999999999 10.940153911933159 4.739999999999999 9.09 C 4.739999999999999 7.239846088066842 6.239846088066841 5.74 8.09 5.74 C 9.940153911933159 5.74 11.439999999999998 7.239846088066841 11.44 9.09" stroke-linecap="round" />
</g>
		<g transform="matrix(1 0 0 1 7.1 0.59)"  >
<path style="stroke: none; stroke-width: 1; stroke-dasharray: none; stroke-linecap: butt; stroke-dashoffset: 0; stroke-linejoin: miter; stroke-miterlimit: 4; fill: rgb(55,71,79); fill-rule: nonzero; opacity: 1;"  transform=" translate(-22.6, -9.09)" d="M 25.95 9.09 C 25.950000012713247 10.286839734667845 25.311493622634575 11.392765261327998 24.275000010272468 11.99118513233192 C 23.23850639791036 12.589605003335842 21.961493602089647 12.589605003335844 20.92499998972754 11.991185132331925 C 19.88850637736543 11.392765261328003 19.249999987286756 10.28683973466785 19.25 9.090000000000005 C 19.250000019652976 7.239846101963596 20.749846101963595 5.740000035584862 22.6 5.740000035584862 C 24.450153898036405 5.740000035584862 25.949999980347023 7.239846101963593 25.95 9.089999999999998" stroke-linecap="round" />
</g>
</g>
</g>
		<g transform="matrix(7.57 0 0 7.57 151.98 -388.35)"  >
<g style=""   >
		<g transform="matrix(0.03 -1 1 0.03 -10.06 -0.36)"  >
<circle style="stroke: none; stroke-width: 1; stroke-dasharray: none; stroke-linecap: butt; stroke-dashoffset: 0; stroke-linejoin: miter; stroke-miterlimit: 4; fill: rgb(255,255,255); fill-rule: nonzero; opacity: 1;"  cx="0" cy="0" r="7.01" />
</g>
		<g transform="matrix(0.03 -1 1 0.03 10.29 -0.32)"  >
<circle style="stroke: none; stroke-width: 1; stroke-dasharray: none; stroke-linecap: butt; stroke-dashoffset: 0; stroke-linejoin: miter; stroke-miterlimit: 4; fill: rgb(255,255,255); fill-rule: nonzero; opacity: 1;"  cx="0" cy="0" r="7.01" />
</g>
		<g transform="matrix(1 0 0 1 -10.52 -0.17)"  >
<path style="stroke: none; stroke-width: 1; stroke-dasharray: none; stroke-linecap: butt; stroke-dashoffset: 0; stroke-linejoin: miter; stroke-miterlimit: 4; fill: rgb(55,71,79); fill-rule: nonzero; opacity: 1;"  transform=" translate(-7.48, -8.33)" d="M 9.82 9.73 L 5.15 9.73 C 4.375167088204253 9.730019487012388 3.745495268634673 9.104813425028407 3.74 8.33 C 3.745495268634673 7.555186574971592 4.375167088204254 6.929980512987612 5.15 6.93 L 9.82 6.93 C 10.593198649763112 6.93 11.22 7.5568013502368885 11.22 8.33 C 11.22 9.103198649763112 10.593198649763112 9.73 9.82 9.73 z" stroke-linecap="round" />
</g>
		<g transform="matrix(1 0 0 1 10.75 -0.17)"  >
<path style="stroke: none; stroke-width: 1; stroke-dasharray: none; stroke-linecap: butt; stroke-dashoffset: 0; stroke-linejoin: miter; stroke-miterlimit: 4; fill: rgb(55,71,79); fill-rule: nonzero; opacity: 1;"  transform=" translate(-28.75, -8.33)" d="M 31.09 9.73 L 26.42 9.73 C 25.645167088204254 9.730019487012388 25.015495268634673 9.104813425028407 25.01 8.33 C 25.015495268634673 7.555186574971592 25.645167088204254 6.929980512987612 26.42 6.93 L 31.090000000000003 6.93 C 31.863198649763113 6.93 32.49 7.5568013502368885 32.49 8.33 C 32.49 9.103198649763112 31.863198649763113 9.73 31.090000000000003 9.73 z" stroke-linecap="round" />
</g>
</g>
</g>
		<g transform="matrix(11.35 0 0 11.35 173.05 -86.58)"  >
<g style=""   >
		<g transform="matrix(1 0 0 1 -9.03 -0.48)"  >
<path style="stroke: none; stroke-width: 1; stroke-dasharray: none; stroke-linecap: butt; stroke-dashoffset: 0; stroke-linejoin: miter; stroke-miterlimit: 4; fill: rgb(252,234,237); fill-rule: nonzero; opacity: 1;"  transform=" translate(-7.47, -5.52)" d="M 0.1 0.96 L 14.84 6.96 C 14.84 6.96 2.78 17.04 0.1 0.96 z" stroke-linecap="round" />
</g>
		<g transform="matrix(1 0 0 1 8.39 -0.48)"  >
<path style="stroke: none; stroke-width: 1; stroke-dasharray: none; stroke-linecap: butt; stroke-dashoffset: 0; stroke-linejoin: miter; stroke-miterlimit: 4; fill: rgb(252,234,237); fill-rule: nonzero; opacity: 1;"  transform=" translate(-24.89, -5.52)" d="M 32.26 0.96 L 17.519999999999996 6.96 C 17.519999999999996 6.96 29.58 17.04 32.26 0.96 z" stroke-linecap="round" />
</g>
</g>
</g>
		<g transform="matrix(7.57 0 0 7.57 -484.93 -412.35)"  >
<path style="stroke: none; stroke-width: 1; stroke-dasharray: none; stroke-linecap: butt; stroke-dashoffset: 0; stroke-linejoin: miter; stroke-miterlimit: 4; fill: rgb(132,59,149); fill-rule: nonzero; opacity: 1;"  transform=" translate(-4.65, -4.72)" d="M 9.27 4.72 C 9.27 7.271555544218266 7.201555544218266 9.34 4.6499999999999995 9.34 C 2.098444455781733 9.34 0.02999999999999936 7.271555544218266 0.02999999999999936 4.72 C 0.02999999999999936 2.1684444557817337 2.0984444557817334 0.09999999999999964 4.6499999999999995 0.09999999999999964 C 7.201555544218266 0.09999999999999964 9.27 2.1684444557817324 9.27 4.719999999999999" stroke-linecap="round" />
</g>
		<g transform="matrix(7.57 0 0 7.57 -447.52 -360.5)"  >
<path style="stroke: none; stroke-width: 1; stroke-dasharray: none; stroke-linecap: butt; stroke-dashoffset: 0; stroke-linejoin: miter; stroke-miterlimit: 4; fill: rgb(132,59,149); fill-rule: nonzero; opacity: 1;"  transform=" translate(-8.93, -9.85)" d="M 11.96 14.49 C 11.688693095784233 14.449298239269773 11.438780967731189 14.31906234155199 11.25 14.120000000000001 L 4.78 7.19 C 4.377337634371813 6.692021472404222 4.428252036130907 5.967463565575279 4.896599030101985 5.530690526253936 C 5.364946024073062 5.093917486932593 6.091290533060652 5.093615960143842 6.5600000000000005 5.529999999999999 L 13.030000000000001 12.46 C 13.486703344062342 12.95216528619636 13.45988857397243 13.720855362107182 12.97 14.180000000000001 C 12.704073068687814 14.435026371553704 12.33355050048023 14.549888367698054 11.97 14.490000000000002" stroke-linecap="round" />
</g>
		<g transform="matrix(7.57 0 0 7.57 -487.23 -412.98)"  >
<path style="stroke: none; stroke-width: 1; stroke-dasharray: none; stroke-linecap: butt; stroke-dashoffset: 0; stroke-linejoin: miter; stroke-miterlimit: 4; fill: rgb(252,234,237); fill-rule: nonzero; opacity: 1;"  transform=" translate(-4.61, -4.77)" d="M 8.1 4.77 C 8.1 6.697473776909469 6.537473776909469 8.26 4.609999999999999 8.26 C 2.6825262230905302 8.26 1.1199999999999992 6.697473776909469 1.1199999999999992 4.77 C 1.1199999999999992 2.8425262230905304 2.6825262230905302 1.2799999999999994 4.609999999999999 1.2799999999999994 C 6.537473776909469 1.2799999999999994 8.099999999999998 2.8425262230905295 8.1 4.769999999999999" stroke-linecap="round" />
</g>
		<g transform="matrix(7.57 0 0 7.57 -485.16 -416.3)"  >
<path style="stroke: none; stroke-width: 1; stroke-dasharray: none; stroke-linecap: butt; stroke-dashoffset: 0; stroke-linejoin: miter; stroke-miterlimit: 4; fill: rgb(55,71,79); fill-rule: nonzero; opacity: 1;"  transform=" translate(-4.62, -4.73)" d="M 6.13 5.06 C 5.584877933631172 5.081743999368377 5.122536986117463 4.663384458356296 5.089862413925951 4.118808255164443 C 5.05718784173444 3.574232051972589 5.46618881341759 3.1035919958086975 6.009999999999999 3.0599999999999996 C 5.232095951052601 2.4114552016210697 4.109014246191404 2.3872678195396264 3.303909514122239 3.001719961917665 C 2.4988047820530737 3.616172104295704 2.2258106515627447 4.70583799343958 2.646124051120993 5.627294292471126 C 3.0664374506792416 6.548750591502671 4.0682676655006595 7.05691765646926 5.060056359926767 6.851734200796823 C 6.0518450543528735 6.646550745124387 6.769806283937195 5.782589392944988 6.79 4.7700000000000005 C 6.607695764840012 4.930777730378077 6.373072397436171 5.019650218031047 6.13 5.02" stroke-linecap="round" />
</g>
</g>
</g>
		<g transform="matrix(6.27 0 0 6.27 -382.9 68.04)"  >
<g style=""   >
		<g transform="matrix(1 0 0 1 -12.88 -1.27)"  >
<path style="stroke: none; stroke-width: 1; stroke-dasharray: none; stroke-linecap: butt; stroke-dashoffset: 0; stroke-linejoin: miter; stroke-miterlimit: 4; fill: rgb(252,234,237); fill-rule: nonzero; opacity: 1;"  transform=" translate(-5.62, -4.23)" d="M 3.45 8.03 C 3.45 8.03 0.54 1.95 3.72 0.62 C 6.9 -0.71 9.01 5.12 9.01 5.12 L 3.45 8.03 z" stroke-linecap="round" />
</g>
		<g transform="matrix(1 0 0 1 13.3 -1.27)"  >
<path style="stroke: none; stroke-width: 1; stroke-dasharray: none; stroke-linecap: butt; stroke-dashoffset: 0; stroke-linejoin: miter; stroke-miterlimit: 4; fill: rgb(252,234,237); fill-rule: nonzero; opacity: 1;"  transform=" translate(-31.8, -4.23)" d="M 33.97 8.03 C 33.97 8.03 36.879999999999995 1.9499999999999993 33.699999999999996 0.6199999999999992 C 30.519999999999996 -0.7100000000000009 28.419999999999995 5.119999999999999 28.419999999999995 5.119999999999999 L 33.96999999999999 8.03 z" stroke-linecap="round" />
</g>
		<g transform="matrix(1 0 0 1 0.03 1.45)"  >
<path style="stroke: none; stroke-width: 1; stroke-dasharray: none; stroke-linecap: butt; stroke-dashoffset: 0; stroke-linejoin: miter; stroke-miterlimit: 4; fill: rgb(63,77,160); fill-rule: nonzero; opacity: 1;"  transform=" translate(-18.53, -6.95)" d="M 34.76 10.66 C 29.38910082052516 7.686716707909357 23.36827062158977 6.082764795243737 17.229999999999986 5.989999999999998 C 12.111148730028788 5.907238777609935 7.07122266087487 7.258146796146036 2.679999999999996 9.889999999999999 L 2.469999999999996 10.040000000000001 C 2.1535378814779023 10.270788268057121 1.758058061164049 10.36573915000947 1.3713112116448736 10.303784557610767 C 0.9845643621256981 10.241829965212062 0.6385344496732506 10.028093543544726 0.40999999999999615 9.71 C 0.1781796576964473 9.394768657129344 0.08160650663638791 9.000120574791996 0.14166977783365375 8.613463266459599 C 0.2017330490309196 8.2268059581272 0.41347551679978206 7.880051564151626 0.7299999999999961 7.65 C 0.8799999999999962 7.54 7.049999999999996 3.0500000000000007 17.229999999999997 3.0500000000000007 C 23.84789896759488 3.1413517256853654 30.341834675591194 4.858415635784867 36.14 8.05 C 36.85921812469953 8.434617190755507 37.13554840310874 9.326005185623933 36.76 10.05 C 36.50215845849163 10.53450477753825 35.99883811292872 10.838033840892978 35.449999999999996 10.84 C 35.20998426882449 10.83717206119723 34.97385835529666 10.778996111487475 34.76 10.67 L 34.76 10.66 z" stroke-linecap="round" />
</g>
</g>
</g>
		<g transform="matrix(7.52 0 0 7.52 376.24 13.41)"  >
<g style=""   >
		<g transform="matrix(1 0 0 1 0.12 0.16)"  >
<path style="stroke: none; stroke-width: 1; stroke-dasharray: none; stroke-linecap: butt; stroke-dashoffset: 0; stroke-linejoin: miter; stroke-miterlimit: 4; fill: rgb(120,49,146); fill-rule: nonzero; opacity: 1;"  transform=" translate(-16.12, -9.16)" d="M 31.84 5.4 C 31.84 12.4 24.84 17.98 16.119999999999997 17.98 C 7.399999999999995 17.98 0.4 12.35 0.4 5.4 C 0.4 -1.549999999999999 7.4 0.68 16.12 0.68 C 24.840000000000003 0.68 31.84 -1.55 31.84 5.4" stroke-linecap="round" />
</g>
		<g transform="matrix(1 0 0 1 -9.58 -4.94)"  >
<path style="stroke: none; stroke-width: 1; stroke-dasharray: none; stroke-linecap: butt; stroke-dashoffset: 0; stroke-linejoin: miter; stroke-miterlimit: 4; fill: rgb(252,234,237); fill-rule: nonzero; opacity: 1;"  transform=" translate(-6.42, -4.06)" d="M 3.89 0.62 C 4.62 2.88 6.11 6.9 7.75 7.72 C 9.24 8.459999999999999 9.05 3.78 8.75 0.3799999999999999 C 7.136263166911553 0.26051744776998187 5.513942899312029 0.3411296349798987 3.9199999999999857 0.6200000000000054" stroke-linecap="round" />
</g>
		<g transform="matrix(1 0 0 1 9.31 -4.93)"  >
<path style="stroke: none; stroke-width: 1; stroke-dasharray: none; stroke-linecap: butt; stroke-dashoffset: 0; stroke-linejoin: miter; stroke-miterlimit: 4; fill: rgb(252,234,237); fill-rule: nonzero; opacity: 1;"  transform=" translate(-25.31, -4.07)" d="M 22.98 0.41 C 22.66 3.81 22.47 8.46 23.98 7.72 C 25.65 6.89 27.16 2.7199999999999998 27.87 0.5199999999999996 C 26.257671759200473 0.3220433878002993 24.629633549615097 0.28519478634878337 23.010000000000012 0.4100000000000037" stroke-linecap="round" />
</g>
</g>
</g>
		<g transform="matrix(5.89 0 0 5.89 -262.68 188.32)"  >
<g style=""   >
		<g transform="matrix(1 0 0 1 0.14 -0.02)"  >
<path style="stroke: none; stroke-width: 1; stroke-dasharray: none; stroke-linecap: butt; stroke-dashoffset: 0; stroke-linejoin: miter; stroke-miterlimit: 4; fill: rgb(197,39,40); fill-rule: nonzero; opacity: 1;"  transform=" translate(-14.64, -11.48)" d="M 28.48 13.99 C 28.48 21.64 22.28 22.8 14.64 22.8 C 7 22.8 0.8 21.64 0.8 13.99 C 0.8 6.346 6.996 0.15 14.64 0.15 C 22.284 0.15 28.48 6.346 28.48 13.99" stroke-linecap="round" />
</g>
		<g transform="matrix(1 0 0 1 0.18 -7.19)"  >
<path style="stroke: none; stroke-width: 1; stroke-dasharray: none; stroke-linecap: butt; stroke-dashoffset: 0; stroke-linejoin: miter; stroke-miterlimit: 4; fill: rgb(252,234,237); fill-rule: nonzero; opacity: 1;"  transform=" translate(-14.68, -4.31)" d="M 20.93 7.98 C 22.667312980008916 7.232237201986253 23.792138051027766 5.5214018666953395 23.79 3.6300000000000017 C 18.598356432994287 -0.9854083424275233 10.781911946964598 -1.011134435085876 5.559999999999992 3.5700000000000074 C 5.759999999999999 5.770000000000001 6.559999999999999 8.430000000000001 9.189999999999998 8.260000000000002 C 11.641543842573448 8.231532060160465 13.733147659465759 6.478768061604708 14.189999999999998 4.070000000000002 C 14.189999999999998 4.070000000000001 15.589999999999998 10.220000000000002 20.9 7.980000000000001" stroke-linecap="round" />
</g>
</g>
</g>
		<g transform="matrix(4.37 0 0 4.37 301.9 165.33)"  >
<g style=""   >
		<g transform="matrix(1 0 0 1 -0.07 0.24)"  >
<path style="stroke: none; stroke-width: 1; stroke-dasharray: none; stroke-linecap: butt; stroke-dashoffset: 0; stroke-linejoin: miter; stroke-miterlimit: 4; fill: rgb(51,66,154); fill-rule: nonzero; opacity: 1;"  transform=" translate(-10.93, -15.74)" d="M 10.4 30.95 C 21.17 30.95 21.17 23.34 21.17 23.34 L 21.17 3.7 C 21.17 0.7000000000000002 19.270000000000003 0.5300000000000002 19.270000000000003 0.5300000000000002 L 2.58 0.5300000000000002 C 2.58 0.5300000000000002 0.68 0.69 0.68 3.7 L 0.68 23.34 C 0.68 23.34 0.68 30.95 11.45 30.95 L 10.4 30.95 z" stroke-linecap="round" />
</g>
		<g transform="matrix(1 0 0 1 -0.24 -12.83)"  >
<path style="stroke: none; stroke-width: 1; stroke-dasharray: none; stroke-linecap: butt; stroke-dashoffset: 0; stroke-linejoin: miter; stroke-miterlimit: 4; fill: rgb(255,255,255); fill-rule: nonzero; opacity: 1;"  transform=" translate(-10.76, -2.67)" d="M 6.2 0.53 L 15.350000000000001 0.53 C 15.350000000000001 0.53 15.560000000000002 5.010000000000001 12.660000000000002 4.8 C 10.21 4.63 10.760000000000002 1.8899999999999997 10.760000000000002 1.8899999999999997 C 10.760000000000002 1.8899999999999997 10.6 4.8 8.49 4.8 C 5.99 4.8 6.16 0.53 6.16 0.53" stroke-linecap="round" />
</g>
		<g transform="matrix(1 0 0 1 -0.2 13.36)"  >
<path style="stroke: none; stroke-width: 1; stroke-dasharray: none; stroke-linecap: butt; stroke-dashoffset: 0; stroke-linejoin: miter; stroke-miterlimit: 4; fill: rgb(255,255,255); fill-rule: nonzero; opacity: 1;"  transform=" translate(-10.8, -28.86)" d="M 13.07 26.79 C 11.42 26.79 10.96 28.57 10.84 29.34 C 10.969492519719198 28.737800315582867 10.82937432149971 28.109083104846125 10.456420588721917 27.618860414854698 C 10.083466855944126 27.12863772486327 9.514920051419917 26.82586227735443 8.9 26.79 C 6.83 26.64 6.34 28.869999999999997 6.23 30.169999999999998 C 9.190522597001191 31.168642890944557 12.392450607287762 31.196668519043342 15.370000000000005 30.249999999999996 C 15.290000000000001 29.009999999999998 14.88 26.789999999999996 13.07 26.789999999999996" stroke-linecap="round" />
</g>
</g>
</g>
		<g transform="matrix(5.89 0 0 5.89 -142.92 407.2)"  >
<g style=""   >
		<g transform="matrix(1 0 0 1 0.02 4.13)"  >
<path style="stroke: none; stroke-width: 1; stroke-dasharray: none; stroke-linecap: butt; stroke-dashoffset: 0; stroke-linejoin: miter; stroke-miterlimit: 4; fill: rgb(244,143,177); fill-rule: nonzero; opacity: 1;"  transform=" translate(-16.52, -15.63)" d="M 31.57 12.69 C 19.66 6.79 8.06 9.16 1.47 11.5 C 3.7025244446700487 17.736726357626978 9.499265010864482 21.992399431105227 16.118361769580055 22.254084651798635 C 22.73745852829563 22.515769872492044 28.85207663736243 18.731010979198537 31.57 12.690000000000001 z" stroke-linecap="round" />
</g>
		<g transform="matrix(1 0 0 1 0.25 -4.88)"  >
<path style="stroke: none; stroke-width: 1; stroke-dasharray: none; stroke-linecap: butt; stroke-dashoffset: 0; stroke-linejoin: miter; stroke-miterlimit: 4; fill: rgb(136,26,81); fill-rule: nonzero; opacity: 1;"  transform=" translate(-16.75, -6.62)" d="M 31.57 12.69 C 32.29615258966866 10.620443106949178 32.753232265538074 8.466119046417623 32.93 6.2800000000000065 C 32.93 -2.540000000000001 25.689999999999998 1.4499999999999993 16.759999999999998 1.4499999999999993 C 7.829999999999998 1.4499999999999993 0.5799999999999983 -2.5500000000000007 0.5799999999999983 6.279999999999999 C 0.5818529095199693 8.057596688672744 0.8827174528864151 9.822217943024256 1.4700000000000006 11.500000000000005 C 8.059999999999999 9.16 19.66 6.79 31.57 12.69 z" stroke-linecap="round" />
</g>
		<g transform="matrix(1 0 0 1 -10.96 -7.46)"  >
<path style="stroke: none; stroke-width: 1; stroke-dasharray: none; stroke-linecap: butt; stroke-dashoffset: 0; stroke-linejoin: miter; stroke-miterlimit: 4; fill: rgb(255,255,255); fill-rule: nonzero; opacity: 1;"  transform=" translate(-5.54, -4.04)" d="M 3.55 0.81 C 3.6399999999999997 2.81 3.9499999999999997 6.18 4.99 7.109999999999999 C 5.890000000000001 7.859999999999999 6.63 7.56 6.63 6.81 C 6.63 6.3 7.12 2.8999999999999995 7.53 0.6299999999999999 C 6.202973486148844 0.4577817238119921 4.856063251904944 0.5186972620441263 3.5499999999999936 0.8099999999999996 z" stroke-linecap="round" />
</g>
		<g transform="matrix(1 0 0 1 11.52 -7.46)"  >
<path style="stroke: none; stroke-width: 1; stroke-dasharray: none; stroke-linecap: butt; stroke-dashoffset: 0; stroke-linejoin: miter; stroke-miterlimit: 4; fill: rgb(255,255,255); fill-rule: nonzero; opacity: 1;"  transform=" translate(-28.02, -4.04)" d="M 30.01 0.81 C 29.92 2.81 29.6 6.18 28.560000000000002 7.109999999999999 C 27.67 7.859999999999999 26.930000000000003 7.56 26.930000000000003 6.81 C 26.930000000000003 6.3 26.430000000000003 2.8999999999999995 26.030000000000005 0.6299999999999999 C 27.357052254134267 0.45839692761394485 28.703855579907792 0.5193076307896342 30.010000000000005 0.8100000000000014 z" stroke-linecap="round" />
</g>
</g>
</g>
		<g transform="matrix(5.02 0 0 5.02 56.6 376.21)"  >
<g style=""   >
		<g transform="matrix(1 0 0 1 0.37 0.32)"  >
<path style="stroke: none; stroke-width: 1; stroke-dasharray: none; stroke-linecap: butt; stroke-dashoffset: 0; stroke-linejoin: miter; stroke-miterlimit: 4; fill: rgb(248,158,27); fill-rule: nonzero; opacity: 1;"  transform=" translate(-13.87, -13.82)" d="M 27.01 13.82 C 27.00999846068671 19.13554357974099 23.807457163354208 23.92749582008481 18.896147874375814 25.9607308326012 C 13.984838585397416 27.99396584511759 8.332306548420892 26.86792916462694 4.57508068889339 23.107841746942903 C 0.8178548293658885 19.347754329258862 -0.3038781131288566 13.694366651009794 1.733095410694272 8.784606737187978 C 3.7700689345174005 3.874846823366166 8.564457959572092 0.6759546852515594 13.880000000000008 0.6800000000000015 C 21.133000000000003 0.686 27.01 6.566999999999999 27.01 13.82" stroke-linecap="round" />
</g>
		<g transform="matrix(1 0 0 1 0.38 0.32)"  >
<path style="stroke: none; stroke-width: 1; stroke-dasharray: none; stroke-linecap: butt; stroke-dashoffset: 0; stroke-linejoin: miter; stroke-miterlimit: 4; fill: rgb(227,83,37); fill-rule: nonzero; opacity: 1;"  transform=" translate(-13.88, -13.82)" d="M 19.66 13.82 C 19.66 17.012205854021985 17.072205854021988 19.6 13.879999999999999 19.6 C 10.687794145978014 19.6 8.1 17.012205854021985 8.1 13.82 C 8.1 10.627794145978013 10.687794145978014 8.04 13.879999999999999 8.04 C 17.072205854021988 8.04 19.66 10.627794145978012 19.66 13.819999999999999" stroke-linecap="round" />
</g>
</g>
</g>
		<g transform="matrix(8.47 0 0 8.47 40.04 197.31)"  >
<g style=""   >
		<g transform="matrix(1 0 0 1 -0.27 4.77)"  >
<path style="stroke: none; stroke-width: 1; stroke-dasharray: none; stroke-linecap: butt; stroke-dashoffset: 0; stroke-linejoin: miter; stroke-miterlimit: 4; fill: rgb(219,140,24); fill-rule: nonzero; opacity: 1;"  transform=" translate(-17.23, -12.77)" d="M 7.87 10.44 C 7.87 10.44 17.72 20.939999999999998 26.580000000000002 10.44 L 7.87 10.44 z" stroke-linecap="round" />
</g>
		<g transform="matrix(1 0 0 1 -0.05 -2.11)"  >
<path style="stroke: none; stroke-width: 1; stroke-dasharray: none; stroke-linecap: butt; stroke-dashoffset: 0; stroke-linejoin: miter; stroke-miterlimit: 4; fill: rgb(248,158,27); fill-rule: nonzero; opacity: 1;"  transform=" translate(-17.45, -5.89)" d="M 19.76 11.42 C 19.76 11.42 31.900000000000002 12.42 34.53 7.8100000000000005 C 37.16 3.2 18.45 0.27 18.45 0.27 L 16.45 0.27 C 16.45 0.27 -2.25 3.27 0.379999999999999 7.8100000000000005 C 3.009999999999999 12.350000000000001 15.139999999999999 11.42 15.139999999999999 11.42 L 19.759999999999998 11.42 z" stroke-linecap="round" />
</g>
		<g transform="matrix(1 0 0 1 -3.85 -4.78)"  >
<path style="stroke: none; stroke-width: 1; stroke-dasharray: none; stroke-linecap: butt; stroke-dashoffset: 0; stroke-linejoin: miter; stroke-miterlimit: 4; fill: rgb(219,140,24); fill-rule: nonzero; opacity: 1;"  transform=" translate(-13.65, -3.22)" d="M 14.65 3.22 C 14.65 3.772284749830794 14.202284749830794 4.220000000000001 13.65 4.220000000000001 C 13.097715250169207 4.220000000000001 12.65 3.772284749830794 12.65 3.22 C 12.65 2.6677152501692065 13.097715250169207 2.22 13.65 2.22 C 14.202284749830794 2.22 14.65 2.6677152501692065 14.65 3.2199999999999998 z" stroke-linecap="round" />
</g>
		<g transform="matrix(1 0 0 1 2.94 -4.78)"  >
<path style="stroke: none; stroke-width: 1; stroke-dasharray: none; stroke-linecap: butt; stroke-dashoffset: 0; stroke-linejoin: miter; stroke-miterlimit: 4; fill: rgb(219,140,24); fill-rule: nonzero; opacity: 1;"  transform=" translate(-20.44, -3.22)" d="M 21.44 3.22 C 21.44 3.772284749830794 20.992284749830795 4.220000000000001 20.44 4.220000000000001 C 19.887715250169208 4.220000000000001 19.44 3.772284749830794 19.44 3.22 C 19.44 2.6677152501692065 19.887715250169208 2.22 20.44 2.22 C 20.992284749830795 2.22 21.44 2.6677152501692065 21.44 3.2199999999999998 z" stroke-linecap="round" />
</g>
</g>
</g>
		<g transform="matrix(7.52 0 0 7.52 269.72 346.23)"  >
<g style=""   >
		<g transform="matrix(1 0 0 1 0.22 -0.08)"  >
<path style="stroke: none; stroke-width: 1; stroke-dasharray: none; stroke-linecap: butt; stroke-dashoffset: 0; stroke-linejoin: miter; stroke-miterlimit: 4; fill: rgb(216,27,96); fill-rule: nonzero; opacity: 1;"  transform=" translate(-15.22, -8.92)" d="M 0.43 12.47 C 0.43 5.93 7.06 0.63 15.23 0.63 C 23.4 0.63 30.02 5.93 30.02 12.47 C 30.02 19.01 23.4 16.89 15.23 16.89 C 7.0600000000000005 16.89 0.4299999999999997 18.990000000000002 0.4299999999999997 12.45" stroke-linecap="round" />
</g>
		<g transform="matrix(1 0 0 1 9.33 4.72)"  >
<path style="stroke: none; stroke-width: 1; stroke-dasharray: none; stroke-linecap: butt; stroke-dashoffset: 0; stroke-linejoin: miter; stroke-miterlimit: 4; fill: rgb(252,234,237); fill-rule: nonzero; opacity: 1;"  transform=" translate(-24.33, -13.72)" d="M 26.73 16.97 C 26.05 14.84 24.65 11.059999999999999 23.1 10.29 C 21.55 9.52 21.880000000000003 13.989999999999998 22.19 17.189999999999998 C 23.706598347892623 17.305413471845963 25.231666737849647 17.231511479381084 26.72999999999999 16.97" stroke-linecap="round" />
</g>
		<g transform="matrix(1 0 0 1 -8.41 4.73)"  >
<path style="stroke: none; stroke-width: 1; stroke-dasharray: none; stroke-linecap: butt; stroke-dashoffset: 0; stroke-linejoin: miter; stroke-miterlimit: 4; fill: rgb(252,234,237); fill-rule: nonzero; opacity: 1;"  transform=" translate(-6.59, -13.73)" d="M 8.77 17.17 C 9.08 13.970000000000002 9.26 9.590000000000002 7.859999999999999 10.290000000000003 C 6.289999999999999 11.070000000000002 4.859999999999999 14.950000000000003 4.1899999999999995 17.060000000000002 C 5.709288879818991 17.247812881947365 7.243446500557954 17.28465946235813 8.770000000000003 17.170000000000005" stroke-linecap="round" />
</g>
</g>
</g>
		<g transform="matrix(-1.37 -12.83 12.83 -1.37 587.12 41.98)"  >
<g style=""   >
		<g transform="matrix(1 0 0 1 -11.69 -0.07)"  >
<path style="stroke: none; stroke-width: 1; stroke-dasharray: none; stroke-linecap: butt; stroke-dashoffset: 0; stroke-linejoin: miter; stroke-miterlimit: 4; fill: rgb(213,119,40); fill-rule: nonzero; opacity: 1;"  transform=" translate(-5.31, -6.93)" d="M 0.12 0.7 C 0.12 0.7 1.54 9.27 2.12 10.41 C 1.7791670999159377 11.346199370621845 1.4920337213357209 12.301084792411862 1.2600000000000007 13.269999999999992 C 1.2600000000000002 13.27 6.4 14.99 8.69 11.84 C 11.12 9.41 10.4 2.7 10.4 2.7 C 7.583510173417926 0.23077301815515794 3.6568020747622363 -0.5331779738012017 0.11999999999999744 0.7000000000000002 z" stroke-linecap="round" />
</g>
		<g transform="matrix(1 0 0 1 10.89 -0.07)"  >
<path style="stroke: none; stroke-width: 1; stroke-dasharray: none; stroke-linecap: butt; stroke-dashoffset: 0; stroke-linejoin: miter; stroke-miterlimit: 4; fill: rgb(213,119,40); fill-rule: nonzero; opacity: 1;"  transform=" translate(-27.89, -6.93)" d="M 33.08 0.7 C 33.08 0.7 31.65 9.27 31.08 10.41 C 31.415999999999997 11.348 31.703 12.302 31.939999999999998 13.27 C 31.939999999999998 13.27 26.79 14.99 24.499999999999996 11.84 C 22.08 9.41 22.789999999999996 2.6999999999999993 22.789999999999996 2.6999999999999993 C 25.609604068754976 0.2290214399250452 29.540103869130075 -0.5349240995064606 33.08 0.6999999999999993 z" stroke-linecap="round" />
</g>
</g>
</g>
		<g transform="matrix(1.21 11.22 -11.22 1.21 -586.26 71.97)"  >
<g style=""   >
		<g transform="matrix(1 0 0 1 -13.57 -0.39)"  >
<path style="stroke: none; stroke-width: 1; stroke-dasharray: none; stroke-linecap: butt; stroke-dashoffset: 0; stroke-linejoin: miter; stroke-miterlimit: 4; fill: rgb(67,159,71); fill-rule: nonzero; opacity: 1;"  transform=" translate(-6.43, -7.61)" d="M 0.91 2.3 C 2.1066514826133336 5.510441770473019 3.530246936420723 8.631658094078887 5.169999999999998 11.63999999999999 C 5.31 11.64 0.7800000000000002 12.870000000000001 0.6399999999999997 14.110000000000001 C 0.49999999999999967 15.350000000000001 8.739999999999998 15.48 10.259999999999998 14.39 C 11.629999999999999 12.74 12.179999999999998 7.5200000000000005 12.179999999999998 7.5200000000000005 C 12.179999999999998 7.5200000000000005 13.18 0.24 5.72 0.1 C 5.72 0.1 1.88 -0.24999999999999997 0.9100000000000001 2.3000000000000003 z" stroke-linecap="round" />
</g>
		<g transform="matrix(1 0 0 1 13.56 -0.19)"  >
<path style="stroke: none; stroke-width: 1; stroke-dasharray: none; stroke-linecap: butt; stroke-dashoffset: 0; stroke-linejoin: miter; stroke-miterlimit: 4; fill: rgb(67,159,71); fill-rule: nonzero; opacity: 1;"  transform=" translate(-33.56, -7.81)" d="M 39.08 2.5 C 37.88546238405705 5.711316088930937 36.46179910398786 8.832681120819734 34.82 11.839999999999996 C 34.68 11.84 39.21 13.08 39.35 14.32 C 39.49 15.56 31.25 15.690000000000001 29.730000000000004 14.59 C 28.360000000000003 12.94 27.810000000000002 7.72 27.810000000000002 7.72 C 27.810000000000002 7.72 26.81 0.44 34.27 0.3 C 34.27 0.3 38.11 -0.040000000000000036 39.080000000000005 2.5 z" stroke-linecap="round" />
</g>
</g>
</g>
</g>
</g>
		<g transform="matrix(6.68 3.03 -3.03 6.68 -249.99 233.59)"  >
<path style="stroke: none; stroke-width: 1; stroke-dasharray: none; stroke-linecap: butt; stroke-dashoffset: 0; stroke-linejoin: miter; stroke-miterlimit: 4; fill: rgb(23,134,200); fill-rule: nonzero; opacity: 1;"  transform=" translate(-4.94, -8.68)" d="M 2.93 0.63 C 2.93 0.63 -2.39 15.16 1.86 16.63 C 6.11 18.099999999999998 9.66 3.5199999999999996 9.66 3.5199999999999996 L 2.93 0.63 z" stroke-linecap="round" />
</g>
		<g transform="matrix(6.68 3.03 -3.03 6.68 -262.82 260.33)"  >
<path style="stroke: none; stroke-width: 1; stroke-dasharray: none; stroke-linecap: butt; stroke-dashoffset: 0; stroke-linejoin: miter; stroke-miterlimit: 4; fill: rgb(225,243,252); fill-rule: nonzero; opacity: 1;"  transform=" translate(-4.05, -14.58)" d="M 3.63 14.3 C 3.2199999999999998 14.91 3.07 15.530000000000001 3.3 15.68 C 3.53 15.83 4.06 15.469999999999999 4.47 14.86 C 4.88 14.25 5.02 13.629999999999999 4.79 13.48 C 4.56 13.33 4.04 13.690000000000001 3.63 14.3" stroke-linecap="round" />
</g>
		<g transform="matrix(6.68 3.03 -3.03 6.68 -279.93 255.59)"  >
<path style="stroke: none; stroke-width: 1; stroke-dasharray: none; stroke-linecap: butt; stroke-dashoffset: 0; stroke-linejoin: miter; stroke-miterlimit: 4; fill: rgb(225,243,252); fill-rule: nonzero; opacity: 1;"  transform=" translate(-2.21, -14.85)" d="M 1.7 14.65 C 1.44 15.33 1.43 15.97 1.7 16.07 C 1.97 16.17 2.3899999999999997 15.700000000000001 2.7 15.07 C 3.0100000000000002 14.44 2.97 13.75 2.7 13.64 C 2.43 13.530000000000001 2.0100000000000002 14.01 1.7000000000000002 14.700000000000001" stroke-linecap="round" />
</g>
		<g transform="matrix(6.68 3.03 -3.03 6.68 -285.12 241.72)"  >
<path style="stroke: none; stroke-width: 1; stroke-dasharray: none; stroke-linecap: butt; stroke-dashoffset: 0; stroke-linejoin: miter; stroke-miterlimit: 4; fill: rgb(225,243,252); fill-rule: nonzero; opacity: 1;"  transform=" translate(-1.23, -13.07)" d="M 0.73 12.97 C 0.58 13.690000000000001 0.6799999999999999 14.32 0.96 14.38 C 1.24 14.440000000000001 1.5699999999999998 13.9 1.72 13.180000000000001 C 1.8699999999999999 12.46 1.77 11.830000000000002 1.5 11.770000000000001 C 1.23 11.71 0.88 12.250000000000002 0.73 12.97" stroke-linecap="round" />
</g>
		<g transform="matrix(0.86 0.52 -0.52 0.86 -160.33 279.44)"  >
<g style=""   >
		<g transform="matrix(6.68 3.03 -3.03 6.68 0 0)"  >
<path style="stroke: none; stroke-width: 1; stroke-dasharray: none; stroke-linecap: butt; stroke-dashoffset: 0; stroke-linejoin: miter; stroke-miterlimit: 4; fill: rgb(23,134,200); fill-rule: nonzero; opacity: 1;"  transform=" translate(-5.61, -8.68)" d="M 7.63 0.63 C 7.63 0.63 12.94 15.16 8.69 16.63 C 4.44 18.1 0.89 3.52 0.89 3.52 L 7.63 0.63 z" stroke-linecap="round" />
</g>
		<g transform="matrix(6.68 3.03 -3.03 6.68 -12.91 39.13)"  >
<path style="stroke: none; stroke-width: 1; stroke-dasharray: none; stroke-linecap: butt; stroke-dashoffset: 0; stroke-linejoin: miter; stroke-miterlimit: 4; fill: rgb(225,243,252); fill-rule: nonzero; opacity: 1;"  transform=" translate(-6.51, -14.58)" d="M 6.93 14.3 C 7.34 14.91 7.4799999999999995 15.530000000000001 7.25 15.68 C 7.02 15.83 6.5 15.469999999999999 6.09 14.86 C 5.68 14.25 5.529999999999999 13.629999999999999 5.76 13.48 C 5.99 13.33 6.52 13.690000000000001 6.93 14.3" stroke-linecap="round" />
</g>
		<g transform="matrix(6.68 3.03 -3.03 6.68 -1.25 46.63)"  >
<path style="stroke: none; stroke-width: 1; stroke-dasharray: none; stroke-linecap: butt; stroke-dashoffset: 0; stroke-linejoin: miter; stroke-miterlimit: 4; fill: rgb(225,243,252); fill-rule: nonzero; opacity: 1;"  transform=" translate(-8.37, -14.85)" d="M 8.85 14.65 C 9.12 15.33 9.12 15.97 8.85 16.07 C 8.58 16.17 8.16 15.700000000000001 7.8999999999999995 15.07 C 7.639999999999999 14.44 7.619999999999999 13.75 7.8999999999999995 13.64 C 8.18 13.530000000000001 8.59 14.01 8.899999999999999 14.700000000000001" stroke-linecap="round" />
</g>
		<g transform="matrix(6.68 3.03 -3.03 6.68 10.46 37.6)"  >
<path style="stroke: none; stroke-width: 1; stroke-dasharray: none; stroke-linecap: butt; stroke-dashoffset: 0; stroke-linejoin: miter; stroke-miterlimit: 4; fill: rgb(225,243,252); fill-rule: nonzero; opacity: 1;"  transform=" translate(-9.32, -13.07)" d="M 9.82 12.97 C 9.97 13.690000000000001 9.82 14.32 9.6 14.38 C 9.379999999999999 14.440000000000001 8.98 13.9 8.83 13.180000000000001 C 8.68 12.46 8.78 11.830000000000002 9.06 11.770000000000001 C 9.34 11.71 9.68 12.250000000000002 9.82 12.97" stroke-linecap="round" />
</g>
</g>
</g>
</g>
</g>
</g>
</g>
		<g transform="matrix(-1.31 0 0 1.6 12.42 286.35)"  >
<g style=""   >
		<g transform="matrix(1 0 0 1 -8.21 -0.08)"  >
<path style="stroke: none; stroke-width: 1; stroke-dasharray: none; stroke-linecap: butt; stroke-dashoffset: 0; stroke-linejoin: miter; stroke-miterlimit: 4; fill: rgb(240,95,106); fill-rule: nonzero; opacity: 1;"  transform=" translate(-6.29, -17.92)" d="M 10.18 19.81 C 11.117910221170385 19.20859838734239 11.633566259850587 18.127289999877082 11.510527524987852 17.01994138611246 C 11.387488790125115 15.912592772347839 10.6470493502618 14.970850549165142 9.6 14.59 L 8.01 0.18 L 5.67 0.81 L 7.02 14.89 C 6.0948210128664195 15.48301934219903 5.579260226490381 16.543875147395436 5.68464142996886 17.637732039502037 C 5.790022633447338 18.73158893160864 6.498625497789003 19.67450989569544 7.52 20.080000000000002 L 8.64 31.78 C 8.64 31.78 2.0700000000000003 34.28 0.8200000000000003 35.53 C 2.3900000000000006 36.160000000000004 11.77 34.28 11.77 34.28 L 10.18 19.810000000000002 z" stroke-linecap="round" />
</g>
		<g transform="matrix(1 0 0 1 8.49 -0.15)"  >
<path style="stroke: none; stroke-width: 1; stroke-dasharray: none; stroke-linecap: butt; stroke-dashoffset: 0; stroke-linejoin: miter; stroke-miterlimit: 4; fill: rgb(240,95,106); fill-rule: nonzero; opacity: 1;"  transform=" translate(-22.99, -17.85)" d="M 20.78 31.89 L 21.16 20.08 C 22.249207846090357 19.651486079126087 22.978885733022317 18.615841501200833 23.015852365726012 17.445956301519224 C 23.052818998429707 16.276071101837616 22.389981148490616 15.196425097282605 21.330000000000002 14.7 L 21.78 0.81 L 19.4 0.34 L 18.74 14.75 C 17.814100586222448 15.231258964424635 17.21403106070867 16.16863693618476 17.164592394793047 17.210968809239194 C 17.11515372887742 18.25330068229363 17.623807746653828 19.243266331996374 18.5 19.81 L 17.81 34.589999999999996 C 17.81 34.589999999999996 27.29 35.87 28.81 35.13999999999999 C 27.49 33.959999999999994 20.78 31.889999999999993 20.78 31.889999999999993 z" stroke-linecap="round" />
</g>
</g>
</g>
</g>
</g>
		<g transform="matrix(-2.75 7.35 -7.35 -2.75 -202.6 -293.89)"  >
<path style="stroke: none; stroke-width: 1; stroke-dasharray: none; stroke-linecap: butt; stroke-dashoffset: 0; stroke-linejoin: miter; stroke-miterlimit: 4; fill: rgb(229,58,52); fill-rule: nonzero; opacity: 1;"  transform=" translate(-6.21, -11.58)" d="M 11.2 0.62 C 11.2 0.62 5.92 2.57 2.98 6.29 C 0.6299999999999999 9.620000000000001 1.22 15.690000000000001 1.22 15.690000000000001 C 1.22 15.690000000000001 -1.52 20 2.59 22.54 C 2.59 22.54 3.7 22.349999999999998 3.1799999999999997 21.54 C 2.6599999999999997 20.73 1.4099999999999997 20.43 1.6799999999999997 19.259999999999998 C 1.9999999999999998 19.319999999999997 4.02 21.74 4.869999999999999 21.409999999999997 C 5.719999999999999 21.08 5.259999999999999 20.499999999999996 4.679999999999999 20.109999999999996 C 4.099999999999999 19.719999999999995 2.589999999999999 18.999999999999996 2.5199999999999987 18.409999999999997 C 2.449999999999999 17.819999999999997 3.6999999999999984 17.759999999999998 4.999999999999998 18.669999999999998 C 5.459999999999998 19.06 6.179999999999998 18.409999999999997 5.5299999999999985 17.819999999999997 C 4.795349005096315 17.17360312215347 3.88168869362159 16.76559450977735 2.9099999999999944 16.65 C 1.9999999999999982 16.58 2.3899999999999983 4.509999999999998 10.809999999999999 2.9399999999999977 C 11.137232795493535 2.968073551184294 11.46119725544221 2.857314627150443 11.702750931470147 2.634780925612894 C 11.944304607498085 2.4122472240753456 12.081202018012297 2.098432613903231 12.079999999999998 1.7699999999999978 C 12.18 0.52 11.2 0.62 11.2 0.62 z" stroke-linecap="round" />
</g>
		<g transform="matrix(-1.45 -7.72 7.72 -1.45 185.12 -331.87)"  >
<path style="stroke: none; stroke-width: 1; stroke-dasharray: none; stroke-linecap: butt; stroke-dashoffset: 0; stroke-linejoin: miter; stroke-miterlimit: 4; fill: rgb(229,58,52); fill-rule: nonzero; opacity: 1;"  transform=" translate(-35.47, -11.58)" d="M 30.48 0.62 C 30.48 0.62 35.76 2.57 38.7 6.29 C 41.050000000000004 9.620000000000001 40.46 15.690000000000001 40.46 15.690000000000001 C 40.46 15.690000000000001 43.2 20 39.09 22.54 C 39.09 22.54 37.980000000000004 22.349999999999998 38.5 21.54 C 39.02 20.73 40.27 20.43 40.01 19.259999999999998 C 39.68 19.319999999999997 37.66 21.74 36.809999999999995 21.409999999999997 C 35.959999999999994 21.08 36.419999999999995 20.499999999999996 36.99999999999999 20.109999999999996 C 37.57999999999999 19.719999999999995 39.08999999999999 18.999999999999996 39.16 18.409999999999997 C 39.23 17.819999999999997 37.98 17.759999999999998 36.68 18.669999999999998 C 36.22 19.06 35.5 18.409999999999997 36.16 17.819999999999997 C 36.88983650213789 17.17220088623551 37.80080132552961 16.763837344715085 38.769999999999996 16.65 C 39.67999999999999 16.58 39.29 4.509999999999998 30.869999999999997 2.9399999999999977 C 30.54276720450646 2.968073551184294 30.218802744557788 2.857314627150443 29.97724906852985 2.6347809256128945 C 29.73569539250191 2.4122472240753456 29.5987979819877 2.098432613903231 29.599999999999998 1.7699999999999978 C 29.499999999999996 0.5199999999999978 30.479999999999997 0.6199999999999979 30.479999999999997 0.6199999999999979 z" stroke-linecap="round" />
</g>
		<g transform="matrix(7.52 0 0 7.52 -315.84 -202.11)"  >
<path style="stroke: none; stroke-width: 1; stroke-dasharray: none; stroke-linecap: butt; stroke-dashoffset: 0; stroke-linejoin: miter; stroke-miterlimit: 4; fill: rgb(255,202,39); fill-rule: nonzero; opacity: 1;"  transform=" translate(-9.9, -9.14)" d="M 18.93 14.25 L 13.42 4.6 C 13.42 4.6 2.85 -1.4 1.93 0.93 C 1.0099999999999998 3.2600000000000002 8.36 7.359999999999999 8.36 7.359999999999999 C 8.36 7.359999999999999 -0.83 5.98 1.01 8.74 C 2.85 11.5 8.36 11.95 8.36 11.95 C 8.36 11.95 2.8499999999999996 13.79 5.1499999999999995 15.629999999999999 C 7.449999999999999 17.47 20.349999999999998 20.22 18.93 14.25 z" stroke-linecap="round" />
</g>
		<g transform="matrix(7.52 0 0 7.52 290.9 -218.1)"  >
<path style="stroke: none; stroke-width: 1; stroke-dasharray: none; stroke-linecap: butt; stroke-dashoffset: 0; stroke-linejoin: miter; stroke-miterlimit: 4; fill: rgb(255,202,39); fill-rule: nonzero; opacity: 1;"  transform=" translate(-31.95, -9.14)" d="M 22.92 14.25 L 28.44 4.6 C 28.44 4.6 39 -1.4 39.92 0.93 C 40.84 3.2600000000000002 33.49 7.359999999999999 33.49 7.359999999999999 C 33.49 7.359999999999999 42.68 5.9799999999999995 40.84 8.739999999999998 C 39 11.499999999999998 33.49 11.95 33.49 11.95 C 33.49 11.95 39 13.79 36.71 15.629999999999999 C 34.42 17.47 21.55 20.22 22.92 14.25 z" stroke-linecap="round" />
</g>
		<g transform="matrix(3.94 0 0 3.94 -192.48 -263.37)"  >
<path style="stroke: none; stroke-width: 1; stroke-dasharray: none; stroke-linecap: butt; stroke-dashoffset: 0; stroke-linejoin: miter; stroke-miterlimit: 4; fill: rgb(255,202,39); fill-rule: nonzero; opacity: 1;"  transform=" translate(-4.78, -8.84)" d="M 9.51 9.05 C 9.51 9.05 3.4399999999999995 7.220000000000001 3.13 1.1500000000000004 C 1.3099999999999998 -2.8499999999999996 -1.12 6.010000000000001 0.6999999999999997 11.15 C 2.5199999999999996 16.29 4.039999999999999 17.53 4.039999999999999 17.53 L 9.509999999999998 9.05 z" stroke-linecap="round" />
</g>
		<g transform="matrix(3.94 0 0 3.94 166.6 -285.36)"  >
<path style="stroke: none; stroke-width: 1; stroke-dasharray: none; stroke-linecap: butt; stroke-dashoffset: 0; stroke-linejoin: miter; stroke-miterlimit: 4; fill: rgb(255,202,39); fill-rule: nonzero; opacity: 1;"  transform=" translate(-29.43, -8.84)" d="M 24.7 9.05 C 24.7 9.05 30.78 7.220000000000001 31.09 1.1500000000000004 C 32.91 -2.8499999999999996 35.34 6.010000000000001 33.52 11.15 C 31.700000000000003 16.29 30.17 17.53 30.17 17.53 L 24.7 9.05 z" stroke-linecap="round" />
</g>
</g>
</g>
</g>
</g>
</g>
</g>
</svg>