<?xml version="1.0" encoding="UTF-8" standalone="no" ?>
<!DOCTYPE svg PUBLIC "-//W3C//DTD SVG 1.1//EN" "http://www.w3.org/Graphics/SVG/1.1/DTD/svg11.dtd">
<svg xmlns="http://www.w3.org/2000/svg" xmlns:xlink="http://www.w3.org/1999/xlink" version="1.1" width="720.0000000000001" height="720.0000000000001" viewBox="0 0 600 600" xml:space="preserve">
<desc>Created with Fabric.js 4.4.0</desc>
<defs>
</defs>
<rect x="0" y="0" width="100%" height="100%" fill="#464954"></rect>
<g transform="matrix(2.13 0 0 2.19 305.91 322.45)"  >
<g style=""   >
		<g transform="matrix(2.86 0 0 2.86 -2.26 -19.57)"  >
<g style=""   >
		<g transform="matrix(1 0 0 1 -0.57 7.87)"  >
<path style="stroke: none; stroke-width: 1; stroke-dasharray: none; stroke-linecap: butt; stroke-dashoffset: 0; stroke-linejoin: miter; stroke-miterlimit: 4; fill: rgb(190,30,45); fill-rule: nonzero; opacity: 1;"  transform=" translate(-16.93, -25.37)" d="M 6.02 21.34 C 6.02 21.34 7.35 31.89 15.92 33.89 C 24.490000000000002 35.89 28.259999999999998 23.380000000000003 27.810000000000002 21.34 C 26.490000000000002 15.399999999999999 9.980000000000004 14.74 6.020000000000003 21.34 z" stroke-linecap="round" />
</g>
		<g transform="matrix(1 0 0 1 -0.3 -6)"  >
<path style="stroke: none; stroke-width: 1; stroke-dasharray: none; stroke-linecap: butt; stroke-dashoffset: 0; stroke-linejoin: miter; stroke-miterlimit: 4; fill: rgb(229,58,52); fill-rule: nonzero; opacity: 1;"  transform=" translate(-17.2, -11.5)" d="M 0 18.14 C 0 10.38 7.71 0.21 17.21 0.21 C 26.71 0.21 34.41 10.38 34.41 18.14 C 34.41 25.9 26.239999999999995 21.61 16.729999999999997 21.61 C 7.219999999999999 21.61 0 25.91 0 18.14" stroke-linecap="round" />
</g>
</g>
</g>
		<g transform="matrix(2.34 0 0 2.34 -0.59 -75.28)"  >
<g style=""   >
		<g transform="matrix(1 0 0 1 -10.11 -0.14)"  >
<path style="stroke: none; stroke-width: 1; stroke-dasharray: none; stroke-linecap: butt; stroke-dashoffset: 0; stroke-linejoin: miter; stroke-miterlimit: 4; fill: rgb(255,202,39); fill-rule: nonzero; opacity: 1;"  transform=" translate(-7.39, -14.86)" d="M 1.83 2.29 C 1.83 2.29 -2.02 13.82 1.83 17.19 C 5.68 20.560000000000002 8.07 18.630000000000003 8.07 18.630000000000003 C 8.07 18.630000000000003 8.55 31.120000000000005 11.92 29.200000000000003 C 15.29 27.28 15.28 15.740000000000002 13.36 14.300000000000002 C 11.44 12.860000000000003 6.1499999999999995 15.300000000000002 5.1899999999999995 12.380000000000003 C 4.2299999999999995 9.460000000000003 6.1899999999999995 3.730000000000002 6.1899999999999995 3.730000000000002 C 6.1899999999999995 3.730000000000002 7.39 0.85 4.27 0.37 C 3.6824117967994203 0.23740815604508092 3.066359067094802 0.3767084447136637 2.5929798533955233 0.7492035636901458 C 2.1196006396962446 1.121698682666628 1.8393202731510723 1.6877096828503384 1.8299999999999996 2.2900000000000005 z" stroke-linecap="round" />
</g>
		<g transform="matrix(1 0 0 1 9.59 -0.14)"  >
<path style="stroke: none; stroke-width: 1; stroke-dasharray: none; stroke-linecap: butt; stroke-dashoffset: 0; stroke-linejoin: miter; stroke-miterlimit: 4; fill: rgb(255,202,39); fill-rule: nonzero; opacity: 1;"  transform=" translate(-27.09, -14.86)" d="M 32.65 2.29 C 32.65 2.29 36.489999999999995 13.82 32.65 17.19 C 28.81 20.560000000000002 26.4 18.630000000000003 26.4 18.630000000000003 C 26.4 18.630000000000003 25.919999999999998 31.120000000000005 22.56 29.200000000000003 C 19.2 27.28 19.189999999999998 15.740000000000002 21.119999999999997 14.300000000000002 C 23.049999999999997 12.860000000000003 28.319999999999997 15.300000000000002 29.279999999999998 12.380000000000003 C 30.24 9.460000000000003 28.279999999999998 3.730000000000002 28.279999999999998 3.730000000000002 C 28.279999999999998 3.730000000000002 27.08 0.85 30.21 0.37 C 30.79758820320058 0.2374081560450813 31.413640932905196 0.3767084447136642 31.887020146604474 0.7492035636901458 C 32.36039936030375 1.1216986826666275 32.64067972684892 1.687709682850337 32.65 2.2899999999999987 z" stroke-linecap="round" />
</g>
</g>
</g>
		<g transform="matrix(3.61 0 0 3.61 -1.51 55.36)"  >
<g style=""   >
		<g transform="matrix(1 0 0 1 -8.21 -0.08)"  >
<path style="stroke: none; stroke-width: 1; stroke-dasharray: none; stroke-linecap: butt; stroke-dashoffset: 0; stroke-linejoin: miter; stroke-miterlimit: 4; fill: rgb(240,95,106); fill-rule: nonzero; opacity: 1;"  transform=" translate(-6.29, -17.92)" d="M 10.18 19.81 C 11.117910221170385 19.20859838734239 11.633566259850587 18.127289999877082 11.510527524987852 17.01994138611246 C 11.387488790125115 15.912592772347839 10.6470493502618 14.970850549165142 9.6 14.59 L 8.01 0.18 L 5.67 0.81 L 7.02 14.89 C 6.0948210128664195 15.48301934219903 5.579260226490381 16.543875147395436 5.68464142996886 17.637732039502037 C 5.790022633447338 18.73158893160864 6.498625497789003 19.67450989569544 7.52 20.080000000000002 L 8.64 31.78 C 8.64 31.78 2.0700000000000003 34.28 0.8200000000000003 35.53 C 2.3900000000000006 36.160000000000004 11.77 34.28 11.77 34.28 L 10.18 19.810000000000002 z" stroke-linecap="round" />
</g>
		<g transform="matrix(1 0 0 1 8.48 -0.15)"  >
<path style="stroke: none; stroke-width: 1; stroke-dasharray: none; stroke-linecap: butt; stroke-dashoffset: 0; stroke-linejoin: miter; stroke-miterlimit: 4; fill: rgb(240,95,106); fill-rule: nonzero; opacity: 1;"  transform=" translate(-22.99, -17.85)" d="M 20.78 31.89 L 21.16 20.08 C 22.249207846090357 19.651486079126087 22.978885733022317 18.615841501200833 23.015852365726012 17.445956301519224 C 23.052818998429707 16.276071101837616 22.389981148490616 15.196425097282605 21.330000000000002 14.7 L 21.78 0.81 L 19.4 0.34 L 18.74 14.75 C 17.814100586222448 15.231258964424635 17.21403106070867 16.16863693618476 17.164592394793047 17.210968809239194 C 17.11515372887742 18.25330068229363 17.623807746653828 19.243266331996374 18.5 19.81 L 17.81 34.589999999999996 C 17.81 34.589999999999996 27.29 35.87 28.81 35.13999999999999 C 27.49 33.959999999999994 20.78 31.889999999999993 20.78 31.889999999999993 z" stroke-linecap="round" />
</g>
</g>
</g>
		<g transform="matrix(4.79 0 0 5.44 0.84 -79.58)"  >
<g style=""   >
		<g transform="matrix(1 0 0 1 -13.35 -2.78)"  >
<path style="stroke: none; stroke-width: 1; stroke-dasharray: none; stroke-linecap: butt; stroke-dashoffset: 0; stroke-linejoin: miter; stroke-miterlimit: 4; fill: rgb(132,59,149); fill-rule: nonzero; opacity: 1;"  transform=" translate(-4.65, -4.72)" d="M 9.27 4.72 C 9.27 7.271555544218266 7.201555544218266 9.34 4.6499999999999995 9.34 C 2.098444455781733 9.34 0.02999999999999936 7.271555544218266 0.02999999999999936 4.72 C 0.02999999999999936 2.1684444557817337 2.0984444557817334 0.09999999999999964 4.6499999999999995 0.09999999999999964 C 7.201555544218266 0.09999999999999964 9.27 2.1684444557817324 9.27 4.719999999999999" stroke-linecap="round" />
</g>
		<g transform="matrix(1 0 0 1 -9.07 2.35)"  >
<path style="stroke: none; stroke-width: 1; stroke-dasharray: none; stroke-linecap: butt; stroke-dashoffset: 0; stroke-linejoin: miter; stroke-miterlimit: 4; fill: rgb(132,59,149); fill-rule: nonzero; opacity: 1;"  transform=" translate(-8.93, -9.85)" d="M 11.96 14.49 C 11.688693095784233 14.449298239269773 11.438780967731189 14.31906234155199 11.25 14.120000000000001 L 4.78 7.19 C 4.377337634371813 6.692021472404222 4.428252036130907 5.967463565575279 4.896599030101985 5.530690526253936 C 5.364946024073062 5.093917486932593 6.091290533060652 5.093615960143842 6.5600000000000005 5.529999999999999 L 13.030000000000001 12.46 C 13.486703344062342 12.95216528619636 13.45988857397243 13.720855362107182 12.97 14.180000000000001 C 12.704073068687814 14.435026371553704 12.33355050048023 14.549888367698054 11.97 14.490000000000002" stroke-linecap="round" />
</g>
		<g transform="matrix(1 0 0 1 -13.39 -2.73)"  >
<path style="stroke: none; stroke-width: 1; stroke-dasharray: none; stroke-linecap: butt; stroke-dashoffset: 0; stroke-linejoin: miter; stroke-miterlimit: 4; fill: rgb(252,234,237); fill-rule: nonzero; opacity: 1;"  transform=" translate(-4.61, -4.77)" d="M 8.1 4.77 C 8.1 6.697473776909469 6.537473776909469 8.26 4.609999999999999 8.26 C 2.6825262230905302 8.26 1.1199999999999992 6.697473776909469 1.1199999999999992 4.77 C 1.1199999999999992 2.8425262230905304 2.6825262230905302 1.2799999999999994 4.609999999999999 1.2799999999999994 C 6.537473776909469 1.2799999999999994 8.099999999999998 2.8425262230905295 8.1 4.769999999999999" stroke-linecap="round" />
</g>
		<g transform="matrix(1 0 0 1 -13.38 -2.77)"  >
<path style="stroke: none; stroke-width: 1; stroke-dasharray: none; stroke-linecap: butt; stroke-dashoffset: 0; stroke-linejoin: miter; stroke-miterlimit: 4; fill: rgb(55,71,79); fill-rule: nonzero; opacity: 1;"  transform=" translate(-4.62, -4.73)" d="M 6.13 5.06 C 5.584877933631172 5.081743999368377 5.122536986117463 4.663384458356296 5.089862413925951 4.118808255164443 C 5.05718784173444 3.574232051972589 5.46618881341759 3.1035919958086975 6.009999999999999 3.0599999999999996 C 5.232095951052601 2.4114552016210697 4.109014246191404 2.3872678195396264 3.303909514122239 3.001719961917665 C 2.4988047820530737 3.616172104295704 2.2258106515627447 4.70583799343958 2.646124051120993 5.627294292471126 C 3.0664374506792416 6.548750591502671 4.0682676655006595 7.05691765646926 5.060056359926767 6.851734200796823 C 6.0518450543528735 6.646550745124387 6.769806283937195 5.782589392944988 6.79 4.7700000000000005 C 6.607695764840012 4.930777730378077 6.373072397436171 5.019650218031047 6.13 5.02" stroke-linecap="round" />
</g>
		<g transform="matrix(1 0 0 1 12.72 -2.78)"  >
<path style="stroke: none; stroke-width: 1; stroke-dasharray: none; stroke-linecap: butt; stroke-dashoffset: 0; stroke-linejoin: miter; stroke-miterlimit: 4; fill: rgb(132,59,149); fill-rule: nonzero; opacity: 1;"  transform=" translate(-8.72, -4.72)" d="M 4.1 4.72 C 4.1 7.271555544218266 6.168444455781733 9.34 8.719999999999999 9.34 C 11.271555544218266 9.34 13.34 7.271555544218266 13.34 4.72 C 13.34 2.1684444557817337 11.271555544218266 0.09999999999999964 8.719999999999999 0.09999999999999964 C 6.168444455781733 0.09999999999999964 4.1 2.1684444557817333 4.1 4.719999999999999" stroke-linecap="round" />
</g>
		<g transform="matrix(1 0 0 1 8.44 2.35)"  >
<path style="stroke: none; stroke-width: 1; stroke-dasharray: none; stroke-linecap: butt; stroke-dashoffset: 0; stroke-linejoin: miter; stroke-miterlimit: 4; fill: rgb(132,59,149); fill-rule: nonzero; opacity: 1;"  transform=" translate(-4.44, -9.85)" d="M 1.42 14.49 C 1.688982430745048 14.450966048641018 1.9362429684159674 14.32027119301496 2.1199999999999997 14.120000000000001 L 8.59 7.190000000000001 C 8.992662365628188 6.692021472404223 8.941747963869092 5.967463565575279 8.473400969898016 5.530690526253936 C 8.005053975926938 5.093917486932594 7.278709466939347 5.093615960143843 6.809999999999999 5.530000000000001 L 0.35 12.46 C -0.10670334406234067 12.95216528619636 -0.0798885739724286 13.720855362107182 0.4099999999999997 14.180000000000001 C 0.6767389402497901 14.433645193899572 1.0465611273519577 14.548290071901244 1.41 14.490000000000002" stroke-linecap="round" />
</g>
		<g transform="matrix(1 0 0 1 12.76 -2.73)"  >
<path style="stroke: none; stroke-width: 1; stroke-dasharray: none; stroke-linecap: butt; stroke-dashoffset: 0; stroke-linejoin: miter; stroke-miterlimit: 4; fill: rgb(252,234,237); fill-rule: nonzero; opacity: 1;"  transform=" translate(-8.76, -4.77)" d="M 5.27 4.77 C 5.27 6.697473776909469 6.832526223090531 8.26 8.76 8.26 C 10.687473776909469 8.26 12.25 6.697473776909469 12.25 4.77 C 12.25 2.8425262230905304 10.687473776909469 1.2799999999999994 8.76 1.2799999999999994 C 6.832526223090531 1.2799999999999994 5.27 2.84252622309053 5.27 4.77" stroke-linecap="round" />
</g>
		<g transform="matrix(1 0 0 1 12.76 -2.77)"  >
<path style="stroke: none; stroke-width: 1; stroke-dasharray: none; stroke-linecap: butt; stroke-dashoffset: 0; stroke-linejoin: miter; stroke-miterlimit: 4; fill: rgb(55,71,79); fill-rule: nonzero; opacity: 1;"  transform=" translate(-8.76, -4.73)" d="M 7.24 5.06 C 7.785122066368828 5.081743999368377 8.247463013882538 4.663384458356296 8.280137586074048 4.118808255164442 C 8.31281215826556 3.5742320519725888 7.903811186582409 3.1035919958086966 7.36 3.0599999999999996 C 7.755000000000001 2.7369999999999997 8.25 2.5599999999999996 8.76 2.5599999999999996 C 9.953205973943982 2.5602027325676713 10.922395084600275 3.5237274584757445 10.92959183373937 4.716911746068375 C 10.936788582878464 5.910096033661004 9.979292656830657 6.885241654198173 8.786175941885894 6.8998376082786 C 7.593059226941129 6.914433562359027 6.611994597705053 5.963003258599028 6.59 4.770000000000002 C 6.76666714507467 4.933481123101968 6.999316418072121 5.022961612716373 7.24 5.02" stroke-linecap="round" />
</g>
</g>
</g>
		<g transform="matrix(3.74 0 0 3.74 -4.64 16.48)"  >
<g style=""   >
		<g transform="matrix(1 0 0 1 -15.7 -0.13)"  >
<path style="stroke: none; stroke-width: 1; stroke-dasharray: none; stroke-linecap: butt; stroke-dashoffset: 0; stroke-linejoin: miter; stroke-miterlimit: 4; fill: rgb(216,27,96); fill-rule: nonzero; opacity: 1;"  transform=" translate(-6.29, -14.87)" d="M 10.61 0.57 C 10.61 0.57 3.4099999999999993 14.77 0.8099999999999987 27.36 C 0.4099999999999987 32.36 5.009999999999999 23.759999999999998 5.009999999999999 23.759999999999998 C 5.009999999999999 23.759999999999998 4.6099999999999985 29.56 5.6099999999999985 29.159999999999997 C 6.6099999999999985 28.759999999999998 8.29 23.869999999999997 8.61 18.519999999999996 C 8.969999999999999 12.969999999999995 11.61 8.169999999999996 11.77 6.569999999999997 C 11.93 4.969999999999997 11.41 0.5699999999999967 10.61 0.5699999999999967 z" stroke-linecap="round" />
</g>
		<g transform="matrix(1 0 0 1 -19.16 5.77)"  >
<path style="stroke: none; stroke-width: 1; stroke-dasharray: none; stroke-linecap: butt; stroke-dashoffset: 0; stroke-linejoin: miter; stroke-miterlimit: 4; fill: rgb(248,158,27); fill-rule: nonzero; opacity: 1;"  transform=" translate(-2.84, -20.77)" d="M 1.96 23.36 C 1.4789297572948563 21.44079975232126 2.153623657228643 19.416718052519904 3.6900000000000004 18.169999999999998 C 4.09 18.7 3.96 21.63 1.96 23.36 z" stroke-linecap="round" />
</g>
		<g transform="matrix(1 0 0 1 -16.9 -0.1)"  >
<path style="stroke: none; stroke-width: 1; stroke-dasharray: none; stroke-linecap: butt; stroke-dashoffset: 0; stroke-linejoin: miter; stroke-miterlimit: 4; fill: rgb(248,158,27); fill-rule: nonzero; opacity: 1;"  transform=" translate(-5.1, -14.9)" d="M 4.22 17.5 C 3.7395790672570164 15.57578822889244 4.418254206675623 13.547563674308098 5.96 12.3 C 6.35 12.89 6.22 15.770000000000001 4.22 17.5 z" stroke-linecap="round" />
</g>
		<g transform="matrix(1 0 0 1 16.33 -0.13)"  >
<path style="stroke: none; stroke-width: 1; stroke-dasharray: none; stroke-linecap: butt; stroke-dashoffset: 0; stroke-linejoin: miter; stroke-miterlimit: 4; fill: rgb(216,27,96); fill-rule: nonzero; opacity: 1;"  transform=" translate(-6.33, -14.87)" d="M 2.01 0.57 C 2.01 0.57 9.21 14.77 11.81 27.36 C 12.21 32.36 7.61 23.759999999999998 7.61 23.759999999999998 C 7.61 23.759999999999998 8.01 29.56 7.010000000000001 29.159999999999997 C 6.010000000000001 28.759999999999998 4.33 23.869999999999997 4.010000000000001 18.519999999999996 C 3.650000000000001 12.969999999999995 1.0100000000000007 8.169999999999996 0.8500000000000005 6.569999999999997 C 0.6900000000000005 4.969999999999997 1.2100000000000004 0.5699999999999967 2.0100000000000007 0.5699999999999967 z" stroke-linecap="round" />
</g>
		<g transform="matrix(1 0 0 1 19.78 5.77)"  >
<path style="stroke: none; stroke-width: 1; stroke-dasharray: none; stroke-linecap: butt; stroke-dashoffset: 0; stroke-linejoin: miter; stroke-miterlimit: 4; fill: rgb(248,158,27); fill-rule: nonzero; opacity: 1;"  transform=" translate(-9.78, -20.77)" d="M 10.66 23.36 C 11.141070242705144 21.44079975232126 10.466376342771357 19.416718052519904 8.93 18.169999999999998 C 8.53 18.7 8.66 21.63 10.66 23.36 z" stroke-linecap="round" />
</g>
		<g transform="matrix(1 0 0 1 17.52 -0.1)"  >
<path style="stroke: none; stroke-width: 1; stroke-dasharray: none; stroke-linecap: butt; stroke-dashoffset: 0; stroke-linejoin: miter; stroke-miterlimit: 4; fill: rgb(248,158,27); fill-rule: nonzero; opacity: 1;"  transform=" translate(-7.52, -14.9)" d="M 8.4 17.5 C 8.880420932742984 15.57578822889244 8.201745793324378 13.547563674308101 6.660000000000001 12.300000000000002 C 6.26 12.89 6.4 15.770000000000001 8.4 17.5 z" stroke-linecap="round" />
</g>
</g>
</g>
		<g transform="matrix(1.89 0 0 1.89 -1.83 -23.2)"  >
<g style=""   >
		<g transform="matrix(1 0 0 1 -12.88 -1.28)"  >
<path style="stroke: none; stroke-width: 1; stroke-dasharray: none; stroke-linecap: butt; stroke-dashoffset: 0; stroke-linejoin: miter; stroke-miterlimit: 4; fill: rgb(252,234,237); fill-rule: nonzero; opacity: 1;"  transform=" translate(-5.62, -4.23)" d="M 3.45 8.03 C 3.45 8.03 0.54 1.95 3.72 0.62 C 6.9 -0.71 9.01 5.12 9.01 5.12 L 3.45 8.03 z" stroke-linecap="round" />
</g>
		<g transform="matrix(1 0 0 1 13.3 -1.28)"  >
<path style="stroke: none; stroke-width: 1; stroke-dasharray: none; stroke-linecap: butt; stroke-dashoffset: 0; stroke-linejoin: miter; stroke-miterlimit: 4; fill: rgb(252,234,237); fill-rule: nonzero; opacity: 1;"  transform=" translate(-31.8, -4.23)" d="M 33.97 8.03 C 33.97 8.03 36.879999999999995 1.9499999999999993 33.699999999999996 0.6199999999999992 C 30.519999999999996 -0.7100000000000009 28.419999999999995 5.119999999999999 28.419999999999995 5.119999999999999 L 33.96999999999999 8.03 z" stroke-linecap="round" />
</g>
		<g transform="matrix(1 0 0 1 0.02 1.44)"  >
<path style="stroke: none; stroke-width: 1; stroke-dasharray: none; stroke-linecap: butt; stroke-dashoffset: 0; stroke-linejoin: miter; stroke-miterlimit: 4; fill: rgb(63,77,160); fill-rule: nonzero; opacity: 1;"  transform=" translate(-18.53, -6.95)" d="M 34.76 10.66 C 29.38910082052516 7.686716707909357 23.36827062158977 6.082764795243737 17.229999999999986 5.989999999999998 C 12.111148730028788 5.907238777609935 7.07122266087487 7.258146796146036 2.679999999999996 9.889999999999999 L 2.469999999999996 10.040000000000001 C 2.1535378814779023 10.270788268057121 1.758058061164049 10.36573915000947 1.3713112116448736 10.303784557610767 C 0.9845643621256981 10.241829965212062 0.6385344496732506 10.028093543544726 0.40999999999999615 9.71 C 0.1781796576964473 9.394768657129344 0.08160650663638791 9.000120574791996 0.14166977783365375 8.613463266459599 C 0.2017330490309196 8.2268059581272 0.41347551679978206 7.880051564151626 0.7299999999999961 7.65 C 0.8799999999999962 7.54 7.049999999999996 3.0500000000000007 17.229999999999997 3.0500000000000007 C 23.84789896759488 3.1413517256853654 30.341834675591194 4.858415635784867 36.14 8.05 C 36.85921812469953 8.434617190755507 37.13554840310874 9.326005185623933 36.76 10.05 C 36.50215845849163 10.53450477753825 35.99883811292872 10.838033840892978 35.449999999999996 10.84 C 35.20998426882449 10.83717206119723 34.97385835529666 10.778996111487475 34.76 10.67 L 34.76 10.66 z" stroke-linecap="round" />
</g>
</g>
</g>
</g>
</g>
<g transform="matrix(1 0 0 1 300 32.5)" style=""  >
		<text xml:space="preserve" font-family="sans-serif" font-size="40" font-style="normal" font-weight="normal" style="stroke: none; stroke-width: 1; stroke-dasharray: none; stroke-linecap: butt; stroke-dashoffset: 0; stroke-linejoin: miter; stroke-miterlimit: 4; fill: rgb(224,247,250); fill-rule: nonzero; opacity: 1; white-space: pre;" ><tspan x="-52.23" y="12.57" >Terror</tspan></text>
</g>
</svg>