<?xml version="1.0" encoding="UTF-8" standalone="no" ?>
<!DOCTYPE svg PUBLIC "-//W3C//DTD SVG 1.1//EN" "http://www.w3.org/Graphics/SVG/1.1/DTD/svg11.dtd">
<svg xmlns="http://www.w3.org/2000/svg" xmlns:xlink="http://www.w3.org/1999/xlink" version="1.1" width="1275.03125" height="938.6875" viewBox="0 0 1275.03 938.69" xml:space="preserve">
<desc>Created with Fabric.js 4.4.0</desc>
<defs>
</defs>
<rect x="0" y="0" width="100%" height="100%" fill="#435593"></rect>
<g transform="matrix(1.09 0 0 1.09 955.97 452.42)"  >
<g style=""   >
		<g transform="matrix(2.12 0 0 0.85 10.99 221.82)"  >
<circle style="stroke: none; stroke-width: 1; stroke-dasharray: none; stroke-linecap: butt; stroke-dashoffset: 0; stroke-linejoin: miter; stroke-miterlimit: 4; fill: rgb(54,58,58); fill-rule: nonzero; opacity: 1;"  cx="0" cy="0" r="50" />
</g>
		<g transform="matrix(1 0 0 1 0 -14.96)"  >
<g style=""   >
		<g transform="matrix(1 0 0 1 0 -35.96)"  >
<g style=""   >
		<g transform="matrix(1 0 0 1 -174.81 -14.87)"  >
<g style=""   >
		<g transform="matrix(8 0 0 8 -44.17 -63.57)"  >
<path style="stroke: none; stroke-width: 1; stroke-dasharray: none; stroke-linecap: butt; stroke-dashoffset: 0; stroke-linejoin: miter; stroke-miterlimit: 4; fill: rgb(248,158,27); fill-rule: nonzero; opacity: 1;"  transform=" translate(-4.59, -3.2)" d="M 5.91 4.8 C 5.91 4.8 4.48 0.74 3.56 0.6 C 2.64 0.45999999999999996 4.27 5.52 4.27 5.52 C 4.27 5.52 5.4799999999999995 6.51 5.909999999999999 4.8 z" stroke-linecap="round" />
</g>
		<g transform="matrix(8 0 0 8 -17.6 -58.46)"  >
<path style="stroke: none; stroke-width: 1; stroke-dasharray: none; stroke-linecap: butt; stroke-dashoffset: 0; stroke-linejoin: miter; stroke-miterlimit: 4; fill: rgb(248,158,27); fill-rule: nonzero; opacity: 1;"  transform=" translate(-7.92, -3.84)" d="M 9.99 6.44 C 9.99 6.44 8.28 1.5 5.91 0.65 C 5.43 1.31 7.62 6.0600000000000005 7.62 6.0600000000000005 C 7.62 6.0600000000000005 8.85 7.960000000000001 9.99 6.44 z" stroke-linecap="round" />
</g>
		<g transform="matrix(8 0 0 8 -62.4 -47.2)"  >
<path style="stroke: none; stroke-width: 1; stroke-dasharray: none; stroke-linecap: butt; stroke-dashoffset: 0; stroke-linejoin: miter; stroke-miterlimit: 4; fill: rgb(248,158,27); fill-rule: nonzero; opacity: 1;"  transform=" translate(-2.32, -5.25)" d="M 2.05 8.75 C 2.05 8.75 0.17 3.87 1.44 1.69 C 2.23 1.89 3.62 6.93 3.62 6.93 C 3.62 6.93 3.9000000000000004 9.18 2.05 8.75 z" stroke-linecap="round" />
</g>
		<g transform="matrix(8 0 0 8 2.63 13.42)"  >
<path style="stroke: none; stroke-width: 1; stroke-dasharray: none; stroke-linecap: butt; stroke-dashoffset: 0; stroke-linejoin: miter; stroke-miterlimit: 4; fill: rgb(156,39,33); fill-rule: nonzero; opacity: 1;"  transform=" translate(-9.45, -9.82)" d="M 16.43 10.03 C 16.43 10.03 14.91 16.81 11.129999999999999 14.34 C 7.35 11.87 13.829999999999998 3.99 6.559999999999999 1.3399999999999999 C -0.7100000000000009 -1.31 -1.5200000000000014 10.26 5.559999999999999 15.72 C 12.639999999999999 21.18 17.47 18.09 18.089999999999996 14.72 C 18.55085396418113 12.948835399977455 17.880327657659187 11.076122875253445 16.399999999999995 9.999999999999998" stroke-linecap="round" />
</g>
		<g transform="matrix(8 0 0 8 -30.31 -19.44)"  >
<path style="stroke: none; stroke-width: 1; stroke-dasharray: none; stroke-linecap: butt; stroke-dashoffset: 0; stroke-linejoin: miter; stroke-miterlimit: 4; fill: rgb(255,202,39); fill-rule: nonzero; opacity: 1;"  transform=" translate(-5.33, -5.72)" d="M 3.99 6.3 C 4.1417421898465925 6.654706299571114 4.428585344892612 6.934316189892643 4.7870506694658435 7.076951607000316 C 5.145515994039075 7.219587024107989 5.546044981224693 7.213486467868158 5.9 7.06 C 6.444445382582954 6.828334482465968 6.795237629288442 6.290976877050366 6.788255741376452 5.699334299245664 C 6.781273853464462 5.107691721440962 6.417898504141321 4.578761903836623 5.868137798798491 4.360008953019581 C 5.318377093455662 4.141256002202539 4.690946595179489 4.275938466835423 4.279394753184938 4.701044063106632 C 3.8678429111903867 5.126149659377842 3.7535543893991155 5.757613459000149 3.99 6.3" stroke-linecap="round" />
</g>
		<g transform="matrix(8 0 0 8 -39.46 22.66)"  >
<path style="stroke: none; stroke-width: 1; stroke-dasharray: none; stroke-linecap: butt; stroke-dashoffset: 0; stroke-linejoin: miter; stroke-miterlimit: 4; fill: rgb(255,202,39); fill-rule: nonzero; opacity: 1;"  transform=" translate(-4.18, -10.98)" d="M 3.35 11.34 C 3.5553118513435877 11.797212377130263 4.086007019971703 12.009490444581509 4.55 11.82 C 5.005889397103417 11.616297650475664 5.213925990313393 11.084428712305437 5.017230527016243 10.625472631278754 C 4.820535063719093 10.166516550252071 4.2919150786923925 9.950357574183275 3.83 10.14 C 3.368666603499392 10.341337672532674 3.1547845560048513 10.876042791269024 3.35 11.34" stroke-linecap="round" />
</g>
		<g transform="matrix(8 0 0 8 -10.49 39.31)"  >
<path style="stroke: none; stroke-width: 1; stroke-dasharray: none; stroke-linecap: butt; stroke-dashoffset: 0; stroke-linejoin: miter; stroke-miterlimit: 4; fill: rgb(255,202,39); fill-rule: nonzero; opacity: 1;"  transform=" translate(-7.81, -13.06)" d="M 7.17 13.32 C 7.275567904123447 13.580514893066763 7.528615264372216 13.750949506437173 7.809707035943492 13.750860931464274 C 8.09079880751477 13.750772356491373 8.343738706044133 13.58017830121527 8.449142407254996 13.319596928777303 C 8.55454610846586 13.059015556339334 8.491341147898673 12.760542681653389 8.289359440376337 12.565053598283074 C 8.087377732854002 12.369564514912758 7.786999761266101 12.316141690686312 7.53 12.43 C 7.36263093365617 12.498350544805282 7.229986963106314 12.631437837515662 7.162195244240565 12.799034031378206 C 7.094403525374817 12.96663022524075 7.097218208374132 13.154509782308098 7.17 13.32" stroke-linecap="round" />
</g>
</g>
</g>
		<g transform="matrix(-0.94 0 0 -0.94 179.43 20.17)"  >
<g style=""   >
		<g transform="matrix(8 0 0 8 -44.17 -63.57)"  >
<path style="stroke: none; stroke-width: 1; stroke-dasharray: none; stroke-linecap: butt; stroke-dashoffset: 0; stroke-linejoin: miter; stroke-miterlimit: 4; fill: rgb(248,158,27); fill-rule: nonzero; opacity: 1;"  transform=" translate(-4.59, -3.2)" d="M 5.91 4.8 C 5.91 4.8 4.48 0.74 3.56 0.6 C 2.64 0.45999999999999996 4.27 5.52 4.27 5.52 C 4.27 5.52 5.4799999999999995 6.51 5.909999999999999 4.8 z" stroke-linecap="round" />
</g>
		<g transform="matrix(8 0 0 8 -17.6 -58.46)"  >
<path style="stroke: none; stroke-width: 1; stroke-dasharray: none; stroke-linecap: butt; stroke-dashoffset: 0; stroke-linejoin: miter; stroke-miterlimit: 4; fill: rgb(248,158,27); fill-rule: nonzero; opacity: 1;"  transform=" translate(-7.92, -3.84)" d="M 9.99 6.44 C 9.99 6.44 8.28 1.5 5.91 0.65 C 5.43 1.31 7.62 6.0600000000000005 7.62 6.0600000000000005 C 7.62 6.0600000000000005 8.85 7.960000000000001 9.99 6.44 z" stroke-linecap="round" />
</g>
		<g transform="matrix(8 0 0 8 -62.4 -47.2)"  >
<path style="stroke: none; stroke-width: 1; stroke-dasharray: none; stroke-linecap: butt; stroke-dashoffset: 0; stroke-linejoin: miter; stroke-miterlimit: 4; fill: rgb(248,158,27); fill-rule: nonzero; opacity: 1;"  transform=" translate(-2.32, -5.25)" d="M 2.05 8.75 C 2.05 8.75 0.17 3.87 1.44 1.69 C 2.23 1.89 3.62 6.93 3.62 6.93 C 3.62 6.93 3.9000000000000004 9.18 2.05 8.75 z" stroke-linecap="round" />
</g>
		<g transform="matrix(8 0 0 8 2.63 13.42)"  >
<path style="stroke: none; stroke-width: 1; stroke-dasharray: none; stroke-linecap: butt; stroke-dashoffset: 0; stroke-linejoin: miter; stroke-miterlimit: 4; fill: rgb(156,39,33); fill-rule: nonzero; opacity: 1;"  transform=" translate(-9.45, -9.82)" d="M 16.43 10.03 C 16.43 10.03 14.91 16.81 11.129999999999999 14.34 C 7.35 11.87 13.829999999999998 3.99 6.559999999999999 1.3399999999999999 C -0.7100000000000009 -1.31 -1.5200000000000014 10.26 5.559999999999999 15.72 C 12.639999999999999 21.18 17.47 18.09 18.089999999999996 14.72 C 18.55085396418113 12.948835399977455 17.880327657659187 11.076122875253445 16.399999999999995 9.999999999999998" stroke-linecap="round" />
</g>
		<g transform="matrix(8 0 0 8 -30.31 -19.44)"  >
<path style="stroke: none; stroke-width: 1; stroke-dasharray: none; stroke-linecap: butt; stroke-dashoffset: 0; stroke-linejoin: miter; stroke-miterlimit: 4; fill: rgb(255,202,39); fill-rule: nonzero; opacity: 1;"  transform=" translate(-5.33, -5.72)" d="M 3.99 6.3 C 4.1417421898465925 6.654706299571114 4.428585344892612 6.934316189892643 4.7870506694658435 7.076951607000316 C 5.145515994039075 7.219587024107989 5.546044981224693 7.213486467868158 5.9 7.06 C 6.444445382582954 6.828334482465968 6.795237629288442 6.290976877050366 6.788255741376452 5.699334299245664 C 6.781273853464462 5.107691721440962 6.417898504141321 4.578761903836623 5.868137798798491 4.360008953019581 C 5.318377093455662 4.141256002202539 4.690946595179489 4.275938466835423 4.279394753184938 4.701044063106632 C 3.8678429111903867 5.126149659377842 3.7535543893991155 5.757613459000149 3.99 6.3" stroke-linecap="round" />
</g>
		<g transform="matrix(8 0 0 8 -39.46 22.66)"  >
<path style="stroke: none; stroke-width: 1; stroke-dasharray: none; stroke-linecap: butt; stroke-dashoffset: 0; stroke-linejoin: miter; stroke-miterlimit: 4; fill: rgb(255,202,39); fill-rule: nonzero; opacity: 1;"  transform=" translate(-4.18, -10.98)" d="M 3.35 11.34 C 3.5553118513435877 11.797212377130263 4.086007019971703 12.009490444581509 4.55 11.82 C 5.005889397103417 11.616297650475664 5.213925990313393 11.084428712305437 5.017230527016243 10.625472631278754 C 4.820535063719093 10.166516550252071 4.2919150786923925 9.950357574183275 3.83 10.14 C 3.368666603499392 10.341337672532674 3.1547845560048513 10.876042791269024 3.35 11.34" stroke-linecap="round" />
</g>
		<g transform="matrix(8 0 0 8 -10.49 39.31)"  >
<path style="stroke: none; stroke-width: 1; stroke-dasharray: none; stroke-linecap: butt; stroke-dashoffset: 0; stroke-linejoin: miter; stroke-miterlimit: 4; fill: rgb(255,202,39); fill-rule: nonzero; opacity: 1;"  transform=" translate(-7.81, -13.06)" d="M 7.17 13.32 C 7.275567904123447 13.580514893066763 7.528615264372216 13.750949506437173 7.809707035943492 13.750860931464274 C 8.09079880751477 13.750772356491373 8.343738706044133 13.58017830121527 8.449142407254996 13.319596928777303 C 8.55454610846586 13.059015556339334 8.491341147898673 12.760542681653389 8.289359440376337 12.565053598283074 C 8.087377732854002 12.369564514912758 7.786999761266101 12.316141690686312 7.53 12.43 C 7.36263093365617 12.498350544805282 7.229986963106314 12.631437837515662 7.162195244240565 12.799034031378206 C 7.094403525374817 12.96663022524075 7.097218208374132 13.154509782308098 7.17 13.32" stroke-linecap="round" />
</g>
</g>
</g>
</g>
</g>
		<g transform="matrix(1 0 0 1 2.57 0)"  >
<g style=""   >
		<g transform="matrix(9.77 0 0 9.77 48.18 154.9)"  >
<path style="stroke: none; stroke-width: 1; stroke-dasharray: none; stroke-linecap: butt; stroke-dashoffset: 0; stroke-linejoin: miter; stroke-miterlimit: 4; fill: rgb(156,39,33); fill-rule: nonzero; opacity: 1;"  transform=" translate(-3.89, -9.81)" d="M 0.92 1.44 C 0.92 1.44 1.82 20.68 4.92 18.44 C 7.61 15.75 6.71 0.99 6.71 0.99 L 0.9199999999999999 1.44 z" stroke-linecap="round" />
</g>
		<g transform="matrix(9.77 0 0 9.77 -37.96 158.9)"  >
<path style="stroke: none; stroke-width: 1; stroke-dasharray: none; stroke-linecap: butt; stroke-dashoffset: 0; stroke-linejoin: miter; stroke-miterlimit: 4; fill: rgb(156,39,33); fill-rule: nonzero; opacity: 1;"  transform=" translate(-20.02, -9.81)" d="M 22.99 1.44 C 22.99 1.44 22.099999999999998 20.68 18.99 18.44 C 16.3 15.75 17.2 0.99 17.2 0.99 L 22.99 1.44 z" stroke-linecap="round" />
</g>
		<g transform="matrix(8.52 0 0 8.52 0.01 -29.41)"  >
<path style="stroke: none; stroke-width: 1; stroke-dasharray: none; stroke-linecap: butt; stroke-dashoffset: 0; stroke-linejoin: miter; stroke-miterlimit: 4; fill: rgb(229,58,52); fill-rule: nonzero; opacity: 1;"  transform=" translate(-16.4, -15.43)" d="M 32.4 13.24 C 32.4 22.060000000000002 25.259999999999998 30.840000000000003 16.4 30.840000000000003 C 7.539999999999999 30.840000000000003 0.3999999999999986 22.060000000000002 0.3999999999999986 13.240000000000002 C 0.4 4.42 7.98 0.01 16.8 0.01 C 25.62 0.01 32.32 4.43 32.32 13.24" stroke-linecap="round" />
</g>
		<g transform="matrix(7.04 0 0 7.04 1.84 -38.53)"  >
<ellipse style="stroke: none; stroke-width: 1; stroke-dasharray: none; stroke-linecap: butt; stroke-dashoffset: 0; stroke-linejoin: miter; stroke-miterlimit: 4; fill: rgb(252,234,237); fill-rule: nonzero; opacity: 1;"  cx="0" cy="0" rx="13.94" ry="7.22" />
</g>
		<g transform="matrix(7.04 0 0 7.04 -40.32 -37.5)"  >
<path style="stroke: none; stroke-width: 1; stroke-dasharray: none; stroke-linecap: butt; stroke-dashoffset: 0; stroke-linejoin: miter; stroke-miterlimit: 4; fill: rgb(55,71,79); fill-rule: nonzero; opacity: 1;"  transform=" translate(-15.39, -8.17)" d="M 18.65 8.8 C 17.510386888071217 8.835398340222698 16.5487836390071 7.9590728037088745 16.478503684593715 6.821078157245996 C 16.40822373018033 5.683083510783117 17.254691234835 4.695095647436302 18.389999999999997 4.590000000000001 C 16.71826482845049 3.1893889486507696 14.299702148300653 3.132358122181916 12.56380763644445 4.452615689728782 C 10.827913124588246 5.772873257275649 10.236969747120419 8.1188237848035 11.140255614677756 10.10388913446543 C 12.043541482235092 12.088954484127363 14.200504149243372 13.184495449182435 16.336267081380576 12.742990637582437 C 18.47203001351778 12.301485825982443 20.01782200009102 10.440511595309903 20.059999999999995 8.260000000000003 C 19.672695421102794 8.607755320518757 19.170517620820746 8.800078733392734 18.649999999999995 8.8" stroke-linecap="round" />
</g>
		<g transform="matrix(6.28 0 0 6.28 -5.08 -183.98)"  >
<g style=""   >
		<g transform="matrix(1 0 0 1 7.93 1.71)"  >
<path style="stroke: none; stroke-width: 1; stroke-dasharray: none; stroke-linecap: butt; stroke-dashoffset: 0; stroke-linejoin: miter; stroke-miterlimit: 4; fill: rgb(229,58,52); fill-rule: nonzero; opacity: 1;"  transform=" translate(-24.43, -12.21)" d="M 21.03 20.02 C 20.66875366217329 20.023794680481767 20.307734026890532 20.000395259676402 19.950000000000003 19.95 C 19.342296349603796 19.822935555697416 18.93965323353726 19.243333365549965 19.032659224989068 18.62949382196804 C 19.125665216440876 18.015654278386112 19.681931821686344 17.581341439952602 20.300000000000004 17.64 C 22.234852626236346 17.855622059663464 24.16903348362105 17.229107732977646 25.610000000000007 15.92 C 27.470000000000002 14 27.960000000000004 10.58 27.080000000000002 5.76 C 26.971505440574965 5.125622231323799 27.393979266930252 4.522155341350604 28.027186676619475 4.40702672140711 C 28.6603940863087 4.291898101463615 29.268249933047812 4.708032323601463 29.39 5.34 C 30.39 10.96 29.7 15.07 27.28 17.57 C 25.608942830440004 19.190873315020372 23.357402536295407 20.073477110325054 21.03 20.020000000000003 z" stroke-linecap="round" />
</g>
		<g transform="matrix(1 0 0 1 12.01 -5.22)"  >
<circle style="stroke: none; stroke-width: 1; stroke-dasharray: none; stroke-linecap: butt; stroke-dashoffset: 0; stroke-linejoin: miter; stroke-miterlimit: 4; fill: rgb(255,202,39); fill-rule: nonzero; opacity: 1;"  cx="0" cy="0" r="4.32" />
</g>
		<g transform="matrix(1 0 0 1 -7.79 1.71)"  >
<path style="stroke: none; stroke-width: 1; stroke-dasharray: none; stroke-linecap: butt; stroke-dashoffset: 0; stroke-linejoin: miter; stroke-miterlimit: 4; fill: rgb(229,58,52); fill-rule: nonzero; opacity: 1;"  transform=" translate(-8.71, -12.21)" d="M 12.08 20.02 C 9.752597463704596 20.073477110325054 7.501057169559996 19.190873315020372 5.829999999999998 17.57 C 3.41 15.07 2.7 10.96 3.72 5.34 C 3.8417500669521596 4.708032323601434 4.449605913691291 4.291898101463553 5.082813323380536 4.4070267214070515 C 5.716020733069781 4.52215534135055 6.138494559425074 5.125622231323781 6.03 5.759999999999999 C 5.15 10.58 5.65 14 7.5 15.92 C 8.942706049915332 17.23302715398201 10.881681419904538 17.85991392773792 12.819999999999999 17.64 C 13.127694650318936 17.59729591869562 13.439741062549004 17.6787094861936 13.687352880970483 17.866294197118965 C 13.934964699391962 18.053878908044325 14.097812961729426 18.33223403340054 14.14 18.64 C 14.185492725732196 18.948136740544875 14.105153870548722 19.261622847862785 13.917066169494957 19.509898613253757 C 13.728978468441191 19.758174378644725 13.448946468284003 19.92037780037649 13.14 19.96 C 12.78867701158507 20.006614555937084 12.43433917542576 20.02667141458761 12.08 20.02 z" stroke-linecap="round" />
</g>
		<g transform="matrix(1 0 0 1 -11.89 -5.22)"  >
<circle style="stroke: none; stroke-width: 1; stroke-dasharray: none; stroke-linecap: butt; stroke-dashoffset: 0; stroke-linejoin: miter; stroke-miterlimit: 4; fill: rgb(255,202,39); fill-rule: nonzero; opacity: 1;"  cx="0" cy="0" r="4.32" />
</g>
</g>
</g>
		<g transform="matrix(0.77 0 0 0.77 -15.21 33.94)"  >
<g style=""   >
		<g transform="matrix(4.87 0 0 4.87 -62.84 -6.84)"  >
<path style="stroke: none; stroke-width: 1; stroke-dasharray: none; stroke-linecap: butt; stroke-dashoffset: 0; stroke-linejoin: miter; stroke-miterlimit: 4; fill: rgb(252,234,237); fill-rule: nonzero; opacity: 1;"  transform=" translate(-5.62, -4.23)" d="M 3.45 8.03 C 3.45 8.03 0.54 1.95 3.72 0.62 C 6.9 -0.71 9.01 5.12 9.01 5.12 L 3.45 8.03 z" stroke-linecap="round" />
</g>
		<g transform="matrix(4.87 0 0 4.87 64.66 -6.84)"  >
<path style="stroke: none; stroke-width: 1; stroke-dasharray: none; stroke-linecap: butt; stroke-dashoffset: 0; stroke-linejoin: miter; stroke-miterlimit: 4; fill: rgb(252,234,237); fill-rule: nonzero; opacity: 1;"  transform=" translate(-31.8, -4.23)" d="M 33.97 8.03 C 33.97 8.03 36.879999999999995 1.9499999999999993 33.699999999999996 0.6199999999999992 C 30.519999999999996 -0.7100000000000009 28.419999999999995 5.119999999999999 28.419999999999995 5.119999999999999 L 33.96999999999999 8.03 z" stroke-linecap="round" />
</g>
		<g transform="matrix(4.87 0 0 4.87 0 6.39)"  >
<path style="stroke: none; stroke-width: 1; stroke-dasharray: none; stroke-linecap: butt; stroke-dashoffset: 0; stroke-linejoin: miter; stroke-miterlimit: 4; fill: rgb(156,39,33); fill-rule: nonzero; opacity: 1;"  transform=" translate(-18.53, -6.95)" d="M 34.76 10.66 C 29.38910082052516 7.686716707909357 23.36827062158977 6.082764795243737 17.229999999999986 5.989999999999998 C 12.111148730028788 5.907238777609935 7.07122266087487 7.258146796146036 2.679999999999996 9.889999999999999 L 2.469999999999996 10.040000000000001 C 2.1535378814779023 10.270788268057121 1.758058061164049 10.36573915000947 1.3713112116448736 10.303784557610767 C 0.9845643621256981 10.241829965212062 0.6385344496732506 10.028093543544726 0.40999999999999615 9.71 C 0.1781796576964473 9.394768657129344 0.08160650663638791 9.000120574791996 0.14166977783365375 8.613463266459599 C 0.2017330490309196 8.2268059581272 0.41347551679978206 7.880051564151626 0.7299999999999961 7.65 C 0.8799999999999962 7.54 7.049999999999996 3.0500000000000007 17.229999999999997 3.0500000000000007 C 23.84789896759488 3.1413517256853654 30.341834675591194 4.858415635784867 36.14 8.05 C 36.85921812469953 8.434617190755507 37.13554840310874 9.326005185623933 36.76 10.05 C 36.50215845849163 10.53450477753825 35.99883811292872 10.838033840892978 35.449999999999996 10.84 C 35.20998426882449 10.83717206119723 34.97385835529666 10.778996111487475 34.76 10.67 L 34.76 10.66 z" stroke-linecap="round" />
</g>
</g>
</g>
</g>
</g>
</g>
</g>
</g>
</g>
<g transform="matrix(1.08 0 0 1.08 355.63 447.14)"  >
<g style=""   >
		<g transform="matrix(3.67 0 0 0.98 12.3 225.45)"  >
<circle style="stroke: none; stroke-width: 1; stroke-dasharray: none; stroke-linecap: butt; stroke-dashoffset: 0; stroke-linejoin: miter; stroke-miterlimit: 4; fill: rgb(54,58,58); fill-rule: nonzero; opacity: 1;"  cx="0" cy="0" r="50" />
</g>
		<g transform="matrix(1 0 0 1 0 -14.91)"  >
<g style=""   >
		<g transform="matrix(15.6 0 0 -15.6 -213.74 55.04)"  >
<path style="stroke: none; stroke-width: 1; stroke-dasharray: none; stroke-linecap: butt; stroke-dashoffset: 0; stroke-linejoin: miter; stroke-miterlimit: 4; fill: rgb(52,138,213); fill-rule: nonzero; opacity: 1;"  transform=" translate(-5.73, -5.44)" d="M 10.14 7.72 C 10.14 7.72 4.590000000000001 6.96 3.4000000000000004 1.7199999999999998 C 3 0.58 1.81 0.58 1.94 1.98 L 2.08 2.86 C 2.08 2.86 1.02 1.98 0.75 3.12 C 0.6722857903396512 3.8788654008927548 1.033021608596031 4.615852556470305 1.6799999999999995 5.02 C 1.6800000000000002 5.02 -0.31999999999999984 4.13 0.09000000000000008 5.6499999999999995 C 0.5 7.17 5.09 10.219999999999999 10.41 9.959999999999999 C 10.41 9.959999999999999 11.6 10.01 11.41 8.909999999999998 C 11.283582027082701 8.28318617437491 10.77370304602328 7.8054255543271065 10.14 7.719999999999999 z" stroke-linecap="round" />
</g>
		<g transform="matrix(12.27 0 0 12.27 234.33 -64.49)"  >
<path style="stroke: none; stroke-width: 1; stroke-dasharray: none; stroke-linecap: butt; stroke-dashoffset: 0; stroke-linejoin: miter; stroke-miterlimit: 4; fill: rgb(52,138,213); fill-rule: nonzero; opacity: 1;"  transform=" translate(-32.08, -5.44)" d="M 27.67 7.72 C 27.67 7.72 33.22 6.96 34.410000000000004 1.7199999999999998 C 34.81 0.5799999999999998 36.00000000000001 0.5799999999999998 35.870000000000005 1.9799999999999998 L 35.730000000000004 2.86 C 35.730000000000004 2.86 36.790000000000006 1.98 37.06 3.12 C 37.13771420966035 3.878865400892755 36.77697839140397 4.615852556470304 36.13 5.019999999999999 C 36.13 5.02 38.13 4.13 37.720000000000006 5.6499999999999995 C 37.31000000000001 7.17 32.720000000000006 10.219999999999999 27.400000000000006 9.959999999999999 C 27.400000000000006 9.959999999999999 26.210000000000004 10.01 26.400000000000006 8.909999999999998 C 26.526417972917304 8.28318617437491 27.036296953976727 7.805425554327107 27.670000000000005 7.719999999999999 z" stroke-linecap="round" />
</g>
		<g transform="matrix(1 0 0 1 16.22 163.56)"  >
<g style=""   >
		<g transform="matrix(12.57 0 0 12.57 -102.42 -4.5)"  >
<path style="stroke: none; stroke-width: 1; stroke-dasharray: none; stroke-linecap: butt; stroke-dashoffset: 0; stroke-linejoin: miter; stroke-miterlimit: 4; fill: rgb(52,138,213); fill-rule: nonzero; opacity: 1;"  transform=" translate(-5.31, -6.93)" d="M 0.12 0.7 C 0.12 0.7 1.54 9.27 2.12 10.41 C 1.7791670999159377 11.346199370621845 1.4920337213357209 12.301084792411862 1.2600000000000007 13.269999999999992 C 1.2600000000000002 13.27 6.4 14.99 8.69 11.84 C 11.12 9.41 10.4 2.7 10.4 2.7 C 7.583510173417926 0.23077301815515794 3.6568020747622363 -0.5331779738012017 0.11999999999999744 0.7000000000000002 z" stroke-linecap="round" />
</g>
		<g transform="matrix(12.57 0 0 12.57 102.37 4.49)"  >
<path style="stroke: none; stroke-width: 1; stroke-dasharray: none; stroke-linecap: butt; stroke-dashoffset: 0; stroke-linejoin: miter; stroke-miterlimit: 4; fill: rgb(52,138,213); fill-rule: nonzero; opacity: 1;"  transform=" translate(-27.89, -6.93)" d="M 33.08 0.7 C 33.08 0.7 31.65 9.27 31.08 10.41 C 31.415999999999997 11.348 31.703 12.302 31.939999999999998 13.27 C 31.939999999999998 13.27 26.79 14.99 24.499999999999996 11.84 C 22.08 9.41 22.789999999999996 2.6999999999999993 22.789999999999996 2.6999999999999993 C 25.609604068754976 0.2290214399250452 29.540103869130075 -0.5349240995064606 33.08 0.6999999999999993 z" stroke-linecap="round" />
</g>
</g>
</g>
		<g transform="matrix(15.4 0 0 12.15 15.35 -19.65)"  >
<path style="stroke: none; stroke-width: 1; stroke-dasharray: none; stroke-linecap: butt; stroke-dashoffset: 0; stroke-linejoin: miter; stroke-miterlimit: 4; fill: rgb(52,193,214); fill-rule: nonzero; opacity: 1;"  transform=" translate(-11.95, -17.16)" d="M 23.87 22.22 C 23.77 34.45 18.43 34.339999999999996 11.870000000000001 34.29 C 5.310000000000001 34.24 -0.06999999999999851 34.29 0.030000000000001137 22.03 C 0.13 9.77 5.55 -0.06 12.14 0.03 C 18.73 0.12 23.97 10 23.87 22.22 z" stroke-linecap="round" />
</g>
		<g transform="matrix(7.33 0 0 7.33 38.26 90.97)"  >
<g style=""   >
		<g transform="matrix(1 0 0 1 0.12 0.16)"  >
<path style="stroke: none; stroke-width: 1; stroke-dasharray: none; stroke-linecap: butt; stroke-dashoffset: 0; stroke-linejoin: miter; stroke-miterlimit: 4; fill: rgb(120,49,146); fill-rule: nonzero; opacity: 1;"  transform=" translate(-16.12, -9.16)" d="M 31.84 5.4 C 31.84 12.4 24.84 17.98 16.119999999999997 17.98 C 7.399999999999995 17.98 0.4 12.35 0.4 5.4 C 0.4 -1.549999999999999 7.4 0.68 16.12 0.68 C 24.840000000000003 0.68 31.84 -1.55 31.84 5.4" stroke-linecap="round" />
</g>
		<g transform="matrix(1 0 0 1 -9.58 -4.93)"  >
<path style="stroke: none; stroke-width: 1; stroke-dasharray: none; stroke-linecap: butt; stroke-dashoffset: 0; stroke-linejoin: miter; stroke-miterlimit: 4; fill: rgb(252,234,237); fill-rule: nonzero; opacity: 1;"  transform=" translate(-6.42, -4.06)" d="M 3.89 0.62 C 4.62 2.88 6.11 6.9 7.75 7.72 C 9.24 8.459999999999999 9.05 3.78 8.75 0.3799999999999999 C 7.136263166911553 0.26051744776998187 5.513942899312029 0.3411296349798987 3.9199999999999857 0.6200000000000054" stroke-linecap="round" />
</g>
		<g transform="matrix(1 0 0 1 9.32 -4.93)"  >
<path style="stroke: none; stroke-width: 1; stroke-dasharray: none; stroke-linecap: butt; stroke-dashoffset: 0; stroke-linejoin: miter; stroke-miterlimit: 4; fill: rgb(252,234,237); fill-rule: nonzero; opacity: 1;"  transform=" translate(-25.31, -4.07)" d="M 22.98 0.41 C 22.66 3.81 22.47 8.46 23.98 7.72 C 25.65 6.89 27.16 2.7199999999999998 27.87 0.5199999999999996 C 26.257671759200473 0.3220433878002993 24.629633549615097 0.28519478634878337 23.010000000000012 0.4100000000000037" stroke-linecap="round" />
</g>
</g>
</g>
		<g transform="matrix(6.21 0 0 6.21 47.2 -49.14)"  >
<g style=""   >
		<g transform="matrix(1 0 0 1 0.02 0.31)"  >
<path style="stroke: none; stroke-width: 1; stroke-dasharray: none; stroke-linecap: butt; stroke-dashoffset: 0; stroke-linejoin: miter; stroke-miterlimit: 4; fill: rgb(255,255,255); fill-rule: nonzero; opacity: 1;"  transform=" translate(-15.52, -8.81)" d="M 22.7 0.72 C 19.687879830439385 0.7171369808817559 16.92422320902722 2.389977948375309 15.529999999999996 5.060000000000005 C 13.803216932206798 1.7539431493016755 10.042052027387848 0.05443569757457212 6.4196983365044336 0.9434494215462133 C 2.7973446456210187 1.8324631455178548 0.2503412337354085 5.080148573566685 0.2503412337354085 8.809999999999999 C 0.2503412337354085 12.539851426433312 2.7973446456210205 15.787536854482145 6.419698336504435 16.676550578453785 C 10.04205202738785 17.565564302425425 13.803216932206798 15.866056850698325 15.529999999999998 12.56 C 17.369419149912385 16.076172133261856 21.487616850003377 17.739114810420272 25.252843089922003 16.486118145612302 C 29.01806932984063 15.233121480804332 31.318638943005745 11.434133444559563 30.684364108389076 7.516911889175743 C 30.050089273772407 3.599690333791923 26.66823999329402 0.7207971282913466 22.7 0.7200000000000006" stroke-linecap="round" />
</g>
		<g transform="matrix(1 0 0 1 -7.41 0.59)"  >
<path style="stroke: none; stroke-width: 1; stroke-dasharray: none; stroke-linecap: butt; stroke-dashoffset: 0; stroke-linejoin: miter; stroke-miterlimit: 4; fill: rgb(55,71,79); fill-rule: nonzero; opacity: 1;"  transform=" translate(-8.09, -9.09)" d="M 11.44 9.09 C 11.44 10.940153911933159 9.940153911933157 12.44 8.09 12.44 C 6.239846088066841 12.44 4.739999999999999 10.940153911933159 4.739999999999999 9.09 C 4.739999999999999 7.239846088066842 6.239846088066841 5.74 8.09 5.74 C 9.940153911933159 5.74 11.439999999999998 7.239846088066841 11.44 9.09" stroke-linecap="round" />
</g>
		<g transform="matrix(1 0 0 1 7.1 0.59)"  >
<path style="stroke: none; stroke-width: 1; stroke-dasharray: none; stroke-linecap: butt; stroke-dashoffset: 0; stroke-linejoin: miter; stroke-miterlimit: 4; fill: rgb(55,71,79); fill-rule: nonzero; opacity: 1;"  transform=" translate(-22.6, -9.09)" d="M 25.95 9.09 C 25.950000012713247 10.286839734667845 25.311493622634575 11.392765261327998 24.275000010272468 11.99118513233192 C 23.23850639791036 12.589605003335842 21.961493602089647 12.589605003335844 20.92499998972754 11.991185132331925 C 19.88850637736543 11.392765261328003 19.249999987286756 10.28683973466785 19.25 9.090000000000005 C 19.250000019652976 7.239846101963596 20.749846101963595 5.740000035584862 22.6 5.740000035584862 C 24.450153898036405 5.740000035584862 25.949999980347023 7.239846101963593 25.95 9.089999999999998" stroke-linecap="round" />
</g>
</g>
</g>
		<g transform="matrix(7.33 -0.21 0.21 7.33 -61.95 -186.43)"  >
<path style="stroke: none; stroke-width: 1; stroke-dasharray: none; stroke-linecap: butt; stroke-dashoffset: 0; stroke-linejoin: miter; stroke-miterlimit: 4; fill: rgb(52,138,213); fill-rule: nonzero; opacity: 1;"  transform=" translate(-4.78, -8.84)" d="M 9.51 9.05 C 9.51 9.05 3.4399999999999995 7.220000000000001 3.13 1.1500000000000004 C 1.3099999999999998 -2.8499999999999996 -1.12 6.010000000000001 0.6999999999999997 11.15 C 2.5199999999999996 16.29 4.039999999999999 17.53 4.039999999999999 17.53 L 9.509999999999998 9.05 z" stroke-linecap="round" />
</g>
		<g transform="matrix(7.33 -0.21 0.21 7.33 118.66 -191.5)"  >
<path style="stroke: none; stroke-width: 1; stroke-dasharray: none; stroke-linecap: butt; stroke-dashoffset: 0; stroke-linejoin: miter; stroke-miterlimit: 4; fill: rgb(52,138,213); fill-rule: nonzero; opacity: 1;"  transform=" translate(-29.43, -8.84)" d="M 24.7 9.05 C 24.7 9.05 30.78 7.220000000000001 31.09 1.1500000000000004 C 32.91 -2.8499999999999996 35.34 6.010000000000001 33.52 11.15 C 31.700000000000003 16.29 30.17 17.53 30.17 17.53 L 24.7 9.05 z" stroke-linecap="round" />
</g>
		<g transform="matrix(4.26 0 0 1.65 45.4 15.51)"  >
<g style=""   >
		<g transform="matrix(1 0 0 1 -12.93 -2.78)"  >
<path style="stroke: none; stroke-width: 1; stroke-dasharray: none; stroke-linecap: butt; stroke-dashoffset: 0; stroke-linejoin: miter; stroke-miterlimit: 4; fill: rgb(52,138,213); fill-rule: nonzero; opacity: 1;"  transform=" translate(-8.08, -7.22)" d="M 12.08 13.7 C 10.802122029969539 13.599850829842568 9.604310113568278 13.038265420966015 8.71 12.12 L 8.07 11.54 C 5.9 9.54 4.86 8.829999999999998 3.4000000000000004 9.54 C 2.45067324859348 9.996256460043053 1.310853618616329 9.607129621353634 0.8387227634391614 8.665596991087028 C 0.3665919082619937 7.724064360820423 0.7365269151640454 6.577872153493027 1.6699999999999988 6.09 C 5.67 4.089999999999999 8.67 6.839999999999999 10.67 8.649999999999999 L 11.27 9.2 C 11.42 9.33 11.549999999999999 9.44 11.66 9.52 L 11.66 2.67 C 11.659999992198125 1.9804774062759942 12.027855912347972 1.3433322516121229 12.624999993695985 0.9985709524979125 C 13.222144075043998 0.6538096533837021 13.957855924956 0.6538096533837021 14.555000006304013 0.9985709524979121 C 15.152144087652026 1.343332251612122 15.520000007801874 1.9804774062759938 15.52 2.6699999999999995 L 15.52 9.74 C 15.52 10.21 15.23 12.620000000000001 13.26 13.43 C 12.886929613355102 13.588928441344327 12.485511325014508 13.670572838972923 12.08 13.67" stroke-linecap="round" />
</g>
		<g transform="matrix(1 0 0 1 13.15 -2.75)"  >
<path style="stroke: none; stroke-width: 1; stroke-dasharray: none; stroke-linecap: butt; stroke-dashoffset: 0; stroke-linejoin: miter; stroke-miterlimit: 4; fill: rgb(52,138,213); fill-rule: nonzero; opacity: 1;"  transform=" translate(-34.15, -7.25)" d="M 30.15 13.7 C 29.74448867498549 13.700572838972922 29.343070386644897 13.618928441344327 28.97 13.459999999999999 C 26.97 12.649999999999999 26.74 10.239999999999998 26.71 9.77 L 26.71 2.7 C 26.709999992198124 2.0104774062759945 27.077855912347975 1.3733322516121231 27.674999993695987 1.0285709524979127 C 28.272144075044 0.6838096533837024 29.007855924956 0.6838096533837024 29.605000006304014 1.0285709524979123 C 30.202144087652027 1.3733322516121222 30.570000007801873 2.010477406275994 30.57 2.6999999999999997 L 30.57 9.55 C 30.68 9.47 30.81 9.360000000000001 30.96 9.23 L 31.560000000000002 8.68 C 33.56 6.869999999999999 36.56 4.13 40.56 6.119999999999999 C 41.49347308483594 6.607872153493034 41.86340809173798 7.754064360820417 41.39127723656082 8.695596991087015 C 40.919146381383655 9.637129621353612 39.77932675140652 10.026256460043035 38.830000000000005 9.57 C 37.36000000000001 8.83 36.330000000000005 9.57 34.160000000000004 11.57 L 33.510000000000005 12.15 C 32.62038812529627 13.069117627683026 31.42530527058844 13.631091112932543 30.150000000000006 13.73" stroke-linecap="round" />
</g>
		<g transform="matrix(1 0 0 1 -2.52 0.43)"  >
<path style="stroke: none; stroke-width: 1; stroke-dasharray: none; stroke-linecap: butt; stroke-dashoffset: 0; stroke-linejoin: miter; stroke-miterlimit: 4; fill: rgb(52,138,213); fill-rule: nonzero; opacity: 1;"  transform=" translate(-18.48, -10.42)" d="M 18.48 19.8 C 17.970782258171024 19.802659082634193 17.48136517561062 19.602919727100197 17.11941846021099 19.244723754865333 C 16.757471744811365 18.88652778263047 16.55264526921791 18.399217813773852 16.55 17.89 L 16.55 2.96 C 16.549999992198124 2.2704774062759943 16.917855912347974 1.633332251612123 17.514999993695987 1.2885709524979125 C 18.112144075044 0.9438096533837022 18.847855924956 0.9438096533837022 19.445000006304014 1.288570952497912 C 20.042144087652026 1.633332251612122 20.410000007801877 2.270477406275994 20.41 2.9599999999999995 L 20.41 17.89 C 20.41 18.955909567173432 19.54590956717343 19.82 18.48 19.82" stroke-linecap="round" />
</g>
		<g transform="matrix(1 0 0 1 2.75 0.43)"  >
<path style="stroke: none; stroke-width: 1; stroke-dasharray: none; stroke-linecap: butt; stroke-dashoffset: 0; stroke-linejoin: miter; stroke-miterlimit: 4; fill: rgb(52,138,213); fill-rule: nonzero; opacity: 1;"  transform=" translate(-23.75, -10.43)" d="M 23.75 19.8 C 22.68409043282657 19.8 21.82 18.935909567173432 21.82 17.87 L 21.82 2.96 C 21.819999992198124 2.2704774062759943 22.187855912347974 1.633332251612123 22.784999993695987 1.2885709524979125 C 23.382144075044 0.9438096533837022 24.117855924956 0.9438096533837022 24.715000006304013 1.288570952497912 C 25.312144087652026 1.633332251612122 25.680000007801873 2.270477406275994 25.68 2.9599999999999995 L 25.68 17.89 C 25.682677255279227 18.402683882195184 25.480198390854117 18.895144005640766 25.117671198247443 19.257671198247444 C 24.755144005640766 19.620198390854117 24.262683882195184 19.822677255279228 23.75 19.82" stroke-linecap="round" />
</g>
</g>
</g>
</g>
</g>
</g>
</g>
<g transform="matrix(1 0 0 1 692.51 191.07)" style=""  >
		<text xml:space="preserve" font-family="sans-serif" font-size="40" font-style="normal" font-weight="normal" style="stroke: none; stroke-width: 1; stroke-dasharray: none; stroke-linecap: butt; stroke-dashoffset: 0; stroke-linejoin: miter; stroke-miterlimit: 4; fill: rgb(224,247,250); fill-rule: nonzero; opacity: 1; white-space: pre;" ><tspan x="-81.62" y="12.57" >Hi5 Bro&apos; !</tspan></text>
</g>
</svg>