<?xml version="1.0" encoding="UTF-8"?>
<svg width="14px" height="33px" viewBox="0 0 14 33" version="1.1" xmlns="http://www.w3.org/2000/svg" xmlns:xlink="http://www.w3.org/1999/xlink">
    <!-- Generator: Sketch 49.3 (51167) - http://www.bohemiancoding.com/sketch -->
    <title>Group 2</title>
    <desc>Created with Sketch.</desc>
    <defs></defs>
    <g id="Page-1" stroke="none" stroke-width="1" fill="none" fill-rule="evenodd">
        <g id="Group-2" fill-rule="nonzero">
            <path d="M13.28,29.69 C13.28,29.69 7.77,35.69 0.88,29.69 C4.55,13.15 6.88,0.74 6.88,0.74 L13.28,29.69 Z" id="Shape" fill="#FFCA27"></path>
            <path d="M3.73,16.39 C5.72462791,15.2322269 7.64199286,13.9461895 9.47,12.54 L8.58,8.54 C7.44,9.31 6.17,10.12 4.86,10.92 C4.52,12.58 4.14,14.42 3.73,16.39 Z" id="Shape" fill="#DB8C18"></path>
            <path d="M1.28,27.89 C4.88647882,26.0068431 8.2708755,23.7259812 11.37,21.09 L10.53,17.33 C7.92984871,19.1651056 5.23622737,20.8640563 2.46,22.42 C2.09,24.17 1.69,25.99 1.28,27.89 Z" id="Shape" fill="#DB8C18"></path>
        </g>
    </g>
</svg>