<?xml version="1.0" encoding="UTF-8"?>
<svg width="42px" height="18px" viewBox="0 0 42 18" version="1.1" xmlns="http://www.w3.org/2000/svg" xmlns:xlink="http://www.w3.org/1999/xlink">
    <!-- Generator: Sketch 49.3 (51167) - http://www.bohemiancoding.com/sketch -->
    <title>Group</title>
    <desc>Created with Sketch.</desc>
    <defs></defs>
    <g id="Page-1" stroke="none" stroke-width="1" fill="none" fill-rule="evenodd">
        <g id="Group" fill="#FFCA27" fill-rule="nonzero">
            <path d="M18.93,14.25 L13.42,4.6 C13.42,4.6 2.85,-1.4 1.93,0.93 C1.01,3.26 8.36,7.36 8.36,7.36 C8.36,7.36 -0.83,5.98 1.01,8.74 C2.85,11.5 8.36,11.95 8.36,11.95 C8.36,11.95 2.85,13.79 5.15,15.63 C7.45,17.47 20.35,20.22 18.93,14.25 Z" id="Shape"></path>
            <path d="M22.92,14.25 L28.44,4.6 C28.44,4.6 39,-1.4 39.92,0.93 C40.84,3.26 33.49,7.36 33.49,7.36 C33.49,7.36 42.68,5.98 40.84,8.74 C39,11.5 33.49,11.95 33.49,11.95 C33.49,11.95 39,13.79 36.71,15.63 C34.42,17.47 21.55,20.22 22.92,14.25 Z" id="Shape"></path>
        </g>
    </g>
</svg>