<?xml version="1.0" encoding="UTF-8"?>
<svg width="33px" height="21px" viewBox="0 0 33 21" version="1.1" xmlns="http://www.w3.org/2000/svg" xmlns:xlink="http://www.w3.org/1999/xlink">
    <!-- Generator: Sketch 49.3 (51167) - http://www.bohemiancoding.com/sketch -->
    <title>Group</title>
    <desc>Created with Sketch.</desc>
    <defs></defs>
    <g id="Page-1" stroke="none" stroke-width="1" fill="none" fill-rule="evenodd">
        <g id="Group" fill-rule="nonzero">
            <path d="M21.03,20.02 C20.6687537,20.0237947 20.307734,20.0003953 19.95,19.95 C19.3422963,19.8229356 18.9396532,19.2433334 19.0326592,18.6294938 C19.1256652,18.0156543 19.6819318,17.5813414 20.3,17.64 C22.2348526,17.8556221 24.1690335,17.2291077 25.61,15.92 C27.47,14 27.96,10.58 27.08,5.76 C26.9640204,5.1221112 27.3871113,4.51098007 28.0250001,4.3950003 C28.6628888,4.27902052 29.2740201,4.70211126 29.39,5.34 C30.39,10.96 29.7,15.07 27.28,17.57 C25.6089428,19.1908733 23.3574025,20.0734771 21.03,20.02 Z" id="Shape" fill="#E53A34"></path>
            <circle id="Oval" fill="#FFCA27" cx="28.51" cy="5.28" r="4.32"></circle>
            <path d="M12.08,20.02 C9.75259746,20.0734771 7.50105717,19.1908733 5.83,17.57 C3.41,15.07 2.7,10.96 3.72,5.34 C3.83597994,4.70211126 4.44711118,4.27902052 5.08499995,4.3950003 C5.72288872,4.51098007 6.14597961,5.1221112 6.03,5.76 C5.15,10.58 5.65,14 7.5,15.92 C8.94270605,17.2330272 10.8816814,17.8599139 12.82,17.64 C13.1276947,17.5972959 13.4397411,17.6787095 13.6873529,17.8662942 C13.9349647,18.0538789 14.097813,18.332234 14.14,18.64 C14.1854927,18.9481367 14.1051539,19.2616228 13.9170662,19.5098986 C13.7289785,19.7581744 13.4489465,19.9203778 13.14,19.96 C12.788677,20.0066146 12.4343392,20.0266714 12.08,20.02 Z" id="Shape" fill="#E53A34"></path>
            <circle id="Oval" fill="#FFCA27" cx="4.61" cy="5.28" r="4.32"></circle>
        </g>
    </g>
</svg>