<?xml version="1.0" encoding="UTF-8"?>
<svg width="17px" height="28px" viewBox="0 0 17 28" version="1.1" xmlns="http://www.w3.org/2000/svg" xmlns:xlink="http://www.w3.org/1999/xlink">
    <!-- Generator: Sketch 49.3 (51167) - http://www.bohemiancoding.com/sketch -->
    <title>Group</title>
    <desc>Created with Sketch.</desc>
    <defs></defs>
    <g id="Page-1" stroke="none" stroke-width="1" fill="none" fill-rule="evenodd">
        <g id="Group" fill-rule="nonzero">
            <path d="M2.14,14.89 C3.71,21.2 6.14,26.21 7.87,27.22 C8.06025281,27.4089139 8.31245334,27.5225818 8.58,27.54 C8.7781141,27.5325864 8.96955392,27.4664526 9.13,27.35 C10.93,26.77 13.49,21.55 15.13,14.89 C16.96,7.55 16.99,1.24 15.2,0.79 C14.13,0.53 12.64,2.45 11.2,5.61 C10.59,2.29 9.62,0.14 8.53,0.14 C7.44,0.14 6.53,2.21 5.91,5.42 C4.52,2.42 3.07,0.53 2.02,0.79 C0.28,1.23 0.35,7.54 2.14,14.89 Z" id="Shape" fill="#F89E1B"></path>
            <path d="M15.22,0.78 C14.15,0.52 12.66,2.44 11.22,5.6 C10.61,2.28 9.64,0.13 8.55,0.13 C8.39945529,0.13708599 8.25245934,0.178108117 8.12,0.25 L8.12,27.4 C8.24985933,27.4793888 8.39790864,27.5241479 8.55,27.53 C8.7481141,27.5225864 8.93955392,27.4564526 9.1,27.34 C10.9,26.76 13.46,21.54 15.1,14.88 C16.98,7.54 17.01,1.23 15.22,0.78 Z" id="Shape" fill="#DB8C18"></path>
        </g>
    </g>
</svg>