<?xml version="1.0" encoding="UTF-8"?>
<svg width="13px" height="35px" viewBox="0 0 13 35" version="1.1" xmlns="http://www.w3.org/2000/svg" xmlns:xlink="http://www.w3.org/1999/xlink">
    <!-- Generator: Sketch 49.3 (51167) - http://www.bohemiancoding.com/sketch -->
    <title>Group</title>
    <desc>Created with Sketch.</desc>
    <defs></defs>
    <g id="Page-1" stroke="none" stroke-width="1" fill="none" fill-rule="evenodd">
        <g id="Group" fill="#1786C8" fill-rule="nonzero">
            <path d="M6.64,31.08 C5.97192215,31.0580262 5.38593466,30.6279768 5.16462267,29.9972377 C4.94331069,29.3664985 5.13212013,28.6645905 5.64,28.23 C7.87,26.35 9.04,24.73 9.11,23.39 C9.19,21.68 7.46,19.88 5.45,17.79 C4.6,16.91 3.72,16 2.86,14.98 C-1.54,9.78 0.86,3.5 2.79,0.91 C3.31743198,0.1865071 4.33150693,0.0275682614 5.05499989,0.555000154 C5.77849285,1.08243205 5.93743181,2.09650698 5.41,2.82 C5.24,3.05 1.49,8.35 5.33,12.9 C6.12,13.83 6.96,14.7 7.78,15.54 C10.2,18.06 12.5,20.44 12.34,23.54 C12.22,25.87 10.75,28.14 7.73,30.68 C7.44972202,30.916943 7.09690191,31.0510147 6.73,31.06" id="Shape"></path>
            <polygon id="Shape" points="2.38 34.48 3.32 29.78 4.25 25.09 7.85 28.25 11.44 31.4 6.91 32.94"></polygon>
        </g>
    </g>
</svg>