<?xml version="1.0" encoding="UTF-8"?>
<svg width="49px" height="16px" viewBox="0 0 49 16" version="1.1" xmlns="http://www.w3.org/2000/svg" xmlns:xlink="http://www.w3.org/1999/xlink">
    <!-- Generator: Sketch 49.3 (51167) - http://www.bohemiancoding.com/sketch -->
    <title>Group</title>
    <desc>Created with Sketch.</desc>
    <defs></defs>
    <g id="Page-1" stroke="none" stroke-width="1" fill="none" fill-rule="evenodd">
        <g id="Group" fill-rule="nonzero">
            <g id="Shape">
                <polygon fill="#439F47" points="18.37 8.31 13.16 12.84 9.3 10.57 8.62 11.94 12.93 15.79 18.6 12.39"></polygon>
                <path d="M10.89,8.73 L12.94,9.84 L9.13,15.31 L7.52,12.61 C6.67151938,13.0592483 5.75662158,13.3698409 4.81,13.53 C3.9,13.53 0.69,8.35 0.68,7.44 C0.67,6.53 6.53,0.82 7.43,0.81 C8.33,0.8 11.55,5.09 11.55,5.09 L10.89,8.73 Z" fill="#E53A34"></path>
                <polygon fill="#C52728" points="11.55 5.1 5 11.71 7.52 12.61 10.9 8.73"></polygon>
            </g>
            <g transform="translate(30.000000, 0.000000)" id="Shape">
                <polygon fill="#439F47" points="0.59 8.31 5.8 12.84 9.66 10.57 10.34 11.94 6.03 15.79 0.36 12.39"></polygon>
                <path d="M8.06,8.73 L6.01,9.89 L9.83,15.36 L11.44,12.66 C12.2879292,13.1105257 13.2030381,13.42119 14.15,13.58 C15.06,13.58 18.27,8.4 18.28,7.49 C18.29,6.58 12.43,0.87 11.52,0.86 C10.61,0.85 7.41,5.14 7.41,5.14 L8.06,8.73 Z" fill="#E53A34"></path>
                <polygon fill="#C52728" points="7.41 5.1 13.97 11.71 11.44 12.61 8.06 8.73"></polygon>
            </g>
        </g>
    </g>
</svg>