<?xml version="1.0" encoding="UTF-8"?>
<svg width="39px" height="11px" viewBox="0 0 39 11" version="1.1" xmlns="http://www.w3.org/2000/svg" xmlns:xlink="http://www.w3.org/1999/xlink">
    <!-- Generator: Sketch 49.3 (51167) - http://www.bohemiancoding.com/sketch -->
    <title>Group</title>
    <desc>Created with Sketch.</desc>
    <defs></defs>
    <g id="Page-1" stroke="none" stroke-width="1" fill="none" fill-rule="evenodd">
        <g id="Group" fill-rule="nonzero">
            <path d="M27.61,4.47 C27.61,4.47 30.71,8.34 31.22,8.34 C31.73,8.34 34.22,5.5 34.45,6.15 C34.68,6.8 32.12,10.66 31.61,10.66 C31.1,10.66 27.61,7.44 27.61,7.44 L27.61,4.47 Z" id="Shape" fill="#9A509E"></path>
            <path d="M32.28,8.41 C31.48249,7.91805733 30.952299,7.08981876 30.8394284,6.15960911 C30.7265578,5.22939945 31.0432843,4.29839683 31.7,3.63 C34.04,0.71 36.37,0.71 36.37,0.71 L35.79,4.21 L38.59,3.98 C38.59,3.98 37.54,11.45 32.28,8.41" id="Shape" fill="#843B95"></path>
            <path d="M11.56,4.47 C11.56,4.47 8.47,8.34 7.95,8.34 C7.43,8.34 4.95,5.5 4.73,6.15 C4.51,6.8 7.05,10.66 7.56,10.66 C8.07,10.66 11.56,7.44 11.56,7.44 L11.56,4.47 Z" id="Shape" fill="#9A509E"></path>
            <path d="M6.89,8.41 C7.68750999,7.91805733 8.21770098,7.08981876 8.33057161,6.15960911 C8.44344224,5.22939945 8.12671566,4.29839683 7.47,3.63 C5.14,0.71 2.8,0.71 2.8,0.71 L3.39,4.21 L0.59,3.98 C0.59,3.98 1.59,11.45 6.89,8.41" id="Shape" fill="#843B95"></path>
        </g>
    </g>
</svg>