<?xml version="1.0" encoding="UTF-8"?>
<svg width="41px" height="17px" viewBox="0 0 41 17" version="1.1" xmlns="http://www.w3.org/2000/svg" xmlns:xlink="http://www.w3.org/1999/xlink">
    <!-- Generator: Sketch 49.3 (51167) - http://www.bohemiancoding.com/sketch -->
    <title>Group</title>
    <desc>Created with Sketch.</desc>
    <defs></defs>
    <g id="Page-1" stroke="none" stroke-width="1" fill="none" fill-rule="evenodd">
        <g id="Group" fill="#9575CD" fill-rule="nonzero">
            <path d="M26.35,11.37 C26.35,11.37 32.05,13.9 32.68,13.48 C33.31,13.06 34.16,9.68 34.16,9.68 C34.16,9.68 30.36,7.78 31,6.94 C31.5277455,6.32843762 32.1697379,5.82571341 32.89,5.46 C32.89,5.46 31.42,1.66 33.32,0.82 C35.22,-0.02 36.48,1.45 37.32,2.51 C38.16,3.57 41.32,4.41 40.7,6.94 C40.08,9.47 36.27,10.73 36.27,10.73 C36.27,10.73 34.37,15.59 33.74,16.22 C33.11,16.85 26.35,13.89 26.35,13.89 C26.35,13.89 24.49,12.63 26.35,11.37 Z" id="Shape"></path>
            <path d="M15.14,11.37 C15.14,11.37 9.44,13.9 8.81,13.48 C8.18,13.06 7.33,9.68 7.33,9.68 C7.33,9.68 11.13,7.78 10.49,6.94 C9.96225453,6.32843762 9.32026212,5.82571341 8.6,5.46 C8.6,5.46 10.07,1.66 8.17,0.82 C6.27,-0.02 5.01,1.45 4.17,2.51 C3.33,3.57 0.17,4.41 0.79,6.94 C1.41,9.47 5.22,10.73 5.22,10.73 C5.22,10.73 7.12,15.59 7.75,16.22 C8.38,16.85 15.14,13.89 15.14,13.89 C15.14,13.89 17.03,12.63 15.14,11.37 Z" id="Shape"></path>
        </g>
    </g>
</svg>