<?xml version="1.0" encoding="UTF-8"?>
<svg width="47px" height="10px" viewBox="0 0 47 10" version="1.1" xmlns="http://www.w3.org/2000/svg" xmlns:xlink="http://www.w3.org/1999/xlink">
    <!-- Generator: Sketch 49.3 (51167) - http://www.bohemiancoding.com/sketch -->
    <title>Group</title>
    <desc>Created with Sketch.</desc>
    <defs></defs>
    <g id="Page-1" stroke="none" stroke-width="1" fill="none" fill-rule="evenodd">
        <g id="Group" fill="#34C1D6" fill-rule="nonzero">
            <path d="M15.08,0.79 C15.08,0.79 8.95,6.79 6.3,3.99 C3.65,1.19 0.62,-1.01 0.77,0.68 C0.92,2.37 3.37,7.75 5.5,9.78 C6.27,9.12 5.89,6.66 5.89,6.66 C5.89,6.66 7.37,9.66 8.49,10.01 C9.21,9.92 8.38,7.71 8.38,7.71 C8.38,7.71 11.28,10.94 14.38,9.61 C17.48,8.28 15.75,1.27 15.08,0.79 Z" id="Shape"></path>
            <path d="M31.96,0.79 C31.96,0.79 38.09,6.79 40.74,3.99 C43.39,1.19 46.42,-1.01 46.27,0.68 C46.12,2.37 43.67,7.75 41.53,9.78 C40.77,9.12 41.15,6.66 41.15,6.66 C41.15,6.66 39.66,9.66 38.55,10.01 C37.82,9.92 38.65,7.71 38.65,7.71 C38.65,7.71 35.76,10.94 32.65,9.61 C29.54,8.28 31.28,1.27 31.96,0.79 Z" id="Shape"></path>
        </g>
    </g>
</svg>