<?xml version="1.0" encoding="UTF-8"?>
<svg width="42px" height="23px" viewBox="0 0 42 23" version="1.1" xmlns="http://www.w3.org/2000/svg" xmlns:xlink="http://www.w3.org/1999/xlink">
        <g id="Group" fill="#E53A34" >
            <path d="M11.2,0.62 C11.2,0.62 5.92,2.57 2.98,6.29 C0.63,9.62 1.22,15.69 1.22,15.69 C1.22,15.69 -1.52,20 2.59,22.54 C2.59,22.54 3.7,22.35 3.18,21.54 C2.66,20.73 1.41,20.43 1.68,19.26 C2,19.32 4.02,21.74 4.87,21.41 C5.72,21.08 5.26,20.5 4.68,20.11 C4.1,19.72 2.59,19 2.52,18.41 C2.45,17.82 3.7,17.76 5,18.67 C5.46,19.06 6.18,18.41 5.53,17.82 C4.79534901,17.1736031 3.88168869,16.7655945 2.91,16.65 C2,16.58 2.39,4.51 10.81,2.94 C11.1372328,2.96807355 11.4611973,2.85731463 11.7027509,2.63478093 C11.9443046,2.41224722 12.081202,2.09843261 12.08,1.77 C12.18,0.52 11.2,0.62 11.2,0.62 Z" id="Shape"></path>
            <path d="M30.48,0.62 C30.48,0.62 35.76,2.57 38.7,6.29 C41.05,9.62 40.46,15.69 40.46,15.69 C40.46,15.69 43.2,20 39.09,22.54 C39.09,22.54 37.98,22.35 38.5,21.54 C39.02,20.73 40.27,20.43 40.01,19.26 C39.68,19.32 37.66,21.74 36.81,21.41 C35.96,21.08 36.42,20.5 37,20.11 C37.58,19.72 39.09,19 39.16,18.41 C39.23,17.82 37.98,17.76 36.68,18.67 C36.22,19.06 35.5,18.41 36.16,17.82 C36.8898365,17.1722009 37.8008013,16.7638373 38.77,16.65 C39.68,16.58 39.29,4.51 30.87,2.94 C30.5427672,2.96807355 30.2188027,2.85731463 29.9772491,2.63478093 C29.7356954,2.41224722 29.598798,2.09843261 29.6,1.77 C29.5,0.52 30.48,0.62 30.48,0.62 Z" id="Shape"></path>
        </g>

</svg>
