<?xml version="1.0" encoding="UTF-8"?>
<svg width="48px" height="22px" viewBox="0 0 48 22" version="1.1" xmlns="http://www.w3.org/2000/svg" xmlns:xlink="http://www.w3.org/1999/xlink">
    <!-- Generator: Sketch 49.3 (51167) - http://www.bohemiancoding.com/sketch -->
    <title>Group</title>
    <desc>Created with Sketch.</desc>
    <defs></defs>
    <g id="Page-1" stroke="none" stroke-width="1" fill="none" fill-rule="evenodd">
        <g id="Group" transform="translate(-1.000000, 0.000000)" fill-rule="nonzero">
            <g transform="translate(30.000000, 0.000000)" id="Shape">
                <path d="M13.82,4.8 C13.82,4.8 15.24,0.74 16.17,0.6 C17.1,0.46 15.46,5.52 15.46,5.52 C15.46,5.52 14.24,6.51 13.82,4.8 Z" fill="#F89E1B"></path>
                <path d="M9.73,6.44 C9.73,6.44 11.44,1.5 13.82,0.65 C14.29,1.31 12.11,6.06 12.11,6.06 C12.11,6.06 10.87,7.96 9.73,6.44 Z" fill="#F89E1B"></path>
                <path d="M17.68,8.75 C17.68,8.75 19.55,3.87 18.29,1.69 C17.5,1.89 16.11,6.93 16.11,6.93 C16.11,6.93 15.83,9.18 17.68,8.75 Z" fill="#F89E1B"></path>
                <g transform="translate(0.000000, 3.000000)">
                    <path d="M2.35,10.03 C2.35,10.03 3.86,16.81 7.64,14.34 C11.42,11.87 4.94,3.99 12.21,1.34 C19.48,-1.31 20.3,10.26 13.21,15.72 C6.12,21.18 1.3,18.09 0.69,14.72 C0.229146036,12.9488354 0.899672342,11.0761229 2.38,10" fill="#5E6BB1"></path>
                    <path d="M14.74,6.3 C14.4219181,7.04016513 13.5644214,7.38280462 12.8238564,7.06565475 C12.0832915,6.74850488 11.7395728,5.89144016 12.0557902,5.15047655 C12.3720076,4.40951294 13.2286389,4.06471564 13.97,4.38 C14.3272105,4.53191367 14.6092206,4.81982315 14.7537073,5.18010176 C14.898194,5.54038037 14.8932616,5.94336576 14.74,6.3" fill="#7A85C1"></path>
                    <path d="M15.35,11.34 C15.1511775,11.8039191 14.6139192,12.0188224 14.15,11.8199999 C13.6860809,11.6211774 13.4711775,11.0839192 13.67,10.62 C13.8688225,10.1560808 14.4060808,9.94117749 14.87,10.14 C15.3339192,10.3388225 15.5488225,10.8760808 15.35,11.34" fill="#7A85C1"></path>
                    <path d="M11.55,13.32 C11.4816495,13.4873691 11.3485622,13.620013 11.180966,13.6878048 C11.0133698,13.7555965 10.8254902,13.7527818 10.66,13.68 C10.436709,13.5835383 10.2818413,13.3752797 10.253734,13.1336731 C10.2256268,12.8920666 10.3285502,12.6538179 10.5237341,12.5086731 C10.7189179,12.3635283 10.976709,12.3335383 11.2,12.43 C11.5408126,12.5806598 11.6968916,12.9775464 11.55,13.32" fill="#7A85C1"></path>
                </g>
            </g>
            <g id="Shape">
                <path d="M5.91,4.8 C5.91,4.8 4.48,0.74 3.56,0.6 C2.64,0.46 4.27,5.52 4.27,5.52 C4.27,5.52 5.48,6.51 5.91,4.8 Z" fill="#F89E1B"></path>
                <path d="M9.99,6.44 C9.99,6.44 8.28,1.5 5.91,0.65 C5.43,1.31 7.62,6.06 7.62,6.06 C7.62,6.06 8.85,7.96 9.99,6.44 Z" fill="#F89E1B"></path>
                <path d="M2.05,8.75 C2.05,8.75 0.17,3.87 1.44,1.69 C2.23,1.89 3.62,6.93 3.62,6.93 C3.62,6.93 3.9,9.18 2.05,8.75 Z" fill="#F89E1B"></path>
                <g transform="translate(1.000000, 3.000000)">
                    <path d="M16.43,10.03 C16.43,10.03 14.91,16.81 11.13,14.34 C7.35,11.87 13.83,3.99 6.56,1.34 C-0.71,-1.31 -1.52,10.26 5.56,15.72 C12.64,21.18 17.47,18.09 18.09,14.72 C18.550854,12.9488354 17.8803277,11.0761229 16.4,10" fill="#5E6BB1"></path>
                    <path d="M3.99,6.3 C4.14174219,6.6547063 4.42858534,6.93431619 4.78705067,7.07695161 C5.14551599,7.21958702 5.54604498,7.21348647 5.9,7.06 C6.44444538,6.82833448 6.79523763,6.29097688 6.78825574,5.6993343 C6.78127385,5.10769172 6.4178985,4.5787619 5.8681378,4.36000895 C5.31837709,4.141256 4.6909466,4.27593847 4.27939475,4.70104406 C3.86784291,5.12614966 3.75355439,5.75761346 3.99,6.3" fill="#7A85C1"></path>
                    <path d="M3.35,11.34 C3.55531185,11.7972124 4.08600702,12.0094904 4.55,11.82 C5.01391916,11.6211775 5.22882245,11.0839192 5.02999995,10.62 C4.83117745,10.1560809 4.29391918,9.94117753 3.83,10.14 C3.3686666,10.3413377 3.15478456,10.8760428 3.35,11.34" fill="#7A85C1"></path>
                    <path d="M7.17,13.32 C7.2755679,13.5805149 7.52861526,13.7509495 7.80970704,13.7508609 C8.09079881,13.7507724 8.34373871,13.5801783 8.44914241,13.3195969 C8.55454611,13.0590156 8.49134115,12.7605427 8.28935944,12.5650536 C8.08737773,12.3695645 7.78699976,12.3161417 7.53,12.43 C7.36263093,12.4983505 7.22998696,12.6314378 7.16219524,12.799034 C7.09440353,12.9666302 7.09721821,13.1545098 7.17,13.32" fill="#7A85C1"></path>
                </g>
            </g>
        </g>
    </g>
</svg>