<?xml version="1.0" encoding="UTF-8"?>
<svg width="44px" height="30px" viewBox="0 0 44 30" version="1.1" xmlns="http://www.w3.org/2000/svg" xmlns:xlink="http://www.w3.org/1999/xlink">
    <!-- Generator: Sketch 49.3 (51167) - http://www.bohemiancoding.com/sketch -->
    <title>Group</title>
    <desc>Created with Sketch.</desc>
    <defs></defs>
    <g id="Page-1" stroke="none" stroke-width="1" fill="none" fill-rule="evenodd">
        <g id="Group" fill-rule="nonzero">
            <g id="Shape">
                <path d="M10.61,0.57 C10.61,0.57 3.41,14.77 0.81,27.36 C0.41,32.36 5.01,23.76 5.01,23.76 C5.01,23.76 4.61,29.56 5.61,29.16 C6.61,28.76 8.29,23.87 8.61,18.52 C8.97,12.97 11.61,8.17 11.77,6.57 C11.93,4.97 11.41,0.57 10.61,0.57 Z" fill="#D81B60"></path>
                <path d="M1.96,23.36 C1.47892976,21.4407998 2.15362366,19.4167181 3.69,18.17 C4.09,18.7 3.96,21.63 1.96,23.36 Z" fill="#F89E1B"></path>
                <path d="M4.22,17.5 C3.73957907,15.5757882 4.41825421,13.5475637 5.96,12.3 C6.35,12.89 6.22,15.77 4.22,17.5 Z" fill="#F89E1B"></path>
            </g>
            <g transform="translate(32.000000, 0.000000)" id="Shape">
                <path d="M2.01,0.57 C2.01,0.57 9.21,14.77 11.81,27.36 C12.21,32.36 7.61,23.76 7.61,23.76 C7.61,23.76 8.01,29.56 7.01,29.16 C6.01,28.76 4.33,23.87 4.01,18.52 C3.65,12.97 1.01,8.17 0.85,6.57 C0.69,4.97 1.21,0.57 2.01,0.57 Z" fill="#D81B60"></path>
                <path d="M10.66,23.36 C11.1410702,21.4407998 10.4663763,19.4167181 8.93,18.17 C8.53,18.7 8.66,21.63 10.66,23.36 Z" fill="#F89E1B"></path>
                <path d="M8.4,17.5 C8.88042093,15.5757882 8.20174579,13.5475637 6.66,12.3 C6.26,12.89 6.4,15.77 8.4,17.5 Z" fill="#F89E1B"></path>
            </g>
        </g>
    </g>
</svg>