<?xml version="1.0" encoding="UTF-8"?>
<svg width="38px" height="10px" viewBox="0 0 38 10" version="1.1" xmlns="http://www.w3.org/2000/svg" xmlns:xlink="http://www.w3.org/1999/xlink">
    <!-- Generator: Sketch 49.3 (51167) - http://www.bohemiancoding.com/sketch -->
    <title>Group</title>
    <desc>Created with Sketch.</desc>
    <defs></defs>
    <g id="Page-1" stroke="none" stroke-width="1" fill="none" fill-rule="evenodd">
        <g id="Group" fill="#D57728" fill-rule="nonzero">
            <path d="M10.14,7.72 C10.14,7.72 4.59,6.96 3.4,1.72 C3,0.58 1.81,0.58 1.94,1.98 L2.08,2.86 C2.08,2.86 1.02,1.98 0.75,3.12 C0.67228579,3.8788654 1.03302161,4.61585256 1.68,5.02 C1.68,5.02 -0.32,4.13 0.09,5.65 C0.5,7.17 5.09,10.22 10.41,9.96 C10.41,9.96 11.6,10.01 11.41,8.91 C11.283582,8.28318617 10.773703,7.80542555 10.14,7.72 Z" id="Shape"></path>
            <path d="M27.67,7.72 C27.67,7.72 33.22,6.96 34.41,1.72 C34.81,0.58 36,0.58 35.87,1.98 L35.73,2.86 C35.73,2.86 36.79,1.98 37.06,3.12 C37.1377142,3.8788654 36.7769784,4.61585256 36.13,5.02 C36.13,5.02 38.13,4.13 37.72,5.65 C37.31,7.17 32.72,10.22 27.4,9.96 C27.4,9.96 26.21,10.01 26.4,8.91 C26.526418,8.28318617 27.036297,7.80542555 27.67,7.72 Z" id="Shape"></path>
        </g>
    </g>
</svg>