<?xml version="1.0" encoding="UTF-8"?>
<svg width="36px" height="19px" viewBox="0 0 36 19" version="1.1" xmlns="http://www.w3.org/2000/svg" xmlns:xlink="http://www.w3.org/1999/xlink">
    <!-- Generator: Sketch 49.3 (51167) - http://www.bohemiancoding.com/sketch -->
    <title>Group</title>
    <desc>Created with Sketch.</desc>
    <defs></defs>
    <g id="Page-1" stroke="none" stroke-width="1" fill="none" fill-rule="evenodd">
        <g id="Group" fill="#1786C8" fill-rule="nonzero">
            <path d="M30.1,0.3 C30.1,0.3 33.05,3.67 34.16,12.84 C35.1364937,14.554741 35.4898018,16.5544647 35.16,18.5 C34.75,20.18 31.84,17.09 31.84,17.09 C31.84,17.09 32.67,14.43 31.7,14.57 L30.7,14.71 C30.7,14.71 30.01,13.59 30.15,13.16 C30.29,12.73 32.78,12.88 32.78,11.9 C32.78,10.92 29.46,3.48 28.9,2.78 C28.34,2.08 28.44,-0.08 30.06,0.3" id="Shape"></path>
            <path d="M5.78,0.3 C5.78,0.3 2.78,3.67 1.71,12.84 C0.733506317,14.554741 0.380198239,16.5544647 0.71,18.5 C1.12,20.18 4.03,17.09 4.03,17.09 C4.03,17.09 3.2,14.43 4.17,14.57 L5.17,14.71 C5.17,14.71 5.86,13.59 5.72,13.16 C5.58,12.73 3.05,12.89 3.05,11.89 C3.05,10.89 6.38,3.47 6.93,2.77 C7.48,2.07 7.39,-0.09 5.78,0.29" id="Shape"></path>
        </g>
    </g>
</svg>