<?xml version="1.0" encoding="UTF-8"?>
<svg width="27px" height="37px" viewBox="0 0 27 37" version="1.1" xmlns="http://www.w3.org/2000/svg" xmlns:xlink="http://www.w3.org/1999/xlink">
    <!-- Generator: Sketch 49.3 (51167) - http://www.bohemiancoding.com/sketch -->
    <title>Shape</title>
    <desc>Created with Sketch.</desc>
    <defs></defs>
    <g id="Page-1" stroke="none" stroke-width="1" fill="none" fill-rule="evenodd">
        <path d="M17.24,2.01 C17.24,2.01 24.18,2.41 24.32,11.13 C24.46,19.85 23.7,29.57 25.6,32.2 C27.5,34.83 26.81,36.66 24.52,36.86 C22.23,37.06 20.41,34.43 17.98,35.65 C15.55,36.87 15.85,36.65 14.58,36.87 L12.44,36.87 C11.17,36.68 11.44,36.87 9.04,35.65 C6.64,34.43 4.79,37.07 2.5,36.86 C0.21,36.65 -0.5,34.86 1.41,32.2 C3.32,29.54 2.56,19.84 2.7,11.13 C2.84,2.42 9.77,2.01 9.77,2.01 C9.77,2.01 13.51,-1.23 17.24,2.01" id="Shape" fill="#439F47" fill-rule="nonzero"></path>
    </g>
</svg>