<?xml version="1.0" encoding="UTF-8"?>
<svg width="21px" height="21px" viewBox="0 0 21 21" version="1.1" xmlns="http://www.w3.org/2000/svg" xmlns:xlink="http://www.w3.org/1999/xlink">
    <!-- Generator: Sketch 49.3 (51167) - http://www.bohemiancoding.com/sketch -->
    <title>Group</title>
    <desc>Created with Sketch.</desc>
    <defs></defs>
    <g id="Page-1" stroke="none" stroke-width="1" fill="none" fill-rule="evenodd">
        <g id="Group" fill-rule="nonzero">
            <path d="M20.91,10.89 C20.9302457,14.9593344 18.4945198,18.6392466 14.7407403,20.210562 C10.9869608,21.7818774 6.6561014,20.9344276 3.77144502,18.0641228 C0.886788644,15.1938179 0.0177492599,10.867239 1.57032311,7.10566925 C3.12289695,3.34409951 6.79061523,0.890050363 10.86,0.89 C16.390994,0.889931548 20.8824826,5.35907444 20.91,10.89" id="Shape" fill="#FCEAED"></path>
            <path d="M15.22,11.78 C13.7142588,11.7873328 12.4645189,10.6182056 12.3715841,9.11531724 C12.2786493,7.61242885 13.374827,6.29823612 14.87,6.12 C12.6286205,4.2432426 9.38672379,4.16767044 7.06032788,5.93794799 C4.73393198,7.70822554 3.94252835,10.852949 5.15385047,13.5135315 C6.36517258,16.174114 9.25665979,17.6420741 12.1193923,17.0498217 C14.9821248,16.4575692 17.0537911,13.9628139 17.11,11.04 C16.593683,11.5126977 15.9200099,11.7764639 15.22,11.78" id="Shape" fill="#37474F"></path>
        </g>
    </g>
</svg>