<?xml version="1.0" encoding="UTF-8"?>
<svg width="38px" height="11px" viewBox="0 0 38 11" version="1.1" xmlns="http://www.w3.org/2000/svg" xmlns:xlink="http://www.w3.org/1999/xlink">
    <!-- Generator: Sketch 49.3 (51167) - http://www.bohemiancoding.com/sketch -->
    <title>Group</title>
    <desc>Created with Sketch.</desc>
    <defs></defs>
    <g id="Page-1" stroke="none" stroke-width="1" fill="none" fill-rule="evenodd">
        <g id="Group" fill-rule="nonzero">
            <path d="M18.18,7.18 C18.18,9.18 15.24,10.84 11.61,10.84 C7.98,10.84 5.03,9.2 5.03,7.18 C5.03,5.16 7.98,5.81 11.61,5.81 C15.24,5.81 18.18,5.17 18.18,7.18" id="Shape" fill="#FCEAED"></path>
            <g id="Shape">
                <path d="M33.63,7.18 C33.63,9.18 30.69,10.84 27.06,10.84 C23.43,10.84 20.48,9.2 20.48,7.18 C20.48,5.16 23.43,5.81 27.06,5.81 C30.69,5.81 33.63,5.17 33.63,7.18" fill="#FCEAED"></path>
                <path d="M13.55,6.25 C13.5540437,7.10522185 13.0414467,7.87829796 12.2520919,8.20744787 C11.462737,8.53659778 10.5527682,8.35671165 9.94802828,7.75197172 C9.34328835,7.14723179 9.16340222,6.23726297 9.49255213,5.44790811 C9.82170204,4.65855325 10.5947782,4.14595633 11.45,4.15 C12.609798,4.15 13.55,5.09020203 13.55,6.25" fill="#37474F"></path>
                <path d="M29.16,6.25 C29.16,7.40979797 28.219798,8.35 27.06,8.35 C25.900202,8.35 24.96,7.40979797 24.96,6.25 C24.96,5.09020203 25.900202,4.15 27.06,4.15 C28.219798,4.15 29.16,5.09020203 29.16,6.25" fill="#37474F"></path>
                <polygon fill="#E53A34" points="0.79 0.85 3.49 6.55 35.32 6.55 37.42 0.55"></polygon>
            </g>
        </g>
    </g>
</svg>