<?xml version="1.0" encoding="UTF-8"?>
<svg width="36px" height="15px" viewBox="0 0 36 15" version="1.1" xmlns="http://www.w3.org/2000/svg" xmlns:xlink="http://www.w3.org/1999/xlink">
    <!-- Generator: Sketch 49.3 (51167) - http://www.bohemiancoding.com/sketch -->
    <title>Group</title>
    <desc>Created with Sketch.</desc>
    <defs></defs>
    <g id="Page-1" stroke="none" stroke-width="1" fill="none" fill-rule="evenodd">
        <g id="Group" fill-rule="nonzero">
            <g id="Shape">
                <path d="M9.27,4.72 C9.27,7.27155554 7.20155554,9.34 4.65,9.34 C2.09844446,9.34 0.03,7.27155554 0.03,4.72 C0.03,2.16844446 2.09844446,0.1 4.65,0.1 C7.20155554,0.1 9.27,2.16844446 9.27,4.72" fill="#843B95"></path>
                <path d="M11.96,14.49 C11.6886931,14.4492982 11.438781,14.3190623 11.25,14.12 L4.78,7.19 C4.37733763,6.69202147 4.42825204,5.96746357 4.89659903,5.53069053 C5.36494602,5.09391749 6.09129053,5.09361596 6.56,5.53 L13.03,12.46 C13.4867033,12.9521653 13.4598886,13.7208554 12.97,14.18 C12.7040731,14.4350264 12.3335505,14.5498884 11.97,14.49" fill="#843B95"></path>
                <path d="M8.1,4.77 C8.0999942,6.182482 7.24859694,7.45569072 5.9432452,7.99528523 C4.63789347,8.53487974 3.13600088,8.23445273 2.13865927,7.2342452 C1.14131766,6.23403766 0.845201469,4.7312892 1.38853938,3.42749117 C1.93187729,2.12369314 3.2075238,1.27595277 4.62,1.28 C6.54356738,1.28551168 8.1000079,2.84642472 8.1,4.77" fill="#FCEAED"></path>
                <path d="M6.13,5.06 C5.57771525,5.09313708 5.10313708,4.67228475 5.07,4.12 C5.03686292,3.56771525 5.45771525,3.09313708 6.01,3.06 C5.23209595,2.4114552 4.10901425,2.38726782 3.30390951,3.00171996 C2.49880478,3.6161721 2.22581065,4.70583799 2.64612405,5.62729429 C3.06643745,6.54875059 4.06826767,7.05691766 5.06005636,6.8517342 C6.05184505,6.64655075 6.76980628,5.78258939 6.79,4.77 C6.60769576,4.93077773 6.3730724,5.01965022 6.13,5.02" fill="#37474F"></path>
            </g>
            <g transform="translate(22.000000, 0.000000)" id="Shape">
                <path d="M4.1,4.72 C4.1,7.27155554 6.16844446,9.34 8.72,9.34 C11.2715555,9.34 13.34,7.27155554 13.34,4.72 C13.34,2.16844446 11.2715555,0.1 8.72,0.1 C6.16844446,0.1 4.1,2.16844446 4.1,4.72" fill="#843B95"></path>
                <path d="M1.42,14.49 C1.68898243,14.450966 1.93624297,14.3202712 2.12,14.12 L8.59,7.19 C8.99266237,6.69202147 8.94174796,5.96746357 8.47340097,5.53069053 C8.00505398,5.09391749 7.27870947,5.09361596 6.81,5.53 L0.35,12.46 C-0.106703344,12.9521653 -0.079888574,13.7208554 0.41,14.18 C0.67673894,14.4336452 1.04656113,14.5482901 1.41,14.49" fill="#843B95"></path>
                <path d="M5.27,4.77 C5.27,6.69747378 6.83252622,8.26 8.76,8.26 C10.6874738,8.26 12.25,6.69747378 12.25,4.77 C12.25,2.84252622 10.6874738,1.28 8.76,1.28 C6.83252622,1.28 5.27,2.84252622 5.27,4.77" fill="#FCEAED"></path>
                <path d="M7.24,5.06 C7.79228475,5.09313708 8.26686292,4.67228475 8.3,4.12 C8.33313708,3.56771525 7.91228475,3.09313708 7.36,3.06 C7.75533697,2.73739291 8.24973931,2.56082065 8.76,2.56 C9.95320597,2.56020273 10.9223951,3.52372746 10.9295918,4.71691175 C10.9367886,5.91009603 9.97929266,6.88524165 8.78617594,6.89983761 C7.59305923,6.91443356 6.6119946,5.96300326 6.59,4.77 C6.76666715,4.93348112 6.99931642,5.02296161 7.24,5.02" fill="#37474F"></path>
            </g>
        </g>
    </g>
</svg>