<?xml version="1.0" encoding="UTF-8"?>
<svg width="38px" height="10px" viewBox="0 0 38 10" version="1.1" xmlns="http://www.w3.org/2000/svg" xmlns:xlink="http://www.w3.org/1999/xlink">
    <!-- Generator: Sketch 49.3 (51167) - http://www.bohemiancoding.com/sketch -->
    <title>Group</title>
    <desc>Created with Sketch.</desc>
    <defs></defs>
    <g id="Page-1" stroke="none" stroke-width="1" fill="none" fill-rule="evenodd">
        <g id="Group" fill-rule="nonzero">
            <path d="M17.75,3.21 C17.75,6.96 13.95,9.99 9.27,9.99 C4.59,9.99 0.79,6.99 0.79,3.21 C0.79,-0.57 4.59,0.66 9.27,0.66 C13.95,0.66 17.75,-0.54 17.75,3.21" id="Shape" fill="#FCEAED"></path>
            <path d="M37.68,3.21 C37.68,6.96 33.88,9.99 29.2,9.99 C24.52,9.99 20.72,6.99 20.72,3.21 C20.72,-0.57 24.51,0.66 29.2,0.66 C33.89,0.66 37.68,-0.54 37.68,3.21" id="Shape" fill="#FCEAED"></path>
            <path d="M11.67,5.8 C10.8949452,5.80514208 10.2509501,5.20376249 10.203099,4.43016914 C10.1552478,3.65657578 10.7202198,2.98041473 11.49,2.89 C10.9109209,2.40896057 10.1828058,2.14387009 9.43,2.14 C7.65823096,2.13480534 6.21513766,3.56196932 6.20066671,5.33368688 C6.18619577,7.10540444 7.60578465,8.55595009 9.37740216,8.57969693 C11.1490197,8.60344378 12.6069779,7.1914689 12.64,5.42 C12.3662224,5.6677645 12.0092285,5.80342216 11.64,5.8" id="Shape" fill="#37474F"></path>
            <path d="M31.73,5.8 C30.9549452,5.80514208 30.3109501,5.20376249 30.263099,4.43016914 C30.2152478,3.65657578 30.7802198,2.98041473 31.55,2.89 C30.3978147,1.92351419 28.7300761,1.88327477 27.5326197,2.79306811 C26.3351632,3.70286145 25.9269305,5.3203649 26.5492365,6.68943798 C27.1715424,8.05851105 28.6586364,8.81450236 30.1314657,8.51052945 C31.6042951,8.20655654 32.6705729,6.92358233 32.7,5.42 C32.4272838,5.66949289 32.0695829,5.80541923 31.7,5.8" id="Shape" fill="#37474F"></path>
        </g>
    </g>
</svg>