<?xml version="1.0" encoding="UTF-8"?>
<svg width="31px" height="17px" viewBox="0 0 31 17" version="1.1" xmlns="http://www.w3.org/2000/svg" xmlns:xlink="http://www.w3.org/1999/xlink">
    <!-- Generator: Sketch 49.3 (51167) - http://www.bohemiancoding.com/sketch -->
    <title>Group</title>
    <desc>Created with Sketch.</desc>
    <defs></defs>
    <g id="Page-1" stroke="none" stroke-width="1" fill="none" fill-rule="evenodd">
        <g id="Group" fill-rule="nonzero">
            <path d="M22.7,0.72 C19.6878798,0.717136981 16.9242232,2.38997795 15.53,5.06 C13.8032169,1.75394315 10.042052,0.0544356976 6.41969834,0.943449422 C2.79734465,1.83246315 0.250341234,5.08014857 0.250341234,8.81 C0.250341234,12.5398514 2.79734465,15.7875369 6.41969834,16.6765506 C10.042052,17.5655643 13.8032169,15.8660569 15.53,12.56 C17.3694191,16.0761721 21.4876169,17.7391148 25.2528431,16.4861181 C29.0180693,15.2331215 31.3186389,11.4341334 30.6843641,7.51691189 C30.0500893,3.59969033 26.66824,0.720797128 22.7,0.72" id="Shape" fill="#FFFFFF"></path>
            <path d="M11.44,9.09 C11.44,10.9401539 9.94015391,12.44 8.09,12.44 C6.23984609,12.44 4.74,10.9401539 4.74,9.09 C4.74,7.23984609 6.23984609,5.74 8.09,5.74 C9.94015391,5.74 11.44,7.23984609 11.44,9.09" id="Shape" fill="#37474F"></path>
            <path d="M25.95,9.09 C25.95,10.9401539 24.4501539,12.44 22.6,12.44 C20.7498461,12.44 19.25,10.9401539 19.25,9.09 C19.25,7.23984609 20.7498461,5.74 22.6,5.74 C24.4501539,5.74 25.95,7.23984609 25.95,9.09" id="Shape" fill="#37474F"></path>
        </g>
    </g>
</svg>