<?xml version="1.0" encoding="UTF-8"?>
<svg width="36px" height="17px" viewBox="0 0 36 17" version="1.1" xmlns="http://www.w3.org/2000/svg" xmlns:xlink="http://www.w3.org/1999/xlink">
    <!-- Generator: Sketch 49.3 (51167) - http://www.bohemiancoding.com/sketch -->
    <title>Group</title>
    <desc>Created with Sketch.</desc>
    <defs></defs>
    <g id="Page-1" stroke="none" stroke-width="1" fill="none" fill-rule="evenodd">
        <g id="Group" fill-rule="nonzero">
            <g transform="translate(25.000000, 0.000000)" id="Shape">
                <path d="M7.63,0.63 C7.63,0.63 12.94,15.16 8.69,16.63 C4.44,18.1 0.89,3.52 0.89,3.52 L7.63,0.63 Z" fill="#1786C8"></path>
                <path d="M6.93,14.3 C7.34,14.91 7.48,15.53 7.25,15.68 C7.02,15.83 6.5,15.47 6.09,14.86 C5.68,14.25 5.53,13.63 5.76,13.48 C5.99,13.33 6.52,13.69 6.93,14.3" fill="#E1F3FC"></path>
                <path d="M8.85,14.65 C9.12,15.33 9.12,15.97 8.85,16.07 C8.58,16.17 8.16,15.7 7.9,15.07 C7.64,14.44 7.62,13.75 7.9,13.64 C8.18,13.53 8.59,14.01 8.9,14.7" fill="#E1F3FC"></path>
                <path d="M9.82,12.97 C9.97,13.69 9.82,14.32 9.6,14.38 C9.38,14.44 8.98,13.9 8.83,13.18 C8.68,12.46 8.78,11.83 9.06,11.77 C9.34,11.71 9.68,12.25 9.82,12.97" fill="#E1F3FC"></path>
            </g>
            <g id="Shape">
                <path d="M2.93,0.63 C2.93,0.63 -2.39,15.16 1.86,16.63 C6.11,18.1 9.66,3.52 9.66,3.52 L2.93,0.63 Z" fill="#1786C8"></path>
                <path d="M3.63,14.3 C3.22,14.91 3.07,15.53 3.3,15.68 C3.53,15.83 4.06,15.47 4.47,14.86 C4.88,14.25 5.02,13.63 4.79,13.48 C4.56,13.33 4.04,13.69 3.63,14.3" fill="#E1F3FC"></path>
                <path d="M1.7,14.65 C1.44,15.33 1.43,15.97 1.7,16.07 C1.97,16.17 2.39,15.7 2.7,15.07 C3.01,14.44 2.97,13.75 2.7,13.64 C2.43,13.53 2.01,14.01 1.7,14.7" fill="#E1F3FC"></path>
                <path d="M0.73,12.97 C0.58,13.69 0.68,14.32 0.96,14.38 C1.24,14.44 1.57,13.9 1.72,13.18 C1.87,12.46 1.77,11.83 1.5,11.77 C1.23,11.71 0.88,12.25 0.73,12.97" fill="#E1F3FC"></path>
            </g>
        </g>
    </g>
</svg>