<?xml version="1.0" encoding="UTF-8"?>
<svg width="35px" height="21px" viewBox="0 0 35 21" version="1.1" xmlns="http://www.w3.org/2000/svg" xmlns:xlink="http://www.w3.org/1999/xlink">
    <!-- Generator: Sketch 49.3 (51167) - http://www.bohemiancoding.com/sketch -->
    <title>Group</title>
    <desc>Created with Sketch.</desc>
    <defs></defs>
    <g id="Page-1" stroke="none" stroke-width="1" fill="none" fill-rule="evenodd">
        <g id="Group" fill="#F89E1B" fill-rule="nonzero">
            <path d="M11.35,9.49 C10.18,4.8 8.41,1.07 7.09,0.33 C6.95089801,0.184639666 6.76100781,0.0986516502 6.56,0.09 C6.4125369,0.0953177814 6.26991877,0.144016655 6.15,0.23 C4.82,0.66 2.91,4.54 1.68,9.49 C0.32,14.95 0.3,19.64 1.62,19.97 C2.42,20.17 3.53,18.75 4.62,16.39 C5.07,18.86 5.79,20.46 6.62,20.46 C7.45,20.46 8.12,18.92 8.57,16.53 C9.57,18.8 10.68,20.17 11.46,19.97 C12.75,19.64 12.73,14.95 11.35,9.49 Z" id="Shape"></path>
            <path d="M33.6,9.49 C32.43,4.8 30.66,1.07 29.34,0.33 C29.200898,0.184639666 29.0110078,0.0986516502 28.81,0.09 C28.6622012,0.0934667558 28.5190522,0.142346899 28.4,0.23 C27.07,0.66 25.16,4.54 23.93,9.49 C22.57,14.95 22.55,19.64 23.87,19.97 C24.67,20.17 25.78,18.75 26.87,16.39 C27.32,18.86 28.04,20.46 28.87,20.46 C29.7,20.46 30.37,18.92 30.87,16.53 C31.87,18.8 32.98,20.17 33.76,19.97 C34.98,19.64 34.96,14.95 33.6,9.49 Z" id="Shape"></path>
        </g>
    </g>
</svg>