<?xml version="1.0" encoding="UTF-8"?>
<svg width="42px" height="20px" viewBox="0 0 42 20" version="1.1" xmlns="http://www.w3.org/2000/svg" xmlns:xlink="http://www.w3.org/1999/xlink">
    <!-- Generator: Sketch 49.3 (51167) - http://www.bohemiancoding.com/sketch -->
    <title>Group</title>
    <desc>Created with Sketch.</desc>
    <defs></defs>
    <g id="Page-1" stroke="none" stroke-width="1" fill="none" fill-rule="evenodd">
        <g id="Group" fill="#C52728" fill-rule="nonzero">
            <g id="Shape">
                <path d="M12.08,13.7 C10.802122,13.5998508 9.60431011,13.0382654 8.71,12.12 L8.07,11.54 C5.9,9.54 4.86,8.83 3.4,9.54 C2.45067325,9.99625646 1.31085362,9.60712962 0.838722763,8.66559699 C0.366591908,7.72406436 0.736526915,6.57787215 1.67,6.09 C5.67,4.09 8.67,6.84 10.67,8.65 L11.27,9.2 C11.42,9.33 11.55,9.44 11.66,9.52 L11.66,2.67 C11.66,1.60409043 12.5240904,0.74 13.59,0.74 C14.6559096,0.74 15.52,1.60409043 15.52,2.67 L15.52,9.74 C15.52,10.21 15.23,12.62 13.26,13.43 C12.8869296,13.5889284 12.4855113,13.6705728 12.08,13.67"></path>
                <path d="M30.15,13.7 C29.7444887,13.7005728 29.3430704,13.6189284 28.97,13.46 C26.97,12.65 26.74,10.24 26.71,9.77 L26.71,2.7 C26.71,1.63409043 27.5740904,0.77 28.64,0.77 C29.7059096,0.77 30.57,1.63409043 30.57,2.7 L30.57,9.55 C30.68,9.47 30.81,9.36 30.96,9.23 L31.56,8.68 C33.56,6.87 36.56,4.13 40.56,6.12 C41.4934731,6.60787215 41.8634081,7.75406436 41.3912772,8.69559699 C40.9191464,9.63712962 39.7793268,10.0262565 38.83,9.57 C37.36,8.83 36.33,9.57 34.16,11.57 L33.51,12.15 C32.6203881,13.0691176 31.4253053,13.6310911 30.15,13.73"></path>
            </g>
            <path d="M18.48,19.8 C17.9707823,19.8026591 17.4813652,19.6029197 17.1194185,19.2447238 C16.7574717,18.8865278 16.5526453,18.3992178 16.55,17.89 L16.55,2.96 C16.55,1.89409043 17.4140904,1.03 18.48,1.03 C19.5459096,1.03 20.41,1.89409043 20.41,2.96 L20.41,17.89 C20.41,18.9559096 19.5459096,19.82 18.48,19.82" id="Shape"></path>
            <path d="M23.75,19.8 C22.6840904,19.8 21.82,18.9359096 21.82,17.87 L21.82,2.96 C21.82,1.89409043 22.6840904,1.03 23.75,1.03 C24.8159096,1.03 25.68,1.89409043 25.68,2.96 L25.68,17.89 C25.6826773,18.4026839 25.4801984,18.895144 25.1176712,19.2576712 C24.755144,19.6201984 24.2626839,19.8226773 23.75,19.82" id="Shape"></path>
        </g>
    </g>
</svg>