<?xml version="1.0" encoding="UTF-8"?>
<svg width="46px" height="15px" viewBox="0 0 46 15" version="1.1" xmlns="http://www.w3.org/2000/svg" xmlns:xlink="http://www.w3.org/1999/xlink">
    <!-- Generator: Sketch 49.3 (51167) - http://www.bohemiancoding.com/sketch -->
    <title>Group</title>
    <desc>Created with Sketch.</desc>
    <defs></defs>
    <g id="Page-1" stroke="none" stroke-width="1" fill="none" fill-rule="evenodd">
        <g id="Group" fill="#5E6BB1" fill-rule="nonzero">
            <path d="M6.45,0.89 C8.20920403,4.39205551 10.973949,7.28911821 14.39,9.21 C16.47,10.53 0.02,11.67 0.58,13.37 C1.14,15.07 18.36,14.13 20.06,12.61 C21.76,11.09 17.42,6.18 17.79,4.67 C18.16,3.16 6.45,0.89 6.45,0.89 Z" id="Shape"></path>
            <path d="M40.12,0.89 C38.3591393,4.39418135 35.5905118,7.2916632 32.17,9.21 C30.09,10.53 46.55,11.67 45.98,13.37 C45.41,15.07 28.2,14.13 26.5,12.61 C24.8,11.09 29.15,6.18 28.77,4.67 C28.39,3.16 40.12,0.89 40.12,0.89 Z" id="Shape"></path>
        </g>
    </g>
</svg>