<?xml version="1.0" encoding="UTF-8"?>
<svg width="40px" height="16px" viewBox="0 0 40 16" version="1.1" xmlns="http://www.w3.org/2000/svg" xmlns:xlink="http://www.w3.org/1999/xlink">
    <!-- Generator: Sketch 49.3 (51167) - http://www.bohemiancoding.com/sketch -->
    <title>Group</title>
    <desc>Created with Sketch.</desc>
    <defs></defs>
    <g id="Page-1" stroke="none" stroke-width="1" fill="none" fill-rule="evenodd">
        <g id="Group" fill="#439F47" fill-rule="nonzero">
            <path d="M0.91,2.3 C2.10665148,5.51044177 3.53024694,8.63165809 5.17,11.64 C5.31,11.64 0.78,12.87 0.64,14.11 C0.5,15.35 8.74,15.48 10.26,14.39 C11.63,12.74 12.18,7.52 12.18,7.52 C12.18,7.52 13.18,0.24 5.72,0.1 C5.72,0.1 1.88,-0.25 0.91,2.3 Z" id="Shape"></path>
            <path d="M39.08,2.5 C37.8854624,5.71131609 36.4617991,8.83268112 34.82,11.84 C34.68,11.84 39.21,13.08 39.35,14.32 C39.49,15.56 31.25,15.69 29.73,14.59 C28.36,12.94 27.81,7.72 27.81,7.72 C27.81,7.72 26.81,0.44 34.27,0.3 C34.27,0.3 38.11,-0.04 39.08,2.5 Z" id="Shape"></path>
        </g>
    </g>
</svg>