<?xml version="1.0" encoding="UTF-8"?>
<svg width="35px" height="30px" viewBox="0 0 35 30" version="1.1" xmlns="http://www.w3.org/2000/svg" xmlns:xlink="http://www.w3.org/1999/xlink">
    <!-- Generator: Sketch 49.3 (51167) - http://www.bohemiancoding.com/sketch -->
    <title>Group</title>
    <desc>Created with Sketch.</desc>
    <defs></defs>
    <g id="Page-1" stroke="none" stroke-width="1" fill="none" fill-rule="evenodd">
        <g id="Group" fill="#FFCA27" fill-rule="nonzero">
            <path d="M1.83,2.29 C1.83,2.29 -2.02,13.82 1.83,17.19 C5.68,20.56 8.07,18.63 8.07,18.63 C8.07,18.63 8.55,31.12 11.92,29.2 C15.29,27.28 15.28,15.74 13.36,14.3 C11.44,12.86 6.15,15.3 5.19,12.38 C4.23,9.46 6.19,3.73 6.19,3.73 C6.19,3.73 7.39,0.85 4.27,0.37 C3.6824118,0.237408156 3.06635907,0.376708445 2.59297985,0.749203564 C2.11960064,1.12169868 1.83932027,1.68770968 1.83,2.29 Z" id="Shape"></path>
            <path d="M32.65,2.29 C32.65,2.29 36.49,13.82 32.65,17.19 C28.81,20.56 26.4,18.63 26.4,18.63 C26.4,18.63 25.92,31.12 22.56,29.2 C19.2,27.28 19.19,15.74 21.12,14.3 C23.05,12.86 28.32,15.3 29.28,12.38 C30.24,9.46 28.28,3.73 28.28,3.73 C28.28,3.73 27.08,0.85 30.21,0.37 C30.7975882,0.237408156 31.4136409,0.376708445 31.8870201,0.749203564 C32.3603994,1.12169868 32.6406797,1.68770968 32.65,2.29 Z" id="Shape"></path>
        </g>
    </g>
</svg>