<?xml version="1.0" encoding="UTF-8"?>
<svg width="29px" height="36px" viewBox="0 0 29 36" version="1.1" xmlns="http://www.w3.org/2000/svg" xmlns:xlink="http://www.w3.org/1999/xlink">
    <!-- Generator: Sketch 49.3 (51167) - http://www.bohemiancoding.com/sketch -->
    <title>Group</title>
    <desc>Created with Sketch.</desc>
    <defs></defs>
    <g id="Page-1" stroke="none" stroke-width="1" fill="none" fill-rule="evenodd">
        <g id="Group" fill="#F05F6A" fill-rule="nonzero">
            <path d="M10.18,19.81 C11.1179102,19.2085984 11.6335663,18.12729 11.5105275,17.0199414 C11.3874888,15.9125928 10.6470494,14.9708505 9.6,14.59 L8.01,0.18 L5.67,0.81 L7.02,14.89 C6.09482101,15.4830193 5.57926023,16.5438751 5.68464143,17.637732 C5.79002263,18.7315889 6.4986255,19.6745099 7.52,20.08 L8.64,31.78 C8.64,31.78 2.07,34.28 0.82,35.53 C2.39,36.16 11.77,34.28 11.77,34.28 L10.18,19.81 Z" id="Shape"></path>
            <path d="M20.78,31.89 L21.16,20.08 C22.2492078,19.6514861 22.9788857,18.6158415 23.0158524,17.4459563 C23.052819,16.2760711 22.3899811,15.1964251 21.33,14.7 L21.78,0.81 L19.4,0.34 L18.74,14.75 C17.8141006,15.231259 17.2140311,16.1686369 17.1645924,17.2109688 C17.1151537,18.2533007 17.6238077,19.2432663 18.5,19.81 L17.81,34.59 C17.81,34.59 27.29,35.87 28.81,35.14 C27.49,33.96 20.78,31.89 20.78,31.89 Z" id="Shape"></path>
        </g>
    </g>
</svg>