<?xml version="1.0" encoding="UTF-8"?>
<svg width="34px" height="14px" viewBox="0 0 34 14" version="1.1" xmlns="http://www.w3.org/2000/svg" xmlns:xlink="http://www.w3.org/1999/xlink">
    <!-- Generator: Sketch 49.3 (51167) - http://www.bohemiancoding.com/sketch -->
    <title>Group</title>
    <desc>Created with Sketch.</desc>
    <defs></defs>
    <g id="Page-1" stroke="none" stroke-width="1" fill="none" fill-rule="evenodd">
        <g id="Group" fill="#D57728" fill-rule="nonzero">
            <path d="M0.12,0.7 C0.12,0.7 1.54,9.27 2.12,10.41 C1.7791671,11.3461994 1.49203372,12.3010848 1.26,13.27 C1.26,13.27 6.4,14.99 8.69,11.84 C11.12,9.41 10.4,2.7 10.4,2.7 C7.58351017,0.230773018 3.65680207,-0.533177974 0.12,0.7 Z" id="Shape"></path>
            <path d="M33.08,0.7 C33.08,0.7 31.65,9.27 31.08,10.41 C31.4161592,11.347745 31.7032153,12.3023732 31.94,13.27 C31.94,13.27 26.79,14.99 24.5,11.84 C22.08,9.41 22.79,2.7 22.79,2.7 C25.6096041,0.22902144 29.5401039,-0.5349241 33.08,0.7 Z" id="Shape"></path>
        </g>
    </g>
</svg>