<?xml version="1.0" encoding="UTF-8"?>
<svg width="22px" height="31px" viewBox="0 0 22 31" version="1.1" xmlns="http://www.w3.org/2000/svg" xmlns:xlink="http://www.w3.org/1999/xlink">
    <!-- Generator: Sketch 49.3 (51167) - http://www.bohemiancoding.com/sketch -->
    <title>Group</title>
    <desc>Created with Sketch.</desc>
    <defs></defs>
    <g id="Page-1" stroke="none" stroke-width="1" fill="none" fill-rule="evenodd">
        <g id="Group" fill-rule="nonzero">
            <path d="M10.4,30.95 C21.17,30.95 21.17,23.34 21.17,23.34 L21.17,3.7 C21.17,0.7 19.27,0.53 19.27,0.53 L2.58,0.53 C2.58,0.53 0.68,0.69 0.68,3.7 L0.68,23.34 C0.68,23.34 0.68,30.95 11.45,30.95 L10.4,30.95 Z" id="Shape" fill="#33429A"></path>
            <path d="M6.2,0.53 L15.35,0.53 C15.35,0.53 15.56,5.01 12.66,4.8 C10.21,4.63 10.76,1.89 10.76,1.89 C10.76,1.89 10.6,4.8 8.49,4.8 C5.99,4.8 6.16,0.53 6.16,0.53" id="Shape" fill="#FFFFFF"></path>
            <path d="M13.07,26.79 C11.42,26.79 10.96,28.57 10.84,29.34 C10.9694925,28.7378003 10.8293743,28.1090831 10.4564206,27.6188604 C10.0834669,27.1286377 9.51492005,26.8258623 8.9,26.79 C6.83,26.64 6.34,28.87 6.23,30.17 C9.1905226,31.1686429 12.3924506,31.1966685 15.37,30.25 C15.29,29.01 14.88,26.79 13.07,26.79" id="Shape" fill="#FFFFFF"></path>
        </g>
    </g>
</svg>