<?xml version="1.0" encoding="UTF-8"?>
<svg width="30px" height="18px" viewBox="0 0 30 18" version="1.1" xmlns="http://www.w3.org/2000/svg" xmlns:xlink="http://www.w3.org/1999/xlink">
    <!-- Generator: Sketch 49.3 (51167) - http://www.bohemiancoding.com/sketch -->
    <title>Group</title>
    <desc>Created with Sketch.</desc>
    <defs></defs>
    <g id="Page-1" stroke="none" stroke-width="1" fill="none" fill-rule="evenodd">
        <g id="Group" fill-rule="nonzero">
            <path d="M0.43,12.47 C0.43,5.93 7.06,0.63 15.23,0.63 C23.4,0.63 30.02,5.93 30.02,12.47 C30.02,19.01 23.4,16.89 15.23,16.89 C7.06,16.89 0.43,18.99 0.43,12.45" id="Shape" fill="#D81B60"></path>
            <path d="M26.73,16.97 C26.05,14.84 24.65,11.06 23.1,10.29 C21.55,9.52 21.88,13.99 22.19,17.19 C23.7065983,17.3054135 25.2316667,17.2315115 26.73,16.97" id="Shape" fill="#FCEAED"></path>
            <path d="M8.77,17.17 C9.08,13.97 9.26,9.59 7.86,10.29 C6.29,11.07 4.86,14.95 4.19,17.06 C5.70928888,17.2478129 7.2434465,17.2846595 8.77,17.17" id="Shape" fill="#FCEAED"></path>
        </g>
    </g>
</svg>