<?xml version="1.0" encoding="UTF-8"?>
<svg width="27px" height="27px" viewBox="0 0 27 27" version="1.1" xmlns="http://www.w3.org/2000/svg" xmlns:xlink="http://www.w3.org/1999/xlink">
    <!-- Generator: Sketch 49.3 (51167) - http://www.bohemiancoding.com/sketch -->
    <title>Group</title>
    <desc>Created with Sketch.</desc>
    <defs></defs>
    <g id="Page-1" stroke="none" stroke-width="1" fill="none" fill-rule="evenodd">
        <g id="Group" fill-rule="nonzero">
            <path d="M27.01,13.82 C27.0099985,19.1355436 23.8074572,23.9274958 18.8961479,25.9607308 C13.9848386,27.9939658 8.33230655,26.8679292 4.57508069,23.1078417 C0.817854829,19.3477543 -0.303878113,13.6943667 1.73309541,8.78460674 C3.77006893,3.87484682 8.56445796,0.675954685 13.88,0.68 C21.1331161,0.685519877 27.0100021,6.56688184 27.01,13.82" id="Shape" fill="#F89E1B"></path>
            <path d="M19.66,13.82 C19.66,16.1577918 18.2517482,18.2653895 16.0919102,19.1600237 C13.9320723,20.0546579 11.4459912,19.5601456 9.7929228,17.9070772 C8.13985439,16.2540088 7.64534212,13.7679277 8.5399763,11.6080898 C9.43461048,9.44825179 11.5422082,8.04 13.88,8.04 C17.0722059,8.04 19.66,10.6277941 19.66,13.82" id="Shape" fill="#E35325"></path>
        </g>
    </g>
</svg>