<?xml version="1.0" encoding="UTF-8"?>
<svg width="32px" height="18px" viewBox="0 0 32 18" version="1.1" xmlns="http://www.w3.org/2000/svg" xmlns:xlink="http://www.w3.org/1999/xlink">
    <!-- Generator: Sketch 49.3 (51167) - http://www.bohemiancoding.com/sketch -->
    <title>Group</title>
    <desc>Created with Sketch.</desc>
    <defs></defs>
    <g id="Page-1" stroke="none" stroke-width="1" fill="none" fill-rule="evenodd">
        <g id="Group" fill-rule="nonzero">
            <path d="M31.84,5.4 C31.84,12.4 24.84,17.98 16.12,17.98 C7.4,17.98 0.4,12.35 0.4,5.4 C0.4,-1.55 7.4,0.68 16.12,0.68 C24.84,0.68 31.84,-1.55 31.84,5.4" id="Shape" fill="#783192"></path>
            <path d="M3.89,0.62 C4.62,2.88 6.11,6.9 7.75,7.72 C9.24,8.46 9.05,3.78 8.75,0.38 C7.13626317,0.260517448 5.5139429,0.341129635 3.92,0.62" id="Shape" fill="#FCEAED"></path>
            <path d="M22.98,0.41 C22.66,3.81 22.47,8.46 23.98,7.72 C25.65,6.89 27.16,2.72 27.87,0.52 C26.2576718,0.322043388 24.6296335,0.285194786 23.01,0.41" id="Shape" fill="#FCEAED"></path>
        </g>
    </g>
</svg>