<?xml version="1.0" encoding="UTF-8"?>
<svg width="35px" height="16px" viewBox="0 0 35 16" version="1.1" xmlns="http://www.w3.org/2000/svg" xmlns:xlink="http://www.w3.org/1999/xlink">
    <!-- Generator: Sketch 49.3 (51167) - http://www.bohemiancoding.com/sketch -->
    <title>Group</title>
    <desc>Created with Sketch.</desc>
    <defs></defs>
    <g id="Page-1" stroke="none" stroke-width="1" fill="none" fill-rule="evenodd">
        <g id="Group" fill-rule="nonzero">
            <path d="M7.87,10.44 C7.87,10.44 17.72,20.94 26.58,10.44 L7.87,10.44 Z" id="Shape" fill="#DB8C18"></path>
            <path d="M19.76,11.42 C19.76,11.42 31.9,12.42 34.53,7.81 C37.16,3.2 18.45,0.27 18.45,0.27 L16.45,0.27 C16.45,0.27 -2.25,3.27 0.38,7.81 C3.01,12.35 15.14,11.42 15.14,11.42 L19.76,11.42 Z" id="Shape" fill="#F89E1B"></path>
            <path d="M14.65,3.22 C14.65,3.77228475 14.2022847,4.22 13.65,4.22 C13.0977153,4.22 12.65,3.77228475 12.65,3.22 C12.65,2.66771525 13.0977153,2.22 13.65,2.22 C14.2022847,2.22 14.65,2.66771525 14.65,3.22 Z" id="Shape" fill="#DB8C18"></path>
            <path d="M21.44,3.22 C21.44,3.77228475 20.9922847,4.22 20.44,4.22 C19.8877153,4.22 19.44,3.77228475 19.44,3.22 C19.44,2.66771525 19.8877153,2.22 20.44,2.22 C20.9922847,2.22 21.44,2.66771525 21.44,3.22 Z" id="Shape" fill="#DB8C18"></path>
        </g>
    </g>
</svg>