<?xml version="1.0" encoding="UTF-8"?>
<svg width="34px" height="14px" viewBox="0 0 34 14" version="1.1" xmlns="http://www.w3.org/2000/svg" xmlns:xlink="http://www.w3.org/1999/xlink">
    <!-- Generator: Sketch 49.3 (51167) - http://www.bohemiancoding.com/sketch -->
    <title>Group</title>
    <desc>Created with Sketch.</desc>
    <defs></defs>
    <g id="Page-1" stroke="none" stroke-width="1" fill="none" fill-rule="evenodd">
        <g id="Group" fill-rule="nonzero">
            <path d="M33.44,7.04 C33.44,10.5470082 30.5970082,13.39 27.09,13.39 L6.64,13.39 C4.95414334,13.3926549 3.33642578,12.7248112 2.14340608,11.5336673 C0.950386384,10.3425234 0.27999791,8.72585875 0.28,7.04 C0.28,5.35322312 0.950069505,3.73553224 2.14280087,2.54280087 C3.33553224,1.3500695 4.95322312,0.68 6.64,0.68 L27.09,0.68 C28.7758588,0.67999791 30.3925234,1.35038638 31.5836673,2.54340608 C32.7748112,3.73642578 33.4426549,5.35414334 33.44,7.04 Z" id="Shape" fill="#C52728"></path>
            <path d="M6.64,0.68 C6.37219903,0.679721557 6.10476353,0.69977922 5.84,0.74 C5.68733404,1.05116876 5.60862066,1.39340082 5.61,1.74 C5.5998106,3.24476185 6.55259314,4.5876139 7.97626759,5.07501837 C9.39994205,5.56242284 10.9758145,5.08527274 11.89,3.89 C12.5529045,4.75575497 13.5796088,5.26541391 14.67,5.27 C15.5102694,5.26562324 16.3204062,4.95649212 16.95,4.4 C17.6729023,5.0405806 18.6306581,5.34983012 19.5916728,5.25296896 C20.5526874,5.1561078 21.4294679,4.66195442 22.01,3.89 C22.9196182,5.0909531 24.4956818,5.57508247 25.9226361,5.09186902 C27.3495903,4.60865558 28.3072252,3.26653292 28.3,1.76 C28.3030824,1.41433443 28.2278692,1.0724562 28.08,0.76 C27.7495432,0.703818059 27.4151779,0.673725189 27.08,0.67 L6.64,0.68 Z" id="Shape" fill="#FCEAED"></path>
            <path d="M27.27,13.21 C27.5374028,13.2086274 27.8045073,13.1919333 28.07,13.16 C28.2200244,12.8478996 28.2985962,12.5062832 28.3,12.16 C28.302898,10.6553112 27.3437517,9.31716013 25.9178707,8.83657702 C24.4919897,8.35599392 22.9185152,8.84054305 22.01,10.04 C21.4328385,9.26396769 20.5564477,8.76582437 19.594384,8.66695616 C18.6323202,8.56808795 17.6729319,8.87757413 16.95,9.52 C16.2270681,8.87757413 15.2676798,8.56808795 14.305616,8.66695616 C13.3435523,8.76582437 12.4671615,9.26396769 11.89,10.04 C10.9853389,8.83608661 9.41047821,8.34822538 7.98365747,8.82989098 C6.55683672,9.31155658 5.59988537,10.654106 5.61,12.16 C5.6095919,12.5053817 5.68467732,12.8466791 5.83,13.16 C6.16131081,13.2077455 6.49531231,13.2344656 6.83,13.24 L27.27,13.21 Z" id="Shape" fill="#FCEAED"></path>
        </g>
    </g>
</svg>