<?xml version="1.0" encoding="UTF-8"?>
<svg width="37px" height="11px" viewBox="0 0 37 11" version="1.1" xmlns="http://www.w3.org/2000/svg" xmlns:xlink="http://www.w3.org/1999/xlink">
    <!-- Generator: Sketch 49.3 (51167) - http://www.bohemiancoding.com/sketch -->
    <title>Group</title>
    <desc>Created with Sketch.</desc>
    <defs></defs>
    <g id="Page-1" stroke="none" stroke-width="1" fill="none" fill-rule="evenodd">
        <g id="Group" fill-rule="nonzero">
            <path d="M3.45,8.03 C3.45,8.03 0.54,1.95 3.72,0.62 C6.9,-0.71 9.01,5.12 9.01,5.12 L3.45,8.03 Z" id="Shape" fill="#FCEAED"></path>
            <path d="M33.97,8.03 C33.97,8.03 36.88,1.95 33.7,0.62 C30.52,-0.71 28.42,5.12 28.42,5.12 L33.97,8.03 Z" id="Shape" fill="#FCEAED"></path>
            <path d="M34.76,10.66 C29.3891008,7.68671671 23.3682706,6.0827648 17.23,5.99 C12.1111487,5.90723878 7.07122266,7.2581468 2.68,9.89 L2.47,10.04 C2.15353788,10.2707883 1.75805806,10.3657392 1.37131121,10.3037846 C0.984564362,10.24183 0.63853445,10.0280935 0.41,9.71 C0.178179658,9.39476866 0.0816065066,9.00012057 0.141669778,8.61346327 C0.201733049,8.22680596 0.413475517,7.88005156 0.73,7.65 C0.88,7.54 7.05,3.05 17.23,3.05 C23.847899,3.14135173 30.3418347,4.85841564 36.14,8.05 C36.8592181,8.43461719 37.1355484,9.32600519 36.76,10.05 C36.5021585,10.5345048 35.9988381,10.8380338 35.45,10.84 C35.2099843,10.8371721 34.9738584,10.7789961 34.76,10.67 L34.76,10.66 Z" id="Shape" fill="#3F4DA0"></path>
        </g>
    </g>
</svg>