<svg id="Layer_1" data-name="Layer 1" xmlns="http://www.w3.org/2000/svg" width="167" height="170.57" viewBox="0 0 167 170.57">
  <defs>
    <style>
      .cls-1 {
        fill: #345ee2;
      }

      .cls-2 {
        fill: #49ea64;
      }

      .cls-3 {
        fill: #34c1d6;
      }

      .cls-4 {
        fill: #439f47;
      }

      .cls-5 {
        fill: #be1e2d;
      }

      .cls-6 {
        fill: #e53a34;
      }

      .cls-7 {
        fill: #f6b819;
      }

      .cls-8 {
        fill: #9a509e;
      }

      .cls-9 {
        fill: #d57728;
      }

      .cls-10 {
        fill: #cc34e2;
      }
    </style>
  </defs>
  <g id="body_9">
    <path class="cls-1" d="M167,17.25c0,8.81-7.15,17.6-16,17.6s-16-8.79-16-17.6S142.66,4,151.47,4,167,8.43,167,17.25"/>
  </g>
  <g id="body_8">
    <path class="cls-2" d="M0,22.54C0,13.72,7.15,2.18,16,2.18S32,13.72,32,22.54,24.42,35.76,15.6,35.76,0,31.35,0,22.54"/>
  </g>
  <g id="body_7">
    <path class="cls-3" d="M96.46,22.23c-.1,12.22-5.44,12.11-12,12.06s-12,0-11.87-12.29S78.11,0,84.7,0,96.56,10,96.46,22.23Z"/>
  </g>
  <g id="body_6">
    <path class="cls-4" d="M19.83,68s6.94.41,7.08,9.12S26.3,95.56,28.19,98.2s1.21,4.45-1.08,4.66-4.1-2.43-6.54-1.22-2.13,1-3.4,1.23H15c-1.27-.19-1,0-3.4-1.23s-4.25,1.42-6.54,1.22-3-2-1.08-4.66S5.15,85.85,5.29,77.13,12.37,68,12.37,68s3.73-3.24,7.46,0"/>
  </g>
  <g id="body_5">
    <path class="cls-5" d="M73.61,90.35s1.32,10.56,9.91,12.54S95.85,92.39,95.4,90.35C94.08,84.4,77.57,83.74,73.61,90.35Z"/>
    <path class="cls-6" d="M67.59,87.15c0-7.77,7.71-17.93,17.21-17.93S102,79.38,102,87.15s-8.18,3.46-17.68,3.46-16.74,4.3-16.74-3.46"/>
  </g>
  <g id="body_4">
    <ellipse class="cls-7" cx="151.6" cy="84.68" rx="14.7" ry="17.92"/>
  </g>
  <g id="body_3">
    <path class="cls-8" d="M27.3,166.92v-16.8a11.69,11.69,0,0,0-23.37,0v16.8Z"/>
  </g>
  <g id="body_2">
    <path class="cls-9" d="M89.06,164.12c0,6.53-2.9,6.47-6.42,6.44s-6.37,0-6.32-6.54,2.94-11.8,6.46-11.77S89.11,157.59,89.06,164.12Z"/>
    <ellipse class="cls-9" cx="82.69" cy="146.4" rx="14.7" ry="11.64"/>
  </g>
  <g id="body_1">
    <path class="cls-10" d="M159.72,165.66l-3-9.06-5.1.37-5.09-.37-3,9.06s1.46,4,7.92,4.85v.06h.38v-.06C158.25,169.65,159.72,165.66,159.72,165.66Z"/>
    <rect class="cls-10" x="138.13" y="135.68" width="26.34" height="22.66" rx="7.04"/>
  </g>
</svg>
