<svg id="Layer_1" data-name="Layer 1" xmlns="http://www.w3.org/2000/svg" width="168.5" height="162.81" viewBox="0 0 168.5 162.81">
  <defs>
    <style>
      .cls-1 {
        fill: #c52728;
      }

      .cls-2 {
        fill: #fceaed;
      }

      .cls-3 {
        fill: #3f4da0;
      }

      .cls-4 {
        fill: #783192;
      }

      .cls-5 {
        fill: #33429a;
      }

      .cls-6 {
        fill: #fff;
      }

      .cls-7 {
        fill: #f48fb1;
      }

      .cls-8 {
        fill: #881a51;
      }

      .cls-9 {
        fill: #d81b60;
      }

      .cls-10 {
        fill: #f89e1b;
      }

      .cls-11 {
        fill: #e35325;
      }

      .cls-12 {
        fill: #db8c18;
      }
    </style>
  </defs>
  <g id="mouth_9">
    <path class="cls-1" d="M29.2,13.84c0,7.64-6.2,8.81-13.84,8.81S1.52,21.48,1.52,13.84a13.84,13.84,0,0,1,27.68,0" transform="translate(0 0)"/>
    <path class="cls-2" d="M21.65,7.83a4.73,4.73,0,0,0,2.86-4.35A13.79,13.79,0,0,0,6.28,3.41c.2,2.21,1,4.87,3.63,4.7a5.15,5.15,0,0,0,5-4.19s1.4,6.15,6.71,3.91" transform="translate(0 0)"/>
  </g>
  <g id="mouth_8">
    <path class="cls-2" d="M69.17,15.88s-2.91-6.09.27-7.41S74.73,13,74.73,13Z" transform="translate(0 0)"/>
    <path class="cls-2" d="M99.69,15.88s2.91-6.09-.27-7.41S94.14,13,94.14,13Z" transform="translate(0 0)"/>
    <path class="cls-3" d="M100.48,18.5A37.31,37.31,0,0,0,83,13.83h0a27.39,27.39,0,0,0-14.6,3.89h0l-.21.14h0a1.48,1.48,0,0,1-2.06-.31h0a1.48,1.48,0,0,1,.32-2.07h0c.15-.1,6.32-4.59,16.5-4.6h0a40.37,40.37,0,0,1,18.91,5h0a1.47,1.47,0,0,1,.63,2v0h0a1.47,1.47,0,0,1-1.31.79h0a1.5,1.5,0,0,1-.69-.17Z" transform="translate(0 0)"/>
  </g>
  <g id="mouth_7">
    <path class="cls-4" d="M165.56,8.25c0,6.94-7,12.58-15.72,12.58s-15.72-5.64-15.72-12.58,7-4.72,15.72-4.72,15.72-2.23,15.72,4.72" transform="translate(0 0)"/>
    <path class="cls-2" d="M137.61,3.47c.73,2.26,2.22,6.27,3.86,7.09s1.3-3.93,1-7.33a19.54,19.54,0,0,0-4.83.24" transform="translate(0 0)"/>
    <path class="cls-2" d="M156.7,3.25c-.32,3.4-.51,8.06,1,7.31,1.67-.83,3.18-4.95,3.89-7.19a23.22,23.22,0,0,0-4.86-.12" transform="translate(0 0)"/>
  </g>
  <g id="mouth_6">
    <path class="cls-1" d="M33.16,79.88a6.35,6.35,0,0,1-6.34,6.36H6.36A6.36,6.36,0,0,1,0,79.88H0a6.35,6.35,0,0,1,6.35-6.35H26.81A6.35,6.35,0,0,1,33.16,79.88Z" transform="translate(0 0)"/>
    <path class="cls-2" d="M6.36,73.53a5.34,5.34,0,0,0-.8,0,2.29,2.29,0,0,0-.23,1,3.5,3.5,0,0,0,6.28,2.12,3.46,3.46,0,0,0,4.86.68,1.56,1.56,0,0,0,.2-.16,3.48,3.48,0,0,0,4.9-.32l.16-.2a3.49,3.49,0,0,0,6.27-2,2.28,2.28,0,0,0-.22-1,6.74,6.74,0,0,0-1-.08Z" transform="translate(0 0)"/>
    <path class="cls-2" d="M27,86.06a5.39,5.39,0,0,0,.8-.06,2.29,2.29,0,0,0,.2-1,3.5,3.5,0,0,0-6.29-2.13A3.51,3.51,0,0,0,19,81.45a3.46,3.46,0,0,0-2.29.87,3.43,3.43,0,0,0-2.28-.87,3.49,3.49,0,0,0-2.78,1.38A3.5,3.5,0,0,0,5.33,85a2.28,2.28,0,0,0,.22,1,5.55,5.55,0,0,0,1,.09Z" transform="translate(0 0)"/>
  </g>
  <g id="mouth_5">
    <path class="cls-5" d="M83.12,96.8c10.77,0,10.77-7.61,10.77-7.61V69.55c0-3-1.9-3.17-1.9-3.17H75.3s-1.9.16-1.9,3.17V89.19s0,7.61,10.77,7.61Z" transform="translate(0 0)"/>
    <path class="cls-6" d="M78.92,66.38h9.19s.21,4.48-2.69,4.27c-2.45-.18-1.9-2.91-1.9-2.91s-.16,2.91-2.27,2.91c-2.5,0-2.33-4.27-2.33-4.27" transform="translate(0 0)"/>
    <path class="cls-6" d="M85.79,92.64c-1.65,0-2.11,1.78-2.23,2.55a2.12,2.12,0,0,0-1.62-2.51l-.32,0C79.55,92.49,79.06,94.72,79,96a15.26,15.26,0,0,0,4.69.77,15.59,15.59,0,0,0,4.45-.68c-.08-1.24-.49-3.46-2.3-3.46" transform="translate(0 0)"/>
  </g>
  <g id="mouth_4">
    <path class="cls-7" d="M165.29,81.54c-11.91-5.9-23.51-3.54-30.1-1.19a16.25,16.25,0,0,0,30.1,1.19Z" transform="translate(0 0)"/>
    <path class="cls-8" d="M165.29,81.54a26,26,0,0,0,1.36-6.41c0-8.82-7.24-4.84-16.17-4.84s-16.18-4-16.18,4.84a15.73,15.73,0,0,0,.89,5.22C141.78,78,153.38,75.64,165.29,81.54Z" transform="translate(0 0)"/>
    <path class="cls-6" d="M137.27,69.66c.09,2,.4,5.36,1.44,6.3.9.74,1.64.44,1.64-.3,0-.51.49-3.91.9-6.18A11.1,11.1,0,0,0,137.27,69.66Z" transform="translate(0 0)"/>
    <path class="cls-6" d="M163.73,69.66c-.09,2-.41,5.36-1.45,6.3-.89.74-1.63.44-1.63-.3,0-.51-.5-3.91-.9-6.18A11.1,11.1,0,0,1,163.73,69.66Z" transform="translate(0 0)"/>
  </g>
  <g id="mouth_3">
    <path class="cls-9" d="M.15,152.32c0-6.54,6.63-11.84,14.8-11.84s14.79,5.3,14.79,11.84-6.62,4.43-14.79,4.43-14.8,2.1-14.8-4.43" transform="translate(0 0)"/>
    <path class="cls-2" d="M26.45,156.82c-.68-2.13-2.08-5.91-3.63-6.68-1.4-.7-1.22,3.7-.91,6.9a18.17,18.17,0,0,0,4.54-.22" transform="translate(0 0)"/>
    <path class="cls-2" d="M8.49,157c.31-3.2.49-7.58-.91-6.88-1.57.78-3,4.66-3.67,6.77a23.36,23.36,0,0,0,4.58.11" transform="translate(0 0)"/>
  </g>
  <g id="mouth_2">
    <path class="cls-10" d="M95.73,149.67a13.14,13.14,0,1,1-13.14-13.14h0a13.13,13.13,0,0,1,13.13,13.13h0" transform="translate(0 0)"/>
    <path class="cls-11" d="M88.38,149.67a5.78,5.78,0,1,1-5.78-5.78h0a5.78,5.78,0,0,1,5.78,5.78" transform="translate(0 0)"/>
  </g>
  <g id="mouth_1">
    <path class="cls-12" d="M141.59,151.29s9.85,10.5,18.71,0Z" transform="translate(0 0)"/>
    <path class="cls-10" d="M153.48,152.27s12.14,1,14.77-3.61-16.08-7.55-16.08-7.55h-2s-18.7,3-16.07,7.55,14.76,3.61,14.76,3.61Z" transform="translate(0 0)"/>
    <path class="cls-12" d="M148.37,144.07a1,1,0,1,1-1-1A1,1,0,0,1,148.37,144.07Z" transform="translate(0 0)"/>
    <path class="cls-12" d="M155.16,144.07a1,1,0,1,1-1-1A1,1,0,0,1,155.16,144.07Z" transform="translate(0 0)"/>
  </g>
</svg>
