<svg id="Layer_1" data-name="Layer 1" xmlns="http://www.w3.org/2000/svg" width="174.03" height="158.89" viewBox="0 0 174.03 158.89">
  <defs>
    <style>
      .cls-1 {
        fill: #ffca27;
      }

      .cls-2 {
        fill: #e53a34;
      }

      .cls-3 {
        fill: #db8c18;
      }

      .cls-4 {
        fill: #1786c8;
      }

      .cls-5 {
        fill: #439f47;
      }

      .cls-6 {
        fill: #f89e1b;
      }
    </style>
  </defs>
  <g id="addons_9">
    <path class="cls-1" d="M151.87,153.12l-5.51-9.65s-10.57-6-11.48-3.68,6.43,6.44,6.43,6.44-9.19-1.38-7.35,1.37,7.35,3.22,7.35,3.22-5.52,1.84-3.22,3.68S153.25,159.09,151.87,153.12Z" transform="translate(0)"/>
    <path class="cls-1" d="M155.87,153.12l5.51-9.65s10.57-6,11.49-3.68-6.43,6.44-6.43,6.44,9.18-1.38,7.35,1.37-7.35,3.22-7.35,3.22,5.51,1.84,3.21,3.68S154.49,159.09,155.87,153.12Z" transform="translate(0)"/>
  </g>
  <g id="addons_8">
    <path class="cls-2" d="M8.74,157.1a12.68,12.68,0,0,0,7.91-3.57c-1-5.62-8.17-11.49-9.7-11.75C7,144.85,8.74,157.1,8.74,157.1Z" transform="translate(0)"/>
    <path class="cls-2" d="M27.63,157.1a12.66,12.66,0,0,1-7.92-3.57c1-5.62,8.17-11.49,9.7-11.75C29.41,144.85,27.63,157.1,27.63,157.1Z" transform="translate(0)"/>
  </g>
  <g id="addons_7">
    <path class="cls-1" d="M159.22,91.55s-5.51,6-12.4,0c3.68-16.54,6-28.94,6-28.94Z" transform="translate(0)"/>
    <path class="cls-3" d="M149.68,78.26a55.13,55.13,0,0,0,5.73-3.85l-.88-4c-1.15.77-2.41,1.58-3.73,2.38C150.46,74.45,150.09,76.29,149.68,78.26Z" transform="translate(0)"/>
    <path class="cls-3" d="M147.22,89.74A53.79,53.79,0,0,0,157.31,83l-.83-3.77a91.33,91.33,0,0,1-8.07,5.1C148,86,147.64,87.86,147.22,89.74Z" transform="translate(0)"/>
  </g>
  <g id="addons_6">
    <path class="cls-4" d="M86.58,92A1.6,1.6,0,0,1,85,90.36a1.58,1.58,0,0,1,.58-1.21C87.81,87.27,89,85.64,89,84.31c.09-1.71-1.65-3.52-3.66-5.6-.85-.88-1.72-1.79-2.58-2.81-4.41-5.2-2-11.48-.07-14.08a1.62,1.62,0,0,1,2.61,1.91c-.17.23-3.91,5.54-.07,10.08.79.94,1.63,1.81,2.44,2.65,2.43,2.52,4.72,4.9,4.56,8-.12,2.32-1.58,4.59-4.61,7.14a1.59,1.59,0,0,1-1,.38" transform="translate(0)"/>
    <polygon class="cls-4" points="82.33 95.34 83.26 90.65 84.19 85.96 87.79 89.11 91.39 92.26 86.86 93.8 82.33 95.34"/>
  </g>
  <g id="addons_5">
    <path class="cls-5" d="M16.71,92.18s-11.45-2-6.91-11.71c3.4-7.26,13.14-7.1,9.83-10.06,1.78-1.21,6.27-.36,8.15,2.8s-1.65,9.45-3.37,11.14c1.37-.67,5.41-3.16,5.41-3.16s1.53,11.46-13.11,11" transform="translate(0)"/>
  </g>
  <g id="addons_4">
    <polygon class="cls-1" points="141.77 22.64 163.36 22.64 166.35 7.71 158.31 18.05 153.25 2.43 147.28 18.05 139.93 7.02 141.77 22.64"/>
    <polygon class="cls-3" points="163.36 22.64 166.35 7.71 158.31 18.05 153.25 2.43 153.25 22.64 163.36 22.64"/>
  </g>
  <g id="addons_3">
    <path class="cls-6" d="M80.09,14.75c1.57,6.31,4,11.32,5.72,12.32a1.09,1.09,0,0,0,.72.32,1,1,0,0,0,.55-.18c1.79-.58,4.36-5.8,6-12.46C94.92,7.41,95,1.1,93.17.65c-1.08-.27-2.56,1.65-4,4.82C88.59,2.15,87.62,0,86.53,0s-2,2.07-2.63,5.28C82.52,2.23,81.07.39,80,.65,78.23,1.1,78.26,7.41,80.09,14.75Z" transform="translate(0)"/>
    <path class="cls-3" d="M93.17.65c-1.08-.27-2.56,1.65-4,4.82C88.59,2.15,87.62,0,86.53,0a.86.86,0,0,0-.44.12V27.27a.86.86,0,0,0,.44.12,1,1,0,0,0,.55-.18c1.79-.58,4.36-5.8,6-12.46C94.92,7.41,95,1.1,93.17.65Z" transform="translate(0)"/>
  </g>
  <g id="addons_2">
    <path class="cls-1" d="M9.46,14.92S3.38,13.09,3.08,7C1.25,3.06-1.18,11.88.65,17S4,23.42,4,23.42Z" transform="translate(0)"/>
    <path class="cls-1" d="M24.65,14.92S30.73,13.09,31,7c1.82-3.95,4.26,4.87,2.43,10s-3.34,6.38-3.34,6.38Z" transform="translate(0)"/>
  </g>
  <g id="addons_1">
    <path class="cls-2" d="M91,158.89a7.59,7.59,0,0,1-1.07-.07,1.17,1.17,0,1,1,.34-2.32,6.73,6.73,0,0,0,5.32-1.71c1.85-1.93,2.35-5.35,1.47-10.16a1.17,1.17,0,0,1,2.3-.42c1,5.62.32,9.73-2.1,12.23A8.73,8.73,0,0,1,91,158.89Z" transform="translate(0)"/>
    <circle class="cls-1" cx="98.45" cy="144.15" r="4.32"/>
    <path class="cls-2" d="M82,158.89a8.7,8.7,0,0,1-6.25-2.45c-2.42-2.5-3.13-6.61-2.11-12.23a1.17,1.17,0,0,1,2.3.42c-.87,4.81-.38,8.23,1.47,10.16a6.7,6.7,0,0,0,5.32,1.71,1.19,1.19,0,0,1,1.33,1,1.18,1.18,0,0,1-1,1.33h0A6.28,6.28,0,0,1,82,158.89Z" transform="translate(0)"/>
    <circle class="cls-1" cx="74.55" cy="144.15" r="4.32"/>
  </g>
</svg>
